<?xml version="1.0" encoding="UTF-8"?> <svg xmlns="http://www.w3.org/2000/svg" xmlns:xlink="http://www.w3.org/1999/xlink" id="LP_Dinheiro_sem_Medo" data-name="LP Dinheiro sem Medo" width="49.577" height="41.648" version="1.1" viewBox="0 0 49.577 41.648"><defs><style> .cls-1 { clip-path: url(#clippath); } .cls-2 { fill: none; } .cls-2, .cls-3, .cls-4 { stroke-width: 0px; } .cls-3 { fill: #2d313f; } .cls-5 { clip-path: url(#clippath-1); } .cls-6 { clip-path: url(#clippath-4); } .cls-7 { clip-path: url(#clippath-3); } .cls-8 { clip-path: url(#clippath-2); } .cls-9 { clip-path: url(#clippath-5); } .cls-4 { fill: #95b2a8; } </style><clipPath id="clippath"><rect class="cls-2" x="-810.148" y="-2261.355" width="539.287" height="410.006" rx="-720.671" ry="-720.671" transform="translate(-2596.857 -1515.847) rotate(90)"></rect></clipPath><clipPath id="clippath-1"><rect class="cls-2" x="-1005.502" y="-2345.739" width="1070.725" height="602.563"></rect></clipPath><clipPath id="clippath-2"><rect class="cls-2" x="-1231.149" y="-895.444" width="1523.519" height="2002.641"></rect></clipPath><clipPath id="clippath-3"><rect class="cls-2" x="-76.196" y="-2026.711" width="539.287" height="410.006" rx="-603.35" ry="-603.35" transform="translate(-1628.261 -2015.156) rotate(90)"></rect></clipPath><clipPath id="clippath-4"><rect class="cls-2" x="-271.55" y="-2111.095" width="1070.725" height="602.563"></rect></clipPath><clipPath id="clippath-5"><rect class="cls-2" x="-497.197" y="-660.801" width="1523.519" height="2002.641"></rect></clipPath></defs><g class="cls-1"><g class="cls-5"><g class="cls-8"><image width="3024" height="3975" transform="translate(-1231.149 -895.444) scale(.504)"></image></g></g></g><g class="cls-7"><g class="cls-6"><g class="cls-9"><image width="3024" height="3975" transform="translate(-497.197 -660.801) scale(.504)"></image></g></g></g><g><path class="cls-3" d="M49.52,26.618c-.022-.078-.022-.194,0-.272.029-.102.061-.187.054-.344-.004-.101-.004-.206,0-.307.007-.166-.036-.232-.067-.344,0-.122.005-.259-.001-.392-.01-.199.025-.317.068-.424v-.82c-.022-.075-.043-.146-.064-.218q.065-.213.064-.337l-.002-.821c0-.056-.018-.113-.031-.164-.05-.211-.052-.214.002-.421.015-.057.03-.099.03-.168v-2.875c.002-.166-.036-.231-.064-.334.033-.122.067-.223.066-.42,0-2.464-.001-4.928-.002-7.396-.043-.107-.07-.226-.069-.424,0-.888.001-1.776.002-2.654.019-.06.035-.11.051-.157.019-.067.022-.208.009-.277q-.06-.309-.059-.438v-2.772c0-.227.025-.485-.058-.644.017-.075.034-.15.058-.256,0-.61,0-1.258.001-1.907,0-.043-.002-.078-.007-.109l-.035-.244c-.058-.398-.426-.673-.824-.616-.091.013-.141.042-.221.061h-.617c-.108-.042-.224-.078-.424-.068-.125.006-.127.001-.346.052-.02.005-.065.01-.07.008-.112-.048-.256-.06-.44-.06h-3.388s-1.54.001-1.54.001c-.201,0-.413.012-.542-.058-.105.004-.141.048-.219.051-.2.009-.406.008-.609.005-.035,0-.068-.012-.102-.024-.289-.103-.607.048-.71.337l-.004.011-.178.543c-.006.017-.011.035-.016.049-.033.122-.034.435-.001.556l.04.145q-.038.126-.009.363c.003.021.004.059,0,.07-.032.093-.056.185-.056.342l.003,3.593c0,.165-.036.234-.064.331l.038.145c.031.112.032.243,0,.351-.002.007-.004.015-.007.023h-.027c-.091-.062-.209-.074-.348-.011-.008.004-.061.004-.068,0-.111-.052-.268-.063-.445-.054-.165.008-.233-.035-.346-.067-.942,0-1.898.001-2.854.002-.197,0-.318-.024-.429-.07-.05.017-.099.033-.145.049-.103.031-.219.028-.35-.007-.023-.007-.048-.016-.073-.023-.048-.016-.095-.011-.146.015-.046.024-.102.034-.144.023-.054-.013-.114-.047-.143-.044-.083.009-.152.032-.233.051-.114-.03-.215-.065-.411-.065-.196,0-.295.036-.424.069-.107-.05-.244-.069-.433-.067-.156.001-.24.028-.343.056-.054.015-.128.02-.194.013-.558-.054-1.055.354-1.109.912h0s-.021.218-.021.218c-.003.028-.007.055-.014.078-.03.102-.058.187-.055.344.005.239.005.48,0,.718-.003.167.037.231.065.334-.033.121-.068.222-.066.42,0,.685.002,1.368.002,2.046.022.076.043.147.064.218q-.065.213-.064.337l.002,1.232s0,.004.001.006c-.029-.009-.057-.019-.089-.027-.121.034-.223.068-.42.066-.958,0-1.916-.002-2.867-.002-.076.022-.147.043-.218.064-.104-.03-.173-.066-.338-.065h-2.053c-.178,0-.334.005-.445.056-.007.003-.057.003-.069,0-.27-.089-.527-.079-.785.013h-.037c-.625,0-1.131.506-1.131,1.131,0,.387-.001.783-.002,1.18-.003.198.026.315.069.425-.016.051-.032.101-.048.148-.031.104-.027.212.009.35.054.203.057.238.005.421-.05.179-.038.364-.021.558.053.107.056.268.055.444l-.002,1.232c0,.117.019.182.041.258.036.126.038.246.007.349-.016.043-.032.09-.054.15.059.098.076.234.076.426,0,.01,0,.019,0,.029-.277,0-.557,0-.831,0-.119.038-.12.037-.378.011-.022-.002-.059-.002-.071.002-.092.033-.187.056-.344.055l-1.54-.003c-.166-.001-.23.038-.336.066h-.821c-.112-.034-.214-.076-.419-.067-.201.009-.409.002-.604.002-.083.024-.153.06-.235.064-.2.008-.405,0-.609-.002-.187-.097-.486-.057-.742-.061l-.592-.002c-.512-.003-.93.41-.933.922v.011l.002.3c0,.18-.014.372.059.496.019.21.025.419.007.622-.069.106-.046.304-.041.481.017.643.044,1.285.084,1.935.009.15-.021.19-.04.271.026.365.052.736.078,1.116.035.123.078.25.078.425.041.129.072.27.079.441.028.113.056.226.085.34.078.078.156.156.239.239.007-.03.015-.074.025-.106.021-.066.04-.139.031-.296-.003-.101-.005-.199-.008-.3-.006-.118.01-.168.026-.225.038-.131.038-.137.109-.09.027.018.051.023.067-.056.013-.066.028-.082.037-.024.004.028.009.046.014.067v1.333h-.221s-.006-.002-.007-.004c-.037-.036-.098-.043-.217-.044l-.817-.002c-.167.002-.25-.033-.374-.055-.399-.003-.804-.007-1.212-.01-.198-.005-.285.025-.389.057-.131-.043-.272-.069-.458-.061-.096.004-.185-.004-.281-.027-.226-.053-.239-.053-.413-.005-.16.044-.358.041-.54.01-.12-.02-.21-.056-.359-.049-.065.003-.135.003-.201-.001-.195-.013-.308.019-.406.064-.124-.042-.242-.076-.436-.069-.196.007-.4,0-.599,0-.115-.049-.246-.075-.433-.068-.19.007-.406-.018-.533.054-.007.004-.06.005-.067.001-.111-.051-.262-.057-.437-.056h-.118c-.147,0-.266.119-.266.266l.002,3.781c0,.164-.035.235-.068.349,0,1.384,0,2.785.001,4.186,0,.168-.041.225-.066.328q.065.218.065.426v1.634c-.082.162-.072.398-.059.633.002.028.014.053.023.072.043.093.036.231.037.365,0,.106-.008.188-.034.267-.011.035-.018.058-.021.079-.024.182.105.35.288.373h0s.098.013.098.013c.037.005.066-.004.136-.025.024-.008.048-.016.079-.026l.214.062c.069-.02.141-.041.213-.062.051.016.098.032.147.048.05.017.089.011.148-.013.039-.016.102-.034.157-.035h.718c.055,0,.121.018.159.034.103.042.243.027.372.032.115.004.183-.017.261-.038.134-.038.242-.04.349-.01.024.008.05.016.073.023.122.033.436.034.556.001.138-.037.294-.058.347-.039.121.042.244.064.436.064h4.004c.176,0,.336-.003.446-.055.008-.004.061-.005.068-.001.111.051.266.057.445.056l1.437-.002c.165-.001.234.035.338.065.071-.021.142-.041.219-.064h3.585c.103,0,.209-.006.307.001.199.013.302-.031.421-.065.103.027.167.067.333.066l1.129-.003c.156-.002.244.024.345.054.077.023.194.023.272.002.103-.028.184-.062.343-.055.101.004.206.004.307,0,.165-.007.235.035.348.067h2.75q.167,0,.532.066c.048.009.218-.005.278-.022l.145-.041.145.047c.05.017.092.011.147-.014.062-.028.15-.039.261-.037.132.003.254-.002.371.034.176.053.217.049.418-.005.026-.007.046-.017.074-.023.055-.012.217-.003.277.014.047.015.097.031.148.048.11-.043.227-.073.425-.069.342,0,.681.001,1.009.002.112.031.177.07.343.068l1.026-.002c.177-.002.337.002.444.055.119.008.141-.042.218-.044.238-.004.47-.007.707-.011.166-.005.233.035.337.065.071-.021.142-.042.217-.064.044.015.09.03.139.047.047.019.103.025.181.02.127-.008.262.013.379-.026.109-.037.122-.032.214-.009.051.013.104.032.16.034.135.005.274.005.41,0,.257-.007.553.036.746-.058.168-.003.334-.006.503-.009.166-.006.233.036.338.065h.597c.057.016.107.031.157.045.108.031.243.031.351,0l.15-.043h.411q.116,0,.346.051c.02.004.064.01.07.007.236-.095.564-.045.852-.057.061-.003.157,0,.185.012.207.092.501.05.756.052h2.361c.165,0,.232.037.334.065.123-.032.222-.067.42-.066,1.095,0,2.19.002,3.29.002.07.029.146.051.248.062.353.037.669-.217.709-.569l.018-.158c.006-.049.008-.108.007-.176,0-.341-.001-.681-.002-1.01.012-.036.02-.061.027-.084.054-.185.054-.231.008-.423-.012-.052-.033-.106-.034-.16v-.924c0-.055.019-.119.034-.158.023-.059.028-.094.015-.149-.052-.222-.047-.226-.052-.344-.01-.199.025-.317.068-.424v-1.231c.022-.075.043-.146.064-.215-.028-.107-.066-.172-.065-.338v-1.437c.001-.068.014-.116.032-.167.015-.042.034-.104.034-.158v-1.54c0-.054-.019-.119-.035-.158-.024-.059-.028-.094-.015-.149.052-.22.046-.224.052-.344.01-.199-.025-.316-.069-.429.046-.111.071-.232.07-.429,0-1.025-.001-2.05-.002-3.088.058-.085.068-.236.069-.42,0-.157-.027-.241-.056-.343ZM48.947,12.126c.025.038.027.08.013.128-.014.051-.03.078-.052.052-.003-.004-.002-.042,0-.071.01-.057.015-.074.019-.084.006-.014.016-.032.02-.026ZM48.849,12.434c.008-.045.017-.1.03-.12.006-.009.008,0,.013-.002-.03.157-.044.129-.043.122ZM48.895,12.311c.014.001.021.027.012.089-.007.042-.025.069-.039.093.011-.079.02-.137.027-.182ZM48.886,14.81c.009.017.023.057.021.065-.013.072-.028.093-.043.07-.007-.023-.022-.059-.021-.066.013-.072.029-.096.043-.069ZM48.863,15.43c.005-.011.016-.013.022-.005.034.044.036.27.001.338-.006.011-.015.005-.022.006-.033-.048-.035-.271-.001-.339ZM48.826,11.08c.009-.013.023-.013.031,0,.018.027.034.066.051.101-.017.034-.033.074-.051.1-.009.013-.021.002-.032.002l-.051-.103c.017-.034.033-.074.051-.1ZM48.826,16.01c.009-.013.023-.013.031,0,.018.027.034.066.051.101-.017.034-.033.074-.051.1-.009.013-.021.002-.032.002l-.051-.103c.017-.034.033-.074.051-.1ZM48.864,24.395c-.007-.023-.022-.059-.021-.066.013-.072.029-.096.043-.069.009.017.023.057.021.065-.013.072-.028.093-.043.07ZM48.897,29.838c.007.046,0,.094-.023.133-.003.004-.016-.039-.021-.065-.009-.043,0-.093.023-.133.003-.004.014.042.022.065ZM48.864,21.108c-.007-.023-.022-.059-.021-.066.013-.072.029-.096.043-.069.009.017.023.057.021.065-.013.072-.028.093-.043.07ZM48.777,18.563c.018-.071.031-.093.046-.043.007.023.017.05.017.076v.595c0,.024-.013.054-.022.069-.015.025-.036,0-.042-.077-.02-.245-.021-.263-.066-.408.023-.07.048-.135.068-.212ZM48.797,19.669c-.009-.017-.023-.057-.021-.065.013-.072.028-.093.043-.07.007.023.022.059.021.066-.013.072-.029.096-.043.069ZM48.83,21.896c-.007.023-.019.069-.022.065-.023-.039-.031-.09-.023-.133.005-.027.019-.07.021-.066.023.039.03.088.023.133ZM44.043.481c.017-.009.057-.023.065-.021.072.013.093.028.07.043-.023.007-.058.022-.066.021-.072-.013-.096-.029-.069-.043ZM31.609,10.718v.165c0-.061,0-.116,0-.165ZM31.558,10.969c.014-.051.03-.076.051-.052v.052c-.004.061-.011.086-.017.103-.006.014-.016.032-.02.026-.025-.038-.027-.08-.013-.129ZM31.378,11.944s.014.042.022.065c.007.046,0,.094-.023.133-.003.004-.016-.039-.021-.066-.009-.043,0-.093.023-.133ZM24.088,14.817c.017-.009.057-.023.065-.021.072.013.093.028.071.043-.023.007-.058.022-.066.021h0c-.071-.013-.096-.029-.069-.043ZM23.092,18.122v.018s-.002-.006-.004-.01c0-.004.003-.005.004-.008ZM11.759,28.742c.007-.001.05.012.077.018.03.013.017.026-.048.037h0c-.008.001-.055-.011-.075-.018-.034-.012-.018-.026.047-.037ZM10.911,28.749c.039-.008.092,0,.142.02.005.002-.036.013-.055.019-.042.007-.094,0-.143-.021-.005-.002.032-.014.056-.019ZM43.632,41.105c-.023-.007-.069-.019-.065-.022.039-.023.09-.031.133-.023.027.005.07.019.066.021-.039.023-.088.03-.133.023ZM48.741,28.328s-.014-.042-.022-.065c-.007-.046,0-.094.023-.133.003-.004.016.039.021.065.009.043,0,.093-.023.133ZM48.76,27.712c-.018-.008-.034-.062-.057-.107.032-.09.063-.176.095-.265.012-.031.036-.002.042.074.017.207-.015.326-.08.298ZM48.886,40.006c-.015.023-.03.001-.043-.07-.001-.008.013-.049.021-.065.014-.027.03-.003.043.069.001.008-.014.044-.021.066ZM48.892,32.641c-.018-.011-.034-.065-.05-.099l.023-.07c.015-.047.032-.089.045-.141.017-.069.03-.09.046-.058.02.042.027.098.02.172.002.152-.029.226-.083.195Z"></path><g><path class="cls-4" d="M.373,20.614s.002-.001.003-.001c0-.004-.005-.003-.004-.007-.003-.003.001.009.001.009Z"></path><path class="cls-4" d="M1.821,14.828c.015-.003.021.003.03.006,0-.005-.008-.006-.03-.006Z"></path><path class="cls-4" d="M10.542,21.205s.004-.003.007-.005c-.005-.002-.004,0-.012-.004.001.004.003.005.005.009Z"></path><polygon class="cls-4" points="4.769 23.369 4.769 23.369 4.76 23.369 4.769 23.369"></polygon><path class="cls-4" d="M8.749,14.371s0,.001,0,.002c.003,0,.004-.003.008-.003.003-.003-.008,0-.008,0Z"></path><path class="cls-4" d="M.188,15.947c-.008,0-.012.002-.013.008.008.001.013.002.024.004-.003-.007-.008-.007-.012-.012Z"></path><path class="cls-4" d="M10.613,19.959s.004-.003.006-.005c-.005-.001-.007-.001-.012-.003.003.004.004.004.006.008Z"></path><path class="cls-4" d="M11.075,15.481c-.022-.012-.034-.03-.031-.053.003-.026-.009-.056.027-.075.019-.01.028-.023.016-.029-.057-.028-.038-.072-.044-.112-.001-.01-.02-.024-.033-.026-.026-.004-.053,0-.08-.002-.031-.001-.043-.007-.045-.039-.001-.025-.017-.038-.037-.051-.016-.01-.025-.02-.018-.036-.044-.001-.089-.008-.119.029-.004.005-.015.011-.018.01-.018-.007-.024-.019-.025-.033-.002-.025.009-.044.035-.047.026-.003.053,0,.07-.019.012-.014.026-.021.038-.016.019.007.023.019.019.036-.003.014,0,.028,0,.042.054.001.066-.041.101-.059,0,0-.002-.012-.006-.014-.047-.018-.029-.061-.056-.086-.028-.023-.062-.05-.092-.074-.004-.004,0-.013,0-.02-.043-.006-.047-.009-.054-.042-.021.005-.033-.002-.047-.015-.016-.016-.033-.032-.066-.028-.026.003-.053,0-.069,0-.052-.039-.097-.072-.14-.104,0-.011,0-.016,0-.025-.003-.028-.043-.051-.072-.04-.015.006-.027.016-.041.025-.034.022-.065.024-.092.004l-.035-.03c-.028.016-.044.04-.084.043,0-.015,0-.029,0-.045-.091.011-.182.017-.273.028.016-.03.015-.064.012-.101-.003-.032-.018-.049-.036-.062-.024-.018-.018-.046-.024-.073-.039-.038-.078-.078-.121-.12-.101.011-.204.023-.308.034-.039.004-.038.033-.038.071,0,.038-.021.054-.058.045-.018-.004-.023-.022-.015-.035.008-.014.018-.026.025-.041.007-.017-.004-.062-.017-.071-.02-.014-.039-.01-.057.003-.014.01-.016.027-.011.047.004.017.004.035.006.053.003.032-.007.055-.027.057l-.104.011c-.006,0-.012-.006-.019-.008q-.051-.016-.073.017l-.049-.045-.013.02c-.009.011-.018.031-.026.03-.015-.002-.022-.021-.022-.041,0-.032-.013-.05-.036-.054-.021-.004-.041.005-.051.031-.002.007.001.017.011.026.015.001.02.007.024.013.003.004.008.012.007.016-.006.021-.014.023-.025.013-.011-.01-.017-.022-.014-.039-.027.002-.036.025-.048.04-.011.014-.047.029-.054.018-.032-.05-.073-.047-.114-.039-.014.003-.024-.01-.036-.021-.046-.039-.049-.04-.085.008-.016.02-.031.032-.052.03-.039-.004-.065.018-.084.061l-.049-.048-.048-.049-.027.041c-.012.017-.042.023-.055.013-.004-.005-.012-.012-.017-.017-.011-.009-.023-.025-.035-.025-.028-.002-.056.002-.083.006-.023.004-.053.01-.08.015-.015.045-.054.043-.081.065-.054.044-.053.048-.087.049-.043.001-.082.005-.105.06-.005.012-.044.002-.057-.01l-.033-.034c-.019.039-.042.065-.083.061-.024-.003-.024.001-.067.047-.017.018-.037.02-.056.008-.061-.037-.061-.043-.093-.038-.033.005-.049-.024-.072-.042-.01-.008-.029-.01-.039-.003-.034.024-.051.063-.061.122-.008.049-.043.061-.076.028-.011-.011-.022-.029-.033-.031-.04-.005-.084.023-.115-.035-.041-.024-.081,0-.122-.004-.036-.003-.068.006-.088.05-.001.003-.014.002-.014.002-.022-.043-.06-.034-.09-.051-.013-.008-.013-.027-.016-.046-.007-.042-.011-.043-.04-.046-.016-.002-.028.002-.036.018-.007.013-.003.025.014.037.016.012.021.024.016.037-.007.017-.019.023-.035.019-.015-.004-.031.004-.032.023,0,.011.014.025.022.036l.016.018c-.009.01-.017.022-.027.03-.005.004-.014.002-.021.002-.022-.002-.031-.016-.036-.052-.005-.035-.016-.052-.037-.051l-.084.005c-.028.002-.048.014-.048.034,0,.025,0,.05.02.071.027.03.024.032.009.056l-.028.048s-.009,0-.013,0c-.029-.038-.022-.101-.066-.119.001-.049-.022-.08-.05-.108-.02-.02-.021-.025-.044.006-.016.022-.034.028-.054.026-.04-.006-.065.018-.085.057-.011-.011-.023-.02-.032-.033-.017-.027-.039-.015-.058-.014l-.209.01-.079-.091c-.012-.014-.043-.015-.057-.003-.057.048-.057.052-.087.05-.033-.002-.048.026-.066.051-.038-.022-.062-.066-.096-.1-.017.042-.043.065-.083.06-.027-.003-.055.001-.082.002-.029-.057-.07-.053-.112-.049-.024.002-.035.017-.034.052,0,.027.007.055.002.08-.009.041-.046.024-.067.042-.019.017-.029.062-.06.016-.018-.027-.041-.05-.061-.075l-.043.052c-.015-.019-.033-.035-.046-.056-.027-.042-.05-.051-.075,0-.041.004-.084.007-.123.01-.006,0-.012-.007-.018-.01q-.048-.021-.074.012l-.046-.049q-.035.045-.089.009l-.072.096s-.011-.005-.015-.009c-.037-.038-.037-.038-.072-.038-.049,0-.049,0-.064.068-.01.047-.013.048-.036.022-.011-.012-.021-.022-.033-.035l-.331.006c-.027-.033-.053-.065-.077-.095-.008-.009-.02,0-.027.02-.003.007-.001.018,0,.026.003.02,0,.037-.016.044-.01.005-.023-.007-.025-.027-.003-.026,0-.053-.02-.07-.015.017-.031.035-.044.05-.004.004-.014,0-.021,0-.004.038-.012.053-.032.054-.041,0-.083-.006-.11.049-.002.005-.012.005-.018.006-.015.004-.027,0-.038-.012-.012-.013-.009-.024.007-.038.025-.023.031-.056.017-.091-.012-.03-.039-.01-.055-.021-.075-.05-.074-.052-.108-.052h-.145c-.035.021-.005.087-.044.105l-.074-.094c-.004-.005-.011-.01-.017-.01-.013,0-.027.002-.039.008-.015.007-.02.025-.015.045.033.007.036.011.042.054.023-.006.037.012.041.035.004.023,0,.048,0,.072.026,0,.053-.002.079,0,.023.002.035-.014.05-.031.017-.021.034-.016.039.008.013.065.012.067.03.085.012.012.017.025.022.044,0,0,0,0,0,0-.003,0-.006,0-.009,0h0s.012-.002.009,0c-.03,0-.053.006-.072-.002-.017-.008-.03-.033-.045-.051-.019.041-.046.048-.075.05-.013,0-.025,0-.038,0-.012-.002-.023-.006-.029-.022-.001-.003.006-.012.01-.018.012-.02.036-.031.029-.065-.023.006-.037-.012-.041-.035-.004-.023,0-.048,0-.072-.033-.007-.036-.011-.042-.054-.016-.006-.031-.001-.035.019-.014.069-.013.073.029.163.003.007.006.016.005.024-.002.016-.004.034-.009.048-.008.019-.016.012-.03-.007-.031-.039-.059-.073-.089-.11.013-.016.023-.029.033-.041.018-.021.013-.048.009-.072-.005-.028-.047-.033-.07-.01-.011.011-.02.036-.03.035-.039-.002-.064.022-.085.058l-.044-.053-.03.038c-.01.015-.017.008-.03-.009-.036-.045-.047-.043-.085-.006-.023.023-.025.025-.043-.002-.012-.017-.019-.023-.03-.013-.045.041-.045.043-.07.041-.028-.002-.052.002-.074.032-.022.03-.049.029-.071.005-.01-.011-.022-.025-.04-.032,0,.004-.002.008-.01.019-.009.011-.02.026-.03.027-.026.003-.052-.002-.078-.005-.005,0-.013-.017-.013-.017.007-.011.014-.028.023-.03.019-.004.04,0,.08,0,.025-.02.021-.039.006-.045-.019-.007-.04-.01-.06-.009-.023,0-.038-.012-.053-.031-.018-.023-.033-.018-.039.01-.003.016-.002.035-.006.051-.006.019-.02.021-.035.022-.016,0-.03,0-.036-.019-.005-.023-.01-.049-.014-.072-.007-.025-.017-.022-.03,0-.007.013-.021.029-.029.027-.015-.003-.016-.024-.018-.042-.004-.046-.012-.06-.025-.052-.015.008-.02.025-.016.045.004.021,0,.036-.015.046-.009.006-.02-.002-.029-.021-.008-.017-.019-.025-.033-.025-.028,0-.056-.004-.084,0-.034.004-.046-.031-.066-.053l-.046.049-.043-.054c-.023.04-.052.06-.09.05-.016-.003-.026-.005-.04-.008-.024-.032-.048-.065-.074-.1l-.045.046c-.013-.017-.028-.035-.041-.051-.004-.004-.013-.001-.03-.002.01-.008.017,0,.009.025-.002.007-.008.015-.013.017-.011.005-.024.008-.036.01-.013.002-.027-.006-.03-.023-.001-.008.012-.025.022-.029.012-.005.026,0,.048,0,.015-.02.012-.038-.004-.045-.018-.009-.04-.009-.055-.022-.022-.021-.04-.049-.057-.076-.022-.036-.069-.008-.084-.059l-.003-.007-.101.102s0,0,.001,0l.02-.002.076-.004c.01,0,.02-.001.029.003.015.007.02.022.015.034-.003.007-.01.017-.015.018h-.031s-.049.003-.049.003c-.045.001-.085.015-.125.03l-.248.251c-.015.045-.026.093-.024.143l.002.025c.002.017.002.034,0,.051-.002.016-.02.022-.033.018-.008-.003-.017-.008-.019-.013-.003-.013-.002-.027-.003-.041v-.011c-.005-.035.004-.068.008-.102l-.105.106c-.005.003-.01.008-.01.012,0,.028-.004.058.006.084.006.017.033.028.052.042-.057.029-.052.072-.046.114.004.027.072.069.113.072.04.003.049.009.054.032.006.033-.003.041-.057.053-.04.009-.048.014-.045.04.004.043.005.084-.047.112l.005.083-.05.049.079.055h.025s.053-.002.053-.002c.046-.002.066.013.061.047-.002.012-.015.024-.023.035l-.02-.013-.039-.024c-.016.009-.026.022-.022.036.006.024-.012.039-.029.055-.021.02-.015.034.019.036.031.002.062.005.085.039.004,0,.005-.002.01,0,.011.004.019.014.001.012.026.013.01.024.01.024-.012-.004-.027-.009-.033-.017-.004-.005-.002-.008-.001-.011-.024-.004-.041-.005-.054-.004-.032.002-.053.017-.052.036.003.049.007.094.01.147.001.01.019.019.029.029l.018-.016c.012-.009.025-.024.036-.024.019.001.025.017.025.032.001.025-.007.04-.034.049l-.026.002c-.043.012-.043.012-.041.043.002.021.003.038.005.063,0,.005.01.011.018.014.005.002.014.002.018,0,.019-.013.03-.035.06-.039.026-.004.049,0,.061.02-.018.016-.038.031-.053.048-.012.014-.024.021-.044.019-.021-.003-.036.002-.045.017-.007.01.003.018.02.029.024.015.023.017-.002.044-.027.03-.028.054-.003.072l.097.069c.009.006-.004.054-.016.057l-.05.009c-.03.008-.034.023-.011.04.02.014.037.027.034.051-.004.037.007.068.05.088.003.001.004.012.001.014-.039.026-.044.058-.038.094.006.035.006.07.008.105.001.016-.014.025-.055.034-.038.008-.048.017-.047.04l.006.084c.003.038.003.038.064.044.05.005.068.041.037.073l-.035.033q.056.041.06.083l.025.315c.039,0,.055.009.047.025-.008.015-.023.021-.043.018.008.016.004.032-.016.037-.042.011-.081.022-.107.054-.014.018-.031.032-.027.056.005.052.009.097.013.141.04.026.073.048.108.071-.022.035-.055.067-.039.111.01.026.009.056.008.084-.001.035.037.043.059.063l-.046.049.02.013c.048.034.054.044.015.085-.033.034-.015.082-.063.111-.018.011-.008.044.008.056.038.027.075.055.135.048.006,0,.019.008.019.013.002.04.032.082-.022.118-.007.004-.015.011-.015.017,0,.014.001.028.005.042.006.021.023.018.056-.01l.018-.017c.011.008.028.014.032.024.013.032-.005.055-.047.059-.02.002-.04.004-.043.02-.007.034-.011.068-.049.092.004.037-.013.067-.048.093.005.004.009.011.016.013.034.013.069-.001.103-.002.036,0,.063.033.047.06-.004.006-.01.012-.017.017-.031.022-.032.048-.027.077.005.026.002.027-.033.075-.02.026-.015.042.02.071.006.005.015.008.02.013.008.009,0,.018-.015.032-.034.032-.017.08-.063.111-.023.015.007.058.04.06l.027-.002c.048.005.063.041.032.075-.015.017-.037.03-.03.056.009.034.013.069-.03.097-.014.009-.013.024-.01.039.004.031.007.056.01.084.002.014-.006.026-.02.037-.04.03-.013.083-.064.11-.003.041-.015.084.036.112.029.018.055.034.082.051l-.032.034c-.023.025-.022.027.032.031.009,0,.02-.005.026-.002.012.005.032.014.031.021-.003.016-.021.023-.04.022-.032,0-.049.014-.053.037-.004.022.006.041.033.051.007.002.017-.002.025-.012,0-.015.007-.021.012-.025.004-.003.012-.008.016-.007.021.006.023.014.014.025-.009.011-.022.016-.037.014,0,.017.005.029.019.036.021.01.039.022.043.047.006.032.018.036.049.033.027-.002.053-.008.08-.009.02,0,.032.011.03.022,0,.006-.01.016-.016.016-.053.007-.106.013-.161.02-.019-.01-.039-.022-.06-.033-.039.06-.029.078.043.079.031,0,.05.008.052.033.002.037.028.041.069.04.044-.001.044.003.048.035.005.034,0,.069.047.09.031.013.03.042.005.071-.015.018-.034.033-.026.057.002.006,0,.014-.002.02-.008.016-.023.02-.042.023-.02.003-.036.004-.048-.007-.01-.009-.004-.018.012-.032.011-.01.022-.024.022-.036,0-.035-.005-.071-.013-.105-.002-.01-.021-.016-.032-.024l-.017.017c-.011.009-.024.023-.035.023-.02,0-.028-.015-.025-.031.003-.017-.003-.028-.022-.034-.013-.004-.024.003-.036.019-.014.015-.029.033-.044.049.009.006.016.01.023.014.029.019.029.02.009.044-.027.033-.03.061-.007.074l.167.097c-.009.009-.014.018-.021.02l-.049.012c-.03.011-.048.058-.023.069.054.024.057.063.063.105.002.011.018.021.029.03.025.021.025.021.004.045q-.019.022.014.044l.021.013c-.011.009-.021.023-.034.027l-.079.012c-.014.004-.026.017-.038.026l.104.062c.013.008.008.017-.009.032-.011.01-.023.024-.023.036.004.042.007.063.011.105,0,.012-.014.024-.023.036-.031.043-.031.05.019.086.006.005.02.008.02.013,0,.04.032.061.068.08.005.002.002.013.003.02l.104-.014c.042-.006.064.009.061.043,0,.012-.013.024-.02.036-.007-.004-.015-.006-.02-.011-.033-.032-.077-.018-.12-.012,0,.007-.002.017.003.02.033.02.069.041.103.062.014.008.016.021.019.036.007.034.008.074-.029.109-.051.048-.055.116-.022.208.003.009,0,.023-.002.034-.002.009-.008.023-.013.021-.009-.002-.021-.012-.026-.023-.013-.038-.009-.027-.024-.072-.012-.026-.028-.035-.04-.027-.007.004-.015.022-.012.029.026.069.007.124-.002.189l.129.112c.002-.026.008-.049.007-.075-.002-.057.033-.046.056-.057.005-.003.02.012.029.023.005.006.011.023.011.031-.003.067,0,.14.018.222.069.042.131.074.223.165.06.054.064.056.161.158.026.026.051.045.094.061.096.034.172.055.214.108.014.017.041.014.066-.002.031-.019.069-.019.107-.015.049.006.093,0,.118.037.012.017.028.024.046.027.021.003.034,0,.047-.013.012-.013.01-.023-.008-.039-.012-.01-.021-.026-.027-.041-.012-.031.016-.063.048-.068.004-.039.014-.054.029-.044.014.009.018.025.014.044.007,0,.017-.004.021,0,.024.033.047.063.088.055.027-.005.028,0,.07.041.018.018.04.019.056.005.022-.019.037-.05.07-.046.042.004.084.002.126.002.018,0,.028-.018.032-.056.004-.037.014-.051.036-.051.042,0,.084.004.126,0,.034-.003.047.03.068.053l.044-.05.043.051c.011-.014.022-.028.031-.039.014-.015.046-.017.057-.005l.062.069c-.011.014-.015.024-.021.026-.021.003-.02.003-.04.007-.023.007-.026.028-.009.051l.029.038c.02.026.048.025.072,0l.03-.03c.005.006.011.014.015.019.009.009.021.025.029.023.016-.004.017-.023.017-.043,0-.037.011-.051.032-.055.033-.005.048.01.051.057.001.019.002.036.017.045.012.007.024-.018.026-.055v-.054c.002-.03.042-.061.061-.045.01.009.023.026.023.039-.002.065.037.091.069.121.014.013.041.002.062.003.015,0,.029-.004.034-.023.006-.024.011-.051-.007-.073-.01-.012-.021-.024-.029-.038-.007-.012.004-.069.014-.072.033-.009.064-.02.089-.055.011-.016.041-.017.055.008.024.044.058.041.093.041.026,0,.044.017.044.04v.134c0,.025.016.042.042.042.035,0,.069-.006.093.039.013.026.044.024.055.01.028-.035.049-.055.077-.002.005.009.022-.001.027-.022.015-.066.015-.066.033-.09.01-.013.02-.025.033-.041.02.038.045.065.084.057l.043.05c.027-.033.053-.066.077-.096.008-.008.022.002.026.023.016.077.015.077.058.077.028,0,.056.003.084,0,.01-.002.024-.021.026-.034.004-.026.001-.053.022-.07.029.036.059.072.085.104.088,0,.172.002.254.002.022-.027.042-.053.062-.078,0-.045,0-.09-.008-.135-.015-.003-.019-.009-.023-.015-.003-.005-.007-.013-.005-.016.008-.02.017-.021.026-.01.01.012.016.025.01.042.025.002.046.007.062,0,.018-.008.03-.033.045-.05.03.059.031.061-.004.108-.012.017-.019.026-.009.038.029.035.051.085.101.07.013-.004.027,0,.041,0q.041.001.057.074c.006.027.023.032.04.011.015-.018.029-.037.052-.065-.063-.015-.047-.075-.057-.126-.015-.003-.019-.009-.023-.015-.003-.005-.007-.013-.005-.016.008-.02.017-.021.026-.01.01.012.016.025.01.042,0,0-.012.002-.009,0,.016,0,.025.004.03,0,.014-.016.029-.034.044-.051.025.033.046.07.074.094.036.03.08.008.12.014.021.003.034.004.06.007.006.001.011.011.014.018.003.007.001.017.002.025.004.041.013.057.027.049.015-.009.016-.025.016-.045,0-.042.02-.061.053-.053.011.003.02.018.03.028l-.015.019c-.03.041-.031.05-.008.056.013.003.028.008.04.003.011-.005.023-.021.025-.035.004-.026,0-.053.002-.079.001-.032.013-.045.039-.045.062.001.122.002.187.003.009,0,.023.021.025.034l.005.104c.003.019.019.022.033.023.016.001.028,0,.037-.016.017-.032.005-.068.011-.101.003-.015.011-.038.02-.041.018-.006.041-.013.056.014.017.032.041.044.071.038.007-.001.014,0,.021,0,.007-.032-.015-.045-.028-.063-.019-.027-.019-.065,0-.089l.044-.055c.032.013.047.05.068.078v.13c.013,0,.027-.002.041,0,.016.004.029,0,.036-.019.005-.012-.002-.025-.016-.038-.013-.011-.018-.026-.019-.044-.001-.02,0-.035.011-.048.01-.012.048-.019.057-.008l.059.076v.107c0,.007.008.015.013.019.01.007.023,0,.027-.021.005-.024-.005-.055.018-.071.017-.012.044-.008.057.007.011.013.016.055.006.072-.008.014-.02.025-.029.038-.003.004-.005.014-.003.018.003.008.009.018.014.019.043.006.05,0,.13-.05.015-.01.04-.008.056.019.012.021.027.039.051.034.026-.005.055.013.077-.022.013-.021.03-.034.053-.031.028.003.056.002.084.001.022,0,.031-.014.035-.051.004-.038.014-.055.032-.056.007,0,.012,0,.021,0,.034.004.069-.008.102.009.02.054.076.032.1.076.009.016.02.024.034.024.035,0,.07.003.105,0,.01-.001.022-.019.027-.033.005-.015.001-.035.006-.05.006-.019.019-.022.034-.023.016,0,.03,0,.036.017.005.023.01.049.015.072.006.02.019.021.035.021.016,0,.031,0,.036-.019.009-.041.014-.083.046-.11.017-.015.028-.037.053-.032.026.006.056-.012.076.024.025.044.08.022.101.076.026.017.054.008.081.009l.188.002c.013,0,.027-.003.039-.008.006-.002.014-.012.014-.018v-.08s-.04,0-.04,0c-.025,0-.041-.016-.042-.041,0-.026.003-.054,0-.079-.002-.014-.013-.027-.02-.04l-.015.019c-.019.031-.043.042-.071.03-.006-.002-.014-.018-.014-.018.026-.05.052-.1.109-.086.02.005.039.004.054.027.013.02.03.036.042.05,0,.052,0,.096-.001.14.007,0,.017-.004.021,0l.074.095c.01.013.017.004.03-.012.039-.043.047-.042.086,0q.019.02.045-.007c.027-.028.051-.03.072-.005.009.012.019.026.029.04.024-.038.049-.063.089-.056.035.006.07.002.105.002.026,0,.034-.007.038-.048.002-.019.001-.035.013-.047.01-.011.018-.004.03.014.033.046.067.091.103.133.008.009.032.011.04.003.037-.04.073-.084.106-.129.007-.01.002-.034.005-.051.005-.027.021-.03.041-.005.016.02.033.028.055.027.027,0,.052,0,.076-.028.033-.04.047-.036.086.008.025.028.05.03.072.004l.03-.036c.028,0,.057-.005.084.002.04.011.059-.03.086-.051l.059.078s0,.017,0,.026c.014,0,.028.002.041,0,.039-.005.073.002.097.039l.573-.475.017-.007s.003-.013.004-.02l-.052-.009c-.032-.006-.05-.022-.048-.042l.01-.064c.004-.018.023-.025.06-.022.037.002.052-.004.056-.027.004-.021.012-.043.01-.064-.002-.023-.022-.034-.052-.04-.039-.008-.043-.018-.043-.044,0-.065.041-.103.113-.12.015-.004.034.001.05,0,.008,0,.019-.007.02-.012,0-.005-.008-.014-.015-.017-.022-.01-.051-.013-.068-.027-.032-.025-.006-.054-.006-.081,0-.021.005-.042.008-.064-.034-.028-.054-.057-.042-.097.009-.027.009-.056.012-.078.024-.018.048-.03.058-.047.01-.018.006-.042.009-.063.004-.031.052-.034.061-.062.004-.014.003-.029.006-.043.003-.013.006-.027.012-.039.029-.052.03-.052.006-.076l-.052-.052.056-.04-.086-.085c-.021-.021-.014-.05.018-.072.02-.013.039-.025.061-.039.005-.003.017.001.026.002-.006-.027.024-.033.04-.047l.019-.013c-.013-.008-.024-.02-.039-.024-.039-.012-.061.012-.088.027-.01.006-.03-.003-.032-.019-.002-.019-.007-.041.021-.055.017-.009.034-.021.02-.051-.002,0,0,.003-.003.002-.01-.005-.016-.017,0-.012-.024-.017-.006-.026-.006-.026.011.006.025.013.03.022.005.01-.008.006-.013.008.041.012.057.029.069.043.014.016.022.02.035.007.005-.005.012-.01.013-.015.002-.019.008-.038-.014-.055-.015-.012-.034-.027-.048-.057-.004,0,0,.006-.006.004-.011-.005-.017-.017,0-.012-.024-.017-.007-.026-.007-.026.011.006.025.013.03.022.005.009-.007.005-.012.008.018.008.033.015.037.013.028-.019.053-.036.08-.054-.002-.005-.003-.011-.007-.015-.05-.057-.051-.064.002-.104.038-.029.031-.068-.016-.082l-.026-.002c-.045-.014-.048-.019-.016-.038.032-.019.039-.043.039-.073,0-.021-.001-.042.025-.056.014-.007.031-.019.032-.03.005-.056.007-.113.005-.169,0-.015-.023-.022-.042-.02-.031.002-.052-.011-.056-.033-.004-.021-.002-.04-.023-.057-.045-.035-.027-.076-.013-.116.002-.006.012-.013.019-.013l.08.003c.007-.016,0-.026-.016-.037-.018-.014-.039-.026-.035-.052.005-.034.004-.07.005-.112.015-.009.043-.019.053-.036.011-.017,0-.041.005-.062.006-.026-.017-.038-.035-.052-.013-.01-.021-.023-.033-.043-.004,0,0,.007-.006.004-.011-.005-.017-.016,0-.012-.024-.015-.007-.026-.007-.026.011.005.026.012.031.021.005.009-.007.005-.011.008.031.009.05.01.065.013.021.004.036.001.046-.014.002-.004.002-.012-.002-.015l-.147-.124c.019-.016.037-.03.052-.043-.017-.018-.042-.034-.046-.052-.006-.026.002-.055.007-.082,0-.005.013-.015.018-.014.065.01.092-.031.131-.057.002-.006.007-.012.007-.019.003-.113.006-.225.009-.34.001-.034-.027-.048-.047-.07-.021-.023-.004-.06.029-.067.008-.002.018.001.027,0,.042-.006.046-.01.048-.038.002-.032.001-.031-.05-.111-.007-.011-.006-.029,0-.041.006-.012.024-.02.036-.03.034-.03.022-.07-.028-.076-.028-.004-.053-.007-.06-.029-.006-.019,0-.039.022-.056.029-.022.027-.025.005-.044-.006-.005-.015-.009-.018-.015-.006-.01.002-.023.022-.027.076-.016.079-.015.077-.057-.002-.034.019-.072-.012-.101-.023-.022-.047-.041-.039-.072-.024-.021-.045-.044-.073-.06-.019-.011-.048-.011-.071-.017-.006-.002-.01-.01-.014-.014.019-.015.036-.032.057-.044.039-.022.047-.054.057-.087.005-.016.024-.02.045-.015,0-.021-.006-.044.002-.063.008-.017.033-.03.05-.044-.033-.026-.065-.052-.095-.076-.01-.008.002-.017.017-.03.04-.035.039-.045-.004-.086-.006-.005-.014-.009-.019-.015-.016-.022.002-.059.033-.066h.027c.054-.011.056-.014.026-.035-.03-.02-.029-.047-.04-.072-.011-.024-.047-.041-.072-.061l-.019-.015c-.01-.01-.004-.019.016-.03.024-.013.026-.033.028-.054.002-.034-.019-.075.012-.1.034-.028.046-.057.042-.093-.005-.043-.003-.083.051-.11.012-.006.003-.047-.013-.056-.059-.03-.031-.075-.036-.115,0-.004.011-.012.018-.014l.072-.016c.006-.001.014-.011.012-.014-.002-.006-.01-.012-.018-.015-.023-.008-.052.002-.072-.015-.021-.017-.011-.039-.013-.059-.002-.021,0-.041.024-.055.014-.008.026-.019.038-.029q.043-.034-.006-.076l.051-.045v-.124l-.036-.03c-.034-.03-.021-.066.027-.077.063-.013.061-.013.063-.047.002-.036.001-.069-.042-.092-.013-.007-.006-.019.014-.029.02-.01.027-.021.017-.029-.036-.029-.067-.065-.129-.06-.036-.021-.018-.051-.021-.077-.003-.027.008-.044.038-.044.062,0,.076-.023.069-.064l.095-.074c.013-.01.005-.017-.011-.03-.044-.038-.044-.047,0-.085.015-.013.025-.021.013-.03l-.094-.075s0-.013-.001-.02c-.004-.023.013-.042.041-.043h.08c.025-.001.041-.018.04-.044-.001-.035-.006-.07.039-.092.017-.008.012-.018-.009-.03ZM9.402,14.311c.006.004.015.016.015.016-.006.02-.015.026-.025.021-.005-.005-.015-.016-.015-.016.006-.02.015-.027.025-.021ZM8.007,14.441c.012.001.023.014.038.025-.018.026-.037.051-.053.074-.007.009-.023.002-.028-.017-.015-.053.002-.086.043-.082ZM7.489,14.646s.011.009.015.016c.006.011.002.024-.011.036,0,0-.01-.01-.015-.016-.006-.012-.002-.024.012-.036ZM.181,17.222c-.01-.01-.021-.019-.029-.03-.004-.005-.004-.014-.001-.02.006-.012.016-.023.024-.034.01.01.021.019.029.03.004.005.002.013.002.02l-.024.034ZM6.618,23.153c-.003.007-.014.017-.014.017-.015-.01-.02-.024-.014-.035.003-.007.009-.012.014-.018.014.012.019.025.013.036ZM.579,17.327c.007.002.02-.001.014.009-.005.009-.019.016-.03.021.008-.017.011-.021.016-.031ZM.547,17.347c.006-.01.012-.022.022-.026.004-.002.001.004.005.003-.016.02-.027.023-.027.023ZM5.533,14.839s.003.013.002.018c-.008.028-.054.031-.069.005-.002-.004-.001-.012-.002-.018.008-.028.054-.031.069-.004ZM5.005,14.801c.009-.009.018-.003.03.014.016.019.028.035.044.055.015.022-.002.068-.025.077-.006,0-.012,0-.018,0-.023-.002-.039-.016-.039-.048l-.002-.052c-.005-.019-.001-.034.011-.046ZM4.927,14.91c.009-.007.019-.001.028.017,0,0-.008.012-.013.018-.009.006-.019.001-.028-.017,0,0,.007-.013.013-.018ZM4.462,14.871c.013-.003.026-.011.037-.008.012.003.022.016.033.025-.01.009-.02.023-.031.026-.012.003-.025-.002-.038-.007-.006-.002-.01-.011-.015-.017l.014-.019ZM4.383,14.812c.015.01.02.022.015.034-.005.006-.013.017-.013.017-.015-.01-.02-.023-.015-.034.003-.007.013-.018.013-.018ZM4.168,14.88c.009-.006.019,0,.028.018,0,0-.008.013-.013.017-.009.007-.019.001-.028-.017,0,0,.008-.012.013-.018ZM3.748,14.942c.009-.007.019-.001.027.018,0,0-.008.012-.013.018-.009.006-.019,0-.028-.018,0,0,.008-.013.013-.017ZM2.933,14.831c.002-.017,0-.035,0-.052-.005-.02,0-.035.014-.044.009-.006.02,0,.028.02.017.035.049.016.07.035.005.004.012.013.012.018-.001.007-.008.015-.013.018-.023.013-.053.002-.069.036-.009.02-.019.024-.029.015-.012-.011-.015-.026-.013-.046ZM.939,14.756c.014.011.018.023.013.035-.005.006-.014.017-.014.017-.014-.011-.019-.024-.013-.035.004-.007.014-.017.014-.017ZM.272,15.129c-.009.007-.029,0-.034-.014-.016-.042.009-.068.062-.064.015.001.028.012.044.019-.024.02-.047.039-.072.059ZM.295,15.996c.004-.006.016-.014.016-.014.019.007.025.017.02.026-.006.005-.017.014-.017.014-.019-.007-.026-.017-.02-.026ZM.319,16.107s-.012-.008-.018-.012c-.007-.009-.002-.019.017-.029,0,0,.013.007.018.012.008.008.002.019-.016.028ZM.342,15.422c-.018.008-.036-.008-.037-.034,0-.007-.003-.014,0-.02.003-.006.01-.012.017-.015.012-.006.025,0,.035.014.004.005.001.013.002.02.007.015.002.027-.017.036ZM.282,14.978l-.002.002-.003.004-.006.008-.013.017-.015-.015-.007-.008-.003-.004v-.002s-.002-.001-.002-.001h0s0,0,0,0l.389-.394h0c.006-.004.014-.003.02,0,.011.007.021.018.031.027-.011.009-.021.019-.033.025-.006.003-.013,0-.02,0l-.336.341ZM.496,18.903c.007.003.018.012.018.012-.009.016-.021.021-.033.018-.006-.004-.018-.012-.018-.012.009-.016.021-.022.033-.018ZM.518,19.036c.008.008.002.019-.015.029,0,0-.012-.007-.019-.012-.007-.009-.002-.019.016-.029,0,0,.013.007.018.012ZM.464,19.474c.009-.016.021-.022.033-.018.006.004.018.012.018.012-.009.016-.021.022-.033.018-.007-.003-.018-.012-.018-.012ZM.516,20.684c-.015.002-.036-.027-.032-.049.002-.012.014-.023.022-.035.007.004.015.007.02.012.015.017.017.036.006.055-.003.006-.011.011-.016.017ZM.587,17.48c-.006.004-.014.006-.022.009-.009,0-.018.004-.026.002-.015-.004-.033-.009-.041-.018-.007-.008.035-.028.063-.025.015.002.028.011.043.017l-.017.016ZM.593,17.317s-.002-.009,0-.015c.007-.011.01-.015.013-.017.004-.003.012-.008.016-.007.021.006.023.015.013.026-.011.011-.023.018-.041.014ZM.646,22.072c-.017.01-.036-.005-.04-.031,0-.007-.004-.014-.002-.02.002-.006.009-.013.016-.017.011-.007.025-.003.036.011.004.005.002.013.003.02.008.015.004.027-.014.037ZM.664,21.862c-.02-.006-.027-.015-.022-.025.004-.006.015-.016.015-.016.02.006.027.015.022.025-.005.005-.016.016-.016.016ZM.713,21.763c-.006.004-.014.007-.021.01-.009.001-.018.005-.025.003-.015-.004-.033-.007-.042-.016-.008-.008.034-.03.062-.028.015,0,.029.01.043.015-.005.006-.01.012-.017.017ZM.881,21.449c-.02-.006-.026-.015-.022-.025.005-.005.016-.015.016-.015.02.006.027.015.022.025-.004.006-.015.016-.015.016ZM1.619,23.329c-.02-.006-.034-.021-.052-.033.009-.005.018-.011.028-.014.032-.008.062-.005.088.01.008.005.013.013.02.02,0,.015-.048.029-.084.018ZM2.9,23.451c-.015.009-.027-.013-.027-.046,0-.009-.002-.018,0-.026.002-.007.008-.014.014-.018.009-.006.02.001.027.02.003.007,0,.017,0,.026.005.02,0,.035-.015.044ZM2.972,23.397c-.005-.004-.013-.017-.013-.017.008-.019.019-.025.027-.018.005.004.009.012.014.018-.009.018-.019.025-.028.017ZM4.993,23.469c-.005-.004-.013-.017-.013-.017.008-.019.019-.025.027-.018.005.004.009.012.014.018-.01.018-.019.025-.028.017ZM5.338,23.373s-.01-.01-.013-.017c-.005-.011,0-.024.015-.035,0,0,.009.011.013.017.005.012,0,.025-.015.035ZM5.485,23.349s-.008.014-.014.018c-.009.006-.023,0-.026-.021-.004-.025,0-.052,0-.078,0-.041.018-.06.052-.053.012.003.021.017.033.026-.025.029-.052.056-.044.107ZM5.802,23.324c-.006.003-.013,0-.02,0-.026,0-.043-.017-.036-.036.007-.019.019-.024.035-.018.006.002.015-.002.02.001.015.009.021.023.015.035-.003.007-.009.015-.014.018ZM6.473,22.999c-.005-.004-.013-.017-.013-.017.008-.019.018-.024.027-.018.005.006.013.018.013.018-.008.019-.019.025-.027.018ZM6.624,23.44c-.007,0-.016.003-.02,0-.013-.016-.028-.035-.043-.053-.02-.025-.02-.051,0-.054.013-.002.03-.006.04.001.017.013.028.035.044.052.013.014.019.025.014.037-.007.018-.019.024-.034.018ZM8.619,23.234c-.005-.006-.013-.017-.013-.017.008-.019.019-.025.027-.018.005.004.013.017.013.017-.008.019-.018.024-.027.018ZM8.872,23.236c-.005-.006-.013-.018-.013-.018.008-.019.019-.025.027-.018.005.004.013.017.013.017-.008.019-.018.024-.027.018ZM9.672,23.297c-.005-.006-.013-.017-.013-.017.008-.019.019-.025.027-.018.005.004.013.017.013.017-.008.019-.018.024-.027.018ZM10.377,21.715c-.018-.01-.023-.021-.015-.03.005-.005.013-.008.019-.013.017.011.022.022.014.03-.005.005-.019.012-.019.012ZM10.433,21.773c.007.004.015.016.015.016-.012.014-.025.017-.036.011-.005-.005-.015-.016-.015-.016.012-.014.026-.018.036-.011ZM10.43,21.157c-.018-.01-.024-.021-.016-.029.005-.005.012-.009.019-.013.017.011.023.021.016.03-.005.005-.018.012-.018.012ZM10.61,19.487c-.007-.004-.012-.01-.018-.014.012-.014.025-.019.036-.013.007.004.017.014.017.014-.011.015-.024.019-.035.014ZM10.634,18.56c.019.008.025.019.018.028-.004.005-.017.013-.017.013-.019-.008-.024-.018-.018-.028.006-.005.018-.013.018-.013ZM10.631,18.815c.019.008.025.019.018.028-.004.005-.017.013-.017.013-.019-.008-.024-.018-.018-.028.006-.005.018-.013.018-.013ZM10.624,19.197c.019.009.025.019.018.028-.004.005-.017.013-.017.013-.019-.009-.024-.019-.018-.028.006-.005.018-.013.018-.013ZM10.649,17.283c-.011.006-.024,0-.035-.014,0,0,.011-.009.017-.014.012-.005.025,0,.035.015,0,0-.01.01-.017.013ZM10.65,16.988c-.011.006-.024,0-.035-.014,0,0,.011-.009.017-.014.012-.005.025,0,.035.014,0,0-.01.01-.017.013ZM10.802,16.237c.019.008.025.018.018.027-.004.005-.017.013-.017.013-.019-.008-.024-.018-.018-.027.006-.005.017-.013.017-.013ZM10.75,15.185c-.019.013-.034.029-.05.043-.028-.015-.033-.034-.03-.055.003-.02.023-.029.053-.032.02-.001.034,0,.044.014.007.01,0,.018-.017.029ZM10.803,15.436c-.019-.008-.025-.018-.018-.027.004-.005.017-.013.017-.013.019.008.024.018.018.027-.006.005-.017.013-.017.013Z"></path><path class="cls-4" d="M.448,14.562l.079-.08c-.215.024-.37.194-.395.4l.068-.069c.04-.118.13-.208.248-.251Z"></path><path class="cls-4" d="M10.478,21.289c.007.002.005-.004.009-.006-.005-.001-.006-.003-.011-.004.003.005,0,.006.002.01Z"></path><path class="cls-4" d="M.172,17.775c.025.008.03-.001.025-.022-.007-.027-.005-.055-.008-.082-.003-.041-.005-.082-.011-.123-.001-.009-.02-.015-.032-.021,0,0-.016.01-.016.015.004.07.008.137.012.205.001.011.016.024.029.029Z"></path><path class="cls-4" d="M3.629,14.772c.01.007.027.003.04,0,.015-.005.025-.039.019-.067-.003-.015-.013-.032-.023-.038-.011-.006-.027,0-.04,0-.007,0-.014.002-.02,0-.016-.004-.027,0-.035.018-.005.012,0,.023.014.037.016.016.028.038.045.051Z"></path><path class="cls-4" d="M6.087,23.552l-.012.018c.011.009.021.022.033.025.02.004.041.002.061.001.018,0,.031-.023.031-.055v-.052s-.084,0-.084,0c.006.033-.017.044-.029.063Z"></path><path class="cls-4" d="M3.311,14.776s0-.017,0-.026c0-.018,0-.036,0-.055-.014-.017-.031-.034-.044-.055-.012-.019-.02-.024-.03-.01-.01.013-.012.028-.01.048.004.04.034.053.049.081.009.017.021.026.036.017Z"></path><path class="cls-4" d="M3.506,23.411c-.015-.006-.027,0-.035.016-.007.012-.003.023.011.037.011.01.019.024.029.036l.014.018c.007-.013.018-.026.021-.04.007-.043-.008-.068-.039-.067Z"></path><path class="cls-4" d="M10.323,22.812c-.006,0-.016.011-.016.011l.029.035.014.017c.022.03.026.032.042.014.03-.033.02-.07-.023-.079l-.046.002Z"></path><path class="cls-4" d="M3.941,14.683c-.014-.016-.031-.031-.044-.049-.012-.016-.02-.024-.029-.016-.013.01-.015.025-.013.045.003.03.013.05.033.052.021.002.039-.003.054-.032Z"></path><path class="cls-4" d="M.519,22.202c.007-.021-.003-.026-.027-.016-.017.002-.035.002-.049.008-.011.005-.026.021-.023.027.006.013.024.017.041.012.015-.004.03-.008.044-.015.006-.003.012-.01.014-.016Z"></path><path class="cls-4" d="M10.797,18.137c-.025-.008-.033,0-.025.019,0,.013-.004.027.001.039.004.009.022.022.03.021.018-.003.025-.017.023-.031-.002-.012-.005-.024-.011-.036-.002-.005-.011-.011-.018-.013Z"></path><path class="cls-4" d="M2.584,23.475c-.002.005-.001.013,0,.018.014.028.06.027.07,0,0-.006.001-.014-.001-.018-.014-.028-.06-.027-.069,0Z"></path><path class="cls-4" d="M2.451,23.443c0,.009-.002.019,0,.026l.02.041.021-.041c.003-.007.003-.018,0-.025l-.02-.041-.021.041Z"></path><path class="cls-4" d="M4.819,14.663s-.008-.012-.014-.017c-.009-.007-.018,0-.027.019.005.006.009.013.015.017.009.007.019,0,.026-.019Z"></path><path class="cls-4" d="M4.735,14.667c-.009-.019-.019-.024-.028-.018-.004.006-.013.018-.013.018.009.019.019.025.028.017.005-.005.013-.017.013-.017Z"></path><path class="cls-4" d="M4.106,14.685c-.008-.019-.019-.025-.027-.018-.005.004-.013.017-.013.017.008.019.018.024.028.018.004-.006.013-.018.013-.018Z"></path><path class="cls-4" d="M7.744,14.437c-.01-.018-.02-.023-.029-.016-.004.006-.012.018-.012.018.01.018.02.024.028.016.005-.005.012-.018.012-.018Z"></path><path class="cls-4" d="M7.528,14.444c-.005-.006-.015-.016-.015-.016-.014.011-.018.025-.011.036.004.007.015.016.015.016.014-.011.017-.024.012-.036Z"></path><path class="cls-4" d="M3.142,14.645c-.008-.019-.018-.024-.027-.018-.005.006-.013.018-.013.018.008.019.018.025.027.018.005-.004.013-.017.013-.017Z"></path><path class="cls-4" d="M1.676,14.637s-.008-.013-.013-.017c-.009-.007-.019-.001-.027.018,0,0,.008.012.013.018.009.006.019,0,.027-.018Z"></path><path class="cls-4" d="M.198,17.774c.01.033.014.036.057.038l-.004-.042-.054.004Z"></path><path class="cls-4" d="M9.59,23.407s.009-.003.013-.007c.005-.005.01-.011.012-.018.002-.007,0-.023,0-.023-.013-.007-.024,0-.033.013-.009.013-.008.023.008.034Z"></path><path class="cls-4" d="M10.404,22.176c.008.016.02.023.032.019.007-.003.019-.011.019-.011-.008-.016-.02-.023-.033-.019-.007.004-.019.012-.019.012Z"></path><path class="cls-4" d="M10.56,21.473c-.007-.003-.023-.002-.023-.002-.008.013-.002.024.01.035.012.01.023.01.034-.005.002-.003-.002-.01-.005-.014-.004-.005-.01-.011-.017-.013Z"></path><path class="cls-4" d="M1.875,23.441c.015.01.024-.006.029-.044h-.042c-.005.019,0,.035.014.044Z"></path><path class="cls-4" d="M3.386,23.428c-.005.012,0,.025.014.035,0,0,.01-.01.014-.017.006-.011,0-.024-.014-.035,0,0-.009.011-.014.017Z"></path><path class="cls-4" d="M10.522,22.104s.009.012.015.016c.01.007.024.004.036-.01,0,0-.01-.011-.015-.016-.011-.006-.024-.003-.037.011Z"></path><path class="cls-4" d="M10.669,20.354c-.008.013-.001.024.012.034.012.009.023.009.034-.007.002-.003-.002-.01-.006-.013-.005-.005-.01-.01-.017-.013-.007-.002-.023-.001-.023-.001Z"></path><path class="cls-4" d="M10.76,14.729c-.019-.008-.031.004-.036.035h.054c.006-.015,0-.027-.018-.035Z"></path><path class="cls-4" d="M.517,22.182l.053-.007-.006-.042c-.042.011-.045.015-.048.049Z"></path><path class="cls-4" d="M10.822,14.792c.01-.015-.006-.024-.044-.028v.042c.02.005.035,0,.044-.014Z"></path><path class="cls-4" d="M.531,22.415c-.013-.004-.025.003-.031.026,0,0,.012.013.02.016.012.006.024-.003.031-.026,0,0-.013-.011-.02-.016Z"></path><path class="cls-4" d="M4.817,23.566c.003.007.013.017.013.017.015-.01.019-.023.015-.035-.005-.006-.014-.017-.014-.017-.015.01-.02.023-.015.035Z"></path><path class="cls-4" d="M.441,22.092c.006-.01-.002-.019-.022-.025,0,0-.01.01-.015.016-.005.01.002.019.022.025,0,0,.011-.01.015-.016Z"></path><path class="cls-4" d="M3.504,23.6s.008.013.013.017c.009.007.019,0,.028-.017-.005-.006-.009-.013-.014-.018-.009-.007-.019,0-.027.018Z"></path><path class="cls-4" d="M5.702,23.611c-.006.011,0,.024.014.035,0,0,.009-.011.014-.017.005-.012,0-.025-.014-.035,0,0-.01.01-.014.017Z"></path><path class="cls-4" d="M10.937,16.088c.01.015.023.019.035.014.006-.005.017-.014.017-.014-.01-.015-.023-.02-.035-.014-.007.003-.017.013-.017.013Z"></path></g></g></svg> 