<?xml version="1.0" encoding="UTF-8"?> <svg xmlns="http://www.w3.org/2000/svg" xmlns:xlink="http://www.w3.org/1999/xlink" id="LP_Dinheiro_sem_Medo" data-name="LP Dinheiro sem Medo" width="52.925" height="46.599" version="1.1" viewBox="0 0 52.925 46.599"><defs><style> .cls-1 { clip-path: url(#clippath); } .cls-2 { fill: none; } .cls-2, .cls-3, .cls-4 { stroke-width: 0px; } .cls-3 { fill: #2d313f; } .cls-5 { clip-path: url(#clippath-1); } .cls-6 { clip-path: url(#clippath-4); } .cls-7 { clip-path: url(#clippath-3); } .cls-8 { clip-path: url(#clippath-2); } .cls-9 { clip-path: url(#clippath-5); } .cls-4 { fill: #95b2a8; } </style><clipPath id="clippath"><rect class="cls-2" x="-967.23" y="-2274.843" width="539.287" height="410.006" rx="-727.415" ry="-727.415" transform="translate(-2767.426 -1372.253) rotate(90)"></rect></clipPath><clipPath id="clippath-1"><rect class="cls-2" x="-1162.583" y="-2359.227" width="1070.725" height="602.563"></rect></clipPath><clipPath id="clippath-2"><rect class="cls-2" x="-1388.23" y="-908.932" width="1523.519" height="2002.641"></rect></clipPath><clipPath id="clippath-3"><rect class="cls-2" x="-233.278" y="-2040.199" width="539.287" height="410.006" rx="-610.093" ry="-610.093" transform="translate(-1798.83 -1871.562) rotate(90)"></rect></clipPath><clipPath id="clippath-4"><rect class="cls-2" x="-428.631" y="-2124.583" width="1070.725" height="602.563"></rect></clipPath><clipPath id="clippath-5"><rect class="cls-2" x="-654.278" y="-674.288" width="1523.519" height="2002.641"></rect></clipPath></defs><g class="cls-1"><g class="cls-5"><g class="cls-8"><image width="3024" height="3975" transform="translate(-1388.23 -908.932) scale(.504)"></image></g></g></g><g class="cls-7"><g class="cls-6"><g class="cls-9"><image width="3024" height="3975" transform="translate(-654.278 -674.288) scale(.504)"></image></g></g></g><g><g><path class="cls-4" d="M8.313,6.232l.011.011.428.424c.017.017.051.024.075.025.036.002.05.01.058.036.031.106.037.103.07.145.055.069.118.082.186.086.001.067.022.123.084.184.324.322.648.643.976.968-.015.068.025.122.083.18.049.049.096.056.149.068.04.009.077.045.086.086.011.053.015.102.069.147.035.029.068.062.097.096.048.057.1.047.157.06.038.038.078.085.125.122.07.056.082.117.085.181.088.087.174.173.259.257.04.008.077.015.115.023q.02.113.06.151l.26.257c.018.017.049.022.074.03.102.031.105.03.131.134.007.028.01.052.031.074l.906.903c.052.052.1.046.152.058.015.062.023.118.085.179l2.336,2.32c.065.003.121.021.183.084.28.28.56.559.836.834.005.033.009.06.013.086.007.035.05.081.081.093q.14.054.18.095l.875.87c.072.071.135.171.244.16.012.036.023.072.039.123.192.192.396.395.601.599.053.054.101.039.152.054.064.063.128.128.195.194.004.064.016.127.086.182.044.035.041.039.146.071.01.003.028.016.028.016.001.07.038.124.097.182l1.07,1.062.486.483c.064.063.139.121.13.212.036.03.078.009.105.031.069.057.134.121.196.188.016.017.013.051.019.077.015.063.114.161.175.175l.074.016q.013.068.108.121c.009.005.022.016.023.022.007.053.019.099.069.148l1.136,1.126c.052.051.049.099.06.151l.073.017c.057.012.099.053.111.11.006.026.011.053.018.082l.083.082c.389.387,1.018.385,1.405-.004l.003-.003.014-.014.497-.503c.073.016.119-.013.116-.102,0-.005.016-.022.021-.022.072.002.129-.04.178-.102.046-.058.098-.048.156-.062.293-.298.591-.601.89-.904.061-.063.117-.083.185-.086.004-.028.007-.055.01-.08.01-.055.049-.089.115-.105.012-.002.026-.004.04-.006.027-.004.037-.023.034-.057-.003-.032.007-.056.028-.062.026-.007.069-.003.076-.014.02-.033.025-.071.036-.11.057-.015.114-.021.176-.083.061-.062.066-.119.083-.183.069.002.126-.028.183-.089.048-.05.055-.096.066-.149.009-.04.045-.077.085-.085.053-.011.1-.018.147-.07.071-.079.146-.155.224-.227.054-.05.045-.1.057-.152.062-.014.119-.022.179-.086.214-.218.426-.434.637-.649.008-.04.015-.077.022-.115q.113-.021.152-.061l.383-.391c.017-.018.022-.049.029-.074.03-.102.029-.104.133-.132.028-.007.053-.01.074-.032l.448-.455c.051-.053.099-.046.151-.059.013-.062.021-.119.083-.18.3-.303.599-.605.897-.905.008-.04.015-.077.022-.114.054-.012.102-.008.152-.06l.641-.649c.056-.056.101-.109.099-.18,0-.005.015-.02.022-.021.149-.022.222-.11.236-.257.125-.126.249-.259.382-.384.064-.06.079-.118.083-.184.028-.004.055-.009.081-.013.055-.011.086-.048.103-.117.025-.102.034-.116.127-.137.092-.021.141-.088.19-.161-.005-.072.043-.125.099-.18l.386-.388c.037-.036.043-.071.051-.111.013-.065.049-.105.104-.115.024-.003.051-.005.085-.009-.012-.073.018-.128.078-.189.299-.302.598-.604.892-.901.01-.065.011-.064.11-.127.008-.005.02-.017.021-.024.005-.053.018-.099.068-.148l.483-.485c.053-.052.044-.1.057-.154.083-.084.168-.17.256-.26.06-.011.122-.014.179-.085.057-.07.126-.131.187-.192.009-.043.004-.091.028-.12.057-.069.127-.128.191-.191.128.01.192-.113.276-.191.098-.099.193-.194.289-.291.062-.063.142-.119.13-.212.059-.085.129-.16.216-.217.093.01.148-.073.209-.135l.672-.682c.051-.053.099-.046.153-.059.126-.127.253-.257.384-.389.01-.06.009-.127.083-.179.002-.066.019-.129.081-.184l.023-.16c-.08-.079-.16-.158-.244-.241-.02.004-.047.012-.073.015-.053.005-.102.015-.146.07-.035.037-.06.063-.095.098-.034.04-.07.045-.11.052-.09.016-.091.017-.159-.044-.026-.023-.052-.041-.096-.026-.036.012-.058.008-.05-.017.003-.011-.002-.016,0-.025.141-.142.281-.285.422-.427l-.592.28c-.035.001-.051-.024-.075-.04-.006.001-.013.002-.019.003-.003-.002-.007-.005-.01-.007.001-.002,0-.004,0-.006.029-.042.015-.064-.028-.094-.1-.07-.198-.139-.299-.21-.063-.041-.058-.092-.082-.142-.148-.102-.295-.204-.449-.31-.072-.052-.131-.048-.197-.047-.013-.067-.046-.123-.123-.162-.04-.02-.067-.049-.086-.091-.045-.099-.052-.102-.154-.105-.094-.003-.168-.051-.217-.118-.032-.044-.043-.095-.106-.124-.027-.013-.055-.029-.078-.048-.068-.056-.133-.056-.2-.042-.021-.064-.047-.12-.127-.16-.08-.041-.156-.094-.235-.138-.017-.068-.056-.119-.134-.156-.08-.037-.153-.108-.241-.074-.005.002-.026-.009-.027-.014-.018-.07-.075-.109-.145-.148-.511-.279-1.025-.556-1.553-.803-.066-.032-.08-.078-.111-.13-.562-.267-1.138-.523-1.726-.75-.07-.028-.079-.076-.113-.117q-.115.025-.202-.01c-.231-.084-.462-.168-.691-.251-.041-.103-.145-.13-.249-.153-.012-.003-.027.005-.038.011-.054.028-.111.003-.168-.015-.046-.014-.078-.034-.104-.069-.032-.043-.037-.043-.094-.025-.013.004-.026.009-.042.014l-.073-.089c-.036.01-.073.021-.11.031l-.049-.066c-.016-.023-.035-.022-.068-.007-.021.01-.054.019-.078.013-.105-.032-.205-.062-.31-.093-.024-.007-.047-.032-.059-.052-.033-.054-.098-.056-.153-.076-.049-.018-.084-.006-.124.006-.069.021-.116.01-.154-.032l-.026-.032c-.044-.047-.181-.085-.241-.068-.069.019-.143.024-.162,0-.042-.054-.091-.089-.176-.108-.586-.142-1.177-.259-1.771-.365-.079-.012-.151-.021-.208.025-.004.003-.028,0-.031-.003-.041-.059-.11-.075-.19-.086-.215-.027-.427-.071-.644-.086-.074-.007-.101-.047-.145-.082-.034.017-.069.035-.106.054-.534-.066-1.075-.094-1.616-.124-.047,0-.095.004-.139-.004-.09-.015-.138.029-.192.063-.046-.029-.074-.07-.149-.069-.17.002-.341-.01-.511-.004-.071.004-.111-.021-.157-.051-.035-.023-.089-.02-.123.002-.046.03-.082.065-.154.06-.046-.003-.094-.002-.139.004-.074.009-.107-.032-.16-.064-.411.01-.828.055-1.246.083-.075.009-.075.009-.247-.037-.023-.006-.098.017-.123.037l-.061.049-.071-.04c-.025-.014-.043-.006-.065.022-.024.032-.063.048-.113.051-.06.004-.114.016-.172-.013-.087-.043-.105-.039-.188.03-.011.009-.018.021-.03.029-.023.016-.097.02-.126.007-.023-.011-.048-.024-.074-.037-.043.051-.09.09-.18.101-.153.019-.305.05-.452.075-.056-.022-.093-.057-.167-.038-.154.034-.304.068-.457.102-.079.019-.15.03-.21-.012-.055.004-.053.055-.087.065-.103.029-.209.051-.311.087-.072.024-.112-.007-.165-.024-.026.029-.052.058-.079.088-.023-.01-.047-.019-.073-.03-.026-.013-.052-.012-.085.002-.054.022-.12.018-.16.071-.038.049-.045.046-.092.035-.026-.006-.055-.019-.08-.014-.061.011-.123.027-.18.051-.109.043-.252.043-.308.16-.072.026-.139.051-.216.078-.07.029-.112-.002-.168-.016-.085.029-.175.053-.259.086-.03-.006-.056-.012-.083-.018-.057-.013-.115.009-.151.057l-.05.065-.176.066c-.05.019-.049.019-.167.008-.01,0-.031.001-.033.004-.066.129-.227.13-.342.197-.025.013-.066.029-.082.022-.123-.048-.231.044-.339.09-.336.134-.661.295-.983.46-.068.034-.112.014-.168.01-.036.054-.061.106-.142.146-.441.243-.888.478-1.31.759-.065-.011-.127-.006-.203.046-.127.092-.268.166-.39.257-.02,0-.034,0-.047,0-.101.004-.119.017-.164.107-.012.024-.021.056-.041.071l-.348.249c-.021.014-.056.017-.08.015-.036-.003-.053.003-.066.028-.051.103-.054.102-.094.141-.066.066-.13.072-.196.069-.151.121-.299.241-.446.359-.041.005-.081.009-.12.014-.021.052-.017.104-.076.154l-.498.447c-.024.021-.049.027-.079.03-.025.002-.06.008-.079.024l-.065.058c-.349.31-.381.844-.071,1.193l.035.037ZM15.397,12.4c-.028-.071-.009-.072-.008-.069.008.02.02.043.016.059-.001.007-.006.006-.009.01ZM9.87,6.909c-.02-.009-.03-.029-.025-.058,0-.003.024.001.036.006.02.007.03.029.025.057,0,.003-.024-.003-.036-.005ZM10.485,7.329c-.02-.007-.03-.029-.025-.057,0-.003.024.003.036.005.02.009.03.029.025.058,0,.003-.024-.001-.036-.006ZM10.675,7.629c-.078-.053-.092-.113-.036-.15.016-.01.044-.005.075-.007.005.051.01.099.015.15,0,.019-.026.026-.054.007ZM11.636,8.65c-.011,0-.034-.002-.036-.005-.013-.032-.009-.049.009-.053.013.002.035.002.036.006.013.032.009.051-.009.052ZM12.48,9.377c-.029.004-.05-.006-.058-.025-.002-.012-.008-.035-.005-.036.029-.004.051.006.058.026.004.012.009.035.005.036ZM12.672,9.68c-.012,0-.034-.002-.036-.005-.013-.032-.009-.049.009-.053.013.002.035.002.036.006.013.032.009.051-.009.052ZM13.173,10.084c-.013-.002-.035-.002-.036-.006-.013-.032-.009-.051.009-.052.012,0,.034.002.036.005.013.032.009.05-.009.053ZM13.49,10.405c-.012-.002-.028-.004-.036-.012l-.187-.187c-.007-.008-.008-.026-.006-.037.003-.018.026-.026.055-.006.072.049.098.062.141.071.013.013.027.027.04.04.003.028.006.056.013.083.009.035.007.051-.02.046ZM14.279,11.193c-.002.01-.012.02-.023.023-.021.004-.045.004-.068.005.001-.023,0-.047.005-.068.002-.01.014-.016.022-.023l.069-.004c-.001.023,0,.047-.005.068ZM14.421,11.419c-.039.011-.111-.059-.108-.105,0-.007.009-.012.014-.018.039-.009.11.06.108.105,0,.007-.007.016-.014.017ZM14.614,11.612c-.011,0-.034-.002-.036-.005-.013-.032-.009-.05.009-.053.012.002.035.002.036.006.013.032.009.051-.009.052ZM15.357,12.326c.017.033.028.057.038.077-.01.009-.024.007-.036-.02-.008-.018-.004-.039-.001-.057ZM15.416,12.498c-.03.006-.044-.006-.05-.031-.006-.026-.003-.046.021-.053.003,0,.016.013.024.024.01.024.012.032.012.038,0,.008-.001.022-.006.023ZM15.833,12.738c-.002.01-.012.02-.023.023-.021.005-.045.004-.068.005.001-.023,0-.047.005-.068.002-.01.014-.016.022-.024l.069-.004c-.001.023,0,.047-.005.068ZM20.299,17.553c-.011,0-.034-.002-.036-.005-.014-.032-.009-.05.008-.054.012.002.034.002.036.006.014.032.01.051-.009.053ZM27.695,16.632c-.026.006-.045.002-.053-.02.005-.005.01-.01.015-.015.022-.017.036-.021.046-.021.008,0,.022.001.023.006.006.03-.006.044-.031.05ZM28.187,16.427c-.007.02-.028.03-.058.026-.003,0,.003-.023.005-.036.009-.02.029-.03.058-.026.003,0,0,.024-.005.036ZM31.247,13.055c-.032.014-.05.009-.053-.008.002-.012.002-.034.005-.036,0,0,0,0,0,0,.031-.013.051-.01.052.009,0,.011-.002.034-.005.036ZM32.555,11.642s-.003,0-.005,0c.002-.002.004-.004.006-.006,0,.002,0,.004,0,.006ZM36.946,5.105s.009.022.013.034c0,.018-.017.026-.05.019,0,0,0,0,0,0-.004,0-.011-.022-.012-.034-.002-.018.016-.026.05-.019ZM36.622,4.904c.021.003.035.022.037.052,0,.003-.023.002-.036.002-.021-.005-.035-.023-.037-.052,0-.003.023-.004.036-.002ZM13.466,2.308c.012.002.036.004.036.007-.006.029-.022.046-.043.047-.013,0-.036-.003-.036-.006.005-.029.022-.045.043-.047ZM11.09,3.575s.024,0,.037.001c.017.007.018.025-.002.054-.002.003-.025.002-.036,0-.018-.005-.018-.025,0-.054ZM8.99,6.026c.017-.009.045-.003.068-.004l.005.038c.004.025.005.05.012.076.009.034.006.05-.015.05-.027,0-.05-.012-.069-.04-.049-.046-.05-.091,0-.119Z"></path><path class="cls-4" d="M39.692,40.403l-.035-.037-.011-.011-.428-.424c-.017-.017-.051-.024-.075-.025-.036-.002-.05-.01-.058-.036-.031-.106-.037-.103-.07-.145-.055-.069-.118-.082-.186-.086-.001-.067-.022-.123-.084-.184-.324-.322-.648-.643-.976-.968.015-.068-.025-.122-.083-.18-.049-.049-.096-.056-.149-.068-.04-.009-.077-.045-.086-.086-.011-.053-.015-.102-.069-.147-.035-.029-.068-.062-.097-.096-.048-.057-.1-.047-.157-.06-.038-.038-.078-.085-.124-.122-.07-.056-.082-.117-.085-.181-.088-.087-.174-.173-.259-.257-.04-.008-.077-.015-.115-.023q-.02-.113-.06-.151l-.26-.257c-.018-.017-.049-.022-.074-.03-.102-.031-.105-.03-.131-.134-.007-.028-.01-.052-.031-.074l-.906-.903c-.052-.052-.1-.046-.152-.058-.015-.062-.023-.118-.085-.179l-2.336-2.32c-.065-.003-.121-.021-.183-.084-.28-.28-.56-.559-.836-.834-.005-.033-.009-.06-.013-.086-.007-.035-.05-.081-.081-.093q-.14-.054-.18-.095l-.875-.87c-.072-.071-.135-.171-.244-.16-.011-.036-.023-.072-.039-.123-.192-.192-.396-.395-.601-.599-.053-.054-.101-.039-.152-.054-.064-.063-.128-.128-.195-.194-.004-.064-.016-.127-.086-.182-.044-.035-.041-.039-.146-.071-.01-.003-.028-.016-.028-.016-.001-.07-.038-.124-.097-.182l-1.07-1.062-.486-.483c-.064-.063-.139-.121-.13-.213-.036-.03-.078-.009-.105-.031-.069-.057-.134-.121-.196-.188-.016-.017-.013-.051-.019-.077-.015-.063-.113-.161-.175-.175l-.074-.016q-.013-.068-.108-.121c-.009-.005-.022-.016-.022-.022-.007-.053-.019-.099-.069-.148l-1.136-1.126c-.052-.051-.049-.099-.06-.151l-.073-.017c-.057-.012-.099-.053-.111-.11-.006-.026-.011-.053-.018-.082l-.083-.082c-.389-.387-1.018-.385-1.405.004l-.003.003-.014.015-.497.503c-.073-.016-.119.013-.116.102,0,.005-.016.022-.021.022-.072-.002-.129.04-.178.102-.046.058-.098.048-.156.062-.293.298-.591.601-.89.904-.061.063-.117.083-.185.086-.004.028-.007.055-.01.08-.01.055-.049.089-.115.105-.012.002-.026.004-.04.006-.027.004-.037.023-.034.057.003.032-.007.056-.028.062-.026.007-.069.003-.076.014-.02.033-.025.071-.036.11-.057.015-.114.021-.176.083-.061.062-.066.119-.083.183-.069-.002-.126.028-.183.089-.048.05-.055.096-.066.149-.009.04-.045.077-.085.085-.053.011-.1.018-.147.07-.071.079-.146.155-.224.227-.054.05-.045.1-.057.152-.062.014-.119.022-.179.085-.214.218-.426.434-.637.649-.008.04-.015.077-.022.115q-.113.021-.152.061l-.383.391c-.017.018-.022.049-.029.074-.03.102-.029.104-.133.132-.028.007-.052.01-.074.032l-.448.455c-.051.053-.099.046-.151.059-.013.062-.021.119-.083.18-.3.303-.599.605-.897.905-.008.04-.015.077-.022.114-.054.012-.102.008-.152.06l-.641.649c-.056.056-.101.109-.099.18,0,.005-.015.02-.022.021-.149.022-.222.11-.236.257-.125.126-.249.259-.382.384-.064.06-.079.118-.083.184-.028.004-.055.009-.081.013-.055.011-.086.048-.103.117-.025.102-.034.116-.127.137-.092.021-.141.088-.19.161.005.072-.043.125-.099.18l-.386.388c-.037.036-.043.071-.051.111-.013.065-.049.105-.104.115-.024.003-.051.005-.085.009.012.073-.018.128-.078.189-.299.302-.598.604-.892.901-.01.065-.011.064-.11.127-.008.005-.02.017-.021.024-.005.053-.018.099-.068.148l-.483.485c-.053.052-.044.1-.057.154-.083.084-.168.17-.256.26-.06.011-.121.014-.179.085-.057.07-.126.131-.187.192-.009.043-.004.091-.028.12-.057.069-.127.128-.191.191-.128-.01-.192.113-.276.191-.098.099-.193.194-.289.291-.062.063-.142.12-.13.212-.059.085-.129.16-.216.217-.093-.01-.148.073-.209.135l-.672.682c-.051.053-.099.046-.153.059-.126.127-.253.257-.384.389-.01.06-.009.127-.083.179-.002.066-.019.129-.081.184l-.023.16c.08.079.16.158.244.241.02-.004.047-.012.073-.015.053-.005.102-.015.146-.07.035-.037.06-.063.095-.098.034-.04.071-.045.11-.052.09-.016.091-.017.159.044.026.023.052.041.096.026.036-.012.058-.008.05.017-.003.011.002.016,0,.025l-.422.427.592-.279c.035-.001.051.024.075.04.006-.001.013-.002.019-.003.003.002.007.005.01.007-.001.002,0,.004,0,.006-.029.042-.015.064.028.094.1.07.198.139.299.21.063.041.058.092.082.142.148.102.295.204.449.31.072.052.13.048.197.047.013.067.046.123.123.162.04.02.067.049.086.091.045.099.052.102.154.105.094.003.168.051.217.119.032.044.043.095.106.124.027.013.055.029.078.048.068.056.133.056.2.042.021.064.047.12.127.16.081.041.156.094.235.138.017.068.055.119.134.156.08.037.153.108.241.074.005-.002.026.009.027.014.017.07.075.109.145.148.511.279,1.025.556,1.553.803.066.032.08.078.111.13.562.267,1.138.523,1.726.75.07.028.079.076.113.117q.115-.025.202.01c.231.084.462.168.691.251.041.103.145.13.249.153.012.003.027-.005.038-.011.054-.028.111-.003.168.015.046.014.078.034.104.069.032.043.037.043.094.025.013-.004.026-.009.042-.014l.073.089c.036-.01.073-.021.11-.031l.049.066c.016.023.035.022.068.007.021-.01.054-.019.078-.013.105.032.205.062.309.093.024.007.048.032.06.052.033.054.098.056.153.076.049.018.084.006.124-.006.069-.021.116-.01.154.032l.026.032c.044.047.181.086.241.068.069-.019.143-.024.162,0,.042.054.091.089.176.108.586.142,1.177.259,1.771.365.079.012.151.021.208-.025.004-.003.028,0,.031.003.041.059.11.075.19.086.215.027.427.071.644.086.074.007.101.047.145.082.034-.017.069-.035.106-.054.534.066,1.075.094,1.616.124.046,0,.095-.004.139.004.09.015.138-.029.192-.063.046.029.074.07.149.069.17-.002.341.01.511.004.071-.004.111.021.157.051.035.023.089.02.123-.002.046-.03.082-.065.154-.06.046.003.093.002.139-.004.074-.009.107.032.16.064.411-.01.828-.055,1.246-.083.075-.009.075-.009.247.037.023.006.098-.017.123-.037l.061-.049.071.04c.024.014.043.006.065-.022.024-.032.063-.048.113-.051.06-.004.114-.016.172.013.087.043.105.04.188-.03.011-.009.018-.021.029-.029.023-.016.097-.02.126-.006.023.011.048.024.074.037.043-.051.09-.09.18-.101.153-.019.305-.05.452-.075.056.022.093.057.166.038.154-.034.304-.068.457-.102.078-.019.15-.03.21.012.055-.004.053-.055.087-.065.103-.029.209-.051.311-.087.072-.024.112.007.165.024.026-.029.052-.058.079-.088.023.009.047.019.073.03.026.013.052.012.085-.002.054-.022.12-.018.16-.071.038-.049.045-.046.092-.035.026.006.055.019.08.014.061-.011.123-.027.18-.051.11-.043.252-.043.308-.16.072-.026.139-.051.216-.078.07-.029.112.002.168.016.085-.029.175-.053.259-.086.03.006.056.012.083.018.057.013.115-.009.151-.057l.05-.065.176-.066c.05-.019.049-.019.167-.008.01,0,.031-.001.033-.004.066-.129.227-.13.342-.197.025-.013.066-.029.082-.022.123.048.231-.044.339-.09.336-.134.661-.295.983-.46.068-.034.112-.014.168-.01.036-.054.061-.106.142-.146.442-.243.888-.478,1.311-.759.065.011.127.006.203-.046.127-.092.268-.166.39-.257.02,0,.034,0,.047,0,.101-.004.119-.017.164-.107.012-.024.02-.056.041-.071l.348-.249c.021-.014.056-.017.08-.015.036.003.053-.003.066-.028.051-.103.054-.102.094-.14.066-.066.13-.072.196-.069.151-.121.299-.241.446-.359.041-.005.081-.009.12-.014.021-.052.017-.104.076-.154l.498-.447c.024-.021.049-.027.079-.03.025-.002.06-.008.079-.024l.065-.058c.349-.31.381-.844.071-1.193ZM32.573,34.199c.028.071.009.072.008.069-.008-.02-.02-.043-.016-.059.001-.007.006-.006.009-.01ZM38.1,39.69c.02.009.03.029.025.058,0,.003-.024-.001-.036-.006-.02-.007-.03-.029-.025-.057,0-.003.024.003.036.005ZM37.485,39.269c.02.007.03.029.025.057,0,.003-.024-.003-.036-.005-.02-.009-.03-.029-.025-.058,0-.003.024.001.036.006ZM37.295,38.97c.078.053.092.113.036.15-.016.01-.044.005-.075.007-.005-.051-.01-.099-.015-.15,0-.019.026-.026.054-.007ZM36.333,37.949c.012,0,.034.002.036.005.013.032.009.049-.009.053-.013-.002-.035-.002-.036-.006-.013-.032-.009-.051.009-.052ZM35.49,37.222c.029-.004.049.006.058.026.002.012.008.035.005.036-.029.004-.051-.006-.058-.026-.004-.012-.009-.035-.005-.036ZM35.298,36.918c.012,0,.034.002.036.005.013.032.009.049-.009.053-.013-.002-.035-.002-.036-.006-.013-.032-.009-.051.009-.052ZM34.796,36.515c.013.002.035.002.036.006.013.032.009.051-.009.052-.012,0-.034-.002-.036-.005-.013-.032-.009-.05.009-.053ZM34.48,36.194c.012.002.028.004.036.012l.187.187c.007.008.007.026.006.037-.003.018-.026.026-.055.006-.072-.049-.098-.062-.141-.071-.013-.014-.027-.027-.04-.04-.003-.028-.006-.055-.013-.083-.009-.035-.007-.051.02-.046ZM33.69,35.405c.002-.01.012-.02.023-.023.021-.004.045-.004.068-.005-.001.023,0,.047-.005.068-.002.01-.014.016-.022.023l-.069.004c.001-.023,0-.047.005-.068ZM33.549,35.18c.039-.011.111.059.108.105,0,.007-.009.012-.014.018-.039.009-.11-.06-.108-.105,0-.007.007-.016.014-.017ZM33.356,34.987c.011,0,.034.002.036.005.014.032.009.05-.009.053-.012-.002-.035-.002-.036-.006-.013-.032-.009-.051.009-.052ZM32.613,34.273c-.017-.033-.028-.057-.038-.077.01-.009.024-.007.036.02.008.018.004.039.001.057ZM32.554,34.101c.03-.006.044.006.05.031.006.026.003.046-.021.053-.003,0-.016-.013-.024-.024-.01-.024-.012-.032-.012-.038,0-.008.001-.022.007-.023ZM32.137,33.86c.002-.01.012-.02.023-.023.021-.005.045-.004.068-.005-.001.023,0,.047-.005.068-.002.01-.014.016-.022.024l-.069.004c.001-.023,0-.047.005-.068ZM27.671,29.046c.011-.001.034.002.036.005.014.032.009.05-.008.054-.012-.002-.034-.002-.036-.006-.014-.032-.01-.051.009-.053ZM20.275,29.966c.026-.006.045-.002.053.02-.005.005-.01.01-.015.015-.022.017-.036.021-.046.021-.008,0-.022-.001-.023-.006-.006-.03.006-.044.031-.05ZM19.783,30.172c.007-.02.028-.03.058-.026.003,0-.003.023-.005.036-.009.02-.029.03-.058.026-.003,0,0-.024.005-.036ZM16.723,33.544c.032-.014.05-.009.053.009-.002.012-.002.034-.006.036,0,0,0,0,0,0-.032.014-.051.01-.052-.009,0-.011.002-.034.005-.036ZM15.414,34.956s.003,0,.005,0c-.002.002-.004.004-.006.006,0-.002,0-.004,0-.006ZM11.024,41.493s-.009-.022-.013-.034c0-.018.017-.026.05-.019,0,0,0,0,0,0,.004.001.011.022.012.034.002.018-.016.026-.05.019ZM11.348,41.695c-.021-.003-.035-.022-.037-.052,0-.003.024-.002.036-.002.021.005.035.023.037.052,0,.003-.023.004-.036.002ZM34.504,44.291c-.012-.002-.036-.004-.036-.007.006-.029.022-.046.043-.047.013,0,.036.003.036.006-.005.029-.022.045-.043.047ZM36.88,43.024s-.024,0-.037-.001c-.017-.007-.018-.025.002-.054.002-.003.025-.002.036,0,.018.005.018.025,0,.054ZM38.98,40.572c-.017.01-.045.003-.068.005l-.005-.038c-.004-.025-.005-.05-.012-.076-.009-.034-.006-.05.015-.05.028,0,.05.012.069.04.049.046.05.091.001.119Z"></path><path class="cls-4" d="M8.272,36.627s-.002,0-.002,0c-.005.005-.004.009-.011.014-.004.008.014-.009.013-.013Z"></path><path class="cls-4" d="M13.181,14.674h0c.005.005.008.006.013.013.008.004-.009-.014-.013-.013Z"></path><path class="cls-4" d="M8.97,35.846c.039-.007.076-.014.114-.021l.114-.019c.005-.029.009-.056.013-.081.007-.034.051-.084.08-.093.013-.004.026-.003.04-.006.025-.007.056-.008.075-.024.046-.038.088-.083.13-.127.038-.042.079-.087.119-.131-.009-.068.055-.122.082-.183.054-.122.049-.125.105-.176.068-.063.129-.125.124-.214-.001-.019.069-.066.1-.072.025-.004.051-.009.079-.014.001-.066.019-.128.087-.182.041-.032.038-.036.072-.144.014-.043.045-.074.084-.09.126-.05.131-.045.179-.097.049-.053.098-.048.149-.062.022-.006.055-.033.065-.054.035-.074.034-.138.003-.212-.025-.06.022-.123.101-.14.026-.005.057-.002.077-.018.067-.053.117-.145.211-.133.084-.036.131-.118.199-.174.061-.05.105-.106.102-.178,0-.005.017-.022.021-.022.069.01.123-.055.184-.081.027-.012.041.008.061.023.044.032.052.026.1-.013.027-.022.042-.043.044-.07.001-.024-.015-.03-.051-.017-.035.012-.053.008-.054-.013-.002-.028.013-.051.042-.071.027-.019.046-.049.033-.07-.007-.012-.041-.004-.063-.004-.014.002-.026.004-.04.005.006-.023.01-.047.019-.07.005-.012.02-.022.031-.032.036-.03.062-.03.098-.001.035.028.067.027.099-.004l.13-.128c.044-.044.065-.083.049-.104-.019-.026-.041-.048-.088-.04-.066.01-.064.004-.059-.041.003-.035.005-.072.008-.107.002-.002.004-.004.006-.006.089-.02.122.074.214.022.037.05.099.045.166.032.048-.009.053-.007.065-.071.008-.045.032-.078.066-.105.068-.053.089-.114.089-.181.027-.005.053-.015.077-.015.049,0,.073-.043.104-.072l.324-.319.199-.029c.03-.005.08-.049.093-.081.051-.13.048-.134.098-.178.054-.047.056-.097.063-.148.078-.036.151-.029.233-.047-.008-.066.014-.126.081-.181.046-.038.086-.084.127-.124.093.012.155-.054.218-.12.037-.039.04-.068.01-.1-.023-.024-.057-.042-.069-.073-.02-.052.053-.092.07-.14.015-.044-.007-.102.08-.104.051-.002.105-.014.158-.022l.024-.113c.04-.006.081-.016.119-.016.077,0,.122-.028.117-.112l.185-.194c.009-.009.024-.01.036-.017q.093-.052.106-.122l.113-.023q.018-.095.132-.141l.031-.198c.01-.005.021-.012.031-.014.09-.021.09-.021.145-.073.077-.073.077-.073.042-.159-.024-.059-.021-.064.038-.075.027-.006.052-.011.082-.018l.512-.505c.07-.01.138-.02.202-.03.021-.004.031-.031.025-.06-.002-.011-.014-.018-.023-.024-.022-.013-.031-.035-.013-.065.011-.019.042-.028.062-.014.027.019.045.05.092.033.008-.038.014-.075.025-.113.003-.011.02-.021.031-.032-.027-.041-.028-.067.004-.098.064-.063.135-.121.128-.211,0-.008.015-.022.023-.034.02-.027.043-.041.069-.046.03-.006.035.008.023.045-.019.059,0,.098.052.108.046.009.07-.051.104-.065.161-.069.161-.066.214-.118l.225-.222c.036-.073-.069-.086-.024-.161l.197-.029c.012-.002.027-.008.036-.017.02-.021.039-.043.053-.067.017-.03.009-.052-.017-.063-.058.045-.066.046-.112.016-.03.04-.067.045-.094.031-.027-.014-.044-.042-.066-.063-.041.04-.08.083-.123.12-.037.032-.043.066-.05.103-.009.045-.038.067-.067.053-.078-.038-.077-.041-.121-.032-.029.006-.049.004-.073-.006-.001.001-.001,0-.003.001.005-.005.01-.01.015-.015,0,0,0,0,0,0,0,0-.001.001-.001.002.039-.04.068-.078.101-.096.034-.019.075-.016.114-.023-.01-.09.056-.152.122-.214.023-.021.047-.034.073-.029.005.001.002.02.001.031,0,.036-.029.083.012.103.03-.04.067-.045.094-.031.027.014.044.042.066.063.058-.045.066-.046.112-.016.03-.019.049-.046.037-.07-.039-.084-.045-.084-.19-.1-.011-.001-.023-.006-.028-.014-.012-.017-.024-.036-.028-.057-.005-.028.015-.035.051-.039.077-.008.156-.025.234-.038-.005.034-.01.061-.014.086-.01.047.022.063.05.078.033.016.103-.043.117-.098.007-.026,0-.063.014-.077.061-.058.079-.118.08-.182.039-.007.077-.014.115-.021.004-.028.008-.053.012-.08.003-.029.019-.032.055-.038.095-.016.111-.034.136-.125.015-.056.016-.06.068-.065.035-.004.05-.009.058-.035.032-.105.031-.107.071-.143.046-.041.078-.082.084-.141.007-.061.05-.101.104-.112.037-.008.077.005.141-.073-.059.059-.06.059-.053.008.003-.023.007-.053.022-.07.038-.042.081-.079.124-.116.008-.007.035-.006.035-.006,0,.02.004.046-.008.061-.026.034-.06.062-.122.123-.02.056.003.067.032.048.036-.024.07-.053.1-.084.034-.036.069-.048.109-.055.049-.008.067-.035.051-.07-.01-.02-.029-.033-.036-.054-.009-.026.011-.049.034-.073.024-.025.047-.046.072-.038.031.01.057.031.088.04.033.01.047-.008.045-.047,0-.021.005-.058.02-.069.025-.02.047-.004.066.009.048.034.072.034.086.007.016-.031.009-.053-.016-.064-.025-.011-.032-.032-.018-.063.009-.02.032-.029.063-.027.028.002.052-.008.074-.03.043-.043.089-.083.129-.129.049-.056.099-.045.15-.057l.024-.113c.037-.007.075-.013.115-.02-.002-.071.023-.132.091-.183.024-.02.045-.037.067-.055.066-.009.132-.019.205-.029.008-.035.017-.071.026-.11.035-.006.073-.011.111-.021.007-.002.019-.017.03-.029-.007,0-.014-.008-.019-.025-.003-.01-.002-.025.004-.035.013-.022.029-.044.045-.064.018-.023.047-.037.067-.026.009.005.005.041-.006.058-.013.022-.039.04-.074.075-.005.041.017.05.048.033.036-.02.069-.056.105-.067.052-.016.106-.021.158-.024.067-.004.114-.101.184-.083.01.003.03,0,.038-.007.044-.041.094-.081.127-.128.021-.03.017-.073.024-.112.024.003.047.001.067-.005.165-.051.257-.227.206-.392l-.191-.62c-.018-.057-.068-.103-.117-.148-.043-.039-.171-.051-.217-.024-.044.026-.062.024-.1-.008-.054-.046-.058-.067-.022-.128.027-.046.027-.059-.015-.099-.067-.064-.128-.128-.118-.214l-.127-.128-.022-.116-.159-.025c-.009.006-.019.011-.027.018l-.049.046c-.043.038-.084.032-.129-.026-.016-.021-.019-.049-.029-.074l.038.004.074.007c.002-.028-.006-.054-.03-.073-.041-.033-.045-.07-.052-.109-.008-.047-.036-.065-.072-.043-.035.022-.065.05-.144.008-.003.001-.002.004-.006.005-.016.003-.04-.008-.019-.018-.044,0-.049-.03-.046-.031.018-.003.04-.007.058.002.011.005.013.011.018.017.029-.012.047-.024.059-.036.029-.028.028-.067-.001-.097-.075-.075-.149-.148-.225-.224-.017-.016-.047-.016-.071-.023l.005.039c.001.023.011.058-.001.065-.021.013-.049-.007-.071-.03-.039-.039-.052-.069-.037-.103.004-.01.018-.014.023-.024.026-.052.025-.052-.022-.1-.032-.032-.063-.063-.097-.096-.009-.008-.026-.009-.038-.009-.008,0-.017.008-.017.015,0,.036.021.078-.003.107-.021.026-.048.038-.091.015-.005-.039-.008-.078-.018-.117-.008-.031-.007-.053.018-.064.025-.011.033-.031.021-.061-.008-.021-.029-.026-.062-.031-.047-.006-.047-.009-.063-.072-.017-.069-.051-.108-.102-.117l-.198-.034c-.019-.003-.075-.089-.067-.103.01-.019.027-.034.037-.053.018-.036,0-.063-.047-.071-.04-.007-.077-.015-.109-.055-.049-.061-.106-.103-.178-.101-.005,0-.022-.016-.022-.021.003-.071-.04-.125-.098-.179-.055-.055-.107-.107-.16-.16-.024-.025-.022-.051.007-.096.026-.041.025-.063-.011-.099l-.128-.129c-.058-.058-.058-.058-.129-.022-.058.03-.128-.013-.143-.088-.004-.025-.008-.052-.012-.079q-.116-.022-.181-.087l-.48-.483c-.041.028-.069.027-.083-.004-.013-.03-.006-.05.019-.06-.03-.019-.049-.048-.037-.071.027-.049.052-.095.031-.166-.011-.039-.015-.074-.053-.11-.075-.075-.149-.148-.216-.216-.078-.012-.145-.023-.212-.033-.028-.072-.039-.147-.119-.206-.048-.035-.089-.083-.129-.128-.049-.057-.1-.042-.151-.057l-.023-.113-.04-.006c-.098-.019-.119-.031-.137-.125-.015-.079-.102-.142-.093-.224.003-.03-.055-.077-.087-.083-.078-.015-.156-.033-.208.022-.005.006-.031.002-.038-.006-.059-.062-.15-.109-.144-.205,0-.012,0-.029-.008-.038-.019-.023-.041-.044-.064-.063-.036-.03-.05-.012-.044.057l.006.04c-.023-.005-.049-.003-.067-.016-.059-.042-.073-.092-.036-.129.018-.018.036-.035.017-.064-.041-.06-.086-.117-.081-.184-.056-.056-.082-.117-.082-.183-.012-.003-.025-.01-.035-.01-.053.004-.07.052-.104.078-.036.027-.112-.007-.134-.062-.005-.013-.006-.027-.006-.039.002-.058-.034-.101-.081-.143-.043-.039-.04-.041-.072-.145-.017-.056-.044-.078-.121-.099-.013-.003-.027-.002-.04-.007-.021-.008-.025-.029-.029-.062-.009-.076-.096-.14-.091-.224.002-.041-.088-.088-.127-.068-.01.005-.014.018-.025.023-.057.026-.124-.021-.14-.098-.008-.038-.005-.076-.047-.111-.058-.049-.111-.102-.106-.177.002-.025-.02-.047-.045-.07-.044-.044-.086-.086-.129-.129-.022-.022-.03-.045-.031-.074,0-.077-.104-.144-.087-.223-.054-.068-.101-.146-.195-.155-.055-.008-.106-.016-.158-.024l-.014-.077c-.011-.058-.015-.059-.077-.027-.01.005-.014.022-.025.022-.02,0-.055,0-.063-.011-.019-.027-.01-.052.011-.065.035-.021.032-.058.005-.097-.026-.038-.065-.062-.106-.059-.01,0-.016.015-.01.037.02.025.022.038.022.049,0,.008-.001.022-.007.023-.03.006-.044-.006-.05-.031-.006-.026-.003-.046.021-.053-.026-.029-.047-.04-.073-.041-.037-.002-.072-.009-.111-.046-.051-.048-.069-.046-.099-.019-.025.023-.045.051-.073.07-.021.014-.049.005-.062-.014-.007-.01-.011-.032-.006-.038.047-.048.094-.096.143-.145.034.004.072.008.11.012-.042-.124-.079-.147-.157-.098-.033.021-.065.022-.101-.017-.054-.058-.088-.047-.13-.017-.045.033-.051.026-.1-.022-.052-.052-.097-.112-.176-.112-.052,0-.091-.048-.105-.112-.009-.039-.009-.078-.051-.11-.01-.008-.02-.022-.025-.034-.014-.031-.004-.049.012-.067.017-.019.033-.031.062-.022.023.007.03.026.033.06.002.024.01.055.027.074.05.057.104.111.161.161.016.014.045.012.068.017-.002-.013-.005-.027-.006-.04,0-.022-.007-.055.005-.062.022-.013.051.005.07.033.02.029.043.044.071.041.02-.002.021-.022.012-.056-.007-.034-.015-.074-.022-.111-.018-.003-.031-.005-.044-.007-.058-.011-.058-.011-.071-.065-.017-.072-.053-.119-.095-.125l-.313-.042c-.003-.022-.01-.038-.006-.048.009-.02.026-.034.035-.055.017-.039-.029-.127-.071-.127-.092-.001-.15-.063-.214-.127-.017-.017-.049-.022-.073-.029-.056-.017-.056-.017-.067-.07q-.01-.048-.075-.062l-.04-.006c0-.023-.01-.052,0-.067.018-.029.05-.046.068-.074.01-.016.004-.045.005-.069l-.198-.03c-.025-.004-.033-.023-.035-.058-.001-.024-.009-.056-.026-.074-.055-.057-.103-.107-.158-.164-.016-.019-.019-.05-.026-.075-.026-.091-.035-.102-.139-.127-.013-.003-.032,0-.039-.007-.056-.064-.118-.077-.184-.083-.009,0-.021-.02-.032-.031l-.093.094c-.038.038-.081.03-.126-.029-.016-.02-.019-.048-.028-.073.012.001.025,0,.037.004.081.03.108-.023.146-.061-.011-.011-.022-.029-.032-.031-.064-.01-.131-.02-.197-.031-.026-.004-.046-.024-.07-.046-.058-.054-.103-.108-.1-.18.004-.099-.05-.18-.136-.252-.009-.007-.013-.024-.016-.036-.002-.01-.002-.027.003-.029.01-.003.028-.002.038.005.023.017.043.042.067.057.029.019.053.018.059.001.004-.01.001-.033-.006-.038-.07-.053-.074-.118-.084-.181-.054-.008-.107-.016-.159-.024.002.024-.002.049.006.073.017.052-.023.063-.044.086-.005.006-.025,0-.038-.006-.007-.003-.018-.017-.019-.025-.01-.065-.021-.133-.031-.201-.063-.01-.125-.014-.18-.085-.034-.045-.041-.041-.072-.146-.008-.027-.019-.049-.045-.071-.059-.05-.107-.104-.104-.178,0-.023-.023-.034-.057-.033-.041.002-.075-.023-.107-.058-.041-.043-.091-.081-.088-.141.001-.029-.01-.052-.03-.075-.022-.026-.043-.041-.07-.047-.029-.006-.033.009-.023.046.007.024.006.051,0,.072-.012.042-.072.04-.124-.002-.04.029-.068.028-.082-.003-.014-.03-.007-.051.018-.061-.011-.011-.03-.023-.031-.032-.008-.067-.018-.129-.088-.185-.046-.036-.043-.042-.073-.145-.013-.045-.045-.079-.082-.091-.051-.016-.1-.011-.148-.065-.061-.068-.128-.131-.193-.195-.027-.027-.058-.026-.097.002-.038.027-.065.025-.099-.008-.065-.065-.127-.132-.194-.193-.055-.05-.047-.1-.059-.153l-.111-.021-.023-.113c-.029-.004-.055-.006-.082-.013-.034-.008-.086-.055-.092-.082l-.036-.158c.029.004.044.002.055.009.028.023.04.033.067.055.042.029.065.015.058-.032l-.012-.08c-.008-.054-.053-.097-.111-.11l-.072-.018c-.002-.013-.002-.027-.006-.04-.007-.023-.011-.054-.025-.065-.027-.02-.046-.004-.064.014-.032.033-.062.03-.097.001-.055-.045-.065-.082-.028-.13.015-.019.027-.036.012-.067-.013-.026-.053-.021-.087.011l-.047.048c-.028.025-.117-.008-.131-.051-.008-.024-.013-.059-.002-.07.059-.056.021-.141-.002-.216-.01-.033-.062-.064-.093-.098-.022-.024-.049-.041-.073-.031-.03.013-.06.03-.051.078.005.027.011.054.012.08,0,.022-.066.057-.084.044-.059-.042-.115-.079-.184-.085-.031-.003-.078-.048-.078-.091,0-.058-.03-.1-.068-.14-.137-.142-.318-.215-.501-.22l.31-.006c.088.041.169.1.238.177l.019.021c.019.028.041.041.068.04.021,0,.024-.017.014-.052-.007-.026-.009-.051-.013-.077l-.003-.02-.003-.014c-.006-.03-.019-.056-.035-.08h.033s-.056-.026-.056-.026c-.044-.049-.105-.078-.172-.08l-.33-.152c-.303-.14-.658-.011-.808.285l.412-.008c-.023.011-.045.023-.067.037l.179-.039.205-.004c-.182-.002-.366.064-.508.2l-.039.04-.038.043c-.039.044-.082.06-.103.041l-.123-.115c-.023-.021-.065-.007-.104.038-.052.06-.1.124-.179.126-.045.001-.09.055-.094.086-.009.077-.022.128-.115.134-.017,0-.032.038-.02.063.04.08.042.079.036.13-.003.027-.006.054-.01.089-.068.003-.129.026-.177.102l-.11.037c-.006.075-.011.147-.016.213-.002.02-.034.037-.06.029-.099-.032-.098-.033-.158.044-.04.051-.084.099-.119.152-.013.019-.013.058-.002.072.021.026.051.042.039.092-.077.026-.155.053-.223.076-.118.165-.229.321-.338.473,0,.06,0,.116,0,.171.046.032.093.064.151.079.022-.025.035-.029.046-.032.008-.002.022-.003.024.002.01.029,0,.045-.024.056-.026.011-.046.012-.057-.01,0,0,.001-.002.002-.003-.036.047-.068.083-.081.119-.014.038-.005.079-.006.118-.098.016-.102.016-.109-.082-.002-.035-.002-.053-.028-.043-.074.029-.151.039-.198.146-.012.028-.033.053-.05.08q-.052.079-.149.062c-.036-.007-.062.023-.06.07.002.041.004.081.007.143.093-.113.137-.042.205-.028.021-.026.033-.031.044-.034.008-.002.022-.004.024.001.011.029.003.046-.021.057-.025.012-.045.014-.057-.008h0c-.012.016-.025.033-.025.041-.002.04,0,.079.002.118-.065.027-.131.043-.191.082-.075.05-.108.148-.156.225-.025.039-.047.073-.075.115-.007.01-.025.016-.036.017-.011,0-.02-.008-.03-.012-.05-.017-.078-.009-.084.023-.007.036.01.047.032.059.046.026.046.076,0,.136-.015.02-.042.028-.063.042l-.004-.041c-.012-.084-.021-.092-.052-.05-.018.024-.041.052-.048.078-.006.024-.002.058.01.071.024.023.058.033.086.051.034.022.036.053.007.105-.068.124-.14.246-.203.371-.01.018-.047.035-.063.031-.043-.01-.079-.037-.122-.047-.024-.005-.043.026-.06.056-.017.032-.028.058-.019.084.018.053.072.047.104.077.015.014.032.043.026.063-.012.04-.026.091-.071.106-.054.018-.091.06-.114.124-.005.015-.014.028-.021.042.03.031.066-.007.1-.023.049-.024.093-.003.101.049l.02.118c-.046.057-.103.07-.157.097l-.148-.069c-.014.028-.025.051-.042.085-.019.032-.025.06-.01.084.01.015.031.009.058-.014.025-.021.045-.024.067-.017.024.007.04.02.045.047.005.027-.02.108-.041.121-.046.027-.093.056-.14.084l-.123-.053c-.008-.003-.024.009-.034.019-.016.017-.019.048,0,.067.024.022.068.016.066.072-.001.042-.03.095-.059.114-.025.017-.079.007-.09-.021-.009-.024-.011-.054-.018-.079-.002-.008-.012-.017-.018-.015-.011.003-.029.01-.034.021-.046.088-.045.104-.058.295-.003.037-.026.088-.072.108-.035.015-.071.038-.084.093-.014.058-.059.113-.034.173.015.037.016.078-.005.126-.025.058-.046.118-.067.178-.017.047-.008.073.032.097.041.025.054.053.042.09l-.017.044c-.031.07-.044.149-.09.212-.082.02-.092.15-.162.185-.026.013-.042.033-.052.064-.024.076-.051.15-.07.226-.005.022.008.054.021.07.014.017.041.016.057.031.019.019.013.05.004.082-.01.034-.02.066-.045.071-.032.008-.064.001-.097.007-.028.005-.038.034-.049.068-.011.034-.021.067,0,.083.043.034.09.059.103.135.007.041.028.074.008.125-.022.054-.018.125-.073.157-.068.039-.073.168-.15.195-.036.051-.041.115-.058.174-.037.137-.078.273-.106.412-.006.029-.008.059-.008.088,0,.014.008.033.016.036.032.011.065.017.098.024l.02-.091c.013-.055.038-.086.07-.081.033.006.064.021.097.021.018,0,.04-.021.061-.033-.005-.012-.008-.026-.015-.037-.028-.049-.027-.104.004-.162.006-.012.029-.025.029-.025.046.071.093.14.044.26-.016.042-.023.084-.058.11-.031.023-.058.056-.081.078-.064-.015-.118-.027-.172-.04-.003.015-.003.038-.011.045-.049.045-.101.092-.152.139-.02.018-.012.036,0,.07.035.096.029.113-.041.19q-.033.037-.013.1c.022.066.014.119-.028.159-.019.017-.041.035-.063.055.037.061.06.122.037.211-.02.075-.028.155-.041.233-.009.057-.004.076.045.092.023.008.043.01.054.038.01.025-.002.04-.028.064-.069.064-.138.132-.203.206-.014.016-.025.069-.018.088.035.09.081.176.129.257.011.018.042.009.062.018.032.014.032.051-.005.091-.03.033-.043.069-.048.117-.007.061-.014.116.016.172.041.078.033.108-.032.189-.041.051-.05.108-.024.159l.038.071c-.009.062-.006.127-.019.187-.02.089.028.135.05.196l-.107.125c-.007.007-.022,0-.033-.001-.002.031-.007.062-.006.092,0,.097-.017.18-.085.235-.005.004-.003.029-.004.045l.067.004c.041.003.065.032.062.076l-.01.139c-.002.04-.025.06-.072.066-.046.006-.064.025-.067.075-.002.047-.008.095-.003.14.006.048.032.067.07.07.049.005.056.027.06.081.01.14-.037.232-.125.291-.019.012-.042.007-.063.015-.01.004-.023.02-.023.032,0,.011.012.028.021.032.029.014.065.013.088.037.043.043.012.114.017.173.004.046.002.093.003.139.048.05.079.106.072.195-.005.06.001.122.002.171-.026.046-.054.078-.063.119-.009.042,0,.092,0,.139,0,.069-.058.088-.064.15-.003.031.002.062,0,.094,0,.029,0,.06-.004.088-.022.121-.022.121.014.165.026.032.051.063.079.097l-.058.102.128.156c.032.04.03.104-.004.16-.021.035-.042.071-.065.103-.006.008-.022.003-.033.004.014.056-.021.079-.038.113l-.02.034c.019.014.037.036.056.04.052.013.07-.044.099-.085.011-.016.037-.003.044.03.009.039.022.085-.007.124-.017.024-.032.054-.009.111.002,0,.002-.001.004,0,.015.008.026.032.003.026.035.028.019.056.016.054-.016-.01-.035-.02-.044-.038-.006-.013-.005-.02-.004-.029-.041-.016-.065-.041-.082-.065-.022-.031-.035-.037-.046-.004-.004.012-.012.024-.011.036.004.041.003.084.036.114.021.019.047.046.073.099.004,0,.005-.003.011,0,.015.008.026.032.003.027.035.028.019.056.016.054-.016-.009-.035-.02-.044-.038-.007-.014-.005-.023-.004-.031-.018-.008-.03-.011-.033-.005-.028.049-.054.094-.08.142.004.009.007.022.013.03.079.107.083.122.032.225-.037.074-.016.157.046.171.011.002.022-.006.033-.003.059.016.066.026.035.077-.031.051-.029.105-.017.168.009.044.019.089-.008.127-.014.02-.031.051-.028.074.016.123.036.245.061.366.006.032.036.039.059.03.037-.015.068.007.081.053.013.043.018.085.051.115.071.061.069.154.071.242,0,.013-.009.032-.017.034-.032.01-.065.013-.098.02,0,.036.014.055.037.075.028.024.06.043.067.1.009.075.028.15.045.242-.014.025-.043.055-.048.095-.005.04.018.089.022.134.005.058.039.076.068.099.019.015.035.035.059.07.004,0,.005-.004.01-.001.015.006.03.029.007.026.038.024.026.053.023.052-.017-.008-.037-.016-.048-.033-.007-.01-.005-.016-.006-.024-.032-.004-.053-.003-.07-.003-.027,0-.045.01-.048.045,0,.009.004.026.01.031l.244.211c-.015.041-.028.078-.04.11.031.033.069.057.084.094.021.054.026.118.036.178.002.012-.008.036-.015.036-.084.002-.094.1-.127.17,0,.014,0,.029.003.042l.198.725c.019.072.062.093.099.131.038.041.043.124.009.153-.008.007-.022.005-.032.011-.046.029-.048.039-.03.099.02.068.02.067.136.213.016.021.027.059.028.087,0,.028-.015.052-.022.078-.02.078.022.157.085.149.036-.004.069-.007.091.036.021.038.027.082.012.127-.019.059-.015.063.024.095.011.009.024.013.033.024.015.018.015.048-.006.065-.078.065-.082.065-.047.152.028.07.033.158.091.205.044.036.087.064.101.133.044.032.086.072.131.093.03.014.064,0,.096.003.008,0,.018.015.028.024-.011.039-.018.082-.034.117-.029.063-.015.134.001.206.007.035-.012.052-.04.051.017.044.044.088.05.13.005.04-.014.077-.022.115.06.038.118.076.174.112.018.012.011.036.005.07-.017.092-.007.112.076.176.011.008.024.012.034.022.037.036.047.122.017.152-.008.008-.022.006-.03.014-.053.049-.055.056,0,.083.053.027.076.081.111.126.034.043.091.059.138.087.012.007.025.015.035.021.02.015.022.037.009.068-.016.039,0,.08.017.124.028.07.089.142.077.21-.014.076,0,.139.036.21.044.084.083.165.049.249-.008.019.042.097.069.105.096.028.108.134.152.21.005.009,0,.031-.007.039l-.066.072c-.005.006-.005.029,0,.035.009.011.024.018.035.02.034.004.057-.033.096-.01.04.024.051.072.072.111.022.041.041.081.027.125-.008.025-.009.053-.012.08q-.013.093.086.146c-.003.038-.007.077-.01.118.042.08.086.163.13.247l.071.038c.07.04.093.119.05.168-.056.064-.054.063-.021.131.034.072.074.136.146.155.022.006.028.034.017.066-.011.031-.006.058.014.068.072.035.145.084.207.036.062.018.076.087.108.136.034.051.04.091.007.109-.068.038-.057.093-.004.169l-.02.205c-.003.028.013.036.047.052.092.044.103.063.101.163,0,.036-.002.056.022.066.063.027.127.055.189.081.009.004.016.025.025.038.031.041.035.088.006.109l-.085.054c-.025.018-.023.061.009.11.042.066.089.129.067.204-.008.028.009.043.045.051.038.009.071.034.097.079.029.052.079.099.065.16-.008.033,0,.063.019.066.096.014.13.11.186.181.014.018.051.031.067.026.032-.01.056-.036.085-.053.034-.02.053-.018.095.041.032.045.066.06.102.069.03.008.051.021.064.054.047-.028.103-.049.088-.137-.002-.012.002-.031.007-.031.027,0,.048.019.067.044.032.045.044.088.021.112-.022.024-.056.036-.048.086.006.035,0,.056-.018.057-.029,0-.049-.019-.065-.052-.014-.027-.034-.052-.051-.079-.057.035-.019.123-.032.182,0,0,.018.021.024.021.071,0,.109.091.168.117.063.028.127.045.19.069.009.004.018.024.027.036.051-.021.059-.018.109.038.015-.024.037-.021.067-.007.021.01.042.016.062.017.067.068.134.136.206.208.021-.004.048-.011.073-.014.053-.005.102-.014.147-.068.014-.014.025-.025.037-.037.034.016.068.019.078-.009.007-.021.007-.047.01-.071.026-.017.053-.025.081-.03.071-.012.088-.014.124.015l-.247.522c.142-.141.285-.281.427-.422-.008.059.019.095.052.131.027.029.063.027.101.016.052-.015.062.024.09.044.09-.014.183-.028.282-.043.157-.155.319-.315.482-.475.061-.059.039-.089.011-.129-.027-.04-.004-.087.062-.13.033-.021.053-.009.049.016-.004.026-.011.054-.011.079,0,.029.051.06.078.051.043-.014.071-.045.091-.084.016-.031.007-.05-.016-.065-.019-.012-.032-.031-.048-.047-.028-.029-.028-.068.003-.099l.163-.16c.009-.009.024-.011.036-.018q.095-.056.107-.121l.113-.023c.002-.013.004-.028.006-.04.006-.024.007-.057.022-.069.026-.02.052-.01.065.011.021.034.058.033.097.006.038-.026.063-.064.06-.106,0-.011-.015-.016-.037-.01-.025.02-.038.022-.049.022-.008,0-.022-.001-.023-.007-.005-.03.006-.044.031-.05.025-.005.043,0,.051.02.043-.041.04-.077.049-.111.008-.031.055-.098.076-.097.089.006.152-.055.214-.123.021-.022.046-.024.074-.031.104-.026.108-.029.132-.129.01-.043.028-.078.064-.106.066-.052.093-.112.091-.184ZM.246,23.391c-.009-.007-.025-.025-.023-.029.011-.033.026-.044.042-.034.008.01.024.026.023.029-.011.033-.027.045-.042.034ZM.337,23.59c-.024-.019-.034-.041-.026-.061.005-.012.017-.033.02-.031.025.017.034.039.027.059-.005.012-.013.022-.02.033ZM.351,20.779c-.022-.02-.028-.042-.019-.062.008-.01.022-.03.024-.028.022.02.028.043.018.062-.006.012-.021.03-.024.028ZM.441,24.801c-.025-.018-.035-.039-.029-.059.004-.013.015-.034.018-.032.025.015.036.037.029.058-.004.013-.012.023-.019.034ZM.61,19.019c-.02-.021-.024-.044-.013-.063.009-.009.024-.028.026-.026.02.021.025.045.012.063-.007.011-.024.028-.026.026ZM.704,18.466c-.02-.022-.024-.045-.013-.064.009-.009.024-.028.026-.025.02.022.024.046.012.063-.007.011-.024.028-.026.026ZM5.559,36.691s0,0,0,0h0s0,0,0,0ZM13.081,31.469c-.007,0-.016-.007-.017-.015-.01-.038.06-.109.106-.107.007,0,.012.009.018.014.009.039-.061.11-.106.107ZM13.889,30.752c-.037.001-.077.013-.114.014-.044,0-.058-.076-.022-.119.048-.056.093-.069.128-.033l.046.047c.024.011.03.031.021.06-.007.023-.025.03-.058.031ZM13.981,30.5c-.007.02-.029.03-.058.025-.003,0,.003-.023.005-.036.009-.02.029-.03.058-.025.003,0-.001.024-.006.036ZM14.743,29.844c-.017.022-.031.049-.052.064-.021.015-.048.018-.072.026.008-.024.012-.051.027-.072.015-.021.042-.036.065-.05.011-.007.025-.004.038-.006l-.006.038ZM14.917,29.78c-.032.013-.05.009-.053-.009.002-.012.003-.034.006-.036.032-.013.051-.009.053.009,0,.011-.002.034-.006.036ZM15.198,29.394c-.009.02-.029.03-.058.025-.003,0,.001-.023.006-.036.007-.02.029-.03.058-.025.003,0-.003.023-.005.036ZM15.799,28.704c-.007.02-.029.03-.058.025-.003,0,.003-.023.005-.036.009-.02.029-.03.058-.025.003,0-.001.024-.006.036ZM17.07,27.606c-.003-.032.008-.05.031-.057.029-.008.046,0,.06.021.012.018.03.031.045.047.025.01.031.031.017.061-.009.019-.032.029-.061.026-.056-.007-.09.06-.139.075-.012.004-.031.007-.034.002-.004-.008-.001-.025.005-.037.024-.046.081-.082.076-.138ZM13.411,30.982s0,0,0,0c0,0,0,0,0,0h0ZM20.29,24.57c-.032.013-.05.009-.053-.009.002-.012.002-.034.006-.036.032-.013.051-.009.053.009,0,.011-.002.034-.005.036ZM21.111,24.234c-.018.023-.041.042-.062.063-.021.021-.04.047-.064.061-.03.018-.052.013-.055-.005-.002-.011-.001-.03.006-.038.041-.043.081-.088.127-.124.026-.021.052-.013.055.005.002.011.001.028-.006.038ZM21.138,23.957c.018-.001.024.027.005.054-.053.077-.114.09-.151.034-.01-.016-.004-.044-.006-.071.051-.006.099-.011.152-.017ZM20.887,24.171l.073-.025c-.009.024-.015.049-.026.073-.005.011-.019.025-.031.03-.024.011-.049.017-.073.025.009-.024.015-.049.026-.072.005-.011.02-.021.03-.031ZM20.77,22.972c.01.01.024.02.03.032.006.012.007.026.006.038-.003.018-.024.021-.055.006-.011-.005-.021-.02-.031-.03-.029-.019-.042-.042-.036-.069.006-.027.047-.015.087.025ZM19.885,22.004c.004.012.008.035.005.036-.029.004-.05-.006-.058-.026-.002-.012-.008-.035-.005-.036.029-.004.051.006.058.026ZM19.735,21.853c.02.009.03.029.025.058,0,.003-.024-.001-.036-.006-.02-.007-.03-.029-.025-.058,0-.003.024.003.036.005ZM18.29,20.001c.011.005.025.019.03.031.011.024.017.048.026.073-.024-.009-.049-.015-.073-.026-.011-.005-.021-.02-.031-.03l-.025-.073c.024.009.049.015.073.026ZM17.69,20.22c-.03.005-.044-.006-.05-.031-.006-.026-.002-.046.021-.053.003,0,.016.013.024.024.01.024.011.032.012.038,0,.008-.001.022-.007.022ZM17.665,20.053c.008.02.019.043.016.059-.002.007-.006.006-.009.01-.027-.071-.008-.072-.007-.069ZM17.669,20.125c-.01.009-.024.007-.036-.02-.008-.018-.004-.039,0-.057.016.033.028.057.037.077ZM17.439,19.839c.008-.008.013-.02.024-.022.022-.004.046-.01.068-.002.019.007.004.071-.029.087-.018.009-.045.004-.068.005-.002-.013-.006-.026-.005-.038,0-.011.006-.02.009-.03ZM15.449,17.464c.013.002.035.002.036.006.013.032.009.051-.009.052-.011,0-.034-.002-.036-.005-.013-.032-.009-.05.009-.053ZM15.274,17.272c.02.009.03.029.025.058,0,.003-.024,0-.036-.006-.02-.007-.03-.029-.025-.058,0-.003.023.003.036.005ZM14.659,16.575c.011,0,.034.002.036.005.013.032.009.05-.009.053-.013-.002-.035-.002-.036-.006-.013-.032-.009-.051.009-.053ZM13.035,14.719c.015.021.018.048.026.072-.013-.002-.026-.001-.038-.006-.039-.016-.068-.046-.084-.085-.005-.012-.004-.026-.006-.038.013-.013.075.018.103.057ZM11.47,13.672c.029-.004.049.006.058.026.002.013.008.035.005.036-.029.004-.05-.006-.058-.026-.004-.012-.009-.035-.005-.036ZM11.221,13.013c.008-.008.013-.02.023-.022.021-.005.046-.011.068-.003.019.007.005.072-.028.088-.017.009-.045.004-.067.005-.002-.013-.006-.026-.005-.038,0-.011.006-.02.009-.03ZM11.186,12.875c.004.012.009.035.005.036-.029.004-.049-.006-.058-.026-.002-.013-.008-.035-.005-.036.029-.004.05.006.058.026ZM10.942,12.518c.01.01.024.02.03.032.006.012.008.027.006.038-.003.018-.023.022-.055.007-.011-.005-.021-.02-.031-.03-.029-.018-.042-.042-.037-.07.005-.027.046-.016.086.024ZM9.361,11.026c.015.021.018.048.026.073-.013-.002-.026-.001-.038-.006-.039-.016-.068-.045-.084-.085-.005-.012-.004-.026-.006-.038.013-.013.075.017.103.057ZM7.525,9.081c.01-.025.03-.032.061-.018.03.014.031.054.002.084-.007.008-.013.019-.023.022-.01.003-.025,0-.037-.005-.02-.008-.03-.031-.024-.06.002-.01.014-.016.022-.024ZM7.43,9.004c.004.012.009.036.006.036-.029.005-.05-.005-.057-.025-.005-.012-.004-.025-.006-.038.03-.002.051.007.058.027ZM3.317,10.831c-.008-.03-.003-.054.015-.066.011-.007.033-.017.034-.014.01.028.004.052-.014.064-.011.007-.024.01-.036.015ZM3.056,11.473c.019-.003.026.014.021.05,0,.004-.022.01-.033.016-.018.001-.027-.015-.022-.051,0-.004.022-.013.034-.015ZM2.935,11.715c.032.007.057.031.086.047.045.025.047.072.001.134-.015.021-.042.032-.064.048-.004-.067-.005-.136-.07-.151-.006-.001-.006-.025-.004-.038.003-.022.026-.045.051-.039ZM2.591,12.39c.029-.051.066-.075.079-.05.013.025.006.051-.017.079-.009.011-.012.031-.021.04-.025.025-.046.028-.054.011-.005-.01-.008-.026-.006-.039.002-.013.013-.027.019-.041ZM2.314,13.948c.01-.009.03-.021.031-.018.015.026.013.048-.003.064-.011.006-.03.021-.032.018-.015-.026-.013-.05.003-.064ZM2.053,14.124c.005.01.006.024.009.037-.026.023-.045.028-.054.011-.005-.01-.011-.033-.008-.036.025-.025.045-.029.053-.012ZM1.668,14.051c.006-.014.01-.034.018-.041.032-.024.066-.044.1-.065.047-.029.077-.016.063.025-.009.028-.019.064-.036.081-.03.028-.066.042-.099.066-.028.02-.046.028-.056.013-.015-.024-.011-.051.009-.08ZM.969,28.401c-.01-.005-.029-.019-.029-.023.004-.035.017-.05.034-.042.01.005.02.016.03.024-.006.034-.018.049-.035.041ZM1.134,28.955c-.027-.011-.041-.031-.038-.052.002-.013.01-.036.013-.035.028.011.04.03.039.052-.004.012-.01.036-.013.035ZM1.382,29.761c-.028-.01-.043-.029-.04-.051.002-.013.008-.036.011-.035.028.01.041.029.04.051-.004.012-.009.036-.012.035ZM1.559,30.295c-.028-.009-.044-.028-.042-.05.001-.013.007-.036.01-.035.028.009.043.028.042.05-.004.012-.008.036-.011.035ZM2.651,32.967c-.009.016-.028.014-.054-.01-.003-.003.002-.025.007-.036.008-.017.027-.014.053.01.003.003-.004.024-.006.036ZM2.936,33.555c-.009.016-.027.014-.053-.01-.003-.003.002-.026.006-.036.007-.017.027-.015.053.009.003.003-.004.024-.006.037ZM3.497,35.077c-.03-.004-.048-.02-.05-.042-.001-.013,0-.037.004-.037.03.004.047.02.05.042-.001.013-.001.037-.004.036ZM4.465,36.689c-.03-.002-.048-.017-.053-.038,0-.013-.001-.037.002-.037.03.002.049.017.053.038.002.013.002.037-.002.037ZM4.861,37.106c-.019.017-.037.023-.064.005-.019-.013-.021-.033-.018-.066.004-.038,0-.078,0-.115.049.009.077.04.099.08.021.039.012.071-.017.096ZM9.428,35.485c-.019.016-.048.018-.08.03.011-.053.021-.105.031-.153.005-.019.035-.035.058-.023.065.032.06.091-.009.147ZM10.075,34.531c-.018-.002-.022-.021-.009-.053.001-.003.024-.004.036-.006.018.004.022.022.009.053-.001.003-.024.006-.036.005ZM7.249,37.622c-.012.004-.035.008-.036.005-.004-.029.006-.049.026-.058.012-.002.035-.008.036-.005.004.029-.006.051-.026.058Z"></path><path class="cls-4" d="M17.013,27.427s-.007.006-.012.011c-.003.007.01-.006.012-.011Z"></path><path class="cls-4" d="M20.61,24.54c-.01.009-.011.01-.017.017.007,0,.014-.006.017-.017Z"></path><path class="cls-4" d="M20.061,22.003c.013-.006.014-.014.005-.025-.01.004-.016.008-.03.012.01.007.016.008.025.013Z"></path><path class="cls-4" d="M3.722,10.407s.006-.008.01-.012c.002-.007-.008.006-.01.012Z"></path><path class="cls-4" d="M.704,27.323c-.013,0-.018.006-.015.02.01.001.017,0,.032.005-.007-.011-.011-.016-.017-.024Z"></path><path class="cls-4" d="M.272,24.632c-.01-.002-.017.001-.018.011.009.004.017.007.032.015-.005-.012-.009-.016-.014-.026Z"></path><path class="cls-4" d="M3.244,11.009c.005-.007.004-.007.01-.016.002-.009-.012.013-.01.016Z"></path><path class="cls-4" d="M.326,24.438c-.016-.007-.023,0-.024.013.011.004.017.011.032.013-.007-.012-.004-.016-.008-.026Z"></path><path class="cls-4" d="M17.427,19.088c-.037.006-.029.024.006.054.045.038.084.083.126.125.063.063.124.123.189.188.014.013.042.009.064.01,0,0,.002-.028-.006-.036l-.308-.316c-.016-.016-.052-.027-.071-.024Z"></path><path class="cls-4" d="M16.069,28.741c-.019.027-.006.074.028.09.018.008.047.01.068,0,.023-.011.042-.039.063-.06.01-.01.02-.023.032-.031.028-.02.042-.042.039-.069-.002-.019-.021-.021-.054-.013-.038.009-.077.008-.115.022-.022.009-.045.038-.061.061Z"></path><path class="cls-4" d="M2.031,12.885l-.009-.035c-.021.018-.046.031-.061.054-.025.039-.044.083-.063.125-.017.037-.004.075.031.092l.06.028.085-.171c-.044-.005-.033-.058-.043-.093Z"></path><path class="cls-4" d="M16.693,28.156c-.03-.002-.054.008-.07.039-.003.005.014.016.022.024.016.016.031.032.049.05.037-.006.078-.016.116-.017.036-.001.052-.008.056-.037.004-.027-.006-.044-.026-.059-.041-.03-.099.004-.147.001Z"></path><path class="cls-4" d="M5.342,8.094c.001.024-.004.053.006.07.025.041.062.044.101.011l.117-.098c.029-.024.064-.033.095-.052l-.301.065-.018.004Z"></path><path class="cls-4" d="M.202,21.128c.008-.004.019-.028.019-.028-.012-.02-.026-.044-.039-.066l-.018-.033c-.029-.058-.034-.06-.053-.018-.037.08-.022.155.033.162.02-.005.04-.009.058-.017Z"></path><path class="cls-4" d="M15.776,29.123c-.034.029-.059.062-.057.111.036-.007.074-.018.111-.021.032-.003.051-.008.06-.029.012-.03.002-.046-.018-.061-.03-.023-.063-.027-.096,0Z"></path><path class="cls-4" d="M10.833,12.106c-.011.016-.021.034-.027.054-.003.009,0,.025.007.036.021.038.039.04.051.008.015-.015.035-.026.042-.046.005-.015-.001-.051-.012-.06-.025-.018-.049-.011-.061.008Z"></path><path class="cls-4" d="M1.672,31.116c-.012-.017-.042-.037-.051-.03-.018.014-.017.047-.003.074.013.024.026.048.042.069.007.01.021.017.031.018.035.004.039-.014.013-.051-.011-.027-.018-.058-.034-.08Z"></path><path class="cls-4" d="M8.092,9.525c.007-.002.014-.01.014-.018.003-.046-.069-.116-.107-.106-.005.006-.013.011-.014.018-.003.046.069.116.107.106Z"></path><path class="cls-4" d="M8.205,9.694c-.004.022-.003.046-.004.069l.068-.004c.008-.008.02-.013.022-.024.004-.022.003-.046.004-.069-.023.001-.046,0-.068.005-.01.002-.02.012-.022.023Z"></path><path class="cls-4" d="M14.392,30.569c.02-.007.029-.028.027-.058-.012.002-.025.001-.037.006-.02.007-.03.029-.026.058,0,.003.024,0,.036-.005Z"></path><path class="cls-4" d="M14.485,30.445c.029.005.049-.006.058-.025.002-.012.008-.035.005-.036-.029-.005-.051.005-.058.025-.005.012-.009.035-.006.036Z"></path><path class="cls-4" d="M15.459,29.483c.029.005.051-.005.058-.025.005-.012.009-.035.006-.036-.029-.005-.049.006-.058.025-.002.012-.008.035-.005.036Z"></path><path class="cls-4" d="M9.857,35.11c.029.005.049-.006.058-.025.002-.012.008-.035.005-.036-.029-.005-.051.005-.058.025-.005.012-.009.035-.006.036Z"></path><path class="cls-4" d="M10.191,34.735c-.014.032-.009.05.008.053.013-.002.034-.002.036-.006.014-.032.01-.051-.009-.053-.011,0-.034.002-.036.005Z"></path><path class="cls-4" d="M17,28.056c.029.005.049-.006.058-.025.002-.012.008-.035.005-.036-.029-.005-.051.005-.058.025-.005.012-.009.035-.006.036Z"></path><path class="cls-4" d="M19.274,25.813s.024,0,.036-.005c.02-.007.03-.028.026-.058,0-.003-.023.003-.036.005-.02.009-.03.029-.026.058Z"></path><path class="cls-4" d="M17.403,19.109c-.058-.046-.066-.047-.113-.018l.064.065.048-.047Z"></path><path class="cls-4" d="M.233,20.583c.009.005.027.007.029.002.011-.029.004-.053-.012-.074-.015-.02-.028-.019-.044.015-.003.006.002.021.006.029.005.011.012.022.02.027Z"></path><path class="cls-4" d="M.176,22.546c.007-.011.022-.027.021-.031-.014-.033-.03-.044-.044-.031-.009.008-.022.027-.021.03.014.033.03.043.044.032Z"></path><path class="cls-4" d="M.169,24.072c.009.004.027.003.029-.002.007-.031-.004-.053-.022-.072-.017-.018-.031-.014-.041.022-.002.006.005.021.01.028.007.01.015.02.024.024Z"></path><path class="cls-4" d="M9.153,10.641c-.014-.031-.042-.032-.082-.003l.064.065c.024-.011.031-.031.018-.061Z"></path><path class="cls-4" d="M6.82,8.342c.018-.004.022-.022.008-.054-.001-.004-.024-.006-.035-.005-.018.002-.022.021-.009.053.001.004.023.004.036.006Z"></path><path class="cls-4" d="M0,22.707s.014.02.022.03c.015.01.031,0,.043-.033.001-.004-.013-.022-.022-.03-.014-.012-.031,0-.043.033Z"></path><path class="cls-4" d="M.384,26.465c-.001.007.008.02.014.027.008.009.018.019.027.021.01.003.028,0,.028-.005.003-.031-.01-.052-.031-.069-.019-.016-.032-.011-.038.026Z"></path><path class="cls-4" d="M5.346,37.888c.029,0,.026-.031-.008-.089l-.055.039c.014.032.035.05.063.05Z"></path><path class="cls-4" d="M10.842,12.226l-.047.048.064.065c.029-.047.028-.055-.017-.113Z"></path><path class="cls-4" d="M5.201,37.819c.009.034.037.04.082.019l-.054-.077c-.026.006-.037.025-.028.058Z"></path><path class="cls-4" d="M10.489,11.87s.023.004.036.006c.018-.003.022-.022.009-.053-.001-.004-.024-.006-.036-.005-.018.002-.022.021-.009.053Z"></path><path class="cls-4" d="M3.467,10.414c.009-.035.002-.053-.017-.051-.012.001-.035.009-.036.013-.009.035-.002.052.017.052.012-.005.035-.01.036-.013Z"></path><path class="cls-4" d="M11.049,12.321c.007.02.029.03.058.026.003,0-.003-.023-.005-.036-.009-.02-.029-.03-.058-.026-.003,0,0,.024.005.036Z"></path><path class="cls-4" d="M6.785,8.003s-.001-.024-.006-.036h0s-.098.002-.098.002l.066.031c.01.005.023.006.037.004Z"></path><path class="cls-4" d="M5.262,7.997h0s0,0,0,0h-.002s-.003.003-.003.003c-.003.002-.006.005-.006.005l-.009.014c-.004.011-.006.024-.005.04.013-.003.025-.003.038-.009.01-.004.017-.012.022-.023l.006-.015c.003-.007.01-.011.013-.018h-.052s0,.001,0,.001Z"></path><path class="cls-4" d="M2.364,12.103s0-.026-.004-.037c-.006-.018-.026-.016-.054.008-.003.003.002.024.003.037.008.016.027.015.055-.008Z"></path><path class="cls-4" d="M3.456,35.482c.028.022.048.024.054.006.004-.011.007-.034.004-.037-.028-.022-.046-.023-.054-.006-.001.013-.006.035-.003.037Z"></path></g><g><path class="cls-3" d="M44.652,7.627s.002,0,.002,0c.005-.005.004-.009.011-.014.004-.008-.014.009-.013.013Z"></path><path class="cls-3" d="M32.315,19.714c.01-.009.011-.01.018-.017-.007,0-.014.006-.018.017Z"></path><path class="cls-3" d="M39.744,29.58h0c-.005-.005-.008-.006-.013-.013-.008-.004.009.014.013.013Z"></path><path class="cls-3" d="M52.599,19.816c.016.007.023,0,.024-.013-.011-.004-.017-.011-.032-.013.007.012.003.016.008.026Z"></path><path class="cls-3" d="M49.68,33.245c-.005.007-.004.008-.01.016-.002.009.012-.013.01-.016Z"></path><path class="cls-3" d="M49.203,33.847s-.006.007-.009.012c-.002.007.007-.006.009-.012Z"></path><path class="cls-3" d="M52.221,16.931c.013,0,.017-.006.015-.02-.01-.001-.017,0-.032-.005.007.011.011.016.017.024Z"></path><path class="cls-3" d="M32.863,22.251c-.013.006-.014.014-.005.025.01-.004.016-.008.03-.012-.01-.007-.016-.008-.025-.013Z"></path><path class="cls-3" d="M52.75,22.237c-.043-.043-.012-.114-.017-.173-.005-.046-.002-.093-.003-.139-.048-.05-.08-.106-.072-.195.005-.06,0-.122-.002-.171.026-.046.054-.078.063-.119.009-.042,0-.092,0-.139,0-.069.058-.088.064-.15.003-.031-.002-.062,0-.094,0-.029,0-.06.004-.088.022-.121.023-.121-.014-.165-.026-.032-.052-.063-.079-.097l.058-.102-.128-.156c-.032-.04-.03-.104.004-.16.021-.035.042-.071.065-.103.006-.008.021-.003.033-.004-.014-.056.021-.079.038-.113l.02-.034c-.019-.014-.037-.036-.056-.04-.052-.013-.07.044-.099.085-.011.016-.037.003-.044-.03-.009-.039-.022-.085.006-.124.018-.024.032-.054.009-.111-.002,0-.002.001-.004,0-.015-.008-.026-.032-.003-.026-.035-.028-.019-.056-.016-.054.016.01.035.02.044.038.006.013.005.02.004.029.041.016.066.041.082.065.022.031.035.037.046.004.004-.012.012-.024.011-.036-.004-.041-.003-.084-.036-.114-.021-.019-.047-.046-.073-.099-.004,0-.005.003-.011,0-.015-.008-.026-.032-.003-.027-.035-.028-.019-.056-.016-.054.016.009.035.02.044.038.007.014.005.023.004.031.018.008.03.011.033.005.028-.049.054-.094.08-.142-.004-.009-.007-.022-.013-.03-.08-.107-.083-.122-.032-.225.037-.074.016-.157-.046-.171-.011-.002-.023.006-.033.003-.059-.016-.066-.026-.035-.077.031-.051.029-.105.017-.168-.009-.044-.019-.089.008-.127.014-.019.031-.051.028-.074-.016-.123-.036-.245-.061-.366-.006-.032-.036-.039-.059-.03-.037.015-.068-.007-.081-.053-.013-.043-.018-.085-.051-.115-.071-.061-.069-.154-.071-.242,0-.013.009-.032.017-.034.032-.01.065-.013.098-.02,0-.036-.014-.055-.037-.075-.028-.024-.06-.043-.067-.1-.009-.075-.028-.15-.045-.242.014-.025.043-.055.048-.095.005-.04-.018-.089-.022-.134-.005-.058-.039-.076-.068-.099-.019-.015-.035-.035-.059-.07-.004,0-.005.004-.01.001-.015-.006-.03-.029-.007-.026-.038-.024-.026-.053-.023-.052.017.008.037.016.048.033.007.01.005.016.006.024.032.004.053.003.07.003.027,0,.045-.01.048-.045,0-.009-.004-.026-.01-.031l-.244-.211c.015-.041.028-.078.04-.11-.031-.033-.069-.057-.084-.094-.021-.054-.026-.118-.036-.178-.002-.012.008-.036.015-.036.084-.002.094-.1.127-.17,0-.014,0-.029-.003-.043l-.198-.725c-.019-.072-.062-.093-.099-.131-.038-.041-.043-.124-.009-.153.008-.007.022-.005.032-.011.046-.029.048-.039.03-.099-.02-.068-.02-.067-.136-.213-.016-.021-.027-.059-.028-.087,0-.028.015-.052.022-.079.02-.078-.022-.157-.085-.149-.036.004-.069.007-.091-.036-.021-.038-.027-.082-.012-.127.02-.059.015-.063-.024-.095-.011-.009-.024-.013-.033-.024-.015-.018-.015-.048.006-.065.078-.065.082-.065.047-.152-.028-.07-.033-.158-.091-.205-.045-.036-.087-.064-.101-.133-.044-.032-.086-.072-.131-.093-.03-.014-.064,0-.096-.003-.008,0-.019-.015-.028-.024.011-.039.018-.082.034-.117.029-.063.015-.134-.001-.206-.007-.035.012-.052.04-.051-.017-.044-.044-.088-.05-.13-.005-.039.014-.077.022-.115-.06-.038-.118-.076-.174-.112-.018-.012-.011-.036-.005-.07.017-.092.007-.112-.076-.176-.011-.008-.024-.012-.034-.022-.037-.036-.047-.122-.017-.152.008-.008.022-.006.03-.014.053-.049.055-.056,0-.083-.053-.027-.075-.081-.111-.126-.034-.043-.091-.059-.138-.087-.012-.007-.025-.015-.035-.021-.02-.015-.022-.037-.009-.068.016-.039,0-.08-.017-.124-.028-.07-.089-.142-.077-.21.014-.076,0-.139-.036-.21-.044-.084-.083-.165-.049-.249.008-.019-.042-.097-.069-.105-.096-.028-.108-.134-.152-.21-.005-.009,0-.031.007-.039l.066-.072c.005-.006.005-.029,0-.035-.009-.011-.024-.018-.035-.02-.034-.004-.057.033-.096.01-.04-.024-.051-.072-.072-.111-.022-.041-.041-.081-.027-.125.008-.025.009-.053.012-.08q.013-.093-.086-.146c.003-.038.006-.077.01-.118-.042-.08-.086-.163-.13-.247l-.071-.038c-.07-.04-.093-.119-.05-.168.056-.064.054-.063.021-.131-.034-.072-.074-.136-.146-.155-.023-.006-.028-.034-.017-.066.011-.031.006-.058-.014-.068-.072-.035-.146-.084-.207-.036-.062-.018-.076-.087-.108-.136-.034-.051-.04-.091-.007-.109.068-.038.058-.093.004-.169l.02-.205c.003-.028-.013-.036-.047-.052-.092-.044-.103-.063-.101-.163,0-.036.002-.056-.022-.066-.063-.027-.127-.055-.189-.081-.009-.004-.016-.025-.025-.038-.031-.041-.035-.088-.006-.109l.085-.054c.025-.018.023-.061-.009-.11-.042-.066-.089-.129-.067-.204.008-.028-.009-.043-.045-.051-.038-.009-.071-.034-.097-.079-.029-.052-.079-.1-.065-.16.008-.033,0-.063-.019-.066-.095-.014-.13-.11-.186-.181-.014-.018-.051-.031-.067-.026-.032.01-.056.036-.085.053-.034.02-.053.018-.095-.041-.032-.045-.066-.06-.102-.069-.03-.008-.051-.021-.064-.054-.047.028-.103.049-.088.137.002.012-.002.032-.007.031-.027,0-.048-.019-.067-.044-.032-.045-.044-.088-.021-.112.022-.024.056-.036.048-.086-.006-.035,0-.056.018-.057.029,0,.049.019.065.052.014.027.034.052.051.079.057-.035.019-.123.032-.182,0,0-.018-.021-.024-.021-.071,0-.109-.091-.168-.117-.063-.028-.127-.045-.19-.069-.009-.004-.018-.024-.027-.036-.051.021-.059.018-.109-.038-.015.024-.037.021-.067.007-.021-.01-.042-.016-.062-.017-.067-.068-.134-.136-.206-.208-.021.004-.048.011-.073.014-.053.005-.102.014-.147.068-.014.014-.025.025-.037.037-.034-.016-.068-.019-.078.009-.007.021-.007.047-.01.071-.026.017-.053.025-.081.03-.071.012-.088.014-.124-.015l.247-.522c-.142.141-.285.281-.427.422.008-.059-.019-.095-.052-.131-.027-.029-.063-.027-.101-.016-.052.015-.062-.024-.09-.044-.09.014-.183.028-.282.043-.157.155-.319.315-.482.475-.061.059-.038.089-.011.129.027.04.004.087-.062.13-.033.022-.053.009-.049-.016.004-.026.011-.054.011-.079,0-.029-.051-.06-.078-.051-.043.014-.071.045-.091.084-.016.031-.007.05.016.065.019.012.032.031.048.047.028.029.028.068-.003.099l-.163.16c-.009.009-.024.011-.036.018q-.095.056-.107.121l-.113.023c-.002.013-.004.028-.006.04-.006.024-.007.057-.022.069-.026.02-.052.01-.065-.011-.021-.034-.058-.033-.097-.006-.038.026-.063.064-.06.106,0,.011.015.016.037.01.025-.02.038-.022.049-.022.009,0,.022.001.023.007.005.03-.006.044-.031.05-.025.005-.043,0-.051-.02-.043.041-.04.077-.049.111-.008.031-.055.098-.076.097-.089-.006-.152.055-.214.123-.021.022-.046.024-.074.031-.104.026-.108.029-.132.129-.01.043-.028.078-.064.106-.066.052-.093.112-.091.184-.039.007-.076.014-.114.021l-.115.019c-.004.028-.009.056-.013.081-.007.034-.051.084-.08.093-.013.004-.026.003-.04.006-.025.007-.056.008-.075.024-.046.038-.088.083-.13.127-.038.042-.079.087-.119.131.009.068-.055.122-.082.183-.054.122-.049.125-.105.176-.068.063-.129.125-.124.214.001.019-.069.066-.1.072-.025.004-.051.009-.079.014-.001.066-.019.128-.087.182-.041.032-.038.036-.072.144-.014.043-.045.074-.084.09-.126.05-.131.045-.179.097-.049.053-.098.048-.149.062-.022.006-.055.033-.065.054-.035.074-.034.138-.003.212.025.06-.022.123-.101.14-.026.005-.057.002-.077.018-.067.053-.116.145-.211.133-.084.036-.131.118-.199.174-.061.05-.104.106-.102.178,0,.005-.017.022-.021.022-.069-.01-.123.055-.184.081-.027.012-.041-.008-.061-.022-.044-.032-.052-.026-.1.013-.027.022-.042.043-.044.071-.001.024.015.03.051.017.035-.012.053-.008.054.013.002.028-.013.051-.042.071-.028.019-.046.049-.033.07.007.012.041.004.063.004.014-.002.026-.004.04-.005-.006.023-.01.047-.019.07-.005.012-.02.022-.031.032-.036.03-.062.03-.098.001-.035-.028-.067-.027-.099.004l-.13.128c-.044.044-.065.083-.049.104.019.026.041.048.088.04.066-.01.064-.004.059.041-.003.035-.005.072-.008.107-.002.002-.004.004-.006.006-.089.019-.122-.074-.214-.022-.037-.05-.099-.045-.166-.032-.048.009-.053.007-.065.071-.008.045-.032.078-.066.105-.068.053-.089.114-.089.181-.027.005-.053.015-.077.015-.049,0-.073.043-.104.072l-.324.319-.199.029c-.03.005-.08.049-.093.081-.051.13-.048.134-.098.178-.054.047-.056.097-.063.148-.078.036-.151.029-.233.047.008.066-.014.126-.081.181-.046.038-.086.084-.127.124-.092-.012-.155.054-.218.12-.037.039-.04.068-.01.1.023.024.057.042.069.073.02.052-.053.092-.07.14-.015.044.007.102-.08.104-.051.002-.105.014-.158.022l-.024.113c-.04.006-.081.016-.119.016-.077,0-.122.028-.117.112l-.185.194c-.009.009-.024.01-.036.017q-.093.052-.106.122l-.113.023q-.018.095-.132.141l-.031.198c-.01.005-.021.012-.031.014-.09.021-.09.021-.145.073-.077.073-.077.073-.042.159.024.059.021.064-.038.075-.027.006-.052.011-.082.018l-.512.505c-.07.01-.138.02-.202.03-.02.004-.031.031-.025.06.002.011.014.018.023.024.022.013.031.035.013.065-.011.019-.042.028-.062.014-.027-.019-.045-.05-.092-.033-.008.038-.014.075-.025.113-.003.011-.02.021-.031.032.027.041.028.067-.004.098-.064.063-.135.121-.128.211,0,.008-.015.022-.023.034-.02.027-.043.041-.069.046-.03.006-.035-.008-.023-.045.019-.059,0-.098-.052-.108-.046-.009-.07.051-.104.065-.161.069-.161.066-.214.118l-.225.222c-.036.073.069.086.024.161l-.197.029c-.011.002-.027.008-.035.017-.02.021-.039.043-.053.067-.017.03-.009.052.017.063.058-.045.066-.046.112-.016.03-.04.067-.045.094-.031.027.014.044.042.065.063.041-.04.08-.083.123-.12.037-.032.043-.066.05-.103.009-.045.038-.067.067-.053.078.038.077.041.121.032.029-.006.049-.004.073.006.001-.001.001,0,.003-.001-.005.005-.01.01-.015.015,0,0,0,0,0,0,0,0,.001-.001.001-.002-.039.04-.068.078-.101.096-.034.019-.075.016-.114.023.01.09-.056.152-.122.214-.023.021-.047.034-.073.029-.005-.001-.002-.02-.001-.031,0-.036.029-.083-.012-.103-.03.04-.067.045-.094.031-.027-.014-.044-.042-.065-.063-.058.045-.066.046-.112.016-.03.019-.049.046-.037.07.039.084.045.084.19.1.011.001.023.006.028.014.012.017.024.036.028.057.005.029-.015.035-.051.039-.077.008-.156.025-.234.038.005-.034.01-.061.014-.086.01-.047-.022-.063-.05-.078-.033-.016-.103.043-.117.098-.007.026,0,.063-.014.077-.061.058-.079.118-.08.182-.039.007-.077.014-.115.021-.004.028-.008.053-.012.08-.003.029-.019.032-.054.038-.095.016-.111.034-.136.125-.015.056-.016.06-.068.065-.035.004-.05.009-.058.035-.032.105-.031.107-.071.143-.046.041-.078.082-.084.141-.007.061-.05.101-.104.112-.037.008-.077-.005-.141.073.059-.059.06-.059.053-.008-.003.023-.007.053-.022.07-.038.042-.081.079-.124.116-.008.007-.035.006-.035.006,0-.02-.004-.046.008-.061.026-.034.06-.062.122-.123.02-.056-.003-.067-.032-.048-.036.023-.07.053-.1.084-.034.036-.069.048-.109.055-.049.008-.067.035-.051.07.01.02.029.033.036.054.009.026-.011.049-.034.073-.024.025-.047.046-.072.038-.031-.01-.057-.031-.088-.04-.033-.01-.047.008-.045.046,0,.021-.005.058-.02.069-.025.02-.047.004-.066-.009-.048-.034-.072-.034-.086-.007-.016.031-.009.053.016.064.025.011.033.032.018.063-.009.02-.032.029-.063.027-.028-.002-.052.008-.074.03-.043.043-.089.083-.129.129-.049.056-.099.045-.15.057l-.024.113c-.037.007-.075.013-.114.02.002.071-.023.132-.091.183-.024.02-.045.037-.067.055-.066.009-.132.019-.205.029-.008.035-.017.071-.026.11-.035.006-.073.011-.111.021-.007.002-.019.017-.03.029.007,0,.014.008.019.025.003.01.002.025-.004.035-.013.022-.029.044-.045.064-.018.023-.047.037-.067.026-.009-.005-.005-.041.006-.058.013-.022.039-.04.074-.075.005-.041-.017-.05-.048-.033-.036.02-.069.056-.104.067-.053.016-.106.021-.158.024-.067.004-.114.101-.184.083-.01-.003-.03,0-.038.007-.044.041-.094.081-.127.128-.021.03-.017.073-.024.112-.024-.003-.047-.001-.067.005-.165.051-.257.227-.206.392l.191.62c.018.057.068.103.117.148.043.039.171.051.217.024.044-.026.062-.025.1.008.054.046.058.067.022.128-.027.046-.028.059.014.099.067.064.128.128.118.214l.127.128.022.116.159.025c.009-.006.019-.011.027-.018l.049-.046c.043-.038.084-.032.129.026.016.021.02.049.029.074l-.038-.004-.074-.007c-.002.028.006.054.03.073.041.033.045.07.052.109.008.047.036.065.072.043.035-.022.065-.05.144-.008.003-.001.002-.004.006-.005.016-.003.04.008.019.018.044,0,.049.03.046.031-.018.003-.04.007-.058-.002-.011-.005-.013-.011-.018-.017-.03.012-.048.024-.059.036-.029.028-.028.067,0,.097.075.075.149.148.225.224.017.015.047.016.071.023l-.005-.039c0-.023-.01-.058.001-.065.021-.013.049.007.072.03.039.039.052.069.037.103-.005.01-.018.014-.023.024-.026.052-.025.052.022.1.032.032.063.063.097.096.009.008.026.009.038.009.008,0,.017-.008.017-.015,0-.036-.021-.078.003-.107.021-.026.048-.038.091-.015.006.039.008.078.018.117.008.031.007.053-.017.063-.025.011-.033.031-.021.061.008.021.029.026.062.031.047.006.047.009.063.072.017.069.051.108.102.117l.198.034c.019.003.075.089.067.103-.01.019-.027.034-.037.053-.018.036,0,.063.047.071.04.007.077.015.109.055.049.061.106.103.178.101.005,0,.022.016.022.021-.003.071.04.125.098.179.055.055.107.107.16.16.024.025.022.051-.007.096-.026.041-.025.063.011.099l.128.129c.058.058.058.058.129.022.058-.03.128.013.143.088.004.025.008.052.012.079q.116.022.181.087l.48.483c.041-.028.069-.027.083.004.013.03.006.05-.019.06.03.019.049.048.037.071-.027.049-.052.095-.031.166.011.039.015.074.053.11.075.075.149.148.216.216.078.012.145.023.212.033.028.072.039.148.119.206.048.035.089.083.129.128.049.057.1.042.151.057l.023.113.04.006c.098.019.119.031.137.125.015.079.102.142.093.224-.003.03.055.077.088.083.078.015.156.033.208-.022.005-.006.031-.002.038.006.059.062.15.109.144.205,0,.012,0,.029.008.038.019.023.041.044.064.063.036.03.05.012.044-.057l-.006-.04c.023.005.049.003.067.016.059.042.073.092.036.129-.018.018-.036.035-.017.064.041.06.086.117.081.184.056.056.082.117.082.183.012.003.025.01.035.01.053-.004.07-.052.105-.078.036-.027.112.007.134.062.005.013.006.027.006.039-.002.058.034.101.081.143.043.039.04.041.072.145.017.057.044.078.122.099.013.003.027.002.04.007.021.008.025.029.029.062.009.076.096.14.091.224-.002.041.088.088.127.068.01-.005.014-.018.025-.023.057-.026.124.021.14.098.008.038.005.075.047.111.058.049.111.102.106.177-.002.025.02.047.045.07.044.044.086.086.129.129.022.022.03.045.031.074,0,.077.104.144.087.223.054.068.101.146.195.155.055.008.106.016.158.024l.014.077c.011.058.015.059.077.027.01-.005.014-.022.025-.022.02,0,.055,0,.063.011.019.027.01.052-.011.065-.035.021-.032.058-.005.097.026.038.065.062.106.059.011,0,.016-.015.01-.037-.02-.025-.022-.038-.022-.049,0-.009.001-.022.007-.023.03-.006.044.006.05.031.006.026.003.046-.021.053.026.029.047.04.073.041.037.002.072.009.111.046.051.048.07.046.099.019.025-.023.045-.051.073-.07.021-.014.049-.005.062.014.007.01.011.032.006.038-.047.048-.094.096-.143.145-.034-.004-.072-.008-.11-.012.042.124.079.147.157.098.033-.021.065-.022.101.017.054.058.088.047.13.017.045-.033.051-.026.1.022.052.052.097.112.176.112.052,0,.091.048.105.112.008.039.009.078.051.11.01.008.02.022.025.034.014.031.004.049-.012.067-.017.019-.033.031-.062.022-.023-.007-.03-.026-.033-.06-.002-.024-.01-.055-.027-.074-.05-.057-.104-.111-.161-.161-.016-.014-.045-.012-.068-.017.002.013.005.027.006.04,0,.022.007.055-.005.062-.022.013-.051-.005-.07-.033-.02-.029-.043-.044-.071-.041-.02.002-.021.022-.012.056.007.034.015.074.022.111.018.003.031.005.044.007.058.011.058.011.071.065.018.072.053.119.095.125l.313.042c.003.022.01.038.006.048-.009.02-.026.034-.035.055-.017.039.029.127.071.127.092.001.15.063.214.127.017.017.048.022.073.029.056.017.056.017.067.07q.01.049.075.062l.04.006c0,.023.01.052,0,.067-.018.029-.05.046-.068.074-.01.016-.004.045-.005.069l.198.03c.025.004.033.023.035.058.001.024.009.056.026.074.055.057.103.107.158.164.016.019.019.05.026.075.026.091.035.102.139.127.013.003.032,0,.039.007.056.064.118.077.184.083.009,0,.021.02.032.031l.093-.094c.038-.038.081-.03.126.029.016.02.019.048.028.073-.012-.001-.025,0-.037-.004-.081-.03-.108.023-.146.061.011.011.022.029.032.031.064.01.131.02.197.031.026.004.046.024.07.046.058.054.103.107.1.18-.004.099.05.18.136.252.009.007.013.024.016.036.002.01.002.027-.003.029-.01.003-.028.002-.038-.005-.024-.017-.043-.042-.067-.057-.029-.019-.053-.018-.059-.001-.004.01-.001.033.006.038.07.053.074.118.084.181.054.008.107.016.159.024-.002-.024.002-.049-.006-.073-.017-.052.023-.063.044-.086.005-.006.025,0,.038.006.007.003.018.017.019.025.01.065.021.133.031.201.063.01.125.014.18.085.034.044.041.041.072.146.008.027.019.049.045.071.059.05.107.104.104.178,0,.023.023.034.057.033.041-.002.075.023.107.058.041.043.091.081.088.141-.001.029.01.052.03.075.022.026.043.041.07.047.029.006.033-.009.023-.046-.007-.024-.006-.051,0-.072.012-.042.072-.04.124.002.04-.029.068-.028.082.003.014.03.007.051-.018.061.011.011.03.023.031.032.008.067.018.129.088.185.046.036.043.042.073.145.013.045.045.079.082.091.051.016.1.011.148.065.061.068.128.13.193.195.027.027.058.026.097-.002.038-.027.065-.025.099.008.065.065.127.132.194.193.055.05.047.1.059.153l.111.021.023.113c.029.004.055.006.082.013.034.008.086.055.092.082l.036.158c-.029-.004-.044-.002-.055-.009-.028-.023-.04-.033-.067-.055-.042-.029-.065-.015-.058.032l.012.08c.008.054.053.097.111.11l.072.018c.002.013.002.027.007.04.007.023.011.054.025.065.027.021.046.004.064-.014.032-.033.062-.03.097-.001.055.045.065.082.028.13-.015.019-.027.036-.012.067.013.026.053.021.087-.011l.047-.048c.028-.025.117.008.131.051.008.024.013.059.002.07-.059.056-.021.141.002.216.01.033.062.064.093.098.022.024.049.041.072.031.03-.013.06-.03.051-.078-.005-.027-.011-.054-.012-.08,0-.022.066-.057.084-.044.059.042.115.079.184.085.031.003.078.048.078.091,0,.058.03.1.068.14.137.142.318.215.501.22l-.311.006c-.088-.041-.169-.1-.238-.177l-.019-.021c-.019-.028-.041-.041-.068-.04-.021,0-.024.017-.014.052.007.026.009.051.013.077l.003.02.003.014c.006.03.019.056.035.08h-.033s.056.026.056.026c.044.049.105.078.172.08l.33.152c.303.14.658.011.808-.285l-.412.008c.023-.011.045-.023.067-.037l-.179.039-.205.004c.182.002.366-.064.508-.2l.039-.04.038-.043c.039-.044.082-.06.103-.041l.123.115c.023.021.065.007.104-.038.052-.06.1-.124.179-.126.045-.002.09-.055.094-.086.009-.077.022-.128.115-.134.017,0,.032-.038.02-.063-.04-.08-.042-.079-.036-.13.003-.027.006-.054.01-.089.067-.003.129-.026.177-.102l.11-.036c.006-.075.011-.147.016-.213.002-.02.034-.037.06-.029.099.032.098.033.158-.044.04-.051.084-.099.119-.152.013-.019.013-.058.002-.072-.021-.026-.051-.042-.039-.092.077-.026.155-.053.223-.076.118-.165.229-.321.338-.473,0-.06,0-.116.001-.171-.046-.032-.093-.064-.151-.079-.022.025-.035.029-.046.032-.008.002-.022.003-.024-.002-.01-.029,0-.045.024-.056.026-.011.046-.012.057.01,0,0-.001.003-.002.004.036-.047.068-.083.081-.119.014-.038.005-.079.006-.118.098-.016.102-.016.109.082.002.035.002.053.028.043.074-.029.151-.039.197-.146.012-.028.033-.053.05-.08q.052-.079.148-.062c.037.007.062-.023.06-.07-.002-.041-.004-.081-.007-.143-.093.113-.137.042-.205.028-.021.026-.033.031-.044.034-.008.002-.022.004-.024-.001-.011-.029-.003-.046.021-.057.025-.012.045-.014.057.008h0c.012-.016.025-.033.025-.041.002-.04,0-.079-.002-.118.065-.027.131-.043.191-.082.075-.05.108-.148.156-.225.025-.039.047-.073.075-.115.007-.01.025-.016.036-.017.011,0,.02.008.03.012.05.017.078.009.084-.023.007-.036-.009-.047-.032-.059-.046-.026-.046-.076,0-.136.015-.02.042-.028.063-.042l.004.041c.012.084.021.092.052.05.018-.024.04-.052.048-.078.006-.024.002-.058-.01-.071-.024-.023-.058-.033-.086-.051-.034-.022-.036-.053-.007-.105.068-.124.14-.246.203-.371.01-.018.047-.035.063-.031.043.01.079.037.122.047.024.005.044-.026.06-.056.017-.032.028-.058.019-.084-.018-.053-.072-.047-.104-.077-.015-.014-.032-.043-.026-.063.012-.04.026-.091.071-.106.054-.018.091-.06.114-.124.005-.014.014-.028.021-.042-.03-.031-.066.007-.1.023-.049.024-.093.003-.101-.049l-.02-.118c.046-.057.103-.07.157-.097l.148.069c.014-.028.025-.051.042-.085.019-.032.026-.06.01-.084-.01-.015-.031-.009-.058.014-.025.021-.045.024-.067.017-.024-.007-.04-.02-.045-.048-.005-.027.02-.108.041-.121.046-.027.093-.056.14-.084l.123.053c.008.003.024-.009.034-.019.016-.017.019-.048,0-.067-.024-.022-.068-.016-.066-.072.001-.042.03-.095.058-.114.025-.017.079-.007.09.021.009.024.011.054.018.079.002.008.012.017.019.015.011-.003.029-.01.034-.021.046-.087.045-.104.058-.295.002-.037.026-.088.072-.108.035-.015.071-.038.083-.093.014-.058.059-.113.034-.173-.015-.037-.016-.078.005-.126.025-.058.046-.118.067-.178.017-.047.008-.073-.032-.097-.041-.025-.054-.053-.042-.09l.017-.044c.031-.07.044-.149.09-.212.082-.02.092-.15.162-.185.026-.013.042-.033.052-.064.024-.076.051-.15.07-.226.005-.022-.008-.054-.021-.07-.014-.017-.041-.015-.057-.031-.019-.019-.013-.05-.004-.082.01-.034.02-.066.045-.071.032-.008.065-.001.097-.007.028-.005.038-.034.049-.068.011-.034.021-.067,0-.083-.043-.034-.09-.059-.103-.135-.007-.041-.028-.074-.008-.125.022-.054.018-.125.073-.157.068-.039.073-.168.15-.195.036-.051.041-.115.058-.174.037-.137.078-.273.106-.412.006-.029.008-.059.008-.088,0-.014-.008-.033-.016-.036-.032-.011-.065-.017-.098-.024l-.02.091c-.013.055-.038.086-.07.081-.033-.006-.064-.021-.098-.021-.018,0-.04.021-.06.033.005.012.008.026.015.037.028.049.027.104-.003.162-.006.012-.03.025-.03.025-.046-.071-.093-.14-.044-.26.016-.042.023-.084.058-.11.031-.023.058-.056.081-.078.064.015.118.027.172.04.003-.015.003-.038.011-.045.049-.045.101-.092.152-.138.02-.018.012-.036,0-.07-.035-.096-.029-.113.041-.19q.033-.037.013-.1c-.022-.066-.014-.119.028-.159.019-.017.041-.035.063-.055-.037-.061-.06-.122-.036-.211.02-.075.028-.155.041-.233.009-.057.004-.076-.045-.092-.023-.008-.043-.01-.054-.038-.01-.025.002-.04.028-.064.069-.064.138-.132.203-.206.014-.016.025-.069.018-.088-.035-.09-.081-.176-.129-.257-.011-.018-.042-.009-.062-.018-.032-.015-.033-.051.005-.091.03-.033.043-.069.049-.117.007-.061.014-.116-.016-.172-.041-.078-.033-.108.033-.189.041-.051.05-.108.024-.159l-.038-.071c.009-.062.006-.127.019-.186.02-.089-.028-.135-.05-.196l.107-.125c.007-.007.022,0,.033.001.002-.031.007-.062.006-.092,0-.097.017-.18.085-.235.005-.004.003-.029.004-.045l-.067-.004c-.041-.003-.065-.032-.062-.076l.01-.139c.002-.04.025-.06.072-.066.046-.006.064-.025.067-.075.002-.047.008-.095.003-.14-.006-.048-.032-.067-.07-.07-.049-.005-.056-.027-.06-.081-.01-.14.037-.232.125-.291.019-.012.042-.007.063-.015.01-.004.023-.02.023-.032,0-.011-.012-.028-.021-.032-.029-.014-.065-.013-.088-.037ZM45.676,6.632c.012-.004.035-.008.036-.005.004.029-.006.049-.026.058-.013.002-.035.008-.036.005-.004-.029.006-.051.026-.058ZM43.497,8.769c.019-.016.047-.018.08-.03-.011.053-.021.105-.031.153-.005.019-.035.035-.058.023-.065-.032-.06-.091.009-.147ZM42.85,9.723c.019.002.022.021.009.053-.001.003-.023.004-.036.006-.018-.004-.022-.022-.008-.053.001-.004.024-.006.036-.005ZM47.365,7.563s0,0,0,0c0,0,0,0,0,0,0,0,0,0,0,0ZM51.955,15.853c.01.005.029.019.029.023-.004.035-.017.05-.034.042-.011-.005-.02-.016-.03-.024.006-.034.018-.049.035-.041ZM51.791,15.299c.027.011.041.031.038.052-.002.013-.01.036-.013.035-.027-.011-.04-.03-.038-.052.004-.012.01-.036.013-.035ZM51.543,14.493c.028.01.043.029.04.051-.002.013-.008.036-.011.035-.028-.01-.041-.029-.041-.051.004-.012.009-.036.012-.035ZM51.366,13.959c.028.009.044.028.042.05-.001.013-.007.036-.01.035-.028-.009-.042-.028-.042-.05.004-.012.008-.036.011-.035ZM50.273,11.287c.009-.016.028-.014.054.01.003.003-.002.025-.007.036-.008.017-.027.014-.053-.01-.003-.003.004-.024.006-.036ZM49.988,10.699c.009-.016.027-.014.053.01.003.003-.002.026-.006.036-.007.017-.027.015-.053-.009-.003-.003.004-.024.006-.037ZM49.428,9.177c.029.004.048.02.05.042.001.013,0,.037-.004.037-.03-.004-.047-.02-.05-.042.001-.013.001-.037.004-.036ZM48.46,7.565c.03.002.048.017.053.038,0,.013.001.037-.002.037-.03-.002-.049-.017-.053-.038-.002-.013-.002-.037.002-.037ZM48.064,7.148c.019-.017.037-.023.064-.005.019.013.021.033.018.066-.004.038,0,.078,0,.115-.049-.009-.077-.04-.099-.08-.021-.039-.012-.071.017-.096ZM39.843,12.785c.008,0,.016.008.017.015.01.038-.06.109-.106.107-.007,0-.012-.009-.018-.014-.009-.039.06-.11.106-.107ZM39.036,13.502c.037-.001.077-.013.115-.014.044,0,.058.076.022.119-.048.056-.093.069-.128.033l-.046-.047c-.024-.011-.03-.031-.021-.06.007-.023.025-.03.058-.031ZM38.944,13.754c.007-.02.029-.03.058-.025.003,0-.003.023-.005.036-.009.02-.029.03-.058.025-.003,0,.001-.024.006-.036ZM38.182,14.41c.017-.022.031-.049.052-.064.021-.015.048-.018.072-.026-.009.024-.012.051-.027.072-.015.021-.042.036-.065.05-.011.007-.025.004-.038.006l.006-.038ZM38.007,14.474c.032-.013.05-.009.053.009-.002.012-.002.034-.006.036-.032.013-.051.009-.052-.009,0-.011.002-.034.005-.036ZM37.727,14.86c.009-.02.029-.03.058-.025.003,0,0,.024-.006.036-.007.02-.029.03-.058.025-.003,0,.003-.023.005-.036ZM37.126,15.549c.007-.02.029-.03.058-.025.003,0-.003.023-.005.036-.009.02-.029.03-.058.025-.003,0,.001-.024.006-.036ZM35.855,16.648c.003.032-.008.05-.032.057-.028.008-.046,0-.06-.021-.012-.018-.03-.032-.045-.047-.025-.01-.031-.031-.017-.061.009-.019.031-.029.061-.026.056.007.09-.06.139-.075.012-.004.03-.007.034-.002.004.008.001.025-.005.037-.024.046-.081.082-.076.138ZM39.513,13.272s0,0,0,0c0,0,0,0,0,0h0ZM32.635,19.684c.032-.013.05-.009.053.009-.002.012-.002.034-.006.036-.032.013-.051.009-.053-.009,0-.011.002-.034.006-.036ZM31.814,20.02c.018-.023.041-.042.062-.063.021-.021.04-.047.064-.061.03-.018.052-.013.055.005.002.011.001.03-.006.038-.041.043-.081.088-.127.124-.026.021-.052.013-.055-.005-.002-.011-.001-.028.006-.038ZM31.787,20.297c-.018,0-.024-.027-.005-.055.053-.077.114-.09.151-.034.01.016.004.044.006.071-.051.006-.099.011-.152.018ZM32.037,20.083l-.073.025c.008-.024.015-.049.026-.073.005-.011.019-.025.031-.03.024-.011.049-.017.073-.025-.008.024-.015.049-.026.072-.005.011-.02.021-.031.031ZM32.155,21.282c-.01-.01-.024-.02-.03-.032-.006-.012-.007-.026-.006-.038.003-.018.024-.021.055-.006.011.005.021.02.031.03.029.019.042.042.036.069-.006.027-.047.015-.087-.025ZM33.039,22.25c-.004-.012-.008-.035-.005-.036.029-.004.05.006.058.026.002.012.008.035.005.036-.029.004-.051-.006-.058-.026ZM33.189,22.401c-.02-.009-.03-.029-.025-.058,0-.003.024.001.036.006.02.007.03.029.025.058,0,.003-.024-.003-.036-.005ZM34.635,24.253c-.011-.005-.025-.019-.03-.031-.011-.024-.017-.048-.025-.073.024.009.049.015.073.026.011.005.021.02.031.03l.025.073c-.024-.009-.049-.015-.073-.026ZM35.235,24.034c.03-.005.044.006.05.031.006.026.002.046-.021.053-.003,0-.016-.013-.024-.024-.01-.024-.011-.032-.012-.038,0-.008.001-.022.007-.022ZM35.26,24.201c-.008-.02-.019-.043-.016-.059.002-.007.006-.006.009-.01.027.071.008.072.007.069ZM35.255,24.129c.01-.009.024-.007.036.02.008.018.004.039,0,.057-.016-.033-.028-.057-.037-.077ZM35.485,24.415c-.008.008-.013.02-.024.022-.022.004-.046.01-.068.002-.019-.007-.004-.071.029-.087.018-.009.045-.004.068-.005.002.013.006.026.005.038,0,.011-.006.02-.009.03ZM37.476,26.79c-.012-.002-.035-.002-.036-.006-.013-.032-.009-.051.009-.052.012,0,.034.002.036.005.013.032.009.05-.009.053ZM37.65,26.982c-.02-.009-.03-.029-.025-.058,0-.003.024.001.036.006.02.007.03.029.025.058,0,.003-.023-.003-.036-.005ZM38.265,27.679c-.011,0-.034-.002-.036-.005-.013-.032-.009-.05.009-.053.012.002.034.002.036.006.013.032.009.051-.009.053ZM39.89,29.535c-.015-.021-.018-.048-.026-.072.013.002.026.001.038.006.039.016.068.046.084.085.005.012.004.026.006.038-.013.013-.075-.018-.103-.057ZM41.455,30.582c-.029.004-.049-.006-.058-.026-.002-.013-.008-.035-.005-.036.029-.004.05.006.058.026.004.012.009.035.005.036ZM41.704,31.241c-.008.008-.013.02-.023.022-.021.005-.046.011-.068.003-.019-.007-.005-.072.028-.088.017-.009.045-.004.067-.005.002.013.006.026.005.038,0,.011-.006.02-.009.03ZM41.739,31.379c-.004-.012-.009-.035-.005-.036.029-.004.049.006.058.026.002.013.008.036.005.036-.029.004-.05-.006-.058-.026ZM41.983,31.736c-.01-.01-.024-.02-.03-.032-.006-.012-.008-.027-.006-.038.003-.018.023-.022.055-.007.011.005.021.02.031.031.029.018.042.042.037.07-.005.027-.046.016-.086-.024ZM43.564,33.228c-.015-.021-.018-.048-.026-.073.013.002.026.001.038.006.039.016.068.045.084.085.005.012.004.026.006.039-.013.013-.075-.017-.102-.057ZM45.4,35.173c-.01.025-.03.032-.061.018-.03-.014-.031-.054-.002-.084.007-.008.013-.019.023-.022.01-.003.025,0,.037.005.02.008.03.031.024.06-.002.01-.014.016-.022.024ZM45.495,35.25c-.005-.012-.009-.036-.006-.036.029-.005.05.006.057.025.005.012.004.025.006.038-.03.002-.051-.007-.058-.027ZM49.608,33.423c.007.03.003.054-.015.066-.011.007-.033.017-.034.014-.01-.028-.004-.052.014-.064.011-.007.024-.01.036-.015ZM49.868,32.781c-.019.003-.026-.014-.021-.05,0-.004.022-.01.033-.016.018-.001.027.015.022.051,0,.004-.022.013-.034.015ZM49.989,32.539c-.032-.007-.057-.031-.086-.047-.045-.025-.047-.072-.001-.134.015-.021.042-.032.064-.048.004.067.005.136.07.151.006.001.006.025.004.038-.003.022-.026.045-.052.039ZM50.333,31.864c-.029.051-.066.075-.079.05-.013-.025-.006-.051.017-.079.009-.011.012-.031.021-.04.025-.025.046-.028.054-.011.005.011.008.026.006.039-.002.013-.013.027-.019.041ZM50.611,30.306c-.01.009-.03.021-.031.019-.015-.026-.012-.048.003-.064.011-.006.03-.021.032-.018.015.026.013.05-.003.064ZM50.872,30.13c-.005-.01-.006-.024-.009-.037.026-.023.045-.028.053-.011.005.01.011.033.008.036-.025.025-.045.029-.053.012ZM51.257,30.204c-.006.014-.01.034-.018.041-.032.024-.066.044-.1.065-.047.029-.077.016-.063-.025.009-.028.019-.064.036-.081.03-.028.066-.042.099-.066.028-.02.046-.028.056-.013.015.024.011.051-.01.08ZM52.207,25.877c-.02-.022-.024-.046-.012-.063.007-.011.024-.028.026-.026.02.022.024.045.013.064-.009.009-.024.028-.026.025ZM52.301,25.324c-.02-.021-.025-.045-.013-.063.007-.011.024-.028.026-.026.02.021.024.044.013.063-.009.009-.024.028-.026.026ZM52.494,19.544c-.025-.015-.036-.037-.029-.058.004-.013.012-.023.019-.034.025.018.035.039.029.059-.004.013-.015.034-.018.032ZM52.568,23.565c-.022-.02-.029-.043-.018-.062.006-.012.021-.03.024-.028.022.02.028.042.019.062-.008.01-.022.03-.024.028ZM52.594,20.756c-.025-.017-.034-.039-.027-.059.005-.012.013-.022.02-.033.024.019.034.041.026.061-.005.012-.017.033-.02.031ZM52.637,20.897c.011-.033.027-.045.042-.034.009.007.025.025.023.029-.011.033-.026.044-.042.034-.008-.01-.024-.026-.023-.029Z"></path><path class="cls-3" d="M52.653,19.622c.01.002.017-.001.018-.011-.009-.004-.017-.007-.032-.015.005.012.009.016.014.026Z"></path><path class="cls-3" d="M35.912,16.827s.007-.006.012-.011c.004-.007-.01.006-.012.011Z"></path><path class="cls-3" d="M35.365,24.987c-.063-.063-.124-.123-.189-.188-.014-.013-.042-.009-.063-.01,0,0-.002.028.006.036l.308.316c.016.016.052.027.071.024.037-.006.029-.024-.006-.054-.045-.038-.084-.083-.126-.125Z"></path><path class="cls-3" d="M36.794,15.573c.022-.009.045-.038.061-.061.019-.027.006-.074-.028-.09-.018-.008-.047-.01-.068,0-.023.011-.042.039-.063.06-.01.01-.02.023-.032.031-.028.02-.042.042-.039.069.002.019.021.021.054.013.038-.009.077-.008.115-.022Z"></path><path class="cls-3" d="M50.894,31.369l.009.035c.021-.018.046-.031.061-.054.025-.039.044-.083.063-.125.017-.037.004-.075-.031-.092l-.06-.028-.085.171c.044.005.033.058.043.093Z"></path><path class="cls-3" d="M36.232,16.098c.03.002.054-.008.07-.039.003-.005-.014-.016-.022-.024-.016-.016-.031-.032-.049-.05-.037.006-.078.016-.116.017-.036.001-.052.008-.056.037-.004.027.006.044.026.059.041.031.099-.004.147-.001Z"></path><path class="cls-3" d="M47.583,36.16c-.001-.024.004-.053-.006-.07-.025-.041-.062-.044-.101-.011l-.117.098c-.029.024-.064.033-.095.052l.301-.065.018-.004Z"></path><path class="cls-3" d="M52.722,23.126c-.008.004-.019.028-.019.028.012.02.026.044.039.066l.018.033c.029.058.034.06.053.018.037-.08.022-.155-.033-.162-.02.005-.04.009-.059.017Z"></path><path class="cls-3" d="M37.148,15.131c.034-.029.059-.062.057-.111-.036.007-.074.018-.111.021-.032.003-.051.008-.06.029-.012.03-.002.046.018.061.03.023.063.027.096,0Z"></path><path class="cls-3" d="M42.06,32.05c-.015.015-.035.026-.042.046-.005.015.001.051.012.06.025.018.049.011.061-.008.011-.016.021-.034.027-.054.003-.009,0-.025-.007-.036-.021-.038-.039-.04-.052-.008Z"></path><path class="cls-3" d="M51.252,13.138c.012.017.042.037.051.03.018-.014.017-.047.003-.074-.013-.024-.027-.048-.042-.069-.007-.01-.021-.017-.031-.018-.035-.004-.039.014-.013.051.011.027.018.058.033.08Z"></path><path class="cls-3" d="M44.832,34.729c-.007.002-.014.01-.014.018-.003.046.069.116.107.106.005-.006.013-.011.014-.018.003-.046-.069-.116-.107-.106Z"></path><path class="cls-3" d="M44.634,34.519c-.004.022-.003.046-.004.069.023-.001.046,0,.068-.005.01-.002.02-.012.022-.023.004-.022.003-.046.004-.069l-.068.004c-.008.008-.02.013-.022.024Z"></path><path class="cls-3" d="M38.569,13.68s-.024,0-.036.005c-.02.007-.029.028-.028.058.013-.002.025-.001.037-.006.02-.007.03-.028.026-.058Z"></path><path class="cls-3" d="M38.44,13.809c-.029-.005-.049.006-.058.025-.002.012-.008.035-.005.036.029.005.051-.005.058-.025.005-.012.009-.035.006-.036Z"></path><path class="cls-3" d="M37.461,14.807c.002-.012.008-.035.005-.036-.029-.005-.051.005-.058.025-.005.012-.009.035-.006.036.029.005.049-.006.058-.025Z"></path><path class="cls-3" d="M43.068,9.144c-.029-.005-.049.006-.058.025-.002.012-.008.035-.005.036.029.005.051-.005.058-.025.005-.012.009-.035.006-.036Z"></path><path class="cls-3" d="M42.734,9.519c.014-.032.009-.05-.009-.053-.012.002-.034.002-.036.006-.014.032-.01.051.009.053.011,0,.034-.002.036-.005Z"></path><path class="cls-3" d="M35.925,16.198c-.029-.005-.049.006-.058.025-.002.012-.008.035-.005.036.029.005.051-.005.058-.025.005-.012.009-.035.006-.036Z"></path><path class="cls-3" d="M33.651,18.441s-.024,0-.036.005c-.02.007-.03.028-.026.058,0,.003.023-.003.036-.005.02-.009.03-.029.026-.058Z"></path><path class="cls-3" d="M35.522,25.145c.058.045.066.047.113.018l-.064-.065-.048.047Z"></path><path class="cls-3" d="M52.691,23.671c-.009-.005-.027-.007-.028-.002-.011.029-.004.053.012.074.015.02.028.019.044-.015.003-.006-.002-.021-.006-.029-.005-.011-.012-.022-.02-.027Z"></path><path class="cls-3" d="M52.749,21.708c-.007.011-.022.027-.021.031.014.033.03.044.044.031.009-.008.023-.027.021-.03-.014-.033-.03-.043-.044-.032Z"></path><path class="cls-3" d="M52.756,20.182c-.009-.004-.028-.003-.029.002-.007.031.004.053.022.072.017.018.031.014.041-.022.002-.006-.005-.021-.01-.028-.007-.01-.015-.02-.024-.024Z"></path><path class="cls-3" d="M43.771,33.613c.014.031.042.032.082.003l-.064-.065c-.024.011-.031.031-.018.061Z"></path><path class="cls-3" d="M46.105,35.912c-.018.004-.022.022-.008.054.001.004.024.006.035.005.018-.002.022-.021.009-.053-.001-.004-.023-.004-.036-.006Z"></path><path class="cls-3" d="M52.903,21.516c-.015-.01-.031,0-.043.033-.001.004.013.022.022.03.014.012.031,0,.043-.033.001-.004-.014-.02-.022-.03Z"></path><path class="cls-3" d="M52.541,17.789c0-.007-.008-.02-.014-.027-.008-.009-.018-.019-.027-.021-.01-.003-.028,0-.028.005-.003.031.01.052.031.069.019.016.032.011.038-.026Z"></path><path class="cls-3" d="M47.579,6.366c-.029,0-.026.031.008.089l.055-.039c-.014-.032-.035-.051-.063-.05Z"></path><path class="cls-3" d="M42.082,32.028l.047-.048-.064-.065c-.029.047-.028.055.017.113Z"></path><path class="cls-3" d="M47.724,6.435c-.009-.034-.037-.04-.082-.019l.054.077c.026-.006.037-.025.028-.058Z"></path><path class="cls-3" d="M42.391,32.432s.024.006.036.005c.018-.002.022-.021.009-.053-.001-.004-.023-.004-.036-.006-.018.003-.022.022-.009.053Z"></path><path class="cls-3" d="M49.458,33.84c-.009.035-.002.053.017.051.012-.001.035-.009.036-.013.009-.035.002-.052-.017-.052-.012.004-.035.01-.036.013Z"></path><path class="cls-3" d="M41.818,31.907s.003.023.005.036c.009.02.029.03.058.026.003,0,0-.024-.005-.036-.007-.02-.029-.03-.058-.026Z"></path><path class="cls-3" d="M47.662,36.257h0s0,0,0,0h.002s.003-.003.003-.003c.003-.002.006-.005.006-.005l.009-.014c.005-.011.006-.024.005-.04-.013.003-.026.003-.038.009-.01.004-.017.012-.022.023l-.006.015c-.003.007-.01.011-.013.018h.052s0-.001,0-.001Z"></path><path class="cls-3" d="M46.14,36.251s.001.024.006.036h0s.098-.002.098-.002l-.066-.031c-.01-.005-.023-.006-.037-.004Z"></path><path class="cls-3" d="M50.561,32.151s0,.026.004.037c.006.018.026.016.054-.008.003-.003-.002-.024-.003-.037-.008-.016-.027-.015-.055.008Z"></path><path class="cls-3" d="M49.469,8.772c-.028-.022-.048-.024-.054-.006-.004.011-.007.034-.004.037.028.022.046.023.054.006.001-.013.006-.035.003-.037Z"></path></g></g></svg> 