<?xml version="1.0" encoding="UTF-8"?> <svg xmlns="http://www.w3.org/2000/svg" xmlns:xlink="http://www.w3.org/1999/xlink" id="LP_Dinheiro_sem_Medo" data-name="LP Dinheiro sem Medo" width="46.088" height="49.792" version="1.1" viewBox="0 0 46.088 49.792"><defs><style> .cls-1 { fill: #f7ebe3; } .cls-1, .cls-2, .cls-3, .cls-4 { stroke-width: 0px; } .cls-5 { clip-path: url(#clippath); } .cls-2 { fill: none; } .cls-3 { fill: #2d313f; } .cls-6 { clip-path: url(#clippath-1); } .cls-7 { clip-path: url(#clippath-4); } .cls-8 { clip-path: url(#clippath-3); } .cls-9 { clip-path: url(#clippath-2); } .cls-10 { clip-path: url(#clippath-5); } .cls-4 { fill: #95b2a8; } </style><clipPath id="clippath"><rect class="cls-2" x="-783.339" y="-2108.788" width="539.287" height="410.006" rx="-644.388" ry="-644.388" transform="translate(-2417.48 -1390.089) rotate(90)"></rect></clipPath><clipPath id="clippath-1"><rect class="cls-2" x="-978.693" y="-2193.172" width="1070.725" height="602.563"></rect></clipPath><clipPath id="clippath-2"><rect class="cls-2" x="-1204.34" y="-742.877" width="1523.519" height="2002.641"></rect></clipPath><clipPath id="clippath-3"><rect class="cls-2" x="-49.387" y="-1874.144" width="539.287" height="410.006" rx="-527.066" ry="-527.066" transform="translate(-1448.884 -1889.398) rotate(90)"></rect></clipPath><clipPath id="clippath-4"><rect class="cls-2" x="-244.74" y="-1958.528" width="1070.725" height="602.563"></rect></clipPath><clipPath id="clippath-5"><rect class="cls-2" x="-470.387" y="-508.233" width="1523.519" height="2002.641"></rect></clipPath></defs><g class="cls-5"><g class="cls-6"><g class="cls-9"><image width="3024" height="3975" transform="translate(-1204.34 -742.877) scale(.504)"></image></g></g></g><g class="cls-8"><g class="cls-7"><g class="cls-10"><image width="3024" height="3975" transform="translate(-470.387 -508.233) scale(.504)"></image></g></g></g><g><g><path class="cls-1" d="M22.207,22.642s0,0,0,0c.01,0,.018,0,.029,0,.012-.003-.026-.003-.028,0Z"></path><path class="cls-4" d="M45.16,22.534c.161,0,.321,0,.482.001.027.041.061.062.082.035.007-.009.011-.023.016-.035.067,0,.133,0,.2,0,.002.003.004.006.006.009.001-.003.002-.006.003-.009.036,0,.072,0,.108,0-.006-.049-.018-.098-.024-.147.002,0,.002-.005.005-.005.053-.009.057-.047.044-.128-.031-.185-.062-.369-.094-.556-.023-.114.02-.161.032-.241-.063-.27-.133-.545-.19-.821-.027-.135-.079-.195-.144-.265.029-.085.032-.179-.016-.304-.025-.064-.032-.123-.025-.189.018-.153.014-.164-.08-.277-.083-.104-.123-.234-.134-.357-.006-.081.013-.147-.031-.244-.019-.042-.036-.089-.048-.133-.034-.132-.097-.2-.169-.253.014-.09.028-.179-.035-.302-.061-.125-.11-.259-.164-.387.02-.09.01-.185-.049-.305-.06-.121-.092-.274-.204-.324-.006-.003-.023-.036-.022-.042.017-.092-.024-.191-.077-.302-.374-.818-.813-1.602-1.267-2.375-.057-.098-.048-.16-.06-.245-.505-.812-1.029-1.626-1.605-2.401-.068-.094-.055-.152-.075-.226q-.144-.081-.231-.195c-.229-.299-.459-.597-.686-.893,0-.142-.111-.262-.224-.38-.013-.014-.035-.019-.05-.024-.076-.021-.13-.1-.188-.171-.047-.056-.074-.107-.087-.166-.016-.073-.023-.076-.099-.11-.017-.007-.034-.015-.057-.024l-.044-.155c-.047-.022-.097-.046-.146-.069-.009-.038-.017-.074-.026-.111-.008-.038-.031-.054-.077-.069-.03-.009-.073-.03-.098-.058l-.322-.375c-.024-.029-.041-.075-.045-.106-.013-.083-.089-.145-.144-.215-.049-.062-.097-.083-.15-.107-.092-.042-.142-.096-.167-.173-.005-.017-.01-.037-.015-.054-.029-.087-.176-.246-.257-.283-.094-.043-.183-.107-.193-.147-.023-.092-.063-.171-.153-.267l-1.887-1.992c-.084-.087-.162-.165-.255-.18-.007-.001-.033-.026-.034-.033-.014-.093-.086-.173-.174-.259-.236-.231-.466-.469-.712-.692-.084-.077-.092-.139-.123-.212-.051-.017-.102-.035-.157-.054-.612-.555-1.244-1.105-1.938-1.585-.058-.042-.113-.08-.176-.125-.11-.088-.198-.088-.288-.102-.045-.064-.06-.124-.16-.186-.221-.146-.459-.27-.692-.398-.098-.052-.139-.106-.187-.17-.037-.048-.114-.081-.174-.085-.08-.004-.148.004-.246-.05-.063-.034-.131-.066-.197-.092-.109-.042-.135-.107-.196-.169-.599-.241-1.222-.455-1.859-.606-.116-.026-.115-.026-.354-.152-.031-.016-.153-.029-.198-.021l-.109.021-.092-.067c-.031-.023-.062-.022-.105-.001-.049.023-.112.025-.189.011-.091-.017-.177-.026-.254-.076-.115-.075-.145-.076-.293-.04-.017.005-.039.012-.055.017-.04.009-.152-.011-.192-.033-.031-.019-.065-.04-.099-.061-.083.039-.167.063-.306.046-.237-.03-.477-.047-.706-.055-.077-.037-.121-.081-.238-.085-.24,0-.481-.016-.722-.009-.125.002-.237-.002-.313-.058-.084-.006-.099.047-.153.052-.165.015-.332.011-.497.03-.116.011-.166-.029-.241-.056-.048.025-.097.051-.149.077-.032-.014-.065-.027-.101-.042-.035-.017-.075-.02-.129-.011-.088.015-.186.001-.265.051-.073.046-.082.043-.15.026-.037-.01-.076-.026-.117-.024-.096.005-.193.016-.288.031-.179.033-.394.016-.514.135-.116.023-.23.045-.348.068-.114.026-.169-.012-.248-.027-.136.027-.278.055-.415.083-.043-.008-.081-.016-.119-.023-.082-.016-.176.006-.243.056l-.093.069-.282.071c-.079.021-.079.021-.252.01-.015,0-.047.002-.05.005-.134.144-.372.158-.564.231-.04.016-.106.035-.129.029-.17-.047-.357.058-.528.122-.536.18-1.045.413-1.544.644-.106.048-.165.031-.244.033-.065.066-.112.129-.235.192-.693.33-1.365.698-2.033,1.077-.087-.002-.174.014-.291.09-.199.129-.406.248-.603.367-.028.002-.048.004-.066.006-.141.018-.171.033-.256.149-.023.031-.043.071-.074.092l-.54.354c-.032.02-.081.029-.113.03-.048.002-.072.011-.096.043-.098.132-.105.128-.169.179-.107.089-.196.106-.283.111-.237.168-.471.334-.703.497-.056.011-.111.022-.163.033-.042.07-.054.13-.147.2l-.8.608c-.038.029-.073.039-.113.046-.033.006-.079.018-.109.042l-.834.685c-.029.024-.051.068-.061.099-.015.046-.03.067-.068.081-.152.06-.15.066-.218.117-.112.084-.149.167-.176.255-.091.014-.172.051-.275.143-.53.486-1.058.977-1.563,1.505-.086,0-.168.069-.258.162-.077.08-.097.142-.124.216-.021.056-.078.115-.133.138-.073.03-.139.05-.207.14-.044.057-.093.112-.144.163-.083.084-.079.149-.107.231-.057.064-.126.134-.182.208-.085.113-.168.15-.253.178-.132.146-.248.304-.369.451-.015.056-.029.11-.043.164q-.149.075-.203.144c-.119.154-.249.299-.357.463-.023.033-.031.077-.042.115-.045.154-.044.157-.177.243-.037.024-.067.039-.096.079-.203.275-.398.557-.577.853-.18.295-.38.574-.539.884-.058.105-.046.167-.055.246-.073.06-.14.108-.208.233-.801,1.543-1.508,3.108-2.056,4.8.019.087.023.177-.019.312-.188.608-.346,1.229-.461,1.855-.028.038-.054.068-.075.102-.028.045-.048.146-.042.198.027.233.027.232.011.325-.054.377-.094.757-.122,1.139-.037.508.345.95.854.987l.07.002h.017s.822-.005.822-.005c.155-.001.331.026.439-.064.051.018.103.036.176.062.417-.001.859-.003,1.302-.004.116,0,.151-.047.224-.074.138,0,.278-.001.421-.002.074.045.154.083.29.071.085-.007.087-.002.236-.056.014-.005.044-.011.047-.009.077.051.176.064.301.063l2.313-.012,1.052-.005c.137,0,.282-.014.371.061.072-.005.096-.052.149-.056.137-.01.277-.01.416-.007.036,0,.069.028.104.043.084.035.297.035.38,0l.099-.044q.086.041.248.008c.015-.003.041-.005.048,0,.064.035.127.06.234.059l2.453-.014c.112,0,.16.038.227.067l.098-.042c.076-.034.166-.035.239-.002.034.015.068.031.107.048.416-.002.835-.004,1.266-.006.063.067.143.079.238.01.006-.004.041-.005.047,0,.076.055.183.067.304.057.113-.009.159.037.237.071.643-.004,1.296-.007,1.949-.011.134-.002.217.025.294.074.034-.018.068-.036.099-.053.07-.034.149-.03.239.007l.05.025c.033.017.065.011.099-.017.032-.026.069-.036.098-.025.037.014.078.05.098.046.057-.01.104-.035.159-.055.078.032.147.07.281.069.134,0,.201-.04.289-.075.073.053.167.073.296.07.107-.002.164-.031.234-.062.053-.023.133-.024.186,0,.07.032.128.061.235.058.163-.006.327-.007.49-.002.114.003.158-.041.228-.071.083.036.152.073.287.07.468-.003.934-.006,1.397-.009.052-.024.1-.047.149-.069q.146.069.231.068l.841-.005c.038,0,.077-.02.112-.033.143-.054.146-.056.288.001.039.016.068.032.115.032l.981-.006c.113-.002.158.04.228.069.082-.037.152-.073.287-.073.655-.002,1.308-.004,1.958-.006.052-.024.1-.047.149-.069.071.031.118.07.231.069l1.402-.007c.122,0,.228-.006.304-.061.005-.004.039-.004.047,0,.184.095.36.083.536-.016.273,0,.551-.001.832-.002.135.003.215-.029.29-.075.035.018.069.035.101.051.071.033.145.029.239-.011.139-.058.163-.061.287-.007.122.053.248.039.381.021.073-.057.183-.061.303-.06l.841-.002c.08,0,.124-.021.176-.044.086-.039.168-.042.238-.008.029.016.061.034.102.057.067-.063.16-.083.291-.083.653-.002,1.306-.005,1.949-.007.081-.041.082-.04.258-.013.015.002.04.002.048-.002.063-.036.128-.061.235-.06l1.051-.002c.114,0,.157-.042.23-.072.181,0,.367-.002.561-.003.077.036.146.081.286.071.138-.01.279-.003.412-.004.057-.026.105-.065.161-.069.137-.009.277-.001.416,0,.127.103.331.059.507.063.211,0,.42-.001.631-.002.135-.001.283.016.372-.061.157-.019.314-.023.47,0,.089.078.239.056.373.056l1.472-.008c.113-.001.157.04.229.07.275-.001.554-.002.841-.004.077-.037.148-.088.285-.072.074-.048.162-.082.289-.077l.2-.103c0-.118.001-.237.002-.363-.027-.012-.064-.026-.095-.044-.063-.036-.127-.065-.234-.057-.073,0-.138.002-.21.003-.081.005-.126-.019-.176-.043-.114-.056-.118-.055-.123-.152-.002-.037-.011-.07-.074-.091-.052-.018-.071-.038-.035-.05.023-.008.037-.017.052-.026ZM45.756,20.655s-.007.033-.011.05c-.012.019-.031.009-.056-.035,0,0,0,0,0,0-.002-.005.006-.035.012-.049.01-.022.031-.01.056.035ZM45.588,20.092c.017.026.019.061.003.094-.002.004-.023-.023-.035-.036-.017-.028-.019-.061-.003-.094.002-.004.024.021.035.037ZM17.738,1.866c.018,0,.052,0,.05.003-.015.034-.043.056-.073.06-.019.002-.052.001-.05-.002.015-.034.042-.055.074-.06ZM14.054,3.716s.033-.003.051-.004c.022.005.018.027-.017.065-.004.004-.036.006-.05.004-.024-.003-.019-.027.017-.064ZM9.822,6.668c.08-.068.14-.075.161-.017.007.02-.011.056-.018.085l-.053.012c-.035.008-.069.012-.106.024-.049.016-.069.015-.062-.013.009-.035.034-.065.078-.092ZM8.522,7.913c.018-.027.046-.046.083-.045.004,0-.009.03-.018.047-.015.027-.046.045-.082.045-.004,0,.011-.031.017-.048ZM7.805,8.796c.015-.027.046-.045.083-.046.004,0-.01.031-.016.047-.017.027-.046.045-.083.046-.004,0,.007-.03.016-.047ZM7.372,9.122c.086-.116.168-.15.203-.087.01.018-.004.056-.007.096-.068.02-.131.04-.199.06-.025.006-.029-.026.003-.068ZM5.884,10.647c.042-.03.065-.029.067-.007-.005.017-.008.046-.012.05-.041.03-.066.032-.065.008,0-.015.006-.047.011-.05ZM4.92,12.02c.016-.008.044-.027.045-.023.004.037-.009.07-.034.088-.015.011-.044.027-.045.023-.004-.037.009-.068.034-.089ZM4.508,12.454c.04-.033.063-.035.067-.013-.003.017-.004.046-.008.05-.04.033-.065.036-.066.013,0-.015.003-.046.008-.05ZM4.028,13.329c.038-.035.062-.04.065-.016.002.015,0,.046-.005.05-.038.035-.06.038-.066.017.002-.017.001-.047.005-.051ZM3.676,13.927c.066-.12.126-.244.201-.359.009-.014.032-.024.046-.028.023-.006.033.02.011.068-.068.156-.069.169-.076.28-.044.03-.089.056-.133.092-.04.033-.06.04-.057.002.001-.018,0-.039.009-.055ZM2.908,15.38c.012-.004.021.008.031.013l.019.087c-.026.013-.054.03-.079.039-.012.004-.026-.002-.031-.014-.009-.025-.013-.057-.019-.086.027-.013.054-.03.079-.039ZM2.748,15.644c.009-.004.016.004.024.006.018.045-.045.184-.097.212-.009.005-.019,0-.023-.007-.021-.043.044-.185.096-.211ZM2.473,16.19c.033-.04.054-.046.062-.025,0,.018.006.047.002.051-.033.039-.055.048-.062.025-.004-.014-.006-.046-.002-.05ZM1.881,17.765c-.019.026-.041.058-.06.066-.008.004-.009-.003-.014-.004.069-.09.076-.066.073-.062ZM1.815,17.765c.017-.024.041-.035.062-.045-.031.046-.054.08-.072.107-.013-.006-.015-.026.01-.062ZM1.725,17.839c.027-.028.05-.039.065-.014.002.003-.008.028-.017.046-.024.033-.033.042-.04.047-.009.007-.024.015-.027.009-.015-.034-.007-.062.019-.088ZM1.599,18.509c.012-.005.022.006.033.01l.028.084c-.024.017-.049.037-.073.048-.012.006-.026,0-.032-.011-.013-.024-.02-.055-.03-.084.024-.017.05-.037.074-.048ZM.986,22.196c0,.006-.001.013-.002.019-.006.003-.013.006-.019.008l-.045-.047c.022-.004.044.007.065.02ZM1.46,22.743s.003-.007.006-.01c.003,0,.006,0,.008,0,.004.008.01.025.016.037v.006s-.03-.033-.03-.033ZM6.891,23.187c-.011.009-.039.024-.044.023-.049-.013-.064-.03-.049-.046.015-.008.04-.024.045-.023.049.013.066.031.048.046ZM21.189,22.626c-.025.025-.054.016-.098-.008-.047-.026-.1-.049-.151-.073.09,0,.18-.001.27-.002.005.007.012.013.01.019-.006.022-.012.045-.031.064ZM22.242,22.698c-.035-.015-.053-.032-.036-.055-.085.002-.155.008-.21-.003-.058-.011-.099-.043-.149-.067-.086.076-.225.074-.365.072-.048,0-.088-.008-.111-.032-.004-.004.02-.017.032-.025.025-.017.064-.03.086-.048.203-.001.406-.003.61-.004.013.02.028.032.062.047.038.016.058.033.074.059.049.003.065.012.077.019.01.006.022.017.018.022-.026.027-.054.029-.088.015ZM23,22.912c-.029.01-.064.001-.091-.024-.003-.003.029-.015.044-.023.031-.008.064,0,.091.024.003.003-.026.017-.045.023ZM24.964,22.618c-.031.008-.064,0-.091-.024-.003-.003.026-.017.045-.023.029-.01.064-.001.091.024.003.003-.029.015-.044.023ZM26.296,22.521c.036,0,.072,0,.108,0-.007.005-.024.014-.038.018-.023.007-.047-.005-.07-.018ZM27.304,22.535c-.013-.002-.023-.01-.034-.016.08,0,.161,0,.241,0-.027.011-.053.023-.082.027-.039.004-.085-.003-.125-.01ZM28.893,22.6c-.031.008-.064,0-.091-.024-.003-.003.026-.017.045-.023.029-.01.064-.001.091.024.003.003-.029.015-.044.023ZM29.255,22.61c-.113.007-.177-.017-.175-.07v-.025c.095,0,.19,0,.285,0,.027.034-.032.09-.11.096ZM30.038,22.654c-.011.009-.039.024-.045.023-.049-.013-.064-.03-.048-.046.016-.008.04-.024.045-.023.049.014.066.031.047.046ZM30.657,22.512c.071,0,.142,0,.213,0-.04.029-.164.03-.213,0ZM32.952,22.599c-.061-.024-.077-.058-.093-.091.082,0,.164,0,.246,0-.006.004-.012.007-.021.012l-.131.079Z"></path></g><path class="cls-3" d="M25.952,27.888c-.011-.017-.03-.036-.031-.054-.003-.102-.003-.204,0-.306,0-.018.017-.039.031-.052.021-.019.026-.031.014-.049-.047-.074-.042-.075-.048-.115-.009-.066.022-.105.062-.14v-.183c0-.4-.325-.725-.725-.725h-.22l-.07-.058c-.035.025-.056.06-.11.059-.156,0-.31,0-.465-.001-.022,0-.038-.012-.054-.028-.014-.014-.034-.031-.051-.031h-.499c-.017,0-.038.017-.051.031-.019.021-.03.026-.048.014-.071-.047-.072-.042-.111-.048-.064-.009-.102.022-.139.063-.036-.042-.075-.064-.139-.064-.333,0-.664.001-1,.002-.028-.053-.076-.062-.136-.062-.051,0-.078.025-.111.051-.025.02-.063.02-.088,0-.033-.027-.06-.056-.111-.049-.033.004-.067.004-.1,0-.054-.006-.075.033-.111.061-.039,0-.084-.005-.127.001-.065.009-.102-.023-.137-.062h-.266l-.07.058q-.069-.059-.109-.058c-.089,0-.176,0-.266.001-.018,0-.037.017-.053.028-.068.045-.069.047-.136-.002-.018-.013-.032-.027-.055-.027h-.008c-.467,0-.846.379-.846.846v.923c-.002.054.033.075.058.108-.03.039-.06.072-.06.136,0,.798.001,1.595.002,2.395.039.035.063.073.062.137,0,.289-.001.575-.002.859-.017.019-.032.036-.046.051-.018.022-.02.067-.008.09.054.1.054.1.054.142v.897c0,.074-.023.157.053.209-.015.024-.031.048-.053.083,0,.198,0,.407-.001.617,0,.055.039.072.061.107v.2c-.038.035-.071.073-.061.137.006.04.001.041.047.112.004.007.007.023.007.023-.044.036-.055.083-.054.143v1.097s.001.499.001.499c0,.065.011.134-.053.175.004.034.043.046.047.071.008.065.008.132.004.197,0,.017-.024.032-.037.049-.03.04-.031.141,0,.18l.036.047q-.035.041-.008.118c.002.007.004.019,0,.023-.029.03-.051.06-.051.111l.002,1.163c0,.053-.032.076-.058.107l.035.047c.029.036.029.079,0,.114-.013.016-.026.032-.041.05v.601c-.057.029-.067.068-.01.113.004.003.004.02,0,.022-.047.036-.057.087-.049.144.007.054-.032.075-.061.112,0,.305.001.614.002.924,0,.064-.022.103-.064.139.015.016.03.032.044.047.028.033.025.071-.007.113l-.021.024c-.015.016-.01.031.014.047.022.015.031.033.021.046-.012.017-.042.037-.04.046.008.027.029.049.046.075-.027.037-.059.07-.06.133,0,.064.033.096.062.137-.045.035-.062.079-.061.14.001.05.025.078.051.111.02.025.02.063,0,.088-.027.033-.053.061-.05.111.004.077.004.155,0,.233-.003.054.034.075.059.108-.03.039-.062.072-.06.136,0,.224.002.443.002.662.02.025.039.048.058.071q-.059.069-.058.109v.399c.002.018.018.037.029.053.045.068.047.069-.002.136-.013.018-.027.032-.027.055,0,.155,0,.309.001.465.001.054-.034.075-.059.108.031.039.061.072.06.136,0,.311-.001.62-.002.928.02.024.039.048.058.071-.027.034-.06.056-.059.109v.665c0,.058.004.108.051.144.003.002.003.018,0,.022-.081.087-.072.17.011.254,0,.129.004.262-.002.394-.003.064.024.102.063.138-.015.017-.03.033-.043.048-.028.034-.025.069.008.113.049.066.051.077.005.136-.045.058-.034.118-.019.181.048.035.051.087.05.144l-.002.399c0,.038.017.059.037.084.033.041.035.08.006.113-.014.014-.029.029-.049.048.053.032.069.076.069.138,0,.169-.001.338-.002.505-.002.499.4.905.899.907h.008c.161,0,.319-.001.476-.002.042-.035.042-.034.138-.011.008.002.022.002.026-.002.032-.031.064-.051.122-.051.19-.002.376-.005.566-.007.061,0,.078-.036.112-.062.097-.003.196-.005.3-.008.049.029.096.064.169.054.072-.01.15-.007.222-.009.024-.022.04-.054.069-.058.071-.009.148-.005.223-.007.098.08.196.04.292.039.115-.001.227-.01.339-.017.072-.004.159.005.176-.056.076-.019.158-.025.25-.013.08.055.151.034.223.03l.778-.055c.059-.005.104.021.158.038.144-.012.291-.024.442-.036.019-.026.027-.061.108-.056.011-.032.036-.056.105-.058l.041-.068c-.071-.071-.142-.142-.217-.217-.02-.007-.044-.015-.073-.025-.052-.021-.101-.038-.149-.032-.041.002-.063.003-.102.004-.037.004-.073-.01-.111-.025-.088-.034-.089-.034-.146-.095-.022-.023-.045-.044-.087-.058-.035-.011-.055-.024-.045-.032.004-.003,0-.008.002-.012h.437v-.071s.002,0,.003.001c.032.032.039.02.039-.019,0-.089,0-.175,0-.267-.002-.057.027-.047.044-.066,0-.13.002-.257.003-.396.003-.062-.02-.118-.045-.181.032-.005.051-.03.045-.099-.003-.035.003-.058.019-.071.038-.032.038-.037.002-.134-.033-.089-.03-.151-.009-.188.014-.025.039-.028.034-.083-.002-.024-.002-.047,0-.067.008-.057-.014-.117-.046-.181.029-.012.053-.028.048-.098-.005-.07,0-.134,0-.199.034-.006.052-.034.047-.101-.005-.068.013-.125-.037-.211-.003-.005,0-.023,0-.023.036-.006.04-.054.04-.112l.005-1.273c0-.054.025-.058.05-.077.003-.452.005-.91.008-1.368,0-.055.031-.053.051-.074q-.048-.104-.048-.172c.001-.179.002-.357.003-.534.063-.013.056-.095.047-.178-.001-.01-.011-.024-.017-.035-.033-.051-.027-.093-.028-.137,0-.035.007-.057.026-.071.024-.017.023-.021-.003-.073-.006-.011-.012-.023-.02-.038l.048-.041-.048-.099.038-.026c.013-.008.008-.024-.01-.055-.012-.02-.026-.049-.027-.068-.003-.08-.002-.158.001-.235,0-.018.014-.031.027-.037.033-.014.022-.067.026-.107.004-.036-.013-.067-.03-.103-.03-.061-.031-.097-.007-.118l.019-.013c.027-.025.028-.128.002-.181-.029-.062-.046-.122-.031-.131.034-.021.052-.052.052-.115l.007-1.312c0-.058,0-.111-.044-.168-.003-.004-.004-.022-.001-.023.042-.016.047-.065.047-.124,0-.158,0-.313,0-.472,0-.054.03-.064.055-.087-.017-.031-.034-.062-.053-.095.002-.39.004-.783.006-1.175,0-.034-.004-.07.001-.1.012-.061-.026-.109-.055-.159.023-.025.058-.033.056-.088,0-.125,0-.246,0-.371-.001-.052.021-.073.047-.097.02-.018.02-.057.002-.089-.024-.042-.053-.079-.047-.129.004-.032.004-.066,0-.101-.006-.056.03-.067.058-.095.001-.298.003-.601.004-.904q0-.055.058-.158c.008-.013-.004-.073-.018-.097l-.036-.058.041-.036c.015-.012.01-.027-.012-.052-.025-.027-.034-.059-.032-.095.003-.042-.001-.084.03-.114.047-.045.043-.06-.004-.139-.006-.009-.015-.022-.02-.03-.01-.021-.002-.072.013-.088l.042-.038c-.038-.046-.064-.091-.06-.156.007-.11.003-.223.003-.331.027-.03.062-.043.06-.098,0-.115,0-.225,0-.339-.001-.059.002-.11.05-.135.007-.038-.037-.055-.039-.081-.003-.087-.006-.152-.009-.235-.004-.055.032-.07.058-.099-.018-.027-.037-.055-.057-.083.013-.012.027-.024.042-.037.017-.012.022-.03.018-.056-.007-.043.012-.084-.023-.13-.033-.042-.029-.046-.008-.072.011-.015.028-.029.03-.047.005-.044.005-.09.001-.135-.006-.086.033-.177-.051-.256-.002-.055-.005-.105-.007-.167-.005-.056.032-.071.059-.102v-.197c.015-.016.028-.031.041-.045.028-.031.028-.076,0-.116l-.039-.056v-.136c0-.038,0-.038.046-.108.004-.006.009-.02.007-.022-.085-.09-.04-.192-.051-.288-.002-.02,0-.052.011-.06.083-.058.046-.16.047-.244,0-.261.001-.52.002-.78,0-.055.033-.074.059-.105-.029-.043-.061-.079-.06-.144.001-.363.002-.723.004-1.087.039-.033.066-.071.062-.137-.006-.113-.002-.225-.001-.334.011-.012.018-.02.025-.027.049-.06.049-.075.008-.14ZM25.277,47.705s.011.022.014.034c.006.019,0,.031-.015.029,0,0-.009-.022-.014-.034-.005-.019,0-.031.015-.029ZM23.939,26.689c.049-.001.073.027.063.075-.003.017-.021.031-.032.046l-.023-.021c-.015-.014-.029-.029-.045-.041-.022-.015-.029-.027-.019-.042.013-.018.032-.024.056-.018ZM23.094,26.759c.015-.007.03,0,.043.021,0,0-.013.014-.021.019-.014.008-.03,0-.043-.02,0,0,.014-.013.021-.02ZM22.562,26.881c.014-.008.03,0,.043.02,0,0-.014.013-.021.02-.015.007-.03,0-.043-.021,0,0,.013-.014.021-.019ZM22.309,26.811c.067-.016.106.014.096.073-.003.016-.02.031-.035.052l-.086-.086c-.01-.011,0-.033.024-.038ZM21.309,26.75c.023.012.03.026.023.039-.007.007-.019.02-.022.019-.023-.012-.031-.026-.022-.039.005-.008.019-.021.021-.019ZM20.523,26.82c.007.007.021.02.021.02-.013.021-.029.028-.043.02-.009-.005-.021-.019-.021-.019.013-.021.028-.027.043-.021ZM20.414,42.422v.015c-.003.02-.01.029-.016.035-.005.005-.014.011-.018.008-.022-.012-.024-.026-.012-.042.013-.016.027-.024.046-.017ZM20.274,27.602c.008.005.021.019.019.021-.012.023-.026.03-.039.023-.007-.007-.02-.019-.019-.022.012-.023.026-.031.039-.022ZM20.214,27.136c.007.007.02.019.019.022-.012.023-.026.031-.039.022-.008-.005-.021-.019-.019-.021.012-.023.026-.03.039-.023ZM20.174,29.956c.006-.013.022-.022.035-.03-.01.025-.018.044-.025.059-.012,0-.019-.009-.01-.029ZM20.227,29.945c-.007.014-.015.032-.027.039-.006.003-.008,0-.012,0,.027-.05.039-.04.039-.04ZM20.194,29.176c-.008-.005-.021-.019-.019-.021.012-.023.026-.03.039-.023.007.007.02.019.019.022-.012.023-.026.031-.039.022ZM20.214,28.975s-.015.004-.02.002c-.031-.014-.032-.087-.001-.109.005-.004.014-.002.02-.002.03.015.031.088.001.11ZM20.012,35.161c-.008-.005-.021-.019-.019-.021.012-.023.026-.03.039-.023.007.007.02.019.019.022-.012.023-.026.031-.039.022ZM20.138,30.045c-.022-.012-.024-.026-.012-.042.013-.017.028-.025.047-.017.003.001.002.015,0,.024-.009.018-.013.023-.017.026-.005.005-.014.011-.018.008ZM20.203,42.819s-.014-.013-.019-.021c-.008-.014,0-.03.02-.043,0,0,.013.014.02.021.007.015,0,.03-.021.043ZM20.248,30.383c-.008.004-.021.004-.029,0-.016-.009-.031-.021-.046-.033.015-.011.03-.024.046-.033.008-.004.019,0,.029,0l.046.033c-.015.011-.03.024-.046.033ZM20.248,28.787c-.008.004-.021.004-.029,0-.016-.009-.031-.021-.046-.033.015-.011.03-.024.046-.033.008-.004.019,0,.029,0l.046.033c-.015.011-.03.024-.046.033ZM20.292,27.96c-.017.023-.028.03-.042.014-.006-.007-.015-.016-.016-.025v-.193c0-.008.012-.017.02-.022.013-.008.033,0,.039.025.018.079.019.085.06.132-.021.023-.043.044-.061.069ZM20.375,46.133c-.008-.005-.021-.019-.019-.021.012-.023.026-.03.039-.023.007.007.02.019.019.021h0c-.012.023-.026.031-.039.023ZM20.414,47.512v.006l-.003-.003s.002-.001.003-.003ZM25.284,48.032c-.01-.002-.02-.019-.028-.05h0s.008-.008.014-.008c.009,0,.02.018.028.049,0,.003-.009.006-.014.008ZM25.405,30.075c-.021-.015-.028-.032-.02-.045.005-.008.017-.021.019-.019.021.015.027.031.021.045-.007.007-.017.021-.019.019ZM25.476,28.129c-.013.007-.028,0-.039-.024-.001-.003.011-.015.019-.021.013-.008.027,0,.039.024.001.003-.012.014-.019.021Z"></path></g></svg> 