<?xml version="1.0" encoding="UTF-8"?> <svg xmlns="http://www.w3.org/2000/svg" xmlns:xlink="http://www.w3.org/1999/xlink" id="LP_Dinheiro_sem_Medo" data-name="LP Dinheiro sem Medo" width="39.544" height="50.452" version="1.1" viewBox="0 0 39.544 50.452"><defs><style> .cls-1 { clip-path: url(#clippath); } .cls-2 { fill: none; } .cls-2, .cls-3, .cls-4 { stroke-width: 0px; } .cls-3 { fill: #2d313f; } .cls-5 { clip-path: url(#clippath-1); } .cls-6 { clip-path: url(#clippath-4); } .cls-7 { clip-path: url(#clippath-3); } .cls-8 { clip-path: url(#clippath-2); } .cls-9 { clip-path: url(#clippath-5); } .cls-4 { fill: #95b2a8; } </style><clipPath id="clippath"><rect class="cls-2" x="-888.177" y="-1942.034" width="539.287" height="410.006" rx="-561.011" ry="-561.011" transform="translate(-2355.564 -1118.497) rotate(90)"></rect></clipPath><clipPath id="clippath-1"><rect class="cls-2" x="-1083.531" y="-2026.418" width="1070.725" height="602.563"></rect></clipPath><clipPath id="clippath-2"><rect class="cls-2" x="-1309.178" y="-576.123" width="1523.519" height="2002.641"></rect></clipPath><clipPath id="clippath-3"><rect class="cls-2" x="-154.225" y="-1707.39" width="539.287" height="410.006" rx="-443.689" ry="-443.689" transform="translate(-1386.968 -1617.806) rotate(90)"></rect></clipPath><clipPath id="clippath-4"><rect class="cls-2" x="-349.578" y="-1791.774" width="1070.725" height="602.563"></rect></clipPath><clipPath id="clippath-5"><rect class="cls-2" x="-575.225" y="-341.479" width="1523.519" height="2002.641"></rect></clipPath></defs><g class="cls-1"><g class="cls-5"><g class="cls-8"><image width="3024" height="3975" transform="translate(-1309.178 -576.123) scale(.504)"></image></g></g></g><g class="cls-7"><g class="cls-6"><g class="cls-9"><image width="3024" height="3975" transform="translate(-575.225 -341.479) scale(.504)"></image></g></g></g><g><g><path class="cls-4" d="M39.513,6.963c.015-.019.031-.034.031-.058l-.003-.436-.005-.916-.914-.033-.559-.02c-.057-.001-.081.038-.116.067-.042-.035-.077-.07-.145-.071-.852.006-1.695.077-2.523.197-.03.05-.066.082-.131.092-.297.041-.591.094-.88.149-.023-.016-.043-.03-.061-.042-.026-.016-.073-.009-.093.009-.09.081-.09.08-.132.089-.303.061-.604.126-.903.197-.073.018-.163.011-.194.108-.028-.012-.057-.023-.097-.04-.196.049-.404.1-.613.152-.054.013-.06.062-.088.096-.064.017-.13.034-.197.051-.046-.034-.092-.059-.153-.032-.038.017-.04.012-.096.082-.005.006-.02.014-.02.014-.049-.039-.098-.038-.157-.022l-1.082.317-.491.159c-.064.022-.128.055-.192,0-.032.016-.029.063-.052.075-.061.031-.127.053-.192.073-.017.005-.041-.015-.062-.023-.051-.019-.151.018-.177.064l-.032.056q-.054-.023-.119.034c-.006.005-.017.011-.022.009-.042-.021-.08-.032-.129-.013-.38.147-.759.307-1.132.484-.051.024-.089,0-.132-.011l-.028.058c-.021.046-.061.066-.109.053-.022-.006-.044-.012-.069-.018-.19.093-.379.193-.573.298-.059-.042-.102-.032-.112.05,0,.005-.016.014-.021.012-.06-.028-.114-.01-.164.029-.046.036-.09.009-.141,0-.289.168-.571.36-.848.558-.057.04-.108.044-.169.027-.004.025-.009.049-.013.071-.011.047-.047.068-.107.065-.011-.001-.024-.003-.036-.005-.024-.003-.033.012-.031.045.002.03-.007.051-.025.051-.023,0-.061-.014-.067-.004-.018.026-.022.06-.033.094-.051,0-.102-.006-.157.038-.055.044-.059.096-.073.15-.062-.017-.113-.001-.165.043-.043.036-.048.076-.058.122-.007.035-.039.061-.076.06-.049-.001-.09-.003-.129.037-.059.061-.122.119-.188.173-.046.038-.034.085-.041.131-.055.003-.106.001-.157.05-.178.167-.352.336-.514.513-.002.036-.003.069-.005.102-.101.008-.101.009-.131.041-.098.107-.204.208-.295.321-.012.015-.011.043-.013.065-.008.091-.007.093-.097.112-.025.005-.046.007-.062.025-.108.13-.215.26-.323.391-.036.046-.084.038-.128.05.002.056.009.106-.033.162-.199.271-.412.535-.587.818.005.035.009.068.014.101-.046.013-.09.013-.121.061-.126.204-.264.401-.38.609-.032.053-.054.103-.027.164.002.004-.007.019-.013.02-.127.035-.163.118-.124.243-.067.121-.134.241-.205.369-.034.06-.025.11-.003.164-.023.008-.046.016-.067.023-.045.018-.059.053-.046.112.018.088.016.1-.061.132-.075.032-.092.095-.107.162.034.058.01.107-.016.162l-.174.385c-.017.036-.008.065.003.098.017.054.002.093-.042.112-.02.007-.044.015-.072.025.043.055.041.105.013.164-.128.3-.241.607-.359.906.022.051.023.052-.031.125-.005.006-.009.018-.006.023.023.042.034.08.016.13-.057.166-.114.328-.171.494-.019.053.013.086.029.129-.026.086-.052.174-.08.266-.045.026-.096.047-.107.116-.01.068-.037.134-.056.197.016.034.046.067.042.095-.011.067-.039.131-.059.197-.117.034-.098.144-.124.227-.03.1-.052.202-.076.303-.005.019-.01.039-.015.058l-.021-.134c-.001-.009.007-.019.008-.029q.014-.08-.031-.112l.053-.079-.028-.019c-.015-.013-.042-.026-.042-.039,0-.024.024-.036.05-.037.041,0,.063-.024.065-.059.002-.033-.013-.063-.049-.076-.009-.003-.022.003-.032.02,0,.023-.006.032-.012.039-.005.005-.015.013-.019.012-.028-.007-.032-.02-.021-.038.011-.018.026-.027.048-.025-.007-.042-.038-.053-.06-.071-.02-.016-.045-.07-.031-.083.06-.055.048-.117.031-.181-.006-.021.008-.038.02-.059.042-.076.042-.08-.025-.131-.029-.022-.047-.045-.049-.078-.003-.061-.036-.099-.096-.121.018-.028.034-.055.051-.081l.052-.082c-.021-.012-.041-.024-.06-.035-.024-.016-.039-.061-.03-.084.004-.01.013-.018.018-.028.009-.019.026-.04.024-.058-.004-.043-.017-.086-.029-.128-.013-.038-.027-.08-.04-.121-.062-.015-.069-.076-.104-.113-.072-.074-.076-.071-.087-.124-.014-.065-.031-.125-.108-.148-.016-.005-.017-.066-.004-.089l.033-.058c-.055-.02-.097-.05-.103-.112-.004-.037-.009-.037-.081-.09-.029-.021-.037-.052-.029-.083.028-.101.035-.102.017-.15-.018-.049.013-.081.029-.12.007-.017.002-.047-.011-.06-.043-.044-.098-.061-.178-.059-.065.001-.092-.047-.064-.107.009-.02.029-.041.026-.058-.009-.061-.061-.118,0-.182.015-.069-.032-.122-.044-.184-.011-.055-.035-.1-.098-.116-.005-.001-.01-.017-.008-.02.044-.047.017-.101.025-.151.004-.023.028-.028.051-.039.05-.024.049-.031.04-.075-.005-.024-.015-.041-.038-.048-.02-.006-.033.004-.041.033-.007.028-.021.04-.039.036-.025-.005-.037-.021-.039-.046-.002-.024-.019-.044-.044-.039-.014.003-.024.029-.035.045l-.016.03c-.017-.01-.035-.017-.05-.029-.007-.006-.009-.019-.012-.03-.008-.032.006-.052.048-.072.041-.019.057-.043.046-.073l-.045-.122c-.016-.041-.04-.065-.066-.058-.032.009-.061.02-.078.057-.024.051-.028.048-.065.034l-.091-.028s0-.002-.001-.003c.026-.071.125-.076.125-.154.062-.017.087-.064.109-.117.015-.037.02-.041-.031-.062-.036-.015-.053-.038-.06-.07-.014-.061-.057-.088-.115-.1.008-.021.012-.043.023-.06.023-.037-.004-.063-.015-.091l-.133-.299.062-.159c.009-.025-.008-.07-.032-.084-.093-.058-.099-.056-.116-.101-.019-.049-.062-.056-.104-.068,0-.066.035-.123.052-.19-.062-.001-.106-.025-.128-.085-.015-.041-.041-.077-.062-.114.046-.073.01-.13-.025-.187-.021-.033-.047-.038-.085-.016-.03.017-.058.043-.09.051-.054.013-.063-.049-.1-.065-.033-.015-.092,0-.064-.071.016-.042.025-.087.036-.131l-.093-.024c.008-.033.013-.067.025-.098.025-.064.015-.102-.062-.1l-.118-.156c-.005-.007-.002-.02-.004-.03-.019-.078-.019-.079-.077-.089l.011-.095c-.08-.013-.08-.013-.091-.109l-.169-.018c-.002-.009-.005-.017-.005-.026.004-.076.003-.076-.03-.12q-.047-.062-.131-.025c-.057.025-.061.023-.058-.027,0-.022.001-.043.002-.068-.111-.133-.232-.26-.35-.386.003-.061.005-.116.003-.172,0-.017-.023-.023-.05-.012-.01.004-.018.015-.024.024-.015.022-.035.033-.059.022-.015-.007-.019-.032-.004-.052.02-.027.05-.048.041-.087-.032-.001-.067-.002-.096-.003-.009,0-.016-.014-.024-.022-.039.031-.061.036-.085.015-.048-.043-.091-.094-.17-.069-.007.002-.018-.008-.027-.013-.021-.012-.031-.029-.033-.051-.002-.025.01-.032.041-.03.049.004.085-.021.098-.069.012-.042-.038-.052-.048-.079-.048-.127-.047-.128-.089-.163l-.181-.148c-.062-.013-.076.083-.14.064l-.019-.168c-.001-.01-.007-.022-.014-.027-.017-.012-.036-.024-.056-.029-.025-.007-.044.007-.053.032.037.04.038.047.011.096.033.016.036.047.024.075-.012.028-.037.051-.056.076.033.025.067.048.097.075.026.024.055.019.086.016.037-.004.055.017.041.047-.037.078-.04.079-.035.115.003.024,0,.042-.01.066.003.004.001.005.003.008-.005-.004-.01-.009-.015-.013.001,0,0-.003.001-.003.003-.002.016.01.01.008-.035-.03-.068-.045-.082-.072-.013-.025-.009-.062-.013-.094-.077.033-.126-.007-.175-.048-.017-.014-.027-.031-.021-.057,0-.005.017-.007.026-.01.03-.009.068.002.087-.039-.033-.015-.036-.047-.023-.075.012-.028.036-.051.055-.076-.037-.039-.037-.046-.011-.096-.015-.022-.039-.03-.059-.013-.071.06-.071.065-.087.197-.001.01-.005.022-.012.029-.015.015-.03.032-.048.041-.024.013-.029-.002-.032-.033-.005-.065-.019-.13-.029-.195.029-.006.051-.01.072-.014.039-.006.053-.038.065-.068.014-.034-.037-.079-.083-.075-.022.002-.052.02-.064.011-.048-.037-.099-.034-.152-.013l-.02-.094-.067.016c-.024.007-.027-.006-.033-.036-.016-.079-.032-.088-.108-.079-.047.006-.05.007-.057-.037-.005-.029-.01-.041-.031-.038-.087.009-.089.011-.121-.011-.036-.025-.071-.04-.119-.024-.049.017-.085-.005-.098-.049-.006-.02-.014-.044-.034-.067-.001.004-.008.008-.026.014-.019.006-.043.014-.058.007-.036-.017-.07-.041-.103-.065-.006-.005-.008-.029-.008-.029.016-.008.036-.022.05-.018.029.01.054.029.108.06.047-.004.053-.028.036-.046-.022-.022-.049-.042-.076-.056-.032-.016-.045-.043-.054-.075-.011-.039-.035-.045-.061-.017-.015.016-.023.039-.039.054-.02.018-.04.01-.061,0-.022-.011-.041-.022-.038-.047.007-.03.015-.064.022-.094.004-.034-.011-.038-.042-.021-.017.01-.046.019-.057.011-.019-.014-.009-.04,0-.062.021-.056.018-.077-.005-.078-.026,0-.043.015-.049.041-.006.027-.021.042-.047.043-.017,0-.027-.016-.029-.044-.002-.026-.013-.043-.033-.052-.039-.019-.077-.043-.118-.058-.05-.019-.049-.067-.066-.107l-.091.029c-.011-.03-.022-.06-.033-.091-.055.033-.105.038-.155.002-.02-.013-.035-.022-.053-.034-.018-.053-.037-.106-.057-.165-.028.009-.057.018-.088.028-.011-.028-.021-.059-.035-.087-.002-.005-.016-.009-.027-.013,0,.006-.004.016-.015.028-.007.007-.018.013-.027.013-.019,0-.038-.004-.057-.009-.02-.005-.037-.023-.032-.045.002-.01.03-.023.045-.023.019,0,.038.014.071.029.032-.015.035-.038.016-.057-.022-.022-.055-.034-.07-.059-.022-.038-.036-.082-.048-.126-.016-.056-.099-.051-.099-.121,0-.01-.005-.027-.013-.03-.04-.019-.08-.042-.123-.048-.027-.004-.059.021-.089.033-.01-.086-.074-.108-.137-.128-.041-.013-.138.041-.165.087-.026.044-.04.052-.075.043-.05-.013-.057-.029-.045-.1.009-.053.007-.065-.033-.079-.064-.022-.123-.045-.136-.124l-.123-.045-.044-.089-.121.06-.015.03-.024.065c-.021.055-.053.071-.099.044-.016-.01-.026-.032-.039-.049l.028-.016.055-.032c-.005-.025-.018-.044-.04-.048-.037-.007-.049-.037-.064-.068-.018-.037-.042-.038-.062,0-.019.036-.039.071-.099.079-.002.004,0,.007-.005.012-.011.011-.031.014-.018-.005-.032.024-.04-.002-.04-.002.012-.012.027-.027.041-.029.009-.001.012.002.017.005.018-.026.028-.046.033-.062.013-.039.003-.073-.026-.082-.073-.024-.144-.047-.219-.071-.016-.004-.037.012-.056.018l.014.031c.007.019.023.044.016.056-.011.022-.036.02-.058.012-.038-.013-.055-.031-.053-.069,0-.011.009-.022.01-.033.004-.058.004-.058-.043-.074-.031-.01-.06-.019-.094-.03-.008-.002-.021.006-.029.013-.005.004-.01.016-.008.022.01.031.036.056.027.094-.008.034-.023.059-.059.062-.014-.031-.027-.062-.045-.09-.014-.022-.019-.041-.005-.063.014-.023.014-.044-.002-.063-.012-.013-.028-.006-.052.008-.034.021-.036.018-.064-.026-.031-.049-.066-.063-.104-.043l-.147.081c-.014.007-.077-.034-.076-.05l.01-.065c.002-.04-.018-.053-.053-.034-.03.016-.057.03-.091.014-.052-.023-.104-.026-.153.016-.004.003-.02-.001-.021-.005-.02-.061-.065-.082-.121-.094-.054-.011-.106-.028-.158-.043-.024-.007-.031-.03-.026-.085.005-.05-.003-.067-.039-.077l-.127-.035c-.058-.014-.058-.014-.094.058-.029.059-.09.064-.125.011-.01-.018-.022-.039-.033-.058q-.085.05-.149.034l-.479-.113c-.017.047-.036.064-.056.047-.019-.016-.022-.037-.009-.061-.026.003-.049-.009-.049-.036,0-.056,0-.109-.038-.156-.021-.025-.036-.052-.073-.058-.077-.016-.15-.032-.218-.046-.055.039-.101.071-.149.105-.044-.041-.079-.096-.152-.093-.043.001-.088-.011-.13-.024-.053-.016-.079.028-.117.048l-.057-.077-.027.02c-.069.045-.086.05-.134-.014-.04-.053-.119-.049-.146-.12-.01-.026-.064-.027-.087-.011-.054.037-.11.073-.12.15-.001.008-.018.021-.026.019-.061-.013-.135.009-.17-.072-.004-.01-.012-.023-.02-.025-.021-.006-.043-.008-.065-.008-.034,0-.036.023-.004.073l.019.027c-.016.011-.031.03-.047.032-.053.005-.081-.025-.074-.078.004-.026.008-.051-.016-.061-.049-.021-.1-.036-.124-.092-.057-.008-.098-.039-.126-.091-.009.005-.019.008-.025.015-.03.038-.02.087-.03.13-.011.045-.07.068-.106.039-.008-.007-.015-.017-.02-.027-.023-.047-.063-.058-.108-.06-.042-.002-.041-.005-.104-.065-.034-.033-.059-.032-.114.004-.009.006-.017.016-.026.021-.016.008-.028-.006-.044-.029-.038-.053-.117-.045-.151-.114-.016-.033-.09-.009-.105.032-.004.011,0,.024-.004.034-.022.059-.081.066-.125.018-.022-.024-.036-.055-.077-.053-.055.002-.109-.003-.14-.063-.01-.02-.033-.022-.057-.023-.046-.004-.088-.007-.133-.01-.023-.002-.038-.014-.051-.036-.036-.059-.125-.039-.153-.111-.062-.015-.126-.04-.183.018-.035.032-.067.062-.1.093l-.044-.049c-.033-.036-.037-.034-.056.033-.003.011.002.026-.003.034-.011.015-.03.038-.04.035-.024-.007-.03-.032-.025-.057.009-.04-.01-.066-.044-.077-.033-.01-.066-.002-.087.029-.005.008-.002.023.012.035.023.005.03.013.036.021.004.006.01.017.007.022-.014.025-.027.026-.042.011-.016-.016-.024-.033-.014-.055-.028-.004-.045.003-.06.02-.021.024-.044.044-.083.043-.051,0-.06.015-.063.056-.003.035,0,.07-.006.104-.004.025-.024.038-.04.034-.009-.002-.022-.016-.022-.024.002-.069.005-.138.007-.21.02-.022.043-.046.066-.07-.083-.062-.115-.053-.133.039-.008.039-.024.063-.063.06-.057-.004-.07.028-.078.08-.008.056-.015.056-.064.055-.053-.001-.107-.014-.149.042-.028.037-.071.03-.111-.008-.024-.023-.044-.051-.082-.044-.01.002-.021-.002-.03-.006-.023-.012-.027-.033-.027-.057,0-.026.002-.046.022-.061.016-.012.029-.002.047.02.013.016.033.032.051.035.055.006.11.008.165.005.015,0,.03-.023.044-.036-.008-.008-.016-.016-.023-.025-.011-.016-.031-.036-.028-.049.005-.025.03-.033.054-.025.025.008.045.001.058-.021.01-.016,0-.031-.021-.05-.021-.021-.044-.044-.067-.066-.011.011-.019.019-.027.026-.037.033-.037.033-.071.003-.046-.041-.088-.051-.114-.024l-.186.198c-.013-.013-.025-.02-.027-.03l-.009-.065c-.011-.04-.08-.072-.102-.041-.048.066-.11.063-.177.063-.018,0-.036.02-.053.032-.038.028-.037.029-.071-.003-.03-.028-.03-.029-.07.01l-.023.025c-.012-.016-.032-.03-.035-.047-.006-.034.001-.07-.004-.104-.003-.019-.022-.035-.033-.053l-.116.125c-.015.016-.029.008-.048-.016-.013-.016-.034-.033-.052-.034-.06,0-.106,0-.167,0-.018-.001-.036-.022-.053-.034-.062-.046-.072-.046-.137.012-.008.007-.016.025-.023.024-.062-.003-.1.035-.135.081-.005.006-.021.002-.032.002l.006.136c.002.055-.023.082-.076.075-.019-.002-.035-.019-.053-.03.007-.008.012-.019.02-.025.055-.04.04-.098.037-.153-.011,0-.027-.004-.032.002-.036.041-.074.085-.112.127-.015.017-.035.018-.059.021-.057.006-.108.002-.146-.051-.025-.034-.053-.055-.085-.067l-.624-.228-.185,1.347c-.005.038.003.079.02.12.003.008-.002.021-.007.03-.004.008-.013.02-.019.019-.01,0-.025-.008-.029-.016-.01-.019-.013-.043-.024-.062-.014-.022-.034-.03-.05-.02-.009.005-.02.023-.017.028.029.06-.004.106-.031.154l.121.068c.012-.018.029-.034.036-.053.015-.042.054-.037.086-.047.007-.002.021.008.029.016.004.005.006.017.002.023-.028.049-.056.099-.085.15.049.026.099.048.106.115.005.042.012.041-.018.125-.008.022-.01.04,0,.063.024.052.036.105-.006.157-.013.016.002.031.031.04.036.01.051.038.061.072.012.042.036.083.002.126-.016.02-.018.04-.014.062.005.025.015.042.036.053.022.012.033.002.044-.028.007-.02.022-.039.038-.052.033-.027.083-.009.106.035.049-.01.073-.002.069.024-.004.025-.02.038-.047.04.004.011.014.024.01.031-.028.05-.051.098-.02.156.021.038.016.041-.012.124-.012.036,0,.069.025.087.036.024.081.032.095.083.018.064.045.126.069.188.01.026.038.033.086.021.047-.011.069-.004.082.028.024.062.044.126.073.185.023.048-.008.083-.024.126l.086.039-.035.088c.024.009.046.019.065.026.026.013.048.058.041.079l-.045.124c-.023-.009-.038-.01-.044-.018-.015-.025-.018-.03-.032-.055-.022-.03-.05-.024-.066.012l-.028.062c-.019.042,0,.083.044.105l.054.028c-.005.01-.011.02-.013.031-.005.018-.017.043-.009.054.014.021.038.012.062.002.044-.018.068-.01.085.018.026.045.018.074-.037.103-.022.011-.041.022-.042.048,0,.022.037.026.081.009l.064-.027c.037-.013.098.028.091.063-.004.019-.016.046-.032.052-.078.031-.085.101-.1.162-.006.027.024.06.035.09.008.022.024.04.049.036.032-.004.067-.012.081-.049.008-.021.016-.042.027-.062.01-.017.084-.031.094-.018.032.042.063.08.121.096.025.007.046.05.025.082-.037.057-.013.104.011.152.017.036.008.071-.019.083l-.159.071c-.029.013-.039.047-.022.083.023.048.052.094.013.152-.022.033,0,.074.024.083.06.02.096.039.052.106-.008.012.015.03.042.026.088-.014.087-.016.127-.002.021.007.042.014.069.023-.031.048-.048.098-.013.148l-.032.087c.057.019.112.038.162.056.015.006.011.032-.01.049-.081.064-.081.063-.053.122.019.039.032.08.055.116.008.013.04.022.057.017.033-.009.063-.027.096-.007-.023.06-.047.121-.068.175.056.124.11.241.162.356.047.016.089.03.131.044.053-.024.106-.048.153-.086-.006-.022-.002-.032.003-.04.003-.007.011-.016.016-.016.028,0,.036.011.029.031-.007.021-.019.035-.042.037.014.035.022.068.041.086.021.02.058.024.089.035-.05.075-.051.076-.129.054-.028-.008-.043-.013-.05.008-.022.059-.065.118-.014.18.013.016.019.038.027.058q.026.059-.048.122c-.028.024-.022.05.014.062.031.01.063.021.111.037-.025-.097.056-.108.109-.151-.006-.022-.002-.032.002-.041.003-.007.011-.016.016-.016.028,0,.036.011.03.031-.007.021-.018.036-.042.038.005.013.009.027.014.03.029.013.06.023.09.033-.021.053-.051.104-.059.157-.011.067.045.117.066.177.011.031.02.054.033.089.002.008-.005.022-.012.03-.007.008-.019.011-.028.017-.045.03-.058.051-.038.066.021.016.04.008.063-.003.049-.024.085-.008.098.044.004.017-.007.038-.012.058l-.032-.01c-.068-.018-.08-.015-.071.021.005.02.01.045.025.058.013.012.04.02.058.015.032-.009.062-.03.093-.043.038-.017.061-.008.079.029.043.088.086.174.13.264.006.013-.008.045-.022.055-.036.026-.08.043-.115.069-.02.015-.012.039-.002.061.01.023.021.039.045.042.049.006.081-.034.124-.046.019-.005.051-.007.061.003.02.022.046.05.026.086-.024.044-.019.084.01.122.007.009.01.019.016.029.042-.011.04-.049.051-.077.017-.042.061-.066.103-.053l.095.027c.008.052-.022.096-.039.143l-.148.079c.01.02.023.038.03.059.008.025.022.04.049.038.017-.001.027-.018.03-.046.003-.025.015-.041.035-.054.022-.014.041-.021.063-.014.022.006.058.054.052.073l-.041.129-.121.067c-.007.004-.011.021-.011.031,0,.018.019.031.045.024.031-.008.058-.042.094-.02.027.016.043.056.036.083-.006.024-.05.058-.076.055-.022-.002-.043-.012-.066-.016-.007-.001-.019.002-.023.007-.006.009-.013.024-.01.032.026.064.039.07.16.149.023.015.042.051.024.09-.014.03-.022.063.003.094.027.033.031.086.088.092.035.004.062.018.079.052.02.04.046.078.07.116.019.03.042.033.086.014.045-.02.073-.019.088.005.006.01.011.018.017.029.024.049.068.088.078.145-.041.065.032.125.006.19-.01.024-.009.044.004.064.032.047.058.098.095.141.01.012.041.015.06.012.021-.004.038-.024.059-.029.025-.007.041.01.056.029.016.02.028.04.015.061-.018.027-.044.047-.062.074-.016.022-.004.041.01.063.015.022.029.042.054.033.052-.018.101-.043.158-.023.031.011.066.009.084.045.019.038.066.064.048.118-.022.066.055.122.019.191.008.047.043.078.071.113l.192.244c.013.017.031.031.048.043.008.006.025.008.033.003l.081-.065-.042-.053c-.025-.033-.026-.065-.001-.087.026-.023.056-.04.079-.065.013-.014.014-.039.02-.059-.011-.001-.022-.004-.034-.003-.05.002-.085-.02-.102-.065-.003-.009.004-.032.004-.032.077-.007.152-.016.197.067.015.029.035.052.027.089-.007.033-.006.067-.007.094-.052.043-.097.079-.141.115.007.009.021.018.021.026-.005.056-.01.114-.014.172-.002.023.014.024.044.028.084.012.09.023.092.108,0,.041.001.041.054.05.055.01.086.036.084.084-.002.021-.004.045-.006.07.064-.005.115.004.154.058.034.047.077.086.117.129.03.03.046.033.088,0,.02-.015.034-.031.059-.028.022.002.024.017.023.047-.004.08-.004.162.001.243.001.018.028.047.045.049.08.006.16.006.242-.001.018-.002.032-.031.05-.044.029-.02.052-.006.054.04.002.037.016.063.042.086.034.03.063.057.116.055.074-.003.086.015.097.101.008.053.039.082.087.079l.068-.005c.035.029.076.054.104.089.042.052.098.031.148.037.005.047.009.091.014.138,0,.008-.013.018-.02.027.018.014.034.029.054.041.061.036.102.083.097.161,0,.006.017.014.026.02l.041-.055c.026-.033.057-.043.084-.024l.081.06c.023.018.022.045,0,.087-.023.042-.021.065.008.086.027.02.054.045.084.058.033.014.059-.001.083-.033.031-.041.048-.038.084-.02.09.047.122.122.109.219-.003.021-.019.039-.025.06-.003.01,0,.027.007.032.007.004.024,0,.032-.006.025-.02.044-.052.072-.063.051-.021.079.031.117.05.03.015.057.036.085.054.056-.022.107-.026.158.014.034.027.076.046.106.063.015.04.019.077.039.101.021.024.057.036.086.053.043.025.023.086.059.114.018.014.04.021.059.033.018.012.037.023.051.039.063.068.063.069.108.054.033-.01.065-.021.1-.031l.032.093.161-.054c.041-.014.08.012.097.063.01.032.02.063.031.097.002.008-.009.02-.014.031.042.009.039.048.052.077l.011.031c.018-.011.04-.018.052-.034.033-.041.009-.082-.003-.124-.004-.016.017-.035.041-.028.028.008.062.015.072.057.006.025.017.052.063.052.001-.001,0-.002.002-.004.012-.01.032-.011.018.007.034-.02.043.004.041.006-.014.011-.029.024-.045.025-.011,0-.015-.004-.02-.007-.03.031-.057.043-.08.049-.03.007-.039.016-.025.039.005.009.009.02.017.024.027.013.053.03.088.012.022-.012.051-.025.096-.027.002-.003,0-.006.005-.01.012-.01.032-.011.018.007.034-.02.041.006.041.006-.013.011-.029.024-.045.025-.012,0-.017-.004-.021-.008-.014.013-.021.023-.02.028.017.044.032.086.049.128.008,0,.017.002.025,0,.105-.03.115-.027.155.06.029.062.091.073.129.022.007-.009.007-.023.014-.031.038-.048.048-.05.064-.001.017.049.05.07.095.084.031.01.064.019.075.059.006.021.017.049.033.056.083.035.17.062.256.087.023.006.041-.018.045-.042.007-.04.035-.06.069-.054.033.005.061.016.094-.003.069-.039.124.002.18.034.008.005.016.021.014.029l-.031.098c.022.015.04.01.062-.004.027-.016.053-.038.091-.022.051.022.105.035.17.055.01.022.016.062.039.082.023.02.064.017.094.03.039.017.064-.007.091-.024.017-.012.037-.018.068-.025.002-.004,0-.006.003-.01.01-.012.03-.016.019.005.031-.025.041,0,.041,0-.012.012-.025.028-.04.031-.009.002-.012-.002-.017-.004-.016.027-.024.048-.031.063-.012.025-.012.046.008.063.005.005.018.007.023.003l.232-.139c.02.03.037.057.053.081.033-.016.064-.042.093-.041.043.002.085.022.126.037.008.003.019.022.017.028-.033.079.025.128.056.186.009.005.018.013.028.016.178.037.356.075.535.112.053.01.082-.022.121-.042.041-.021.095.01.101.054.001.011-.005.023-.005.034.001.056.007.061.051.071.05.01.05.01.186-.037.019-.007.048-.001.066.009.018.01.027.035.042.052.043.05.108.043.126-.019.01-.035.02-.067.055-.072.032-.004.062.008.086.04.031.043.035.04.069.016.009-.007.017-.017.027-.021.017-.006.036.006.04.033.014.1.013.104.081.108.055.003.113.036.163,0,.038-.027.071-.054.12-.039.035-.027.075-.052.104-.086.019-.023.022-.06.034-.09.003-.008.016-.011.024-.017.022.026.047.05.064.079.031.053.081.068.133.085.025.008.03.034.02.06.034.003.072-.003.101.011.027.013.045.045.067.069.044-.04.088-.08.129-.117.014-.012.027.004.047.024.054.054.071.054.139.001.009-.007.016-.017.025-.023.035-.02.094.007.104.047.003.011-.003.024,0,.034.015.07.019.073.054.034.034-.038.076-.036.117-.049.039-.013.067-.06.099-.092l.024-.024c.016-.013.031-.004.047.021.02.032.052.035.086.038.054.004.119-.025.16.015.046.044.091.058.149.053.068-.006.133-.004.178.064.01.015.076.002.089-.02.046-.077.12-.044.183-.052.007,0,.02.013.024.023l.028.093c.003.007.018.017.023.015.01-.004.019-.014.023-.024.012-.03-.006-.067.021-.094.027-.028.062-.016.094-.02.033-.004.065-.005.09.026.014.018.033.031.05.047.058.053.059.053.121-.015.025.02.049.04.076.062.065-.004.132-.009.201-.013l.044-.05c.045-.048.104-.036.126.025.028.079.028.077.082.076.058-.002.111-.008.143-.066.01-.018.03-.011.049.013.018.024.037.031.049.017.043-.051.095-.098.079-.176.028-.05.078-.032.12-.04.043-.009.072.003.075.041.008.08.048.095.113.078l.133.106c.018.015.027.003.047-.021.054-.064.069-.066.137-.019.024.017.038.028.051.01.034-.045.07-.092.103-.136.005-.007.021-.004.032-.007.035-.01.069.007.076.042l.016.103c.006.032.036.048.078.04.055-.01.11-.025.156.028.017.02.032.011.046-.018.015-.031.041-.051.078-.052.043-.003.088-.027.126.014.021.022.044.029.05.013.032-.081.107-.069.17-.088.016-.005.034-.032.034-.05,0-.034-.011-.068-.016-.102-.006-.04,0-.057.051-.068.039-.009.056-.034.071-.063.012-.024.026-.038.052-.034-.009-.056-.01-.116-.074-.142-.008-.003-.021-.015-.02-.02.007-.025.024-.036.046-.042.038-.01.07-.002.082.03.011.032.012.067.048.083.025.011.039.026.035.043-.006.026-.025.035-.051.036-.022,0-.044.008-.066.012.011.069.08.072.118.11,0,0,.019-.006.02-.012.017-.065.089-.056.121-.097.034-.044.061-.093.092-.14.005-.007.021-.005.031-.008-.003-.056,0-.062.051-.082-.001-.002.002-.004,0-.006.055.008.108.016.165.024.014-.011.031-.027.05-.039.04-.025.073-.051.075-.103,0-.033.013-.066.015-.1.002-.039.028-.057.056-.077.063-.046.063-.047.156-.035.036.005.068.006.094-.02.021-.022.042-.027.051-.009.004.008.012.009.016.015-.024.144-.051.288-.072.431l.086-.05c.024,0,.047-.001.071-.002,0,.002.002.003.002.005.001.053.019.062.058.061.089-.002.177,0,.266-.007.055-.004.074.041.109.068.13-.003.264-.012.396-.007.064.002.098-.035.137-.074.036.05.079.078.141.066.032-.006.06.003.089.027.068.058.073.057.135,0,.058-.052.122-.05.179-.019.037.021.064.059.114.049.022-.004.045-.005.066-.001.064.011.103-.025.138-.074.038.044.076.078.14.069.065-.009.132-.005.198-.006.037.051.08.077.142.067.063-.009.135.015.177-.061.002-.004.02-.006.022-.002.037.053.088.057.145.055l1.264-.031c.053-.001.077.034.115.068.449-.009.902-.019,1.36-.043.055-.003.076.039.111.064.068-.071.068-.071.136-.075.179-.012.359-.024.537-.035.06.081.138.064.214.044.009-.002.016-.016.022-.026.027-.048.073-.045.117-.05.035-.004.063.003.092.026.036.028.039.026.071-.013.007-.009.014-.018.023-.03l.078.056.063-.074.055.043c.019.015.031.007.047-.02.011-.018.029-.04.047-.043.078-.016.158-.027.237-.037.018-.002.043.012.058.026.042.038.086.014.129.012.039-.003.058-.029.079-.056.037-.048.072-.056.113-.032l.029.019c.047.025.152.003.184-.039.037-.049.083-.083.105-.068.05.033.097.047.16.029.439-.12.866-.27,1.279-.442.054-.023.103-.046.115-.111,0-.005.017-.013.02-.011.055.034.105.019.159-.007.145-.069.287-.137.432-.206.048-.025.086-.002.131.011.011-.03.023-.06.035-.092.352-.177.698-.365,1.04-.556.029-.016.057-.038.088-.048.064-.019.07-.076.086-.127.044.008.082.034.129.006.108-.064.211-.125.319-.188.043-.028.082-.019.127-.009.034.008.067-.012.078-.045.014-.043.019-.087.067-.108.031-.013.061-.031.087-.052.043-.035.085-.01.135,0,.255-.158.513-.325.766-.501.046-.032.046-.031.186-.047.018-.002.057-.047.063-.073l.014-.063.069.011c.024.005.032-.009.031-.041,0-.036.016-.063.047-.084.037-.024.067-.052.121-.047.081.007.089-.005.108-.091.002-.011.001-.024.005-.034.007-.021.056-.047.083-.046.022.002.046.005.07.007,0-.059.012-.108.066-.147.092-.069.178-.146.261-.221.05-.001.094.015.135-.025.087-.082.169-.16.255-.241.042-.043.084-.078.149-.065.035-.023.003-.065.02-.086.059-.067.103-.117.16-.181.035-.044.082-.032.129-.037,0-.033,0-.065.001-.1.022,0,.043-.001.068-.002.025.001.043-.009.057-.032.023-.037.071-.057.066-.115-.005-.053.002-.053.041-.062.022-.004.048-.005.063-.018.035-.031.065-.068.091-.106.05-.072.15-.122.115-.235.033-.046.07-.09.099-.139.03-.048.078-.039.124-.049l.123-.162c.025-.005.047-.01.07-.015.049-.01.075-.048.07-.097l-.007-.068.081-.114c.022-.033.022-.032.111-.066.008-.003.021-.012.02-.015-.035-.122.068-.185.112-.273.009-.019.029-.045.045-.046.119-.007.137-.114.184-.187.148-.223.278-.456.407-.689.027-.049.072-.05.116-.066-.01-.053-.026-.1.006-.159.18-.324.342-.659.494-.998.056-.015.1-.039.123-.103.039-.109.093-.212.134-.316.016-.007.027-.012.037-.016.076-.037.082-.052.061-.131-.006-.021-.019-.046-.013-.064.039-.099.075-.193.114-.293.007-.017.032-.031.052-.038.03-.01.038-.02.032-.042-.026-.09-.02-.089-.012-.129.013-.067.06-.093.116-.113.05-.133.089-.267.132-.399.03-.017.058-.034.086-.05-.017-.044-.048-.077-.03-.13.053-.155.092-.314.137-.471.006-.022.024-.035.047-.047.019-.01.044-.025.049-.043.047-.169.087-.341.127-.512.004-.018-.01-.044-.022-.06-.019-.025-.022-.038-.005-.053.068-.062.063-.065.078-.104.024-.065-.003-.112-.041-.159.055-.027.089-.063.102-.129.063-.346.124-.692.169-1.045.064-.021.082-.071.091-.134.008-.053-.019-.086-.045-.124-.02-.029-.016-.069.01-.093.034-.031.07-.057.068-.112,0-.035.003-.071.011-.105.013-.056-.03-.083-.058-.124.005-.041.013-.088.009-.134-.006-.069.033-.106.08-.14.006-.096.012-.19.019-.282l-.063-.078c.07-.07.07-.07.071-.113.002-.094.005-.187.007-.283,0-.019-.018-.039-.03-.057-.05-.073-.052-.074.004-.145ZM.61,8.168c-.018.006-.055-.033-.058-.068-.001-.019.011-.039.017-.059.01.005.021.008.029.015.024.022.034.051.027.083-.002.01-.01.019-.015.029ZM2.458,12.93c-.027-.003-.041-.013-.039-.03.002-.01.008-.028.011-.028.027.001.042.012.039.028-.002.01-.007.02-.011.03ZM19.058,17.208c.064-.033.111-.011.117.053.001.018-.013.037-.023.063-.037-.024-.075-.048-.109-.07-.013-.009-.009-.034.015-.046ZM18.717,16.5c.013-.011.031-.009.049.009,0,0-.009.018-.016.026-.012.012-.03.009-.049-.009,0,0,.01-.017.016-.026ZM17.617,13.592c.038-.002.07.062.046.097-.004.006-.013.011-.02.011-.038.002-.069-.061-.046-.096.004-.006.013-.008.02-.012ZM17.379,13.373s0,0,0,0h0s0,0,0,0ZM17.243,12.971l.059-.033c.019-.018.039-.022.061-.012.017.008.017.023.005.049-.013.03-.018.062-.032.092-.017.035-.09.039-.114.007-.031-.042-.025-.079.021-.104ZM17.151,12.876s.02.002.029.007c.015.007.015.025,0,.048-.002.002-.019-.004-.03-.007-.014-.009-.015-.025,0-.048ZM16.904,12.282c.007.017,0,.04,0,.06-.019-.007-.041-.011-.055-.023-.014-.013-.019-.034-.024-.053-.002-.009.004-.021.006-.031l.032.005c.014.014.034.026.041.043ZM16.829,12.09c.01,0,.03.002.03.004.002.027-.007.042-.024.044-.01-.002-.03-.002-.03-.005-.002-.026.007-.043.024-.044ZM16.596,11.867c.015.007.018.024.006.048-.001.003-.021,0-.03-.003-.015-.005-.018-.023-.006-.048.001-.003.02.002.03.003ZM16.129,11.409c.016.004.02.022.01.047-.001.003-.02,0-.03,0-.015-.006-.02-.022-.01-.047,0-.003.021-.002.03,0ZM15.319,10.426c.016-.015.029-.034.043-.051.01-.025.029-.035.054-.03.016.004.023.021.019.048-.009.052.046.066.055.105.002.009.004.025,0,.029-.007.006-.022.007-.032.004-.038-.01-.066-.052-.114-.034-.028.01-.042.005-.047-.014-.005-.023.003-.041.022-.058ZM12.687,8.768c.015.022.015.039.002.05-.01.004-.027.014-.028.011-.015-.022-.015-.04-.002-.05.009-.006.026-.014.028-.012ZM12.281,8.213c.021.005.04.015.06.023.02.009.043.013.059.027.02.017.02.039.007.051-.008.007-.022.015-.03.013-.04-.015-.082-.029-.119-.05-.021-.013-.02-.038-.007-.05.008-.007.021-.015.03-.013ZM12.305,8.373c.01,0,.022.005.029.012.013.015.022.034.033.051-.02.004-.04.01-.06.012-.01,0-.019-.007-.029-.012l-.033-.051c.02-.004.04-.011.06-.012ZM12.108,8.293c.068.009.091.055.056.114-.01.016-.032.025-.052.039-.015-.041-.028-.08-.044-.122-.004-.015.015-.034.04-.031ZM11.685,8.199c.01.004.022.005.029.012s.011.019.012.03c.002.017-.013.03-.039.033-.009.001-.02-.007-.029-.011-.025-.001-.04-.015-.042-.042-.002-.026.031-.037.069-.022ZM10.819,7.827c.006.008.015.025.013.028-.02.019-.037.021-.048.009-.004-.01-.015-.026-.012-.028.02-.019.038-.022.048-.009ZM10.675,7.778c.016-.003.029.009.033.036,0,.003-.017.012-.027.014-.016.004-.028-.009-.033-.036,0-.003.017-.01.027-.015ZM9.142,7.019c.009-.002.023.002.03.008.015.014.027.031.04.046-.019.007-.038.015-.057.019-.009.002-.02-.005-.031-.008l-.04-.046c.019-.007.038-.016.058-.02ZM8.808,7.528c.003.007.006.019.003.023-.018.022-.031.021-.043.004-.012-.018-.016-.037-.003-.056.002-.003.015.002.023.006.014.013.018.02.02.024ZM8.741,7.428c.012.011.026.025.029.04.001.007-.002.009-.003.013-.04-.042-.026-.053-.026-.053ZM8.767,7.485c-.004.013-.014.018-.03.004-.011-.01-.015-.03-.019-.047.027.022.036.031.049.043ZM8.533,7.352c.013-.016.027-.036.044-.042.015-.005.026.056.01.089-.009.018-.028.03-.043.044-.005-.009-.012-.018-.015-.029-.003-.009-.003-.02-.004-.031.003-.011.002-.024.008-.032ZM6.432,6.673c.021.017.026.035.015.048-.007.008-.022.02-.024.019-.021-.017-.025-.034-.015-.048.008-.006.022-.02.024-.018ZM6.225,6.654c.016-.006.03.004.039.029,0,.003-.015.015-.024.019-.015.007-.03-.003-.039-.029,0-.003.015-.013.024-.019ZM5.593,6.491c.021.016.026.033.017.047-.008.007-.021.021-.024.019-.021-.016-.027-.034-.017-.047.006-.008.021-.021.023-.02ZM3.809,6.202c.018.006.033.024.049.036-.008.007-.015.017-.024.022-.029.015-.059.013-.087-.005-.009-.006-.015-.016-.022-.025,0-.019.05-.039.083-.029ZM2.513,6.532c.007.008.022.02.021.023-.012.024-.028.033-.042.023-.008-.006-.022-.02-.021-.022.012-.024.028-.031.042-.024ZM2.006,6.232c.008-.019.017-.042.032-.052.013-.009.04.047.033.084-.004.019-.02.036-.031.054-.008-.008-.017-.015-.023-.024-.005-.008-.008-.019-.011-.028,0-.011-.004-.024,0-.033ZM1.916,6.193c.009.005.023.019.022.022-.012.025-.027.032-.042.025-.008-.008-.023-.019-.022-.022.012-.025.028-.033.042-.024ZM1.605,6.12c.011,0,.023-.004.032,0,.009.004.018.013.023.022.009.015,0,.033-.023.046-.008.005-.021.002-.032.002-.024.009-.043.002-.055-.021-.012-.023.014-.046.055-.048ZM1.195,9.933c-.007.007-.02.009-.03.013-.021.017-.042.018-.062.001-.02-.016-.001-.046.039-.063.01-.004.021-.012.031-.012s.022.005.03.011c.013.01.011.029-.008.049ZM1.249,10.054c-.027-.004-.041-.015-.038-.031.002-.01.009-.028.012-.028.027.002.041.014.038.03-.002.01-.008.02-.012.029ZM2.812,13.329c-.011.013-.028.014-.05,0-.002-.002.005-.02.011-.028.009-.014.028-.014.05,0,.002.002-.007.019-.011.029ZM3.046,13.52c-.051-.019-.101-.041-.155,0-.005.004-.022-.004-.03-.009-.014-.01-.015-.033.006-.049.026-.02.06-.03.09-.045.048-.023.083-.01.097.042.005.018-.005.04-.008.061ZM3.172,13.957c-.011,0-.023-.003-.031-.01-.008-.006-.01-.018-.015-.028-.018-.037-.011-.07.016-.071.027,0,.041.013.046.038.002.01.013.019.013.028,0,.026-.012.042-.029.042ZM3.707,15.15c-.005.027-.013.043-.03.044-.026.002-.042-.01-.048-.036-.005-.009-.017-.019-.015-.028.006-.032.015-.063.024-.094.013-.043.042-.06.06-.035.013.017.031.037.03.055,0,.031-.017.062-.023.094ZM3.945,14.963c-.01,0-.03-.004-.03-.007,0-.027.011-.042.028-.041.011,0,.021.005.031.007-.002.027-.012.042-.029.042ZM4.045,14.693c-.027,0-.042-.009-.041-.025,0-.01.006-.029.009-.029.027,0,.041.009.041.025-.003.01-.007.029-.01.029ZM5.778,17.597c-.026.007-.043,0-.047-.016,0-.011,0-.03.002-.031.027-.007.044,0,.047.016.002.01.001.03-.001.031ZM6.064,17.886c-.026.008-.043.002-.048-.014,0-.011-.002-.03,0-.031.026-.008.044-.002.047.014.002.01.003.03,0,.031ZM6.942,18.774c-.001-.011-.006-.03-.003-.031.025-.011.044-.008.049.008.003.01.006.029.004.031-.025.011-.042.007-.05-.008ZM8.538,19.875c-.009.005-.028.012-.03.009-.015-.023-.013-.041,0-.051.01-.003.028-.012.03-.009.015.023.014.042-.001.05ZM8.656,19.872c-.005-.009-.011-.028-.009-.03.023-.015.041-.015.049,0,.005.009.006.021.009.031-.024.013-.042.014-.05,0ZM9.449,20.253c-.006-.009-.013-.027-.011-.029.022-.017.04-.018.049-.004.006.009.008.02.012.03-.023.015-.041.017-.05.003ZM11.926,21.212c-.02-.018-.025-.036-.013-.049.007-.008.018-.012.027-.018.019.02.024.037.012.05-.007.008-.024.019-.026.017ZM12.316,21.281c-.008-.007-.019-.023-.017-.026.017-.021.034-.026.048-.016.006.009.019.023.017.026-.017.022-.035.027-.047.016ZM12.918,21.381c-.008-.007-.02-.022-.018-.025.016-.022.033-.027.047-.017.006.009.02.023.018.025-.016.022-.034.028-.047.017ZM13.321,21.435c-.008-.007-.021-.022-.019-.024.016-.023.032-.028.046-.019.007.008.02.022.019.025-.016.023-.033.029-.046.019ZM15.417,21.557s-.016-.013-.022-.022c-.009-.015-.001-.032.022-.045.003-.001.014.014.022.022.008.015,0,.032-.023.045ZM15.888,21.547s-.016-.013-.022-.022c-.009-.014-.002-.032.021-.046.002-.002.015.014.022.021.008.015.002.032-.021.046ZM17.034,21.67c-.009-.005-.025-.017-.024-.02.011-.026.026-.034.041-.028.008.007.025.017.023.02-.011.026-.026.036-.041.028ZM18.372,21.497c-.009-.006-.026-.016-.025-.019.009-.026.024-.037.039-.03.009.004.026.015.025.018-.009.026-.023.036-.039.031ZM18.78,21.355c-.013.012-.028.004-.049-.013-.025-.02-.054-.036-.079-.052.018-.04.046-.052.078-.054.032-.002.051.021.062.059.007.025.007.044-.012.061ZM35.951,6.324c.054.025.045.04.045.04-.015-.006-.034-.013-.043-.027-.004-.006-.001-.009-.002-.013ZM38.344,6.276c.023.014.03.032.021.046-.006.009-.02.023-.022.021-.023-.014-.029-.031-.021-.046.008-.007.02-.023.023-.021ZM37.989,6.285c.008-.007.017-.018.025-.018.065,0,.13-.002.195.003.008,0,.017.014.022.024.008.016-.001.038-.026.043-.081.018-.086.02-.135.067-.022-.024-.043-.05-.068-.071-.023-.019-.03-.033-.014-.048ZM37.195,6.208c.012.017.026.033.035.052.005.009.002.022.002.033l-.031.054c-.012-.017-.025-.033-.035-.052-.005-.009-.005-.024-.001-.033.008-.019.02-.037.031-.055ZM37.082,6.236c.004.006.002.015.003.023-.014.035-.087.04-.111.006-.004-.006-.005-.016-.003-.023.013-.036.087-.041.111-.007ZM36.789,6.232c.025.012.033.027.026.043-.007.008-.018.025-.02.023-.024-.012-.034-.028-.026-.043.005-.009.017-.025.02-.024ZM35.978,6.305c.014.005.025.023.035.037-.027-.009-.047-.016-.063-.021-.001-.014.006-.023.028-.015ZM35.925,6.256c.019.013.029.028.023.052,0,.003-.015.004-.025.003-.019-.008-.024-.012-.028-.016-.005-.005-.013-.015-.011-.02.01-.027.023-.031.04-.019ZM35.581,6.354c.013.016.028.031.04.048.005.008.004.022.005.033l-.026.057c-.013-.016-.028-.031-.04-.048-.005-.008-.007-.023-.004-.033.006-.02.017-.038.025-.057ZM30.812,7.219c.026.006.038.02.035.037-.005.01-.012.028-.015.027-.026-.006-.039-.02-.035-.036.003-.01.011-.028.014-.027ZM24.601,11.145c.022-.002.039.004.049.026-.004.004-.007.007-.01.011-.017.012-.028.013-.037.012-.007,0-.019-.004-.021-.009-.01-.027-.002-.038.019-.04ZM24.247,11.245s.001.02.002.031c-.005.016-.021.023-.048.015-.003,0-.003-.021-.001-.031.003-.017.021-.023.047-.016ZM22.408,14.063c.003.01.01.028.008.03,0,0,0,0,0,0-.023.013-.042.012-.05-.003-.005-.009-.011-.028-.009-.03.023-.014.041-.011.05.003ZM21.751,15.329s.003,0,.005,0c0,.002-.002.003-.003.005l-.002-.004ZM20.976,21.257s-.014-.014-.022-.021c-.008-.015,0-.032.022-.046h0s.016.013.021.022c.009.014.001.032-.022.045ZM21.253,21.24c-.014.009-.03.002-.043-.023-.001-.003.013-.015.021-.023.015-.008.03-.001.044.023.001.003-.012.017-.021.023ZM36.701,14.519c-.01.003-.028.01-.03.007-.015-.023-.014-.042.001-.049.009-.005.028-.01.03-.008.015.023.013.041,0,.05ZM37.619,12.804c-.017,0-.029-.012-.033-.039,0-.003.018-.01.028-.011.017-.003.029.011.033.038,0,.003-.019.008-.029.012ZM38.383,10.506c-.018-.008-.029-.029-.043-.044l.028-.017c.019-.011.039-.02.056-.034.023-.018.038-.022.051-.007.017.018.02.038.007.06-.01.049-.048.065-.099.042ZM38.504,9.09s-.013-.016-.019-.024c-.006-.016.004-.03.03-.04.003,0,.015.015.019.024.007.015-.003.03-.029.039ZM38.552,9.643s-.014-.016-.018-.025c-.007-.016.004-.03.03-.039.003,0,.012.016.019.025.005.016-.005.031-.031.039ZM38.551,8.893c-.018-.005-.032-.025-.054-.043.037-.025.072-.048.11-.073.014-.009.037.004.04.03.008.07-.03.104-.096.085ZM38.722,6.98c.006-.009.019-.023.022-.021.024.013.032.029.024.044-.008.007-.02.022-.022.021-.024-.013-.033-.03-.024-.044ZM38.769,7.824c-.007-.008-.022-.021-.02-.023.015-.023.032-.03.046-.02.009.006.022.02.021.023-.015.023-.032.029-.047.02ZM38.801,6.744c-.008-.007-.024-.019-.022-.022.013-.024.03-.032.045-.023.009.005.024.019.022.021-.013.024-.03.031-.045.023Z"></path><path class="cls-4" d="M2.389,12.531s0,0,0,0c-.002-.005-.003-.007-.006-.012-.005-.004.002.012.006.012Z"></path><path class="cls-4" d="M2.544,13.033h0c-.002-.005-.003-.005-.006-.012-.005-.004.002.012.006.012Z"></path><path class="cls-4" d="M11.171,21.004c-.006.012-.004.019.006.022.005-.009.008-.016.016-.027-.01.002-.014.004-.022.005Z"></path><path class="cls-4" d="M19.415,18.402s-.001.001-.002.001c0,.005.005.006.005.012.004.005.001-.012-.003-.013Z"></path><path class="cls-4" d="M9.313,20.337c-.006.009-.007.015-.002.02.007-.007.013-.013.025-.023-.01,0-.015.002-.023.002Z"></path><path class="cls-4" d="M13.883,9.451c.022.008.027.019.036.03.002-.006-.007-.013-.036-.03Z"></path><path class="cls-4" d="M3.868,6.066h0s.008,0,.014,0c.006-.003-.012-.004-.014,0Z"></path><path class="cls-4" d="M12.609,8.502c.009.004.01.005.016.007,0-.006-.007-.009-.016-.007Z"></path><path class="cls-4" d="M9.22,20.212c-.012.012-.012.021-.004.027.008-.008.015-.011.023-.023-.011.002-.012-.003-.02-.004Z"></path><path class="cls-4" d="M10.946,7.727c.005-.01.003-.016-.005-.019-.006.009-.009.015-.018.026.012,0,.014-.006.023-.007Z"></path><path class="cls-4" d="M8.413,6.838c.063.014.122.028.188.043.013.002.031-.018.045-.029,0,0-.008-.025-.016-.027-.103-.03-.206-.057-.311-.078-.016-.003-.043.009-.055.024-.022.027-.011.037.023.04.043.004.084.017.126.026Z"></path><path class="cls-4" d="M16.188,10.978c-.017.004-.022.021-.02.049.002.033-.006.067,0,.098.004.018.026.034.043.046.02.014.064-.003.085-.035.011-.016.017-.042.012-.059-.006-.019-.028-.033-.043-.049-.007-.008-.017-.015-.022-.024-.013-.023-.03-.032-.055-.026Z"></path><path class="cls-4" d="M3.088,14.484l-.03-.006c-.002.021-.01.043-.004.061.01.031.028.059.044.087.014.025.049.029.085.01l.06-.032-.062-.118c-.033.029-.063.003-.094-.002Z"></path><path class="cls-4" d="M15.8,10.584c-.031.042-.006.087-.014.129-.005.026.001.046.026.055.004.001.015-.015.023-.024.016-.017.032-.034.049-.052,0-.033-.005-.066-.003-.1.003-.031-.003-.044-.027-.043-.023.002-.04.013-.055.034Z"></path><path class="cls-4" d="M1.414,10.876c.02.003.042.012.061.007.055-.014.075-.048.054-.091-.003-.024-.017-.038-.041-.042-.019-.003-.029.009-.036.036-.006.021-.016.04-.025.06l-.013.03Z"></path><path class="cls-4" d="M7.053,19.022l-.031.003c-.053.002-.057.006-.042.038.029.062.085.078.121.034.008-.019.017-.037.023-.056.002-.008-.006-.027-.006-.027-.02.002-.042.005-.063.008Z"></path><path class="cls-4" d="M16.495,11.388c.018.027.044.045.087.041.002-.031,0-.063.005-.095.004-.028.003-.044-.014-.05-.024-.008-.041.002-.059.02-.027.028-.037.057-.019.083Z"></path><path class="cls-4" d="M1.367,5.991c.031.011.041-.001.029-.033,0-.022.003-.045-.005-.064-.006-.015-.029-.035-.039-.032-.022.006-.03.03-.026.052.004.02.009.04.016.058.004.009.014.017.023.02Z"></path><path class="cls-4" d="M13.932,21.649c-.015.004-.038.025-.037.036.003.023.025.034.047.033.02-.001.04-.004.059-.009.009-.003.018-.012.022-.021.014-.031.004-.043-.029-.035-.021-.002-.044-.009-.063-.003Z"></path><path class="cls-4" d="M.885,9.5c-.007,0-.017.005-.021.01-.025.034.003.101.042.102.007-.003.017-.005.021-.011.025-.034-.003-.101-.042-.101Z"></path><path class="cls-4" d="M.907,9.301l-.061-.012c-.01.004-.024.006-.031.013-.014.015-.025.033-.038.05.02.004.041.01.061.011.01,0,.024-.005.031-.012.014-.015.025-.033.038-.05Z"></path><path class="cls-4" d="M17.341,12.56c0,.017.015.026.042.025.003,0,.008-.019.008-.03,0-.017-.015-.026-.042-.026-.003.01-.008.021-.008.031Z"></path><path class="cls-4" d="M17.284,12.464c.009.004.028.009.03.007.014-.024.012-.041-.002-.05-.01-.002-.028-.009-.03-.006-.014.024-.013.042.002.049Z"></path><path class="cls-4" d="M16.713,11.638c.011.001.03.006.031.003.011-.025.007-.043-.009-.049-.01-.003-.03-.006-.031-.003-.011.025-.007.042.008.049Z"></path><path class="cls-4" d="M19.084,16.841c.008.007.024.017.027.015.02-.018.024-.035.012-.047-.009-.005-.025-.016-.027-.014-.02.018-.025.036-.012.047Z"></path><path class="cls-4" d="M19.037,16.525c.005-.009.018-.024.016-.026-.019-.019-.037-.022-.049-.01-.007.008-.018.024-.016.026.019.019.036.021.05.01Z"></path><path class="cls-4" d="M15.697,10.462c.01.002.03,0,.031-.002.006-.027,0-.043-.017-.047-.011,0-.03,0-.031.003-.006.027,0,.044.017.047Z"></path><path class="cls-4" d="M13.799,9.123s-.003-.02-.008-.029c-.008-.015-.026-.015-.049,0-.003.002.005.019.008.03.009.014.026.015.049,0Z"></path><path class="cls-4" d="M8.255,6.804c-.054-.002-.059.001-.08.054l.065.014.015-.068Z"></path><path class="cls-4" d="M6.749,18.807s.015.006.022.006c.01,0,.021-.002.029-.007.008-.005.02-.02.018-.023-.012-.02-.031-.023-.053-.019-.021.004-.028.017-.016.042Z"></path><path class="cls-4" d="M7.93,19.609c0,.011.004.03.007.03.028,0,.042-.01.044-.027-.003-.01-.005-.03-.008-.03-.028,0-.043.01-.043.027Z"></path><path class="cls-4" d="M8.869,20.219s.015.003.023.001c.01-.002.02-.006.027-.012.007-.007.016-.024.013-.026-.016-.018-.035-.017-.056-.007-.02.009-.024.022-.007.045Z"></path><path class="cls-4" d="M.527,8.431c-.004.026.02.034.069.024l-.022-.064c-.027.001-.043.014-.047.04Z"></path><path class="cls-4" d="M1.4,10.668s.018.009.029.01c.017.002.029-.012.032-.038,0-.003-.019-.007-.029-.011-.017,0-.029.012-.032.039Z"></path><path class="cls-4" d="M7.987,19.829s.02-.005.031-.008c.014-.009.017-.027.002-.051-.002-.003-.021.003-.03.008-.015.008-.017.027-.003.051Z"></path><path class="cls-4" d="M10.498,20.959s.016,0,.023-.002c.009-.004.019-.009.025-.016.006-.008.012-.026.009-.028-.018-.015-.037-.012-.056,0-.019.011-.021.025,0,.045Z"></path><path class="cls-4" d="M19.444,21.211c.006-.026-.015-.038-.064-.034l.014.068c.026.002.043-.009.049-.034Z"></path><path class="cls-4" d="M1.398,5.99l.003.069.067-.003c-.011-.055-.016-.06-.07-.066Z"></path><path class="cls-4" d="M19.363,21.311c.025.007.036-.015.032-.066l-.065.014c-.002.027.009.045.033.052Z"></path><path class="cls-4" d="M1.052,5.984c.006-.016-.001-.032-.026-.044-.003-.001-.015.014-.02.023-.008.015.001.032.025.044.003.001.013-.015.02-.023Z"></path><path class="cls-4" d="M2.177,12.735c.022.015.039.014.05.001.004-.01.011-.028.011-.028-.022-.015-.04-.015-.05-.001-.006.009-.014.026-.012.028Z"></path><path class="cls-4" d="M1.593,5.876s-.014-.014-.022-.021c-.015-.007-.031.001-.043.026-.001.003.013.016.022.021.014.008.03,0,.042-.026Z"></path><path class="cls-4" d="M1.293,10.917c-.003.016.011.027.038.03.004-.01.01-.019.012-.029.003-.016-.011-.027-.039-.029-.003,0-.01.018-.012.028Z"></path><path class="cls-4" d="M2.709,14.016s.019.006.029.01c.017,0,.029-.014.03-.041,0-.003-.019-.008-.029-.009-.017-.001-.029.013-.03.04Z"></path><path class="cls-4" d="M17.313,21.839c.008.007.022.021.024.02.022-.016.028-.034.018-.047-.007-.008-.022-.022-.024-.02-.022.016-.028.033-.018.047Z"></path><path class="cls-4" d="M14.661,3.518h0s0-.004.002-.008c0-.004-.002.008-.002.008Z"></path><polygon class="cls-4" points="14.804 3.232 14.804 3.232 14.806 3.225 14.804 3.232"></polygon><path class="cls-4" d="M16.638,8.565s.001.005.002.009c.003-.003.004-.002.007-.006-.005,0-.005-.002-.009-.003Z"></path><path class="cls-4" d="M14.399,4.809c-.011-.008-.019-.019-.029-.028-.003-.003-.011-.005-.014-.003-.006.003-.014.009-.015.014-.005.042,0,.049.041.126.008.015.008.039-.013.055-.016.012-.03.028-.025.051.005.025-.007.055.022.073.018.011.028.027.028.049.003.034.004.053.006.081.002.021.014.029.042.03.03,0,.044.009.046.025,0,.007.001.011.002.02.001.032.015.064.006.096-.039.025-.015.075-.046.104-.011.011-.015.022-.013.035.006.033.01.067.019.099.003.009.019.018.03.02.012.003.027-.004.04-.002.016.002.02.015.023.028.004.015.005.028-.007.036l-.051.026c-.014.008-.012.021-.008.036.003.015.007.029.023.03.033.001.066-.001.093.022.015.013.034.019.036.042.001.025.021.049,0,.074-.027.031.004.077-.031.107-.006.027.008.051.015.076l.056.17c.004.012.011.023.018.033.003.005.013.009.018.008l.059-.02-.012-.037c-.007-.023-.001-.041.018-.048.019-.008.04-.011.058-.021.01-.005.016-.018.024-.028l-.018-.008c-.029-.008-.043-.026-.043-.054,0-.006.009-.016.009-.016.045.011.089.02.096.073.002.018.009.034-.004.053-.011.017-.017.035-.024.05-.038.014-.071.025-.103.037.002.006.008.014.006.018l-.043.091c-.006.012.003.016.019.023.045.021.046.028.03.076-.008.022-.008.023.021.037.03.015.041.034.031.06-.005.012-.011.024-.017.038.037.008.064.022.075.059.009.032.028.06.042.09.011.022.019.026.049.015.014-.005.025-.011.038-.006.012.005.01.013.003.03-.018.044-.035.09-.046.135-.002.01.008.031.017.034.045.015.091.028.137.036.01.002.024-.012.036-.017.02-.007.03.004.022.031-.007.021-.002.037.008.054.014.021.026.041.056.047.042.009.046.021.037.07-.006.031.007.052.034.057l.039.007c.015.021.033.041.043.064.015.035.05.031.078.041l-.015.08s-.01.009-.016.013c.008.01.011.015.024.03.028.029.044.061.028.105-.001.004.007.01.011.015l.032-.026c.02-.016.039-.017.052-.004l.037.044c.01.013.006.029-.014.05-.019.021-.022.035-.009.051.012.015.023.033.039.044.017.012.034.006.053-.009.024-.02.033-.016.051-.002.046.036.052.083.031.139-.004.012-.016.021-.023.032-.003.005-.004.016,0,.019.003.003.014.003.019,0,.017-.009.032-.025.05-.029.032-.007.041.026.061.04.015.011.028.026.042.04.035-.007.065-.005.087.025.016.019.038.034.052.046.003.025.001.047.01.062.009.016.028.026.043.039.022.019.003.052.021.072.009.009.021.016.03.024.009.008.018.017.025.027.028.045.028.046.056.041l.06-.01.008.057.098-.02c.025-.005.044.013.048.045.002.02.005.039.008.06,0,.005-.007.011-.011.017.023.008.017.032.022.049l.004.019c.011-.005.025-.008.033-.016.023-.022.013-.047.01-.072-.001-.009.013-.019.026-.014.015.006.034.012.036.037,0,.016.004.033.033.036.001-.001-.002-.002,0-.003.008-.005.019-.004.009.006.021-.009.023.007.023.007-.009.005-.019.012-.028.011-.009,0-.002-.008-.002-.012-.024.024-.043.027-.058.029-.018.002-.024.007-.018.022.002.005.003.013.007.015.014.01.027.022.049.014.014-.005.034-.011.062-.008.002-.003-.006-.004-.001-.007.008-.005.019-.004.009.006.021-.009.023.006.023.006-.009.005-.019.013-.028.012-.009,0-.001-.007-.002-.012-.012.009-.023.017-.023.021.006.027.011.053.016.079.004,0,.01.002.014.002.063-.012.069-.01.084.044.011.038.046.05.071.022.004-.005.006-.013.01-.018.026-.026.031-.026.036.003.005.03.023.044.048.054.017.008.035.014.038.039.002.012.006.03.015.035.045.026.092.047.14.065.013.005.025-.009.029-.023.007-.023.024-.034.043-.029.018.004.034.012.054.003.042-.02.071.006.1.028.004.003.008.013.006.018l-.024.057c.011.01.022.007.036,0,.016-.009.032-.02.053-.009.027.015.057.026.093.039.004.014.005.037.017.049.012.013.035.013.051.022.021.012.037-.002.053-.011.011-.007.024-.009.044-.012.001-.003-.006-.002-.002-.006.006-.007.018-.008.01.004.019-.014.023.001.023.001-.007.007-.016.016-.025.017-.008.001-.002-.007-.004-.01-.014.019-.021.034-.026.044-.008.014-.009.027.001.038.003.003.01.005.013.003l.139-.077c.009.019.018.035.025.05.019-.008.038-.023.054-.021.024.003.046.016.069.025.004.002.01.013.008.017-.022.046.008.077.023.112.005.003.01.008.015.01.099.027.196.054.297.081.029.008.047-.011.07-.023.024-.012.053.008.055.034,0,.007-.004.013-.004.02-.001.033.002.037.027.043.028.007.028.007.106-.019.011-.004.027,0,.037.007.01.007.014.022.022.032.023.031.06.028.072-.009.007-.021.013-.04.033-.042.018-.002.035.006.047.025.016.025.019.024.039.01.005-.004.01-.01.016-.012.01-.003.02.004.022.02.006.061.005.063.043.066.031.003.063.024.092.003.022-.016.041-.032.068-.023.02-.016.043-.03.06-.05.011-.013.013-.036.021-.053.002-.005.009-.007.014-.01.011.016.025.031.034.049.016.033.044.041.073.052.014.005.016.02.01.036.019.002.04-.002.056.007.015.008.025.028.037.042.025-.023.05-.047.074-.068.008-.007.015.003.026.015.03.033.039.032.077.001.005-.004.009-.01.014-.014.02-.012.052.004.058.029.001.006-.002.014,0,.021.008.042.01.044.03.022.019-.023.043-.021.066-.029.022-.008.038-.036.056-.055l.014-.014c.009-.007.017-.002.026.013.011.019.029.021.048.023.03.003.067-.014.089.01.025.027.05.036.082.033.038-.003.074-.002.099.039.006.009.042.002.05-.011.026-.046.067-.025.102-.03.004,0,.011.008.013.014l.016.056s.01.01.013.009c.005-.002.011-.009.013-.015.007-.018-.003-.04.012-.057.015-.017.034-.01.052-.012.018-.002.036-.002.05.017.008.011.018.019.027.029.032.032.033.033.067-.008l.042.037c.036-.002.073-.004.111-.007l.025-.029c.025-.028.058-.021.07.016.015.048.015.047.046.046.032,0,.061-.004.079-.039.005-.011.017-.006.027.009.01.014.021.02.027.011.023-.03.052-.058.043-.105.015-.03.043-.019.066-.023.024-.005.039.002.042.025.004.048.027.057.062.048l.074.065c.01.009.015.002.026-.012.029-.038.038-.039.075-.01.013.01.021.017.028.007l.056-.081s.012-.002.018-.004c.019-.006.038.005.042.027l.009.062c.003.019.02.029.043.025.03-.005.061-.013.086.019.009.012.017.007.025-.011.008-.019.022-.03.043-.031.024,0,.048-.014.069.011.011.013.024.018.028.009.018-.048.059-.039.093-.05.009-.003.018-.019.019-.029,0-.02-.006-.041-.009-.062-.003-.024,0-.034.028-.04.021-.005.031-.019.039-.036.007-.014.014-.022.029-.019-.005-.034-.005-.07-.04-.087-.005-.002-.011-.013-.011-.013.004-.015.013-.021.025-.024.021-.005.039,0,.045.02.006.019.006.04.026.051.014.007.021.017.019.026-.003.016-.013.021-.028.02-.012,0-.024.004-.036.006.006.041.044.045.064.069,0,0,.01-.003.011-.007.009-.039.048-.032.066-.056.016-.025.034-.055.051-.082.003-.004.011-.003.017-.004-.001-.034,0-.037.028-.048-.007-.015-.003-.026.006-.038.011-.015.022-.031.014-.055-.006-.019-.008-.04-.011-.053.025-.046.046-.086.067-.124.009-.002.013-.002.021-.004.012-.004.021-.015.025-.028.006.002.012.01.019.011.025.002.031.024.045.04.044.009.089.017.137.027.072-.057.149-.112.219-.175.027-.023.013-.041-.003-.066-.017-.025-.008-.046.022-.059.015-.007.026.002.026.015,0,.013-.002.026,0,.04.002.015.03.038.044.037.021-.002.033-.014.041-.032.006-.014,0-.025-.013-.036-.011-.009-.019-.02-.028-.031-.017-.019-.02-.038-.007-.05l.067-.064s.011-.003.016-.005c.043-.019.043-.019.042-.051h.056s-.001-.02-.001-.02c0-.011-.003-.029.003-.033.011-.008.026,0,.035.012.015.019.034.022.051.012.016-.011.024-.028.017-.05-.002-.006-.01-.01-.021-.008-.01.008-.017.008-.022.008-.004,0-.011-.002-.012-.005-.007-.016-.003-.022.009-.023.012,0,.022.003.029.014.017-.018.01-.037.01-.053,0-.015.015-.046.026-.043.047.009.071-.017.094-.047.008-.01.021-.009.035-.011.05-.008.051-.01.048-.059-.002-.021.002-.038.016-.051.026-.023.03-.052.016-.088l.056-.006.057-.006-.009-.04c-.003-.017.01-.041.024-.045.005,0,.014-.002.019-.003.012-.003.028-.003.035-.011.017-.018.03-.04.043-.061.01-.018.024-.042.036-.063-.019-.032.002-.06.003-.089,0-.06-.003-.06.015-.086.021-.031.039-.062.015-.103-.005-.009.021-.032.034-.037l.037-.01c-.016-.031-.023-.06-.001-.088.013-.017.01-.019,0-.069-.004-.02.004-.036.02-.045.053-.029.056-.028.066-.055.01-.027.037-.029.059-.039.01-.005.019-.019.018-.029-.003-.036-.022-.063-.059-.093-.03-.024-.024-.055.012-.068.012-.005.029-.006.034-.015.018-.029.014-.073.066-.079.032-.024.03-.064.047-.096.016-.028.021-.056-.005-.086l.003-.012c.038-.005.043-.039.065-.058.01-.009.024-.003.038,0,.033.007.035.003.046-.02.006-.013.007-.024-.002-.035-.007-.01-.017-.01-.031,0-.013.01-.024.011-.032.003-.01-.011-.011-.022-.003-.034.008-.012.007-.026-.007-.033-.008-.004-.022.004-.033.008l-.018.008c-.005-.01-.011-.02-.014-.03-.001-.005.002-.012.005-.017.008-.017.021-.021.049-.015.027.005.042,0,.047-.017l.018-.071c.006-.024.002-.043-.013-.048-.019-.006-.037-.011-.058,0-.029.015-.03.012-.044-.006l-.037-.043c.037-.025.089.007.116-.029.036.012.065,0,.094-.018.02-.012.024-.013.005-.038-.013-.018-.014-.035-.008-.052.012-.033,0-.059-.026-.083.011-.007.02-.016.031-.021.024-.01.019-.03.022-.047.014-.06.017-.121.025-.181l.081-.057c.012-.009.018-.036.011-.05-.029-.055-.034-.056-.03-.082.004-.029-.016-.045-.034-.063.02-.032.056-.049.085-.077-.032-.018-.047-.042-.04-.077.004-.024,0-.049,0-.072.046-.023.044-.061.042-.098-.001-.022-.013-.031-.039-.031-.021,0-.043.005-.062,0-.031-.008-.019-.04-.033-.058-.013-.016-.049-.025-.014-.051.021-.016.038-.036.057-.054l-.041-.036c.014-.014.027-.029.042-.041.031-.024.037-.046-.005-.065-.005-.036-.011-.073-.015-.107,0-.005.005-.011.007-.016.012-.043.012-.043-.016-.063l.034-.044c-.038-.027-.038-.027-.016-.077l-.083-.052s.002-.01.005-.014c.024-.036.024-.036.019-.066-.006-.042-.006-.042-.061-.046-.037-.003-.039-.004-.022-.028.007-.011.014-.021.022-.033-.021-.092-.039-.187-.065-.278.019-.029.038-.057.056-.083.005-.009-.004-.017-.021-.019-.006,0-.014.002-.02.005-.014.007-.028.006-.037-.005-.006-.007,0-.02.015-.026.019-.008.04-.01.048-.031-.016-.009-.034-.018-.049-.027-.004-.003-.004-.011-.006-.017-.03.005-.043.001-.048-.015-.01-.034-.015-.07-.063-.079-.004,0-.006-.009-.009-.014-.007-.011-.007-.022-.001-.033.007-.013.015-.013.03-.003.024.015.05.013.072-.007.019-.017-.003-.035,0-.051.017-.074.018-.075.008-.103l-.043-.12c-.026-.023-.065.019-.09-.008l.046-.086c.003-.005.004-.012.002-.017-.005-.011-.01-.021-.018-.029-.011-.01-.024-.009-.037.001.006.029.004.033-.025.049.011.017.002.033-.013.043-.015.01-.035.014-.052.021.008.021.018.042.023.063.005.019.021.025.037.031.02.008.022.023.006.033-.044.028-.045.027-.054.046-.006.012-.014.02-.027.029,0,.004-.001.004-.001.007-.001-.004-.003-.008-.004-.011.001,0,.001-.002.003-.002,0,0,.005.009.002.007-.008-.024-.02-.04-.019-.057,0-.016.015-.032.024-.049-.049-.005-.06-.038-.071-.072-.004-.011-.003-.023.008-.033,0,0,.011.001.016.002.018.004.033.02.056.005-.011-.017-.002-.033.013-.043.015-.01.035-.015.052-.021-.005-.029-.004-.032.025-.049,0-.014-.009-.025-.025-.023-.055.009-.057.012-.108.071-.004.004-.01.009-.016.011-.012.003-.025.007-.038.007-.016,0-.014-.009-.005-.025.018-.036.033-.068.05-.102.016.005.029.01.04.013.021.008.039-.004.055-.015.018-.013.008-.048-.016-.059-.011-.005-.032-.005-.035-.013-.011-.031-.038-.044-.071-.049l.022-.051-.038-.011c-.014-.003-.011-.01-.004-.026.019-.043.014-.051-.026-.068-.025-.01-.027-.011-.015-.034.007-.016.009-.022-.002-.027-.046-.02-.047-.02-.055-.04-.009-.023-.021-.039-.05-.045-.029-.006-.039-.027-.031-.052.004-.012.008-.025.006-.042-.002.002-.006.002-.017,0-.011-.003-.026-.005-.031-.013-.012-.019-.02-.04-.028-.06-.002-.004.006-.016.006-.016.01,0,.025,0,.03.006.011.013.017.03.032.06.024.012.035.002.033-.012-.003-.017-.01-.034-.018-.049-.01-.017-.007-.033,0-.052.008-.023-.001-.032-.024-.026-.013.004-.025.012-.037.015-.016.003-.023-.006-.03-.018-.007-.012-.012-.023-.002-.034l.043-.039c.013-.015.007-.022-.013-.022-.011,0-.029-.004-.031-.011-.004-.012.009-.022.021-.03.029-.021.035-.032.024-.039-.012-.008-.025-.006-.037.006-.012.011-.025.014-.037.007-.008-.005-.007-.015,0-.03.008-.013.008-.024.002-.035-.012-.021-.023-.043-.037-.062-.018-.024,0-.047.005-.071l-.053-.013.015-.054c-.038,0-.064-.012-.076-.044-.006-.013-.009-.021-.014-.032.009-.031.018-.063.028-.097-.017-.004-.034-.008-.052-.012.004-.017.008-.036.012-.053,0-.005-.006-.01-.014-.023.01.004.008.012-.012.018-.006.001-.013.001-.018-.002-.009-.006-.017-.014-.024-.021-.008-.009-.01-.022,0-.032.004-.005.022-.003.029.002.009.006.014.018.025.035.02.002.03-.009.027-.023-.003-.017-.015-.033-.014-.05.001-.025.01-.051.018-.077.011-.033-.032-.054-.009-.089.003-.005.006-.015.003-.019-.013-.021-.026-.045-.046-.06-.012-.01-.036-.007-.055-.009.023-.046-.002-.076-.027-.104-.017-.018-.082-.019-.11-.003-.027.015-.036.015-.051,0-.021-.021-.019-.031.009-.064.021-.025.024-.032.007-.05-.026-.029-.049-.058-.032-.103l-.049-.058.002-.059h-.081s-.016.01-.016.01l-.031.028c-.027.023-.047.023-.064-.003-.006-.009-.004-.024-.006-.036h.019s.038-.003.038-.003c.005-.015.003-.028-.007-.036-.017-.014-.016-.033-.016-.053,0-.024-.012-.031-.033-.016-.021.015-.041.032-.079.015-.002.002.004.005,0,.006-.009.003-.02,0-.008-.008-.023.004-.021-.012-.021-.012.01-.003.021-.008.03-.005.008.002-.001.007,0,.011.021-.011.034-.02.042-.028.018-.018.021-.038.008-.051-.031-.033-.064-.065-.1-.095-.008-.006-.023-.003-.035-.004v.02c0,.012.001.03-.005.035-.012.009-.025.002-.035-.007-.017-.016-.022-.03-.012-.05.003-.006.01-.01.013-.016.017-.031.016-.031-.005-.051-.015-.013-.027-.022-.046-.038-.004-.003-.013-.001-.019,0-.004.001-.009.007-.01.01-.001.019.007.039-.007.058-.012.017-.027.027-.048.021,0-.02,0-.04-.003-.06-.003-.015-.001-.027.012-.037.013-.01.018-.021.013-.036-.003-.01-.014-.01-.031-.008-.024.004-.023.002-.03-.029-.007-.034-.024-.05-.051-.046l-.1.015c-.009.001-.036-.035-.033-.044l.018-.035c.009-.022,0-.034-.025-.029-.02.004-.039.006-.056-.009-.026-.024-.055-.035-.09-.02l-.012-.007c-.001-.038-.025-.058-.056-.074-.035-.021-.058-.034-.087-.051-.014-.007-.015-.022-.004-.053.01-.028.007-.04-.014-.051l-.074-.038c-.034-.017-.034-.017-.063.021-.024.031-.062.028-.078-.007l-.015-.039c-.057.02-.056.021-.095.004-.097-.035-.193-.071-.293-.098-.012.028-.024.037-.036.026-.011-.01-.013-.023-.004-.037-.016,0-.03-.007-.03-.023,0-.034.001-.066-.023-.094-.013-.016-.023-.032-.047-.036-.052-.01-.095-.018-.138-.026-.033.024-.061.044-.089.065-.028-.023-.052-.056-.096-.051-.026.003-.054-.003-.08-.009-.033-.007-.046.021-.068.035l-.038-.042-.015.014c-.038.032-.048.035-.081,0-.027-.03-.073-.021-.094-.061-.008-.015-.04-.011-.052,0-.029.027-.058.053-.057.1,0,.005-.009.014-.013.014-.036-.002-.076.018-.103-.027-.003-.005-.009-.012-.014-.013-.012-.002-.025,0-.037,0-.02.003-.018.017.005.044l.013.015c-.008.008-.015.021-.024.023-.029.008-.048-.007-.049-.04,0-.016,0-.031-.014-.035-.03-.008-.06-.012-.078-.043-.033,0-.059-.013-.079-.041-.004.004-.01.007-.013.012-.013.026-.003.053-.004.08-.001.028-.032.048-.055.035-.005-.003-.01-.009-.014-.014-.017-.025-.041-.027-.066-.024-.023.003-.024.001-.065-.028-.023-.016-.037-.013-.063.015-.005.005-.007.012-.012.016-.008.006-.016,0-.028-.012-.027-.027-.07-.013-.097-.05-.013-.018-.051.005-.055.031l.002.021c-.006.037-.037.048-.067.025-.015-.012-.027-.028-.049-.022-.031.008-.061.012-.086-.021-.008-.011-.021-.009-.035-.007-.029.004-.05.007-.075.01-.013.002-.023-.004-.033-.015-.028-.029-.075-.005-.1-.044-.037,0-.076-.007-.1.034-.015.023-.029.045-.043.067l-.031-.023c-.024-.016-.025-.015-.026.028,0,.007.005.015.003.02-.004.01-.011.027-.017.026-.014,0-.021-.014-.022-.029,0-.025-.015-.037-.035-.038-.02,0-.037.009-.044.03-.002.005.002.013.012.019.013,0,.019.003.023.007.003.003.008.009.007.012-.004.017-.011.019-.022.013-.01-.006-.016-.015-.015-.028-.015.002-.026.006-.031.018-.008.017-.018.032-.039.037-.028.007-.031.017-.027.041.004.021.011.041.013.061.001.015-.007.026-.017.025-.005,0-.014-.006-.016-.011-.009-.04-.018-.081-.028-.123.008-.015.017-.033.026-.05-.056-.025-.072-.013-.068.042.002.024-.004.04-.025.044-.032.006-.034.027-.03.059.004.034,0,.035-.027.042-.029.008-.061.008-.075.047-.009.026-.034.028-.062.014-.017-.009-.032-.022-.052-.012-.005.002-.012.002-.018.001-.015-.003-.02-.015-.025-.029-.005-.015-.007-.027.002-.039.007-.009.016-.006.03.004.01.007.024.013.034.011.031-.007.062-.014.091-.024.008-.003.013-.018.019-.027l-.017-.011c-.009-.008-.023-.016-.024-.024-.001-.015.011-.024.026-.023.015,0,.025-.006.029-.021.003-.011-.005-.018-.02-.026-.015-.009-.032-.019-.048-.028-.004.008-.008.014-.011.019-.015.025-.015.025-.039.012-.032-.016-.057-.014-.067.006l-.069.144c-.009-.006-.017-.008-.02-.013l-.017-.036c-.013-.022-.057-.028-.064-.007-.015.045-.049.055-.086.068-.01.003-.016.018-.023.028-.015.023-.015.023-.039.012-.022-.01-.022-.01-.037.019l-.008.018c-.01-.007-.023-.011-.028-.021l-.022-.058c-.005-.01-.019-.016-.029-.024l-.04.092c-.005.012-.014.01-.03,0-.01-.006-.025-.012-.036-.009-.039.014-.052.019-.092.033-.01.003-.024-.005-.036-.009-.044-.013-.05-.012-.073.034-.003.006-.003.017-.007.018-.035.012-.047.041-.057.074-.001.004-.011.006-.017.008l.033.075c.013.03.005.051-.025.058-.011.003-.024-.003-.035-.006.002-.006.002-.013.005-.018.021-.034,0-.063-.014-.093-.006.003-.015.004-.017.008l-.032.095c-.004.013-.015.017-.027.024-.029.016-.057.026-.09.006-.045-.028-.087-.019-.127.008-.004.003-.012,0-.018,0-.005-.001-.013-.006-.013-.009,0-.006,0-.015.005-.019.01-.008.023-.012.032-.021.011-.01.013-.024.005-.031-.004-.004-.015-.009-.018-.007-.03.024-.061.01-.092,0l-.022.079c.012.005.023.013.035.014.026.004.028.028.038.044.002.004-.002.013-.005.019-.002.003-.009.005-.013.004l-.097-.03c-.008.032-.013.064-.05.077-.023.008-.022.012-.074.006-.014-.002-.025,0-.037.008-.027.02-.055.035-.091.019-.011-.005-.018.006-.018.024,0,.022-.013.036-.031.047-.022.013-.042.033-.072.02-.014-.006-.026-.005-.038.002-.013.007-.022.015-.024.028-.003.015.004.019.023.021.012.001.026.007.036.014.021.015.019.046-.002.066.014.027.013.041-.002.043-.015.002-.025-.005-.03-.021-.005.004-.011.012-.016.011-.033-.007-.064-.013-.092.015-.018.018-.02.016-.073.015-.023,0-.04.011-.045.029-.007.025-.004.051-.03.069-.032.023-.062.051-.092.077-.013.011-.011.028.005.052.016.024.016.038,0,.052-.029.026-.062.048-.088.078-.021.024-.048.014-.075.015l-.002.057h-.057c0,.015,0,.03,0,.042-.001.017-.022.039-.035.04l-.079.005c0-.015-.003-.024,0-.029.006-.012.017-.02.023-.031.012-.019.002-.033-.022-.034h-.042c-.028-.002-.046.02-.048.05l-.002.037c-.007,0-.015,0-.021,0-.011.002-.028.002-.032.009-.008.013.002.024.014.035.021.019.023.035.011.051-.018.026-.037.029-.066.007-.012-.009-.023-.017-.037-.01-.012.006-.004.027.017.047l.031.028c.017.016.011.061-.01.066-.011.003-.029.004-.037-.002-.038-.034-.078-.017-.115-.008-.017.004-.026.03-.039.046-.009.011-.015.025-.005.037.011.016.025.032.049.029.013-.002.027-.004.04-.004.012,0,.04.036.036.045-.013.029-.024.057-.016.092.004.016-.012.038-.035.037-.041-.002-.059.024-.076.052-.013.02-.034.027-.049.017l-.086-.059c-.016-.011-.036-.005-.05.016-.018.028-.033.058-.076.058-.024,0-.038.026-.035.042.009.038.012.063-.037.065-.009,0-.01.019,0,.031.037.039.037.038.044.063.004.013.007.026.011.043-.036.001-.065.012-.078.048l-.054.017c.011.035.021.069.03.1.002.009-.012.018-.028.014-.061-.014-.061-.015-.078.023-.012.025-.026.048-.035.074-.003.009.005.028.013.034.017.012.037.019.04.042-.037.014-.075.028-.108.04-.033.079-.065.153-.096.226.013.027.024.052.036.077.033.012.065.025.101.029.007-.012.013-.014.018-.016.004-.001.012-.002.014,0,.012.013.01.02,0,.026-.012.006-.023.007-.034-.002-.009.021-.02.039-.019.055,0,.018.014.035.023.052-.053.011-.055.012-.078-.031-.008-.015-.013-.024-.025-.018-.036.016-.078.024-.082.074,0,.013-.008.025-.012.038-.013.038-.013.038-.072.036-.022,0-.03.014-.019.034.01.018.02.035.035.062.027-.056.069-.027.11-.025.006-.013.012-.015.018-.017.004-.002.011-.003.014,0,.012.012.011.019,0,.026-.012.007-.023.009-.034,0-.003.008-.007.016-.006.019.008.016.018.034.028.051-.03.016-.064.027-.089.049-.031.027-.026.072-.039.108-.006.02-.01.029-.018.055-.002.005-.011.009-.017.01-.006.001-.013-.002-.02-.002-.032-.003-.046.003-.043.017.004.016.016.019.031.022.032.007.043.028.03.057-.004.01-.018.016-.027.023l-.011-.017c-.025-.034-.032-.037-.041-.016-.005.012-.012.026-.01.037.001.011.012.025.022.029.019.008.04.008.06.013.024.006.033.019.028.043-.01.058-.02.112-.03.174-.001.008-.019.02-.029.02l-.081-.005c-.015,0-.019.016-.022.03-.003.015-.003.027.008.037.022.019.052.01.077.019.012.004.028.014.029.022.002.018.006.04-.017.052-.027.014-.038.036-.035.065,0,.013,0,.013-.001.02.025.008.036-.012.051-.023.022-.016.052-.013.069.006l.04.044c-.012.028-.041.041-.065.059l-.101-.007c0,.013,0,.027-.003.04-.004.015-.002.027.013.035.009.005.02,0,.03-.014.01-.012.021-.016.035-.016.016,0,.027.002.037.012.009.01.012.045.004.053l-.06.054-.083-.002c-.005,0-.012.007-.015.013-.005.009,0,.022.016.026.019.005.043-.004.055.018.009.017.005.042-.006.054-.01.011-.043.016-.056.006ZM21.835,8.896s0,.004-.001.005c0,0-.003-.003-.005-.004.002,0,.004,0,.006-.001ZM15.084,6.692c-.016,0-.024-.006-.024-.016.002-.006.007-.017.007-.017.016,0,.025.007.023.016,0,.006-.007.017-.007.017ZM15.188,6.896c-.016,0-.025-.005-.025-.015.002-.006.006-.017.006-.017.016,0,.025.005.024.015,0,.006-.006.017-.006.017ZM15.552,7.526c-.016.003-.025-.001-.027-.011.001-.006.003-.018.003-.018.016-.003.026.001.026.011,0,.006-.003.018-.003.018ZM16.282,8.317c-.006.002-.018.003-.018.003-.006-.015-.003-.025.006-.03.006,0,.018-.003.018-.003.006.015.003.026-.006.029ZM16.349,8.325c-.002-.006-.002-.018-.002-.018.015-.007.025-.005.028.004.002.006.001.013.002.019-.015.006-.025.005-.028-.005ZM16.762,8.604c-.002-.005-.004-.018-.004-.018.014-.009.025-.008.028,0,.002.005.003.012.004.018-.014.008-.025.008-.029,0ZM18.098,9.273c-.011-.012-.012-.023-.005-.03.004-.004.01-.007.016-.01.01.013.012.023.004.03-.004.004-.015.009-.015.009ZM18.314,9.323s-.009-.016-.009-.016c.011-.012.02-.014.027-.008.003.006.008.016.008.016-.01.012-.021.015-.027.008ZM18.649,9.395s-.009-.015-.009-.015c.01-.013.019-.016.027-.01.003.005.009.015.009.015-.01.013-.02.016-.027.009ZM18.874,9.434s-.01-.015-.01-.015c.009-.013.019-.016.026-.011.003.005.01.015.01.015-.009.013-.019.017-.026.01ZM20.04,9.526s-.009-.008-.012-.013c-.005-.009,0-.019.013-.027,0,0,.008.009.012.013.004.009,0,.019-.013.027ZM20.301,9.522s-.009-.008-.012-.013c-.005-.009,0-.019.012-.027,0,0,.008.008.012.013.004.009,0,.019-.012.028ZM20.934,9.603c-.005-.003-.013-.012-.013-.012.006-.015.014-.02.023-.016.004.004.013.012.013.012-.006.015-.014.021-.023.016ZM21.67,9.514s-.014-.012-.014-.012c.005-.016.013-.022.021-.018.005.003.014.011.014.011-.005.016-.013.021-.022.018ZM21.893,9.436c-.007.007-.015.002-.027-.009-.014-.013-.029-.022-.043-.032.01-.024.025-.031.043-.031.017,0,.028.014.034.036.004.015.004.027-.006.036ZM22.686,8.945c-.006,0-.017-.002-.017-.002-.004-.016,0-.025.009-.027.006,0,.018.003.018.003.004.016,0,.026-.009.027ZM23.528,8.026c-.007.007-.021.009-.036.014-.005-.025-.01-.051-.015-.074-.001-.009.011-.017.026-.011.04.016.05.044.025.071ZM23.649,7.565c-.01,0-.017-.009-.018-.024,0,0,.011-.003.017-.004.01,0,.017.009.018.024,0,0-.011.004-.017.004ZM24.07,5.717s0-.004,0-.006c.002.001.004.004.004.004-.002.002-.003,0-.005.002ZM24.126,5.946s-.01.001-.014,0c-.02-.01-.016-.049.006-.059.004-.002.009,0,.014,0,.02.01.016.05-.006.059ZM24.201,5.497c.007.009.002.016-.012.025-.016.013-.028.023-.044.035-.019.012-.059-.006-.062-.027-.004-.028.01-.044.041-.044h.041c.015-.003.027,0,.035.011ZM24.09,5.439c-.005-.008,0-.016.014-.023,0,0,.01.007.013.011.006.007,0,.016-.014.023,0,0-.009-.007-.014-.011ZM24.166,4.95c.006.002.014.01.014.01-.007.014-.016.018-.026.015-.005-.003-.014-.01-.014-.01.007-.013.017-.019.026-.015ZM24.111,5.035c.001-.005.008-.009.013-.014l.015.011c.003.011.01.021.009.032-.001.01-.011.019-.017.029-.008-.008-.019-.016-.022-.025-.003-.01,0-.022.003-.032ZM24.093,4.773s.01.006.015.009c.006.007.003.016-.011.025,0,0-.011-.005-.015-.009-.006-.007-.003-.016.011-.025ZM23.984,4.43s.011.004.015.008c.007.006.004.016-.009.025,0,0-.01-.005-.016-.008-.006-.007-.004-.016.009-.026ZM23.896,3.746c.013-.003.025-.009.038-.013.013-.009.026-.009.036,0,.007.006.005.017-.006.028-.021.022.001.044-.007.066-.002.005-.006.013-.01.014-.006,0-.013-.003-.017-.007-.016-.015-.016-.043-.046-.048-.017-.002-.023-.009-.019-.019.005-.013.015-.019.03-.022ZM23.169,2.198c0,.015-.006.023-.016.025-.006,0-.017-.003-.017-.003,0-.015.006-.024.016-.025.006,0,.017.002.017.002ZM23.137,1.804c.006-.001.015-.001.019.002.009.009.015.019.022.029.007.01.017.019.02.03.004.014-.003.025-.013.027-.006.001-.016.001-.019-.002-.015-.019-.03-.038-.042-.06-.006-.012.002-.025.013-.027ZM23.082,1.882c.011.003.023.006.033.011.005.002.009.009.01.014.001.011,0,.023,0,.035-.011-.004-.023-.006-.033-.011-.005-.002-.007-.009-.01-.014v-.035ZM23.015,1.801c.003-.009.018-.013.029-.004.031.024.027.053-.01.073-.01.005-.024.003-.038.005.006-.025.012-.048.018-.074ZM22.864,1.629s.009.009.011.014c.001.005,0,.013-.003.019-.004.009-.016.012-.03.006-.005-.002-.008-.009-.011-.014-.012-.008-.015-.019-.008-.033.007-.014.027-.011.041.007ZM22.503,1.199c.015-.005.025-.002.027.007,0,.006,0,.018,0,.018-.015.005-.025.002-.027-.007,0-.006.001-.018.001-.018ZM22.467,1.145c.009.002.013.012.008.027,0,0-.012.002-.018.001-.01-.001-.013-.011-.008-.027,0,0,.012-.001.018-.002ZM21.743.418c.006,0,.014.004.018.009.007.01.013.022.019.033-.013.001-.027.003-.037.004-.006,0-.012-.006-.018-.009l-.018-.033c.012-.002.025-.004.037-.004ZM21.488.679s.001.011-.001.013c-.013.011-.02.01-.024-.002-.005-.012-.005-.023.004-.033,0,0,.008.003.012.005.006.009.008.013.009.016ZM21.461.614c.006.008.013.017.013.026,0,.004-.003,0-.004.002-.01-.019-.008-.028-.008-.028ZM21.465.644s-.006.014-.013.006c-.005-.007-.005-.019-.006-.029.01.012.013.016.018.023ZM21.34.571c.002-.006.003-.014.007-.019.009-.009.018-.02.029-.022.009-.002.011.035-.001.053-.007.01-.019.016-.028.024-.002-.006-.006-.011-.007-.018-.001-.006,0-.012,0-.018ZM20.119.209c.013.008.018.018.013.027-.003.005-.012.013-.012.013-.013-.008-.017-.018-.013-.027.004-.005.012-.013.012-.013ZM20.001.217c.008-.005.017,0,.024.014,0,0-.007.01-.012.014-.008.006-.017,0-.024-.014,0,0,.007-.009.011-.014ZM19.635.186c.014.007.018.017.015.026-.004.005-.011.014-.011.014-.013-.007-.019-.017-.014-.026.003-.006.011-.014.011-.014ZM18.614.24c.011,0,.022.009.032.014-.003.006-.006.012-.01.016-.014.013-.03.016-.048.01-.006-.002-.01-.007-.016-.011-.002-.011.021-.03.042-.029ZM17.962.633c.005.003.015.009.015.009-.002.016-.009.024-.018.021-.006-.002-.015-.009-.015-.009.002-.016.009-.023.018-.021ZM17.638.518c.005-.008.031.019.034.041.002.012-.004.024-.006.037l-.017-.009s-.008-.009-.012-.014c-.002-.006-.007-.013-.007-.019,0-.012,0-.027.007-.036ZM17.574.55c.006.001.016.008.016.008-.002.016-.008.024-.018.022-.006-.003-.016-.008-.016-.008.001-.016.008-.024.018-.022ZM17.39.57c.006-.003.011-.007.017-.007.006,0,.013.003.017.008.008.007.007.018-.003.031-.004.004-.011.005-.017.008-.011.01-.023.01-.035,0-.012-.01-.002-.029.02-.039ZM16.593,1.038c.011-.004.024,0,.036,0-.001.006,0,.014-.004.019-.008.018-.023.027-.042.028-.006,0-.013-.003-.019-.004-.006-.01.01-.037.029-.043ZM15.709,1.712s.012.009.014.014c.003.006.003.013.001.019-.002.01-.013.013-.029.008-.006-.002-.01-.009-.015-.013-.014-.007-.02-.018-.016-.034.004-.015.025-.012.044.005ZM15.65,1.784c.006-.001.018,0,.018,0,.006.015.003.026-.007.028-.006.001-.013,0-.019,0-.004-.016-.002-.026.008-.029ZM14.821,4.778c.014.007.019.016.014.024-.005.004-.014.012-.014.012-.015-.007-.019-.016-.014-.024.004-.005.014-.012.014-.012ZM14.665,3.436c-.011-.013-.013-.023-.005-.029.005-.004.017-.008.017-.008.012.012.013.023.005.029-.005.004-.011.006-.017.009ZM14.69,4.921c-.005-.003-.014-.012-.014-.012.008-.013.018-.018.027-.013.006.003.01.008.014.012-.009.013-.019.018-.027.013ZM14.66,3.73c.01-.003.019.004.023.019,0,0-.01.006-.016.009-.01.002-.019-.004-.023-.02,0,0,.01-.007.016-.009ZM14.642,3.841c.02,0,.039.008.059.013.031.007.043.026.03.055-.004.01-.017.016-.026.025-.017-.027-.033-.056-.073-.056-.004,0-.009-.01-.011-.016-.003-.01.005-.021.021-.021ZM14.599,4.17c-.001-.006.002-.012.003-.018.004-.024.02-.037.033-.029.013.009.015.02.009.034-.003.006,0,.013-.004.018-.01.013-.021.016-.029.01-.005-.004-.01-.009-.012-.015ZM14.507,4.873c.019-.019.039-.019.042-.001.002.012.006.027,0,.037-.009.016-.026.027-.039.042-.01.013-.019.019-.028.015-.014-.006-.019-.017-.015-.032,0-.006-.003-.015,0-.019.012-.013.026-.028.04-.042Z"></path><path class="cls-4" d="M23.512,2.875c.008.01.006.017.008.025.003-.002.001-.008-.008-.025Z"></path><path class="cls-4" d="M18.626.152s.001.001.001.002c.003,0,.002-.004.006-.004.003-.002-.008.002-.008.002Z"></path><polygon class="cls-4" points="23.115 8.546 23.113 8.546 23.11 8.552 23.115 8.546"></polygon><path class="cls-4" d="M16.682,8.646s0,.003.001.005c.004-.003.002-.003.007-.006-.004,0-.004.001-.008,0Z"></path><path class="cls-4" d="M22.617,1.185s0-.004,0-.007c-.004.002-.003.003-.008.006.003.002.005,0,.008.001Z"></path><path class="cls-4" d="M17.688,9.128s.001.004.003.006c.003-.004.002-.004.005-.009-.004,0-.004.002-.008.002Z"></path><path class="cls-4" d="M21.304.238c.039.013.071.024.116.039.008.002.021-.008.03-.014,0,0-.004-.015-.009-.017-.064-.025-.128-.05-.194-.068-.01-.003-.028.003-.035.012-.015.015-.007.022.013.025.027.004.052.015.078.023Z"></path><path class="cls-4" d="M24.116,4.344c.006.012.034.015.054.005.011-.005.022-.016.025-.026.003-.011-.004-.023-.007-.035-.002-.006-.004-.012-.004-.017,0-.014-.006-.023-.021-.027-.01-.002-.017.004-.025.019-.009.016-.023.031-.029.047-.003.01.003.023.008.034Z"></path><path class="cls-4" d="M14.392,4.419l-.014-.013c-.007.01-.019.019-.021.03-.005.019-.004.04-.005.06,0,.018.016.031.04.033l.041.003.006-.08c-.026.004-.033-.019-.047-.032Z"></path><path class="cls-4" d="M24.096,4.027c.01-.016.018-.033.03-.049.011-.015.013-.022,0-.028-.012-.005-.024-.004-.038.002-.029.012-.031.04-.048.059-.011.012-.014.023-.004.033,0,0,.013-.003.019-.005.013-.004.027-.008.041-.012Z"></path><path class="cls-4" d="M15.325,2.172c.012-.009.015-.02.01-.034-.004-.011-.013-.013-.03-.008-.011.002-.026.004-.039.006l-.019.003c.005.012.007.026.015.034.024.024.048.024.064-.001Z"></path><path class="cls-4" d="M15.531,7.668c-.031-.005-.034-.004-.03.017.008.038.038.054.065.034l.022-.029s0-.016,0-.016c-.012,0-.025-.002-.038-.003l-.019-.002Z"></path><path class="cls-4" d="M24.261,4.52c.011-.012.015-.021.008-.028-.01-.01-.022-.01-.037-.005-.023.007-.036.018-.035.035,0,.018.008.034.032.043.01-.015.019-.031.032-.045Z"></path><path class="cls-4" d="M17.232.549c.019,0,.022-.01.009-.025-.005-.012-.008-.026-.017-.035-.006-.007-.024-.013-.028-.01-.011.008-.01.023-.003.034.006.01.014.02.022.029.004.004.011.006.017.006Z"></path><path class="cls-4" d="M19.212,9.57c-.008.002-.022.015-.021.021.001.014.013.021.026.02.011,0,.022-.002.033-.005.005-.002.01-.007.013-.013.008-.018.003-.026-.016-.021-.012-.001-.024-.005-.035-.002Z"></path><path class="cls-4" d="M15.864,1.479s-.006-.009-.01-.01c-.024-.006-.056.025-.048.047.004.003.007.008.011.009.024.006.056-.025.047-.046Z"></path><path class="cls-4" d="M15.944,1.437l.036.011-.006-.037c-.004-.005-.008-.012-.014-.015-.011-.005-.024-.008-.036-.011.002.012.003.025.006.037.002.006.008.012.013.015Z"></path><path class="cls-4" d="M24.297,5.314c-.005.008,0,.017.015.024,0,0,.01-.007.013-.012.005-.008,0-.016-.015-.024-.004.004-.01.008-.013.013Z"></path><path class="cls-4" d="M24.322,5.238s-.014-.011-.014-.011c-.014.008-.019.017-.013.025.004.005.014.011.014.011.014-.008.018-.017.013-.025Z"></path><path class="cls-4" d="M24.236,4.7c.005.003.015.009.015.009.013-.009.017-.019.01-.026-.004-.004-.015-.009-.015-.009-.013.009-.016.019-.01.026Z"></path><path class="cls-4" d="M23.673,7.841c.016.001.025-.004.025-.013-.002-.006-.005-.017-.005-.017-.016-.001-.025.004-.025.013,0,.006.005.017.005.017Z"></path><path class="cls-4" d="M23.761,7.654c0,.015.008.024.018.025.006-.001.017-.004.017-.004,0-.016-.008-.024-.018-.024-.006,0-.017.004-.017.004Z"></path><path class="cls-4" d="M24.097,3.846c-.006-.002-.017-.007-.017-.007-.012.011-.013.021-.006.027.005.003.016.007.016.007.012-.011.013-.021.006-.027Z"></path><path class="cls-4" d="M23.589,2.676c.001-.009-.008-.015-.024-.014,0,0-.004.011-.006.017,0,.009.008.015.024.014,0,0,.005-.011.006-.017Z"></path><path class="cls-4" d="M21.206.209c-.034-.003-.037-.001-.051.03l.04.01.011-.04Z"></path><path class="cls-4" d="M15.423,7.514c.006.001.012.002.018,0,.006-.002.014-.011.014-.011-.003-.013-.014-.017-.027-.018-.013,0-.019.006-.016.022,0,.003.007.006.011.006Z"></path><path class="cls-4" d="M15.995,8.097c-.015-.004-.026,0-.028.011-.001.006,0,.018,0,.018.016.003.025-.001.028-.011,0-.006,0-.018,0-.018Z"></path><path class="cls-4" d="M16.434,8.545s.008.003.013.003c.006,0,.012-.002.017-.005.005-.004.01-.015.01-.015-.007-.012-.018-.013-.031-.009-.012.004-.016.011-.009.026Z"></path><path class="cls-4" d="M16.4,1.073c-.016.002-.016.017-.002.044l.032-.023c-.005-.015-.015-.023-.031-.021Z"></path><path class="cls-4" d="M15.383,2.073c-.005-.009-.015-.012-.03-.005,0,0,0,.012.003.018.004.009.015.012.03.006,0,0-.002-.012-.003-.018Z"></path><path class="cls-4" d="M15.998,8.21s-.012,0-.018.002c-.01.003-.013.014-.008.029,0,0,.012,0,.018-.001.009-.004.013-.014.008-.029Z"></path><path class="cls-4" d="M17.333,9.066s.007-.016.007-.016c-.009-.01-.02-.008-.032-.002-.011.006-.014.014-.003.027.002.002.009.001.013,0,.005-.002.011-.004.015-.009Z"></path><path class="cls-4" d="M22.257,9.365c.004-.016-.008-.023-.035-.022l.008.041c.014.002.024-.004.027-.019Z"></path><path class="cls-4" d="M17.248.542l.017.038.036-.016c-.018-.028-.022-.03-.053-.022Z"></path><path class="cls-4" d="M22.212,9.423c.014.005.02-.008.018-.039l-.036.007c-.001.016.005.027.018.032Z"></path><path class="cls-4" d="M17.058.615c0-.01-.008-.017-.024-.018,0,0-.005.011-.005.018,0,.01.008.017.024.018,0,0,.004-.012.006-.018Z"></path><path class="cls-4" d="M14.664,3.245c-.003-.016-.01-.024-.021-.022-.006.001-.017.008-.017.008.002.016.01.023.021.022.006-.003.017-.008.017-.008Z"></path><path class="cls-4" d="M17.331.436s-.011-.005-.017-.007c-.01,0-.017.007-.018.024,0,0,.011.006.017.007.01.002.017-.007.018-.023Z"></path><path class="cls-4" d="M15.207,2.086s-.012,0-.018.003c-.009.004-.011.015-.004.03.006-.001.013-.001.019-.003.009-.004.011-.015.004-.03Z"></path><path class="cls-4" d="M14.405,4.057s-.006-.011-.011-.015c-.008-.007-.019-.004-.029.009,0,0,.007.01.011.015.008.006.019.003.029-.009Z"></path><path class="cls-4" d="M21.088,9.707s.013.012.013.012c.012-.009.016-.02.01-.028-.004-.005-.013-.012-.013-.012-.012.009-.015.019-.01.028Z"></path></g><g><path class="cls-3" d="M6.886,25.476c.049.002.098.003.147.005,0-.034,0-.068.002-.102l-.149.097Z"></path><path class="cls-3" d="M33.518,25.325l.276-.518-1.198-.44-.014-.005c-.028-.012-.056-.023-.087-.037-.329.019-.66.039-1.001.059-.052-.054-.117-.061-.188.001-.004.004-.033.006-.037.003-.062-.044-.148-.049-.243-.036-.089.012-.127-.026-.19-.051-.508.027-1.024.054-1.54.082-.106.006-.173-.014-.235-.054-.026.017-.052.033-.076.048-.054.031-.117.031-.189.002-.012-.006-.027-.013-.04-.02-.027-.013-.052-.007-.078.018-.024.023-.053.033-.076.025-.03-.011-.063-.04-.079-.036-.045.01-.081.033-.124.052-.063-.025-.119-.055-.225-.05-.106.005-.158.041-.226.073-.06-.043-.134-.057-.236-.051-.084.005-.129.031-.183.059-.041.022-.104.024-.147.005-.056-.025-.103-.049-.188-.043-.129.009-.259.014-.388.015-.09,0-.124.039-.178.067-.066-.028-.122-.058-.229-.052-.371.013-.739.026-1.105.04-.04.022-.078.042-.116.063q-.117-.056-.184-.053l-.665.021c-.03.001-.06.019-.088.03-.112.049-.114.051-.228.004-.031-.013-.054-.026-.092-.025l-.776.021c-.09.003-.126-.031-.182-.055-.065.032-.119.064-.226.065-.518.009-1.035.018-1.549.026-.041.021-.079.041-.117.06-.057-.027-.094-.06-.183-.058l-1.109.014c-.096,0-.181.005-.24.053-.004.003-.031.003-.037,0-.147-.081-.285-.071-.424.014-.216,0-.434.001-.658.002-.107-.002-.17.025-.23.065-.028-.015-.055-.03-.08-.044-.057-.028-.115-.025-.189.008-.11.049-.129.052-.227.005-.097-.046-.197-.035-.302-.02-.058.049-.145.052-.24.05l-.666-.003c-.063-.001-.099.017-.14.036-.068.032-.133.034-.189.005-.023-.014-.049-.03-.08-.05-.053.054-.127.069-.231.068-.517-.006-1.034-.011-1.543-.017-.065.034-.065.033-.204.008-.012-.002-.032-.003-.038.001-.05.03-.102.05-.186.048l-.833-.016c-.09-.003-.125.032-.183.057-.144-.003-.291-.006-.444-.009-.06-.033-.114-.072-.225-.066-.109.006-.221-.003-.327-.005-.045.021-.084.054-.129.056-.108.004-.219-.006-.329-.01-.099-.092-.261-.059-.4-.067-.168-.005-.333-.01-.499-.014-.107-.002-.224-.021-.296.043-.125.013-.249.01-.372-.014-.069-.069-.188-.055-.294-.059l-1.165-.039c-.09-.003-.123-.04-.179-.068-.217-.009-.438-.018-.665-.027-.062.029-.12.07-.228.051-.06.038-.131.064-.231.056l-.162.081c-.004.101-.009.203-.014.311.021.011.05.025.074.041.049.033.098.06.184.058.06.002.108.003.167.005.064-.001.099.021.138.043.089.052.092.052.093.134,0,.032.007.06.056.081.041.017.055.035.026.044-.011.004-.018.009-.026.013-.07-.003-.14-.005-.21-.008-.004-.073-.049-.132-.081-.103-.017.015-.031.042-.046.065-.014.02-.027.026-.039.033-.012,0-.024,0-.036-.001-.01-.006-.02-.006-.029-.022-.014-.028-.027-.054-.041-.08-.026.034-.046.075-.075.096-.007,0-.015,0-.022,0,0,.006,0,.012,0,.018-.001,0-.002.002-.003.002-.046,0-.055.03-.055.095,0,.149,0,.295,0,.446.002.092-.038.122-.062.181,0,.219.005.442-.003.664-.003.108.028.165.063.232-.044.058-.071.129-.062.234.005.054-.004.1-.026.148-.052.111-.052.12-.003.227.045.098.041.206.013.3-.019.062-.053.106-.046.19.003.036.004.075,0,.111-.011.106.02.174.063.233-.039.062-.071.124-.064.232.007.109.001.221.001.331-.046.06-.069.131-.062.236.007.106-.016.225.05.298.004.004.004.033.001.037-.047.06-.052.145-.052.242v2.119c0,.089-.031.128-.062.191,0,.752,0,1.513,0,2.275,0,.091-.038.123-.061.18q.06.117.06.23c0,.297.017.595.026.89-.071.091-.056.22-.038.348.002.015.014.028.023.038.042.049.039.124.043.197.003.058-.003.103-.023.147-.025.054-.023.06.012.117.008.013.016.026.026.042l-.049.12c.021.037.043.075.065.113l-.039.083c-.014.028-.007.05.018.08.016.02.035.053.038.083.014.13.025.261.033.392.002.03-.011.068-.024.089-.034.06-.014.135-.012.206.002.063.026.099.05.139.043.07.051.128.029.189-.005.013-.012.029-.017.042-.023.07-.006.242.031.304.042.071.074.154.06.185-.03.071-.041.141-.027.245.103.728.228,1.456.411,2.174.024.095.043.181.108.227.005.004.014.031.012.036-.029.071-.01.156.018.251.072.256.151.511.242.762.03.086.011.134.004.199.031.031.063.062.097.095.234.622.517,1.231.848,1.817.027.051.066.097.089.148.049.101.114.129.177.169.009.062-.003.113.049.191.112.179.244.347.368.518.053.07.063.124.075.188.01.048.052.099.095.122.056.03.11.044.162.117.033.047.072.091.112.131.065.066.063.12.083.188.341.38.71.741,1.091,1.083q.069.062.181.241c.015.023.094.076.13.086l.086.023.033.085c.011.03.032.041.07.043.043.002.087.025.132.066.054.048.109.088.139.154.045.099.065.111.184.142.015.004.03.003.045.009.031.011.096.073.113.106.012.027.025.056.039.085.073.007.141.024.228.094.149.119.308.227.462.33.037.059.047.11.129.16.166.103.332.209.506.302.09.049.17.095.204.166.059.038.09.004.132.021.126.053.251.114.381.162.092.032.115.082.163.13.046-.003.092-.007.141-.011.02.022.04.044.062.068.021.025.05.041.095.051.073.018.144.058.22.043.07-.014.076-.009.123.026.026.019.051.044.082.055.075.024.154.043.232.058.147.026.308.099.433.033.095.015.19.03.285.038.094.008.126.051.183.086.111.013.226.026.337.039.031.018.057.034.084.05.058.034.135.041.198.017l.087-.033.23.016c.065.004.064.004.19.058.011.005.035.011.039.009.136-.082.316-.028.476-.034.034-.002.087.002.103.013.113.086.278.054.421.054.439.009.88-.008,1.32-.035.092-.007.132.025.191.047.067-.035.12-.068.23-.078.612-.045,1.223-.127,1.831-.239.066.028.137.042.247.017.191-.042.376-.083.558-.122.022.005.038.009.052.013.113.023.139.017.235-.051.026-.018.051-.044.08-.052l.505-.14c.03-.009.069-.003.095.004.038.011.059.009.085-.012.107-.083.11-.079.172-.104.105-.042.178-.036.249-.017.225-.074.444-.158.661-.241.047.003.092.005.136.008.047-.047.068-.094.156-.13.254-.102.503-.217.749-.339.035-.017.065-.019.099-.017.028.002.068.001.096-.012.264-.132.524-.273.777-.426.027-.016.05-.049.062-.073.018-.035.033-.05.066-.056.132-.026.132-.032.193-.064.102-.054.143-.115.174-.186.076,0,.147-.02.24-.085.487-.337.956-.702,1.401-1.109.073.006.144-.046.223-.119.066-.064.083-.117.107-.178.018-.046.066-.094.113-.111.062-.022.118-.037.176-.109.038-.046.08-.091.123-.131.071-.067.068-.121.091-.189.046-.054.103-.111.149-.174.069-.094.139-.124.209-.148.101-.129.201-.255.298-.379.009-.048.018-.093.027-.139.12-.066.12-.066.162-.126.092-.131.191-.259.27-.398.017-.028.021-.065.028-.096.027-.128.026-.131.133-.207.029-.021.054-.035.076-.069.283-.482.542-.977.761-1.486.038-.088.021-.136.021-.201.055-.053.108-.095.151-.2.518-1.325.848-2.699,1.041-4.077-.031-.065-.046-.135-.03-.245.071-.494.114-.99.153-1.478.02-.032.036-.059.052-.084.02-.036.027-.115.017-.154q-.044-.176-.039-.247c.03-.515.044-1.028.05-1.538,0-.125.026-.267-.051-.356.016-.041.032-.082.055-.141-.002-.335-.004-.691-.006-1.047,0-.093-.041-.121-.065-.18-.002-.11-.004-.222-.006-.337.038-.059.069-.124.058-.233-.007-.068-.003-.069-.051-.188-.004-.011-.01-.035-.008-.038.043-.062.052-.141.049-.241l-.044-1.835-.013-.828c-.001-.108-.014-.222.051-.291-.004-.056-.044-.075-.047-.117-.008-.107-.008-.217-.005-.326,0-.028.024-.054.037-.081.031-.065.033-.231.004-.296l-.036-.078q.036-.067.01-.194c-.002-.011-.003-.032,0-.038.03-.049.054-.097.055-.181.009-.636.045-1.267.094-1.894.007-.086.043-.119.073-.168l-.028-.079c-.022-.057-.019-.12.008-.171ZM7.004,27.39s-.015-.021-.02-.036c-.008-.023,0-.051.021-.072,0,0,.001.002.001.002,0,.034-.001.068-.001.102-.001.001,0,.003-.001.004ZM25.797,25.519c.027.012.041.026.03.045-.012,0-.024,0-.036.001-.026-.003-.04-.008-.048-.013-.008-.005-.018-.014-.015-.018.02-.023.042-.026.069-.014ZM25.191,25.352c.023-.009.05-.002.073.018.002.002-.022.014-.035.021-.025.008-.051.002-.073-.019-.002-.002.021-.015.035-.021ZM19.607,25.659c.009-.008.031-.021.035-.02.039.012.051.026.039.04-.012.007-.03.019-.035.019,0,0-.001,0-.002,0-.038-.011-.051-.026-.037-.039ZM17.294,25.704s-.002,0-.003,0h.001s0,0,.001,0ZM6.975,26.889s.013-.024.019-.036c.006-.005.012-.004.018,0,0,.025,0,.049-.001.074-.012.01-.026-.002-.037-.038ZM19.267,49.987c-.013-.006-.038-.016-.036-.018.021-.022.048-.031.072-.024.015.004.039.015.037.018-.021.022-.047.03-.072.024ZM22.533,49.637s-.026-.007-.04-.011c-.015-.011-.007-.027.029-.047.004-.002.029.006.039.011.017.009.008.027-.028.047ZM26.414,48.223c-.072.044-.123.037-.131-.014-.003-.018.017-.044.025-.067h.043c.029-.002.057,0,.087-.004.041-.006.057,0,.049.021-.011.027-.035.049-.073.064ZM27.592,47.383c-.016.02-.042.031-.072.026-.003,0,.009-.024.018-.037.014-.021.041-.031.071-.026.003,0-.011.024-.017.037ZM28.229,46.729c-.013.021-.038.034-.069.031-.003,0,.009-.025.014-.038.015-.021.039-.033.069-.031.003,0-.007.025-.015.038ZM28.598,46.499c-.074.089-.142.111-.17.056-.008-.015.004-.046.008-.079.056-.011.109-.022.166-.033.021-.003.023.024-.004.056ZM29.814,45.299c-.034.024-.052.024-.055.006.003-.014.004-.038.008-.041.034-.024.054-.025.055-.005,0,.012-.004.038-.007.041ZM30.531,44.162c-.013.007-.035.023-.036.02-.007-.03.002-.057.021-.073.012-.01.035-.024.036-.02.007.03-.002.055-.021.073ZM30.833,43.79c-.03.029-.048.032-.053.014,0-.014-.002-.038,0-.042.029-.029.049-.033.053-.014.002.012.003.038,0,.041ZM31.094,43.075c-.003-.012-.005-.037-.002-.041.028-.03.046-.035.053-.018,0,.014.004.038.001.041-.028.031-.047.036-.052.017ZM31.375,42.555l-.13.3c-.006.012-.024.021-.035.025-.018.007-.03-.014-.017-.054.037-.131.04-.14.033-.229.034-.027.069-.05.103-.082.031-.029.047-.036.048-.005,0,.014.004.031-.002.045ZM31.849,41.332c-.01.004-.019-.005-.028-.008l-.027-.068c.021-.013.041-.029.062-.038.01-.004.022,0,.028.009.011.019.019.044.027.067-.021.013-.041.029-.062.038ZM31.951,41.106c-.007.004-.014-.002-.021-.003-.02-.033.011-.152.051-.179.006-.005.016-.003.02.003.023.032-.007.153-.051.179ZM32.053,40.668c-.003-.014-.011-.036-.009-.04.022-.035.04-.044.048-.026.005.011.012.036.009.04-.022.035-.039.043-.049.027ZM32.353,39.323c.012-.023.026-.051.04-.059.006-.004.008.001.012.001-.045.079-.054.062-.052.058ZM32.409,39.315c-.01.021-.03.033-.045.043.019-.04.033-.07.045-.093.012.003.016.018,0,.05ZM32.473,39.245c-.019.025-.036.037-.052.019-.002-.002.002-.023.007-.039.015-.029.021-.037.026-.042.006-.007.017-.015.021-.01.019.025.017.048-.001.072ZM32.47,38.702c-.009.006-.019-.002-.029-.003l-.037-.063c.018-.016.037-.035.055-.047.009-.006.022-.004.029.004.014.017.025.041.037.062-.018.016-.037.035-.055.047ZM32.918,30.636c-.007-.012-.021-.031-.02-.036.011-.039.025-.053.039-.038.008.009.022.031.02.035-.011.039-.025.051-.039.039Z"></path></g></g></svg> 