<?xml version="1.0" encoding="UTF-8"?>
<svg id="LP_Dinheiro_sem_Medo" data-name="LP Dinheiro sem Medo" xmlns="http://www.w3.org/2000/svg" width="155.751" height="55.664" version="1.1" viewBox="0 0 155.751 55.664">
  <defs>
    <style>
      .cls-1 {
        fill: #f7ebe3;
      }

      .cls-1, .cls-2 {
        stroke-width: 0px;
      }

      .cls-2 {
        fill: #2d313f;
      }
    </style>
  </defs>
  <g>
    <path class="cls-2" d="M10.519.545c2.104,0,3.74.384,4.909,1.149,1.169.766,2.045,1.792,2.63,3.078.584,1.286.94,2.766,1.071,4.441.129,1.675.194,3.422.194,5.24s-.065,3.564-.194,5.24c-.131,1.675-.487,3.155-1.071,4.441-.585,1.286-1.461,2.312-2.63,3.078-1.169.767-2.806,1.149-4.909,1.149H0V.545h10.519ZM8.688,23.141c.701,0,1.26-.098,1.676-.292.415-.195.733-.604.954-1.227.221-.623.363-1.506.429-2.649.064-1.143.098-2.649.098-4.519s-.033-3.376-.098-4.519c-.065-1.143-.208-2.026-.429-2.649-.221-.623-.539-1.032-.954-1.227-.416-.195-.975-.292-1.676-.292h-1.441v17.375h1.441Z"/>
    <path class="cls-2" d="M30.309.545v27.816h-7.246V.545h7.246Z"/>
    <path class="cls-2" d="M42.541.545l4.675,17.142h.078V.545h6.778v27.816h-7.947l-4.831-17.18h-.077v17.18h-6.779V.545h8.104Z"/>
    <path class="cls-2" d="M65.721.545v10.207h4.441V.545h7.246v27.816h-7.246v-11.454h-4.441v11.454h-7.246V.545h7.246Z"/>
    <path class="cls-2" d="M98.289.545v5.922h-9.233v4.752h8.648v5.688h-8.648v5.532h9.584v5.921h-16.83V.545h16.479Z"/>
    <path class="cls-2" d="M109.236.545v27.816h-7.246V.545h7.246Z"/>
    <path class="cls-2" d="M124.702.545c1.376,0,2.552.182,3.525.545.975.364,1.767.876,2.377,1.539.609.662,1.052,1.448,1.324,2.357.272.909.409,1.896.409,2.961,0,1.87-.377,3.376-1.13,4.519-.754,1.143-1.961,1.844-3.623,2.104v.078c1.74.156,2.935.766,3.584,1.831.649,1.065.975,2.533.975,4.402v3.506c0,.39.013.76.038,1.11.026.351.065.669.117.955s.117.506.195.662c.104.156.207.306.312.448.104.143.272.28.506.409v.39h-7.713c-.183-.363-.318-.792-.409-1.286-.092-.493-.156-.987-.195-1.48-.039-.493-.064-.967-.078-1.422-.013-.454-.019-.824-.019-1.11v-1.87c0-.779-.039-1.428-.117-1.948-.078-.519-.215-.928-.409-1.227-.195-.298-.442-.506-.74-.624-.299-.117-.669-.175-1.11-.175h-1.909v11.142h-7.246V.545h11.337ZM122.053,12.311c1.039,0,1.805-.305,2.299-.915.493-.61.74-1.409.74-2.396,0-1.169-.24-2-.721-2.494-.48-.493-1.267-.74-2.357-.74h-1.402v6.544h1.441Z"/>
    <path class="cls-2" d="M136.389,7.811c.337-1.831.896-3.324,1.676-4.48.778-1.155,1.805-2,3.077-2.532,1.272-.532,2.83-.799,4.675-.799s3.402.267,4.675.799c1.272.533,2.299,1.377,3.078,2.532.779,1.156,1.337,2.649,1.675,4.48s.507,4.045.507,6.643-.169,4.811-.507,6.642-.896,3.325-1.675,4.48c-.779,1.156-1.806,1.981-3.078,2.474s-2.831.74-4.675.74-3.402-.247-4.675-.74-2.299-1.318-3.077-2.474c-.779-1.155-1.339-2.649-1.676-4.48-.338-1.831-.506-4.045-.506-6.642s.168-4.812.506-6.643ZM143.44,19.109c.052,1.234.162,2.214.331,2.941.168.728.415,1.234.74,1.519.324.286.76.429,1.305.429s.98-.143,1.306-.429c.324-.285.57-.792.74-1.519.168-.727.278-1.708.331-2.941.052-1.233.077-2.786.077-4.655s-.025-3.422-.077-4.656c-.053-1.233-.163-2.214-.331-2.941-.17-.727-.416-1.233-.74-1.52-.325-.286-.76-.429-1.306-.429s-.98.143-1.305.429c-.325.286-.572.792-.74,1.52-.169.727-.279,1.708-.331,2.941-.053,1.234-.078,2.786-.078,4.656s.025,3.422.078,4.655Z"/>
  </g>
  <g>
    <path class="cls-1" d="M14.047,32.232c-.24-.103-.48-.343-.65-.514-.309.342.342.548.377,1.027-.068,0-.652,0-.412-.137v-.206c-.137,0,.035-.137-.24-.137-.205,0,.104.24-.102.24-.24,0-.445-.274-.514-.514,0,0-.068.137-.068.171-.104.068-.275-.034-.445-.274-.104.103-.035.377-.344.377-.205,0-.273,0-.377.137l-.309-.274c-.102.103-.033.137-.033.274-.104,0-.273-.137-.514-.24,0-.103.24-.103.41-.377-.137,0,0-.068-.238-.068-.275,0-.584.685-.754,1.062,0-.171-.207-.274-.48-.548-.342.103-.41.617-.686.891,0-.342-.102-.856-.582-.856h-.445c-.102.137-.172.171-.172.309.07.034.24-.069.445.034h.139c-.139.137-.686.651-.789.959,0,0,0,.137-.137.24h-.342l-.207-.171c-.17-.068-.342-.274-.615-.24.17.309.273.685.615.994v1.13c-.137.103-.342.103-.445.206.207.171.07.171.309.24l.24.034c-.104-.137,0,0-.104-.103.104,0,.344,0,.344-.103,0,.343-.172.685-.172.959-.309,0-.855.137-.855.342,0,.24.102.343.342.445h.104c-.104-.103-.172-.274-.275-.274.068-.068.344-.411.686-.308,0,.137-.172.342-.309.582.137.103.24.069.344.171.137-.24,0-.445.137-.617.172.171.342.445.445.548-.24.137-.514.137-.754.24.137.171.342.034.41.034-.068.308-.102.583-.102.993.205-.137.547,0,.822-.068-.104.343,0,.959.24,1.13-.24.103-.516.343-.721.377.104.137.275-.068.377.068.172-.24.24-.137.445-.342.104.206-.102.171-.102.445,0,.24.273.582.615.753-.205.103-.205.514-.445.617h-.102c.102.24.205.445.514.445.205,0,.205-.171.309-.171,0,.274-.104.617,0,1.028.068,0,.238.24.41.343l-.273.274c.033.24.17.342.377.342.238,0,.238-.171.342-.274.104.103.172.445.273.445-.102.103-.205-.068-.307-.068-.139.24-.172.342-.172.583,0,.205.273.274.377.342-.068.343-.035.479.102.377.24-.171-.068-.479.172-.479.377.24.65.445.137.891.104.103.104.068.104.24,0,0,.137-.103.24-.24.068.24.17.685.41.925-.24-.068-.891-.891-.891-.411,0,.206.24.377.412.617-.07.034-.275.034-.412.171.48.068.309-.137.412.445l.17-.171c.104.068.172.171.377.171.309,0,0,.171.137.274-.137-.103-.17-.103-.238,0-.07.103,0,.342.238.342.275,0,.207-.171.344-.171.102.617.102,1.404-.068,2.158.342.171.102.205.102.548-.033-.274-.273-.514-.547-.617-.139.103-.172.171-.068.274,0,0-.104-.103-.344-.103.068.103,0,.274-.102.514l.238.171c.137,0,.207-.24.309-.342,0,0,.172.068.309.171-.137.171-.342.411-.342.617,0,.274.514,1.13.719,1.542l-.205-.171c-.137.103-.068.171-.172.206.035.24.273.24.514.343-.137,0-.342-.034-.582-.034-.412,0-.273.034-.273.651-.24-.103-.584-.206-.754-.206.068-.137,0-.274-.104-.343-.068.069-.273.103-.445.343.104.103.273.034.514.034,0,.137.104.411.104.479-.104,0-.273.034-.344-.068-.102.103-.068.171,0,.274-.068,0-.342-.034-.547-.103-.137-.069-.24-.343-.172-.411-.24-.343-.479-.034-.479-.479l-.172-.171c-.137.479-.273.891-.273,1.576-.035-.171-.344-.445-.549-.445-.24,0,.033.034-.24.034-.172,0-.377-.377-.617-.685-.238.137-.342.24-.582.137-.102.171-.273.514-.479.514-.24,0-.514-.137-.686-.171-.104-.068-.104-.308-.172-.411-.068-.103-.238-.171-.273-.171-.137.103.035.206.137.206-.102.137-.102.069-.309.069-.238,0-.754-.274-1.027-.377-.104-.24-.172-.445-.273-.788-.137.103-.068.274-.172.377-.342-.103-.582-.377-.855-.514l-.344-.309c-.205-.068-.445-.171-.547-.342-.344-.411-.686-1.439-.686-1.645,0-.445.959-1.404,1.404-1.404.24,0,1.473.206,1.986.479.377.308.891.788,1.404.959.514.171,1.303.343,1.576.343.24,0,.686.137.926.137.205,0,.445-.411.615-.651,0-.274.104-.72.104-.959,0-.171-.377-.651-.445-.993-.068-.309,0-.754-.068-1.028-.104-.342-.514-.685-.549-1.028-.137-.274-.17-.959-.17-1.404,0-.103-.24-.274-.344-.445-.102.103-.24.171-.342.171.102-.445-.412-.788-.445-.959-.104-.24-.24-.582-.344-.925.172,0,.275,0,.344-.103-.068-.171.033-.343.17-.617-.238.068-.445.274-.445.445-.684-.103-.82-1.13-.82-1.679,0,0,.137-.171-.139-.171-.238,0-.068.035-.068.171-.342-.24-.41-.651-.514-1.027-.102-.343-.273-.686-.24-.959-.102-.171-.273-.342-.479-.617-.068-.685-.48-1.473-.686-2.329.035-.103.273-.514-.172-.788,0-.068.172-.24.377-.342-.102-.103-.17-.274-.377-.343,0-.103.172-.377.275-.514,0,.137,0,.308-.104.342l.273.274c.172-.137.24-.274.24-.548,0-.617-.514-.24-.514-1.13,0-.24.205-.719.273-1.062.172-.137.344-.343.584-.479,0,0,.102-.034-.068-.171.445-.479,1.129-.959,1.746-1.336.068.068.104.171.104.377h.342c.617,0,1.096-.617,1.131-1.13.137.24.17.411-.172.582.137.103,0,.068.309.068.205,0,.994-.411,1.609-.753.137.103.137.343.068.445.068.137-.068.068.172.068.273,0,.617-.411.617-.788.342.206.754.445,1.061.514v-.137c.07-.035-.033-.274-.273-.377h.686c.104.103.068.342-.068.445.24.103.342.068.855.171.104-.103.172-.171.172-.343,0,0-.068,0-.172-.103l-.17.206c-.104-.103-.207-.377-.207-.48.275.103.721.274.891.445.24.206.412.685.686.685.205,0,.549.377.686.651l.273-.274c.035.274-.102,1.13.445,1.233-.17.171-.445.582-.719.925ZM3.976,33.021c-.104.103-.275.171-.344.274.068,0,.273.103.344.103.102-.137.102-.274,0-.376ZM4.181,34.082c0-.034.068-.342-.137-.445v.445h.137ZM4.523,37.474v-.274h-.172v.274h.172ZM4.66,37.131v-.274h-.17v.274h.17ZM4.66,53.471v-.445h-.17v.445h.17ZM5.004,38.09v-.171h-.48v.171h.48ZM5.209,38.741c.104.103.172.376.104.617-.139.034-.377.103-.48.274-.068.24.273.719.549.891.102-.206.102-.479.238-.719-.17.24-.238.445-.342.514-.068-.411-.172-.445-.24-.617.514-.342.617-.959.926-1.473-.24.171-.686.445-.754.514ZM5.037,39.049v-.206h-.17v.206h.17ZM5.037,30.417c0,.171.275.342.412.342,0-.103-.275-.342-.412-.342ZM5.381,36.754c-.104.376.342.514-.344.685l.344.342c.102-.171.17-.582.273-.753l-.273-.274ZM5.996,35.658h-.445c.24.308.275.308.582.342-.068-.034-.137-.206-.137-.342ZM6.064,53.882l-.102-.069-.344.445.104.069.342-.445ZM6.578,29.561c-.273,0-.342.24-.514.171.172-.103.344-.377.549-.445.137.068.24.171.24.411-.104,0-.068-.137-.275-.137ZM6.785,32.609l-.207.308c.104,0,.344.034.344.171,0-.137,0-.343-.137-.479ZM6.922,39.734c0,.069-.068.24-.172.343.104,0,.344.103.344.24,0-.274.033-.411.375-.343-.068-.206-.514-.171-.547-.24ZM7.367,40.522h-.412c0,.24.068.342.068.342.344,0-.238.514-.238.856.309-.274.684-.548.684-.788s-.102-.274-.102-.411ZM6.853,30.314c.102.103.102.377.102.445.139-.068.172-.342.172-.582-.104,0-.273.137-.273.137ZM7.195,33.26l-.068-.171-.273.103v.171l.342-.103ZM7.299,32.335l-.172-.171-.104.103.172.171.104-.103ZM7.812,44.222l-.172-.069-.102.274.102.068.172-.274ZM8.086,31.787l-.514-.24v.171l.48.24.033-.171ZM8.086,30.417c.172.411-.205.445-.205.582,0,.274.273.274.377.377,0-.103.24-.342.342-.445-.102-.171-.342-.445-.514-.514ZM8.222,29.115h-.17l-.139-.24.172-.034.137.274ZM8.875,31.719c-.104,0-.275.103-.377.103v.445c.102.137.273,0,.377,0-.104-.206-.035-.445,0-.548ZM8.84,46.654c-.137.171-.273.548-.342.788.102-.24.377-.479.615-.582l-.273-.206ZM8.84,45.524c0,.171-.24.445-.273.548.137-.103.445-.068.445-.342,0-.206-.172-.206-.172-.206ZM8.703,48.744v-.582h-.137v.582h.137ZM8.875,43.982l-.104-.103-.104.034.104.171.104-.103ZM9.011,47.647l-.137-.034-.104.274.104.069.137-.309ZM9.388,44.428v-.171h-.275v.171h.275ZM9.525,53.3h-.137l-.104.514h.104l.137-.514ZM9.388,46.826c0,.206.17.479.41.719,0-.24-.102-.514,0-.719h-.41ZM10.004,49.737l-.102-.103-.205.343.102.103.205-.342ZM9.97,52.923v-.308h-.24v.308h.24ZM10.004,53.3l-.033-.103-.24.103v.137l.273-.137ZM10.004,53.128c.139,0,.344.171.344.309.068-.137.137-.309.137-.411l-.48.103ZM10.416,31.034l-.104-.035-.137.274.137.034.104-.274ZM10.517,48.162l-.033-.171-.24.103v.171l.273-.103ZM10.588,48.675v-.171h-.344v.171h.344ZM11.478,48.675c-.172-.103-.445-.343-.617-.583-.104.137-.205.343-.205.411.17,0,.377.103.445.274-.172.137-.344.068-.445.068,0,.377-.309.685-.344.788.617-.103.344-.514.789-.514.205,0,.377.103.377.103v-.548ZM10.656,51.793v-.514h-.172v.514h.172ZM10.861,31.273l-.205.274c.033,0,.17-.068.273-.068,0,.137.033-.103-.068-.206ZM10.963,47.545l-.273-.274s.24-.137.273-.137v.411ZM11.203,53.368c-.17-.171-.342-.445-.445-.445-.102.103,0,.377,0,.445h.445ZM11.375,30.691h-.172l-.102.24.102.068.172-.308ZM12.265,30.314h-.172l-.102.343.17.034.104-.377ZM12.675,31.102s-.102.103-.102.342c0,.274.172.274.205.343,0-.171.24-.343.24-.685h-.344Z"/>
    <path class="cls-1" d="M31.314,34.527c-.275,0-.754-.411-.959-.411-.24,0-.344.274-.412.171-.104-.034-.377.103-.686.103-.273,0-.615,0-.891.068-.102-.068-.17.171-.377.171-.273,0-.068-.274-.342-.274-.205,0-.205.034-.309.034,0-.103.035-.274-.068-.377-.342.377-.342.343-.48.343-.238,0,0,.171-.238.171-.275,0,.102-.171-.172-.171-.205,0-.205.274-.48.274-.205,0-.068-.24-.17-.274-.172.308-.172.274-.445.274-.207,0-.035.206-.309.206-.65,0-.789-.583-.822-.719-.24.137-.273.411-.273.616-.104,0-.068-.103-.344-.103-.205,0-.205.206-.377.377l-.342-.274c-.035.103-.104.171-.104.274-.102,0-.309-.103-.547-.171,0,0-.035.068-.104.171-.068.103.068.274.068.376-.172,0-.514-.034-.445.171v.171l-.24-.24c-.137.137-.273.342-.377.514,0-.103,0-.274-.102-.376-.068.103.033.137-.172.137-.273,0-.273-.034-.273,0,.24.171.445.343.514.548-.137-.035-.24-.103-.344-.206-.102.103-.17.171-.17.206.068.137.068.411,0,.548-.205.411-.582.959-.754,1.37-.104.445-.273,1.61-.549,1.782,0,0,.035.034.172.137v.548c-.273.274-.891.719-.514,1.267-.104,0-.309,0-.48.103.207.137.584-.034.822.445,0-.308.172-.583.035-.856.547-.24.686.377,1.336.856.102-.103,0-.274,0-.719.172.068.547-.035.719-.137,0,0-.068.103-.068.137.344.137.754.068,1.164-.035,0,0-.068-.068-.17-.068,0-.171.102-.308.205-.445v-.206c.172.103.24.377.377.377.273,0,0-.103.24-.103.273,0-.068.274.205.274.24,0,.514-.069.787-.377,0,.206-.137.308,0,.377.207-.206.412-.548.686-.822,0,0,.205.103.035.308l.205.137c.033,0,.205-.274.445-.274.033,0,.033-.103.479.103l.207-.206c0,.103,0,.206.137.309.033-.309.24-.514.205-.103l.172.171c.102-.068.17-.171.17-.274.035,0,.207.103.309.206.068-.171.344-.206.514-.206.104.206.275.479.377.753l.172-.171c.104,0,.104.171.205.274,0,0,.068-.103.068-.137.207.034.48.274.48.479s-.205.719-.445.994c.068.103.102.206.102.308-.273.24-.65.891-.684,1.096-.275-.206-.789,0-.891-.548-.104.137-.275.137-.445.24.102.103.273.034.377.034v.411c-.48-.24-.584-.137-.686-.137-.273,0-.068-.137-.172-.274-.068,0,0,.274-.273.274-.24,0,0-.034-.24-.034-.273,0-.205.103-.104.206-.102.103-.205-.034-.479-.034-.24,0-.344.376-.549.479-.068-.103-.377-.274-.514-.479-.137.206-.137.376-.309.582-.068-.103-.102-.274,0-.308-.102-.137-.238-.171-.342-.274-.205.308-.719.582-.926.582-.205,0-.547.171-.752.171-.24,0-.172.103-.412.103-.273,0,.137-.171-.137-.171h-.24c-.205.171-.582.274-.855.514h-.549c-.137-.24-.172-.514-.273-.719-.24.103-.344.377-.24.651-.309-.034-.205,0-.377-.274l-.377.376c-.104-.103-.24-.274-.549-.274,0,.171.207.343.445.411-.137.034-.273,0-.41-.137l-.104.24c0,.035.068.206.275.206-.275.274-.48.617-.582.891,0,0-.139.103.137.103.238,0,.033-.103.238-.308-.102-.103.104-.309.207-.309.102.514-.275.719-.275.994,0,.24.275.342.377.445-.102,0-.309.034-.342-.069l-.137.069c.615.342.754.925.377,1.37.102.103.17.068.273.171.172-.103,0-.24.205-.479.172.411.172.582.172.856.137-.103.342-.274.445-.274,0,.068-.205.206-.309.377.104.103.273,0,.48-.103,0,.103-.172.343-.172.48.172.137.445.274.65.274.273,0,.24-.034.273-.034,0,.034.172.206.07.308.17.068.445.068.752.274.139.069,0,.274.068.343.172,0,.445.103.48.342.24-.445.719-.137,1.096-.342,0,.103-.033.274-.137.377.104.068.104.24.309.24.273,0,.104-.171.377-.171.24,0,.342.171.445.377.104,0,.172-.206.104-.274.137,0,.41-.206.615-.342l-.17.24c.068.103-.035.171.17.171s.549-.274.822-.274.48.103.891.103c0-.103-.24-.274-.342-.377h.377l.273.274c.24-.137.273-.274.514-.514.035,0,.273.171.377.274.309-.171.309-.651.582-.651.24,0,.137.171.172.274.104-.103.172-.069.273-.171,0-.103-.17-.206-.273-.308.24,0,.342.034.549.274.17-.069.273-.343.342-.548.104.034.104.274.205.377.104-.103.344-.24.445-.274-.102.376-.754.651-.377,1.302-.102,0-.24.068-.342-.035l-.172.137v.343l.344.103c.102-.103,0-.206,0-.308.102,0,.205.034.342-.069-.137.103-.068.343-.068.548l-.549-.103c-.102.103-.273.035-.342.171l.068.651h.273c.104-.103-.068-.24-.068-.274.137,0,.273-.068.412-.103,0,.034-.139.308-.139.548l-.479-.137c-.104.137-.273.069-.377.171.104.103.205.068.273.068v.856h-.342s0-.103.068-.206c-.273-.103-.514-.171-.891-.171,0,.103.24.103.273.103-.033.24-.102.514-.205.617-.104-.206-.104-.445-.24-.617-.033.137-.102.171,0,.274-.102,0-.309,0-.582-.103,0,0,0,.068.035.171-.104.103-.137.445-.207.617-.17.034-.445.205-.615.308,0-.103.068-.206.068-.308-.068-.137.068-.069-.172-.069-.273,0-.377.206-.549.274-.102-.171-.033-.479-.17-.651-.137-.068-.205.171-.412.377-.17-.103-.41-.377-.684-.377-.207,0-.549.274-.754.274,0-.103,0-.24.102-.514-.102-.103-.17-.137-.273-.274-.104.068-.273.171-.377.411-.068-.137.068-.411-.172-.411-.273,0-.033.137-.307.137-.24,0-.412-.514-.686-.822-.104.103-.207.308-.377.377-.377,0-.822-.925-1.027-1.371-.068.103-.104.103-.377.103-.24,0-.24.171-.344.171,0-.069-.102-.274,0-.514-.068,0-.273-.103-.445.137,0-.068-.17-.274-.17-.411-.035-.103-.275-.103-.377-.103-.207-.309-.652-.651-.857-1.028-.137,0-.273-.068-.41-.068,0-.309-.48-1.302-.754-1.302-.205,0-.205.034-.344.034l.24-.206c-.992-1.165-1.164-2.192-1.369-3.494-.104-.514-.24-1.096-.377-1.713.033,0,.137-.171.102-.274-.068-.103-.17-.343-.273-.445.205-.034.309-.377.48-.583.068-.068,0-.274-.104-.411.104-.685.617-1.644.377-2.227.549-.342.273-.925.514-1.438.035.068.104.274.137.514.137-.274.068-.891.344-.891.205,0,.205.103.205.206l.137-.137c-.137-.137-.172-.171-.273-.171.102-.274.102-.719.137-1.062.24-.309.41-1.028.615-1.028.275,0-.068.103.207.103.238,0,.137-.274.238-.308-.068-.137.035-.343,0-.548.035.103.104.137.275.034-.104-.103-.344-.206-.377-.377.102.103.273.068.377-.068,0-.035-.24-.103-.344-.103.344-.479.652-1.199.891-1.644.104.171.207.514.309.788q.137.103.24.103c.104-.103.035.034.035-.24,0-.206-.377-.377-.377-.651,0-.206.445-1.405.719-1.405.205,0-.068.103.172.103.205,0,.102-.274.65-.651.104.034-.068.274.172.274.273,0,.992-.411,1.197-.411.207,0,.377.171.652.171.24,0-.035-.171.17-.171.275,0,0,.137.275.137.205,0,.377-.137.547-.171.104-.068.068-.274.275-.445.068.103.068.274.17.377.207-.034.275-.274.48-.274,0,.103-.035.24-.035.343q.104.034.207.171c.102-.137.17-.274.068-.411.102-.034.273-.103.309-.206.102.103.102.171.238.274.377-.103.857-.377,1.131-.377.172,0,.273.377.514.377.104-.103-.137-.171-.137-.274.137-.068.24-.103.342-.206l.207.206c.068-.103.238-.343.514-.343.205,0,.205.137.273.137.104.103,0,.308.104.479.273-.925,1.027-.377,1.85-.651.068-.103.342.103.445.171.068,0,.17.034.309-.068,0,0,.068.171.238.376.104,0,.172-.103.172-.206.273.206.617.377.994.72.102-.137.102-.24.102-.343.172.206.207,1.096-.068,1.37v.343h.137c.139,0,.207-.171.104-.411,0,0,.273-.034.48,0-.172.171-.275.514-.377.719,0,0-.068.069.068.171l.273-.342c0,.24-.24.616.035.616.238,0,.273-.068.377-.068,0,.068.137.343.137.445-.344.103-.721.514-.959.514ZM14.562,43.777l-.068-.103-.377.206.104.103.342-.206ZM14.871,40.694v-.274h-.137v.274h.137ZM15.418,39.769l-.205-.274-.102.103.205.274.102-.103ZM15.556,40.488v-.445h-.172v.445h.172ZM15.863,39.015l-.17-.068-.104.24.104.103.17-.274ZM16.207,37.816c-.104.137-.172.548-.377.685.205-.035.479-.206.479-.411,0-.274-.102-.24-.102-.274ZM16.685,41.139v-.171h-.547v.171h.547ZM16.48,36.583c-.102.274-.102.685-.172.788.207-.274.207-.342.617-.274,0-.24-.41-.377-.445-.514ZM16.515,47.339l-.137-.171-.07.103.104.171.104-.103ZM17.507,45.592l-.17-.171-.035.103.104.171.102-.103ZM18.228,33.432v-.274h-.172v.274h.172ZM18.502,41.927l-.104-.514h-.17l.102.514h.172ZM18.879,41.105v-.342h-.172v.342h.172ZM18.982,31.993c0,.103,0,.206-.207.206.207.171.275.342.377.342-.102-.103-.17-.445-.17-.548ZM19.119,39.598l-.137-.411h-.139l.104.411h.172ZM19.941,42.304c-.139,0-.139.479,0,.719,0-.137.102-.342.205-.342-.104-.103-.104-.274-.205-.377ZM21.414,42.475v-.24h-.275v.24h.275ZM21.859,44.256v-.274h-.172v.274h.172ZM22.338,42.03h-.102l-.172.206.172.068.102-.274ZM22.441,52.615l-.104-.137-.205.274.035.137.273-.274ZM22.441,32.815v-.206h-.172v.206h.172ZM23.228,41.755l-.137-.068-.102.274.102.069.137-.274ZM24.154,32.918l-.172-.034-.102.206.102.068.172-.24ZM25.009,41.481l-.137-.068-.137.24.137.034.137-.206ZM25.9,32.095l-.17-.034-.104.274.172.035.102-.274ZM25.9,41.139l-.17-.035-.104.274.172.034.102-.274ZM26.004,32.472h-.172l-.102.343.102.068.172-.411ZM25.9,53.197v-.377h-.17v.377h.17ZM26.277,55.492s-.102,0-.102-.274c0-.206.17-.309.273-.309v.446l-.172.137ZM26.552,43.674v-.274h-.172v.274h.172ZM26.998,32.815l-.172-.069-.205.445.102.069.275-.445ZM27.476,42.304c0-.103,0-.274-.102-.377-.035,0-.207.274-.207.377h.309ZM27.271,55.081c0-.068.104-.411.104-.514.102.103.238.342.102.377,0,0-.102.068-.205.137ZM27.443,53.471c.102.103.273.103.273.103,0-.034.104-.308.104-.411-.104,0-.377.205-.377.308ZM27.716,52.615c.104.103.273.103.273.103,0-.103.104-.376.104-.445-.104,0-.377.206-.377.343ZM28.162,51.553l-.068-.171-.273.171v.103l.342-.103ZM28.435,42.886c0-.103-.068-.274-.137-.377-.102,0-.273.274-.273.377h.41ZM30.457,31.273c-.102,0-.172.171-.273.274.102.068.309.103.377,0,0-.103-.104-.274-.104-.274ZM31.039,31.616c-.102,0-.377.103-.479.206l.273.24c0-.068.205-.137.205-.137v-.309Z"/>
    <path class="cls-1" d="M61.326,47.168c0-.068-.035-.274.102-.377-.137-.137-.273-.068-.377-.137-.205.137-.342.308-.375.548,0,0-.035.069,0,.171.137-.103.307-.274.375-.274,0,0,.035.103.139.24-.104.103-.445.308-.514.479-.035.171.102.206.238.274.068.171.137.445.309.617.172,0-.033.309-.137.445.068.034.273.171.48.171-.104.103-.24.514-.584.685l-.033.068s.033.069.172.069c-.035.376.033.171-.139.617-.102,0-.102-.274-.205-.343-.102,0-.273.137-.479.24.137.206.342.377.514.309-.137.171-.172.514-.104.719.24-.206.412-.651.617-1.028.033.103.17.137.137.377,0,.342-.377.548-.582.925,0,0-.068,0,.033.137.068-.137.275-.24.275-.171.205.514.342,1.096.445,1.644-.172-.068-.377.206-.652.343,0,0-.102-.137-.205-.171.104,0,.412-.171.445-.445-.205-.377-.514-.514-.617-.068.207.856.24,1.165.309,1.268-.41,0-.445-.103-.582-.411-.068.171-.41.376-.719.376-.754,0-1.131-2.329-1.234-2.774-.307-1.302-.238-1.165-.342-2.021-.137-1.062.104-2.227.137-3.392,0-1.438.273-3.151.172-4.967,0-1.096,0-1.918-.137-2.809-.068-.274-.137-.788-.035-1.199-.377-.651-1.369-.583-2.021.274-.068.445-.273.171-.41.514v.274c-.104-.137-.205-.171-.24-.308-.137,0-.102.103-.273.24l-.377.411s.342-.137.445-.137c-.205.24-.445.342-.65.514.205.103-.137.171-.035.343-.172,0-.377-.103-.514.068.104.103.342.103.377.24l-.035.651c0,.206-.307.274-.41.479-.104.171-.205.891-.412,1.062h-.342c.24-.376.48-.788.582-1.199-.068-.069-.24-.137-.445-.171l-.205.103.172.206c.102,0,0,.411-.309.411-.205,0,.068-.137-.137-.137-.275,0-.24.376-.377.616-.617.925-.377.069-.686,1.336.41-.24.445-.651.65-.891l.48.171s0,.171-.137.274c-.104,0,0,0-.275-.171-.17.206-.137.376-.377.548-.137.24-.137.822.035,1.165-.035,0-.205.274-.309.376-.104,0-.137-.103-.377-.103l-.24-.343h.344c-.582-.856-.926.343-.789.72.139,0,.275-.24.172-.377.309-.034.309.548.445,1.027-.137,0-.342-.205-.549-.514-.102.103-.205.137-.238.309-.068-.309-.207-.617-.445-.994-.104.206-.137,2.055-.207,2.158-.137.171-.342.171-.342.445s.309.274.412.514v.309c-.412-.171-.24-.171-.789-.445.342.514.104.24.582.822-.068.171-.377.24-.547.343,0,0,0,.068.137.068v.411c-.789.171-.172.685-.309,1.13-.172,0-.273.445-.514.445l-.205-.103c-.035.308-.139.583-.24.856-.035.137-.205.342-.377.342-.24.171-.205.445-.24.72-.137.103-.309.274-.445.479v.137c.24,0,.412-.24.514-.411l-.068,1.336c-.205-.103-.172-.274-.309-.514-.205.137-.547.343-.754.514-.102-.103-.068-.274-.238-.514-.172.24-.035.514-.035.788-.102,0-.273-.171-.547-.171-.344,0-.207-.411-.584-.925-.238.171-.41.445-.547.651-.617-.651-.344-1.096-.959-1.096,0-.068,0-.377.102-.445-.102-.103-.41-.103-.41-.103,0-.068,0-.274.102-.411-.377-.411-.342-.925-.137-1.301,0,0,.275-.171-.068-.171-.205,0-.102.103-.205.103.033-.651-.035-1.336-.172-2.089,0-.103.035-.274.172-3.426.137-.651.104-1.404.205-1.987.137-.651.273-1.404.48-2.09.17-.308.514-1.815.615-2.227,0-.068.139-.959.24-1.096l-.41.171c-.137.206-.412.445-.514.651,0-.103-.035.308-.139.171-.068.137-.342.274-.479.445-.273.377.033-.103-.412.514,0,.103.104.24.07.309-.07.103-.104.171-.24.274.205.137-.205.068-.205.308s-.412.137-.48.309l-.205-.171c-.104.034.033.171.033.514l.377-.137c-.17.376-.41.719-.24.993,0,0-.17.068-.273.206l-.24-.24-.309.377h-.102c-.104.034-.068.274.033.445-.137,0-.205-.103-.307-.171-.309.206-.104.548-.139.753l-.205.171c-.068-.342-.102-.411-.342-.788,0,.206-.205.376.068.514-.273.171-1.027,1.336-.48,1.336.207,0,.172-.068.24.068-.068.137-.273.24-.549.309,0,.103,0,.342.309.342.24,0,.24-.171.344-.171-.137.205-.137.445-.377.719-.721-.514-.377-.719-.445-.994-.104-.685-.377.343-.035.72-.24.137-.445.137-.479.445,0,.206-.035.685.238.685.24,0,.309-.24.48-.377l-.035.548c-.102,0-.102.24-.342.24-.273,0,.137-.24-.172-.24-.205,0-.102.137-.342.137,0,.034.104.274-.035.514l-.238-.24c-.24.103-.24.309-.445.411.102.137.17.309.17.411-.102.103-.342.068-.479-.068-.104.342.102.719.033,1.13-.068,0-.137.206-.273.411.137.068.24-.034.48.171.238-.377-.275-.583.273-.891.205.616-.822,1.61-.754,2.261-.068-.24-.104-.548-.377-.891-.205.137-.068.308-.342.514.137.068.309.137.309.274h-.686c-.035.377-.445,1.747-.377,2.021-.273.068-.926.651-1.164.856.102-.103.17-.343.273-.377-.172-.137-.344-.103-.412-.343-.547.171-.273.891-.273,1.199-.24-.24-.342-.754-.65-.754-.24,0-.344.24-.445.24-.137-.376-.068-.651-.172-.651.068-.171-.068-.445-.273-.822-.137.137-.068.24-.104.376-.514-.582-.342-1.678-.582-2.5-.035-.103.104-.377.205-.479,0,0,.205-.137,0-.137-.342,0-.205.068-.273.068.033-.719.033-1.644.033-2.329-.102-1.096.139-2.192.207-3.254.479-4.762,1.336-8.564,1.918-9.318.104,0,.104.24.24.24.033-.411-.104-.411-.104-.48.035-.24,0-1.404.342-1.85,0,0,.377-.103.549-.103.137-.103-.068-.274-.172-.411.377-.309-.238-.994-.102-1.302.137-.103.309-.206.479-.274.068-.068,0-.171,0-.274.172-.206.377-.308.652-.308.205,0,.205.171.342.274,0,0,.033.137.033-.171,0-.171-.205-.274-.342-.411.068,0,.686.069.857.309.17.137.033.411.238.582.035-.034.035-.171.344-.171.24,0,.102-.24.24-.343,0,.103.102.343.068.583,0,.24-.172.274-.445.548v.274l.342.068c.137-.171.035-.548.172-.719.102.171.17.548.309.753.684-.753.547,0,.238.411.172.274.137.103.412.308h.137c0,.069.137.822-.137.994.686.617.205.24-.068,1.062.033.103.17.24.17.274-.033.103-.342.411-.238.617-.549-.171-.035-.583-.172-1.13-.445.445-.549.068-.582.788-.035.24.137.171.342.068l-.309.309c.104.137.377.103.48.103-.137.548-.273,1.13-.273,1.405-.035.24-.035.514-.104.788-.035.103-.48.48-.48.959-.068.274-.273.479-.307.719.068.411-.24.445-.172.994-.104.103-.137.445-.137.548-.035.171-.172.548-.207.788-.068-.24-.238-.514-.205-.788-.479.377,0,.959.137,1.542,0,0,.035.068.172.171.205-.103.035-.274.068-.822.205,0,.514-.068.719-.274.035-.137-.068-.171-.17-.171.205-.137.479-.445.686-.719.102-.24.137-.651.238-.891.344-.103.445-.411.721-.651-.172-.171.238-.548.514-.891.17-.206.342-.754.582-1.028,0,.171-.035.583-.104.753l.104.171c.24-.342,0-.274.445-.548,0-.377-.549-.548.273-1.096,0,0,.172.034.068.103,0,.103-.068.206.068.309.172,0,.207-.24.445-.411.035-.24-.205-.274-.377-.411.445-.479.961-.514.994-.959l-.342.035c.377-.309.547-.548.959-.994,0,.103.102.206-.068.343.137.103.17-.309.445-.309.205,0,.445-.171.547-.274.104-.103,0-.308,0-.411.035-.137.172-.479.275-.685,0,0,.273-1.028.787-1.028.309,0-.104.103.205.103.24,0,.377-.377.582-.583,0,.206-.102.206,0,.309.445-.069.275-.274.377-.48.104.034.377,0,.48,0-.035.171.479.171.514.48.137,0,.24-.103.24-.103.17.206.273.479.445.822.17-.171,0-.343.17-.548.07.206.104.651.344.651.309,0,.102,0,.273-.103,0,.103.273.137.205.206.275.308.344.753.686,1.13.068-.206.035-.24-.102-.583.068.137.342.343.479.617.068.206.137.617-.104.651,0,0,.104.068.24.068-.033.343-.41.72.137.994-.822.445-.479.891-.342,1.473,0-.035-.137.103-.24,0-.342.034-.309.24-.068.514.104.137-.342.719-.41.719-.207,0-.104-.137-.207-.274-.375.377.377.445-.307.891.033.103.307-.068.377-.137,0,.069-.104.24-.516.548.139.068.24-.103.48.137.309-.24.309-.068,0,.754-.068.137-.377.137-.514.274-.035.103-.068.24.137.24.273,0,.342-.068.48-.068-.309.343-.275,1.096-.857,1.165l.137.171s.137-.103.24-.103c-.104.206-.273.479-.377.651v.171l-.65-.137-.172.171c.104.137.275.068.445.137.068.171.172.411.412.651-.24,0-.445-.171-.514-.445-.104.171-.172.171-.275.274-.033.069,0,.206.137.445.07.069-.273.171-.273.445-.033.274.068.686.035,1.199.102,0,.238.137.342.137.104-.137.068-.308.104-.514.377-.445.684-.959.891-1.268,0-.445.547-.548.684-.891.104-.206.207-.617.377-.925.172-.171.549-.856.789-1.096.102-.103.547-.891.754-1.302.309-.719.41-.719.754-1.336.068-.103.238-.514.342-.651,0-.103.137-.308.205-.377.445-.376.617-.719.926-1.165.102-.103.615-.137.615-.274-.033.171.104.342.275.548l.102-.103c.104-.068-.033-.548-.033-.651.033-.411.342-.617.617-.891.273-.24.719-.617.992-.891.068.479-.65.822-.205,1.233.309-.274.445-.685.686-1.062.068.103.137.274.238.274.104-.206.035-.377-.068-.651.104.034.445.034.445-.069,0,0,0,.377-.033.548.342-.274.41-.617.65-.856,0,0,0-.137-.104-.24.24.103.344.068.584.411.137-.206.205-.309.205-.651.102.137,0,.514.205.514.273,0,.104-.103.24-.103.102.103,0,.445-.104.548,0,.069.104.103.275.171.137.171.17.479.307.719q.104,0,.207-.068c-.104-.103-.172-.445-.137-.617.375.343.342,1.336,1.061,1.165-.068-.103-.137-.205.104-.308-.068.171.102.479-.035.651.412.343,1.027.822.891,1.165-.102-.137-.17-.342-.273-.445-.068,0-.24-.171-.24.103-.068,1.096.926.891.891,1.644-.033.24-.205.103-.342.24.137.035.205.206.205.343-.068,0-.137-.137-.273-.24h-.275c0,.103-.068-.068-.068.24-.033.24.207.753.412,1.028.068-.103.172-.274.205-.514.137.137.172.24.24.343-.205.137-.035.479-.273.479-.309,0-.24-.137-.377-.034.137.103.102.274.342.274.273,0,.445-.24.48-.24l-.035.411c-.172.274-.48.445-.855.548l.238.994c.035,0,.48-.034.48-.137.033.274,0,.72.137,1.062.273-.274,0,.343-.342.548.137,0,.307.171.547-.137.068.308-.033.822-.033,1.028-.104,0-.207-.069-.309-.206-.549.377-.549.548-.549,1.028-.033.788.275,1.165.514,1.507.207-.103.207-.24.309-.274.104.034.344.034.309.274,0,.274-.377.925-.65,1.268ZM33.476,43.194l-.172-.068-.137.308.17.068.139-.308ZM33.509,37.919v-.411h-.205v.411h.205ZM33.646,37.166l-.068-.48h-.205l.104.48h.17ZM33.851,38.09l.035-.445h-.172l-.033.445h.17ZM34.468,34.391l.035-.343h-.207l-.033.343h.205ZM35.119,37.097v-.274h-.17v.274h.17ZM35.154,30.759l-.137.548h.17l.139-.548h-.172ZM35.086,34.219c-.104.274-.035.651.033.685.068-.034.24-.308.24-.479-.102-.103-.273-.206-.273-.206ZM35.359,32.952l.035-.308h-.172l-.035.308h.172ZM35.804,35.007h-.102l-.172.342.137.069.137-.411ZM36.181,51.176l-.137.445-.137-.103.102-.343h.172ZM36.558,39.187h-.104l-.17.308.137.068.137-.376ZM36.593,40.009h-.172v.274h.172v-.274ZM37.039,48.881l-.104-.479c-.24.171-.273.479-.445.617l.549-.137ZM37.381,42.372c-.104-.103-.104-.206-.104-.206-.137.206-.033.651-.033.856.102-.206.24-.651.377-.822-.137,0-.137.068-.24.171ZM37.416,32.027l.137.308c0-.034.273-.274.273-.308h-.41ZM40.566,41.961l.035-.479h-.172l-.035.479h.172ZM42.314,34.391c0,.103-.172.274-.172.274.068.103.24.137.24.137.033-.103-.068-.309-.068-.411ZM43.136,34.493l-.172-.034-.137.309.17.034.139-.309ZM43.101,35.213l-.172-.103-.102.103.17.103.104-.103ZM43.273,36.754c.102,0,.033.24.102.342.172-.103.24-.274.24-.342h-.342ZM44.437,32.746l.035-.685h-.207l-.033.685h.205ZM45.088,33.123l-.102-.137-.24.24.102.103.24-.206ZM46.699,35.384l-.172-.068-.172.274.172.069.172-.274ZM47.349,35.692v-.171h-.377v.171h.377ZM47.281,36.686l-.104-.548h-.172l.104.548h.172ZM47.795,49.258h-.137l-.172.719h.172l.137-.719ZM48.341,52.272c-.068-.137-.342-.24-.479-.24l.172-.342h.377c-.035.103.033.411-.07.582ZM48.65,51.519h-.17l.137-.583h.205l-.172.583ZM48.925,42.749l-.139-.206-.137.171.172.103.104-.068ZM48.65,43.332c.068.103.24.206.24.206,0-.103.309-.343.309-.377-.172,0-.48.171-.549.171ZM49.507,46.449l-.172-.103-.104.171.139.103.137-.171ZM49.644,41.379l-.104.137.172.206.104-.171-.172-.171ZM50.09,45.079v-.274h-.205v.274h.205ZM52.658,37.405l.068-.822h-.17l-.068.822h.17ZM55.81,36.789s0-.343-.068-.479c-.137.137-.24.548-.24.719l.309-.24ZM57.386,33.808l-.344-.274-.102.171.342.206.104-.103ZM59.304,51.484h-.172l-.033.308h.17l.035-.308ZM59.578,35.213l-.17-.171-.172.103.205.103.137-.034ZM59.785,36.069l-.07-.103-.273.24.068.103.275-.24ZM60.777,39.563c-.102.103-.172.274-.172.274.104.137.275.206.275.206.033-.103.033-.377-.104-.48ZM61.222,38.398l-.377-.171v-.171l.445.171-.068.171ZM60.982,40.934l-.033-.617.273-.103.205.651-.445.069ZM61.394,45.387c-.137-.308-.309-.753-.273-1.096,0-.377.238-.274.65-.617.137.583-.172,1.062-.377,1.713ZM61.291,54.499h-.17l.033-.48h.172l-.035.48ZM61.463,48.436h-.205l-.104-.788.48.171-.172.617Z"/>
    <path class="cls-1" d="M99.732,47.168c0-.068-.035-.274.102-.377-.137-.137-.273-.068-.377-.137-.205.137-.342.308-.375.548,0,0-.035.069,0,.171.137-.103.307-.274.375-.274,0,0,.035.103.139.24-.104.103-.445.308-.514.479-.035.171.102.206.238.274.068.171.137.445.309.617.172,0-.033.309-.137.445.068.034.273.171.48.171-.104.103-.24.514-.584.685l-.033.068s.033.069.172.069c-.035.376.033.171-.139.617-.102,0-.102-.274-.205-.343-.102,0-.273.137-.479.24.137.206.342.377.514.309-.137.171-.172.514-.104.719.24-.206.412-.651.617-1.028.033.103.17.137.137.377,0,.342-.377.548-.582.925,0,0-.068,0,.033.137.068-.137.275-.24.275-.171.205.514.342,1.096.445,1.644-.172-.068-.377.206-.652.343,0,0-.102-.137-.205-.171.104,0,.412-.171.445-.445-.205-.377-.514-.514-.617-.068.207.856.24,1.165.309,1.268-.41,0-.445-.103-.582-.411-.068.171-.41.376-.719.376-.754,0-1.131-2.329-1.234-2.774-.307-1.302-.238-1.165-.342-2.021-.137-1.062.104-2.227.137-3.392,0-1.438.273-3.151.172-4.967,0-1.096,0-1.918-.137-2.809-.068-.274-.137-.788-.035-1.199-.377-.651-1.369-.583-2.021.274-.068.445-.273.171-.41.514v.274c-.104-.137-.205-.171-.24-.308-.137,0-.102.103-.273.24l-.377.411s.342-.137.445-.137c-.205.24-.445.342-.65.514.205.103-.137.171-.035.343-.172,0-.377-.103-.514.068.104.103.342.103.377.24l-.035.651c0,.206-.307.274-.41.479-.104.171-.205.891-.412,1.062h-.342c.24-.376.48-.788.582-1.199-.068-.069-.24-.137-.445-.171l-.205.103.172.206c.102,0,0,.411-.309.411-.205,0,.068-.137-.137-.137-.275,0-.24.376-.377.616-.617.925-.377.069-.686,1.336.41-.24.445-.651.65-.891l.48.171s0,.171-.137.274c-.104,0,0,0-.275-.171-.17.206-.137.376-.377.548-.137.24-.137.822.035,1.165-.035,0-.205.274-.309.376-.104,0-.137-.103-.377-.103l-.24-.343h.344c-.582-.856-.926.343-.789.72.139,0,.275-.24.172-.377.309-.034.309.548.445,1.027-.137,0-.342-.205-.549-.514-.102.103-.205.137-.238.309-.068-.309-.207-.617-.445-.994-.104.206-.137,2.055-.207,2.158-.137.171-.342.171-.342.445s.309.274.412.514v.309c-.412-.171-.24-.171-.789-.445.342.514.104.24.582.822-.068.171-.377.24-.547.343,0,0,0,.068.137.068v.411c-.789.171-.172.685-.309,1.13-.172,0-.273.445-.514.445l-.205-.103c-.035.308-.139.583-.24.856-.035.137-.205.342-.377.342-.24.171-.205.445-.24.72-.137.103-.309.274-.445.479v.137c.24,0,.412-.24.514-.411l-.068,1.336c-.205-.103-.172-.274-.309-.514-.205.137-.547.343-.754.514-.102-.103-.068-.274-.238-.514-.172.24-.035.514-.035.788-.102,0-.273-.171-.547-.171-.344,0-.207-.411-.584-.925-.238.171-.41.445-.547.651-.617-.651-.344-1.096-.959-1.096,0-.068,0-.377.102-.445-.102-.103-.41-.103-.41-.103,0-.068,0-.274.102-.411-.377-.411-.342-.925-.137-1.301,0,0,.275-.171-.068-.171-.205,0-.102.103-.205.103.033-.651-.035-1.336-.172-2.089,0-.103.035-.274.172-3.426.137-.651.104-1.404.205-1.987.137-.651.273-1.404.48-2.09.17-.308.514-1.815.615-2.227,0-.068.139-.959.24-1.096l-.41.171c-.137.206-.412.445-.514.651,0-.103-.035.308-.139.171-.068.137-.342.274-.479.445-.273.377.033-.103-.412.514,0,.103.104.24.07.309-.07.103-.104.171-.24.274.205.137-.205.068-.205.308s-.412.137-.48.309l-.205-.171c-.104.034.033.171.033.514l.377-.137c-.17.376-.41.719-.24.993,0,0-.17.068-.273.206l-.24-.24-.309.377h-.102c-.104.034-.068.274.033.445-.137,0-.205-.103-.307-.171-.309.206-.104.548-.139.753l-.205.171c-.068-.342-.102-.411-.342-.788,0,.206-.205.376.068.514-.273.171-1.027,1.336-.48,1.336.207,0,.172-.068.24.068-.068.137-.273.24-.549.309,0,.103,0,.342.309.342.24,0,.24-.171.344-.171-.137.205-.137.445-.377.719-.721-.514-.377-.719-.445-.994-.104-.685-.377.343-.035.72-.24.137-.445.137-.479.445,0,.206-.035.685.238.685.24,0,.309-.24.48-.377l-.035.548c-.102,0-.102.24-.342.24-.273,0,.137-.24-.172-.24-.205,0-.102.137-.342.137,0,.034.104.274-.035.514l-.238-.24c-.24.103-.24.309-.445.411.102.137.17.309.17.411-.102.103-.342.068-.479-.068-.104.342.102.719.033,1.13-.068,0-.137.206-.273.411.137.068.24-.034.48.171.238-.377-.275-.583.273-.891.205.616-.822,1.61-.754,2.261-.068-.24-.104-.548-.377-.891-.205.137-.068.308-.342.514.137.068.309.137.309.274h-.686c-.035.377-.445,1.747-.377,2.021-.273.068-.926.651-1.164.856.102-.103.17-.343.273-.377-.172-.137-.344-.103-.412-.343-.547.171-.273.891-.273,1.199-.24-.24-.342-.754-.65-.754-.24,0-.344.24-.445.24-.137-.376-.068-.651-.172-.651.068-.171-.068-.445-.273-.822-.137.137-.068.24-.104.376-.514-.582-.342-1.678-.582-2.5-.035-.103.104-.377.205-.479,0,0,.205-.137,0-.137-.342,0-.205.068-.273.068.033-.719.033-1.644.033-2.329-.102-1.096.139-2.192.207-3.254.479-4.762,1.336-8.564,1.918-9.318.104,0,.104.24.24.24.033-.411-.104-.411-.104-.48.035-.24,0-1.404.342-1.85,0,0,.377-.103.549-.103.137-.103-.068-.274-.172-.411.377-.309-.238-.994-.102-1.302.137-.103.309-.206.479-.274.068-.068,0-.171,0-.274.172-.206.377-.308.652-.308.205,0,.205.171.342.274,0,0,.033.137.033-.171,0-.171-.205-.274-.342-.411.068,0,.686.069.857.309.17.137.033.411.238.582.035-.034.035-.171.344-.171.24,0,.102-.24.24-.343,0,.103.102.343.068.583,0,.24-.172.274-.445.548v.274l.342.068c.137-.171.035-.548.172-.719.102.171.17.548.309.753.684-.753.547,0,.238.411.172.274.137.103.412.308h.137c0,.069.137.822-.137.994.686.617.205.24-.068,1.062.033.103.17.24.17.274-.033.103-.342.411-.238.617-.549-.171-.035-.583-.172-1.13-.445.445-.549.068-.582.788-.035.24.137.171.342.068l-.309.309c.104.137.377.103.48.103-.137.548-.273,1.13-.273,1.405-.035.24-.035.514-.104.788-.035.103-.48.48-.48.959-.068.274-.273.479-.307.719.068.411-.24.445-.172.994-.104.103-.137.445-.137.548-.035.171-.172.548-.207.788-.068-.24-.238-.514-.205-.788-.479.377,0,.959.137,1.542,0,0,.035.068.172.171.205-.103.035-.274.068-.822.205,0,.514-.068.719-.274.035-.137-.068-.171-.17-.171.205-.137.479-.445.686-.719.102-.24.137-.651.238-.891.344-.103.445-.411.721-.651-.172-.171.238-.548.514-.891.17-.206.342-.754.582-1.028,0,.171-.035.583-.104.753l.104.171c.24-.342,0-.274.445-.548,0-.377-.549-.548.273-1.096,0,0,.172.034.068.103,0,.103-.068.206.068.309.172,0,.207-.24.445-.411.035-.24-.205-.274-.377-.411.445-.479.961-.514.994-.959l-.342.035c.377-.309.547-.548.959-.994,0,.103.102.206-.068.343.137.103.17-.309.445-.309.205,0,.445-.171.547-.274.104-.103,0-.308,0-.411.035-.137.172-.479.275-.685,0,0,.273-1.028.787-1.028.309,0-.104.103.205.103.24,0,.377-.377.582-.583,0,.206-.102.206,0,.309.445-.069.275-.274.377-.48.104.034.377,0,.48,0-.035.171.479.171.514.48.137,0,.24-.103.24-.103.17.206.273.479.445.822.17-.171,0-.343.17-.548.07.206.104.651.344.651.309,0,.102,0,.273-.103,0,.103.273.137.205.206.275.308.344.753.686,1.13.068-.206.035-.24-.102-.583.068.137.342.343.479.617.068.206.137.617-.104.651,0,0,.104.068.24.068-.033.343-.41.72.137.994-.822.445-.479.891-.342,1.473,0-.035-.137.103-.24,0-.342.034-.309.24-.068.514.104.137-.342.719-.41.719-.207,0-.104-.137-.207-.274-.375.377.377.445-.307.891.033.103.307-.068.377-.137,0,.069-.104.24-.516.548.139.068.24-.103.48.137.309-.24.309-.068,0,.754-.068.137-.377.137-.514.274-.035.103-.068.24.137.24.273,0,.342-.068.48-.068-.309.343-.275,1.096-.857,1.165l.137.171s.137-.103.24-.103c-.104.206-.273.479-.377.651v.171l-.65-.137-.172.171c.104.137.275.068.445.137.068.171.172.411.412.651-.24,0-.445-.171-.514-.445-.104.171-.172.171-.275.274-.033.069,0,.206.137.445.07.069-.273.171-.273.445-.033.274.068.686.035,1.199.102,0,.238.137.342.137.104-.137.068-.308.104-.514.377-.445.684-.959.891-1.268,0-.445.547-.548.684-.891.104-.206.207-.617.377-.925.172-.171.549-.856.789-1.096.102-.103.547-.891.754-1.302.309-.719.41-.719.754-1.336.068-.103.238-.514.342-.651,0-.103.137-.308.205-.377.445-.376.617-.719.926-1.165.102-.103.615-.137.615-.274-.033.171.104.342.275.548l.102-.103c.104-.068-.033-.548-.033-.651.033-.411.342-.617.617-.891.273-.24.719-.617.992-.891.068.479-.65.822-.205,1.233.309-.274.445-.685.686-1.062.068.103.137.274.238.274.104-.206.035-.377-.068-.651.104.034.445.034.445-.069,0,0,0,.377-.033.548.342-.274.41-.617.65-.856,0,0,0-.137-.104-.24.24.103.344.068.584.411.137-.206.205-.309.205-.651.102.137,0,.514.205.514.273,0,.104-.103.24-.103.102.103,0,.445-.104.548,0,.069.104.103.275.171.137.171.17.479.307.719q.104,0,.207-.068c-.104-.103-.172-.445-.137-.617.375.343.342,1.336,1.061,1.165-.068-.103-.137-.205.104-.308-.068.171.102.479-.035.651.412.343,1.027.822.891,1.165-.102-.137-.17-.342-.273-.445-.068,0-.24-.171-.24.103-.068,1.096.926.891.891,1.644-.033.24-.205.103-.342.24.137.035.205.206.205.343-.068,0-.137-.137-.273-.24h-.275c0,.103-.068-.068-.068.24-.033.24.207.753.412,1.028.068-.103.172-.274.205-.514.137.137.172.24.24.343-.205.137-.035.479-.273.479-.309,0-.24-.137-.377-.034.137.103.102.274.342.274.273,0,.445-.24.48-.24l-.035.411c-.172.274-.48.445-.855.548l.238.994c.035,0,.48-.034.48-.137.033.274,0,.72.137,1.062.273-.274,0,.343-.342.548.137,0,.307.171.547-.137.068.308-.033.822-.033,1.028-.104,0-.207-.069-.309-.206-.549.377-.549.548-.549,1.028-.033.788.275,1.165.514,1.507.207-.103.207-.24.309-.274.104.034.344.034.309.274,0,.274-.377.925-.65,1.268ZM71.882,43.194l-.172-.068-.137.308.17.068.139-.308ZM71.916,37.919v-.411h-.205v.411h.205ZM72.052,37.166l-.068-.48h-.205l.104.48h.17ZM72.257,38.09l.035-.445h-.172l-.033.445h.17ZM72.875,34.391l.035-.343h-.207l-.033.343h.205ZM73.525,37.097v-.274h-.17v.274h.17ZM73.56,30.759l-.137.548h.17l.139-.548h-.172ZM73.492,34.219c-.104.274-.035.651.033.685.068-.034.24-.308.24-.479-.102-.103-.273-.206-.273-.206ZM73.765,32.952l.035-.308h-.172l-.035.308h.172ZM74.211,35.007h-.102l-.172.342.137.069.137-.411ZM74.588,51.176l-.137.445-.137-.103.102-.343h.172ZM74.965,39.187h-.104l-.17.308.137.068.137-.376ZM75,40.009h-.172v.274h.172v-.274ZM75.445,48.881l-.104-.479c-.24.171-.273.479-.445.617l.549-.137ZM75.787,42.372c-.104-.103-.104-.206-.104-.206-.137.206-.033.651-.033.856.102-.206.24-.651.377-.822-.137,0-.137.068-.24.171ZM75.822,32.027l.137.308c0-.034.273-.274.273-.308h-.41ZM78.972,41.961l.035-.479h-.172l-.035.479h.172ZM80.72,34.391c0,.103-.172.274-.172.274.068.103.24.137.24.137.033-.103-.068-.309-.068-.411ZM81.543,34.493l-.172-.034-.137.309.17.034.139-.309ZM81.507,35.213l-.172-.103-.102.103.17.103.104-.103ZM81.679,36.754c.102,0,.033.24.102.342.172-.103.24-.274.24-.342h-.342ZM82.843,32.746l.035-.685h-.207l-.033.685h.205ZM83.494,33.123l-.102-.137-.24.24.102.103.24-.206ZM85.105,35.384l-.172-.068-.172.274.172.069.172-.274ZM85.756,35.692v-.171h-.377v.171h.377ZM85.687,36.686l-.104-.548h-.172l.104.548h.172ZM86.201,49.258h-.137l-.172.719h.172l.137-.719ZM86.748,52.272c-.068-.137-.342-.24-.479-.24l.172-.342h.377c-.035.103.033.411-.07.582ZM87.056,51.519h-.17l.137-.583h.205l-.172.583ZM87.332,42.749l-.139-.206-.137.171.172.103.104-.068ZM87.056,43.332c.068.103.24.206.24.206,0-.103.309-.343.309-.377-.172,0-.48.171-.549.171ZM87.914,46.449l-.172-.103-.104.171.139.103.137-.171ZM88.05,41.379l-.104.137.172.206.104-.171-.172-.171ZM88.496,45.079v-.274h-.205v.274h.205ZM91.064,37.405l.068-.822h-.17l-.068.822h.17ZM94.216,36.789s0-.343-.068-.479c-.137.137-.24.548-.24.719l.309-.24ZM95.793,33.808l-.344-.274-.102.171.342.206.104-.103ZM97.711,51.484h-.172l-.033.308h.17l.035-.308ZM97.984,35.213l-.17-.171-.172.103.205.103.137-.034ZM98.191,36.069l-.07-.103-.273.24.068.103.275-.24ZM99.183,39.563c-.102.103-.172.274-.172.274.104.137.275.206.275.206.033-.103.033-.377-.104-.48ZM99.629,38.398l-.377-.171v-.171l.445.171-.068.171ZM99.388,40.934l-.033-.617.273-.103.205.651-.445.069ZM99.8,45.387c-.137-.308-.309-.753-.273-1.096,0-.377.238-.274.65-.617.137.583-.172,1.062-.377,1.713ZM99.697,54.499h-.17l.033-.48h.172l-.035.48ZM99.869,48.436h-.205l-.104-.788.48.171-.172.617Z"/>
    <path class="cls-1" d="M119.16,34.527c-.275,0-.754-.411-.959-.411-.24,0-.344.274-.412.171-.104-.034-.377.103-.686.103-.273,0-.615,0-.891.068-.102-.068-.17.171-.377.171-.273,0-.068-.274-.342-.274-.205,0-.205.034-.309.034,0-.103.035-.274-.068-.377-.342.377-.342.343-.48.343-.238,0,0,.171-.238.171-.275,0,.102-.171-.172-.171-.205,0-.205.274-.48.274-.205,0-.068-.24-.17-.274-.172.308-.172.274-.445.274-.207,0-.035.206-.309.206-.65,0-.789-.583-.822-.719-.24.137-.273.411-.273.616-.104,0-.068-.103-.344-.103-.205,0-.205.206-.377.377l-.342-.274c-.035.103-.104.171-.104.274-.102,0-.309-.103-.547-.171,0,0-.035.068-.104.171-.068.103.068.274.068.376-.172,0-.514-.034-.445.171v.171l-.24-.24c-.137.137-.273.342-.377.514,0-.103,0-.274-.102-.376-.068.103.033.137-.172.137-.273,0-.273-.034-.273,0,.24.171.445.343.514.548-.137-.035-.24-.103-.344-.206-.102.103-.17.171-.17.206.068.137.068.411,0,.548-.205.411-.582.959-.754,1.37-.104.445-.273,1.61-.549,1.782,0,0,.035.034.172.137v.548c-.273.274-.891.719-.514,1.267-.104,0-.309,0-.48.103.207.137.584-.034.822.445,0-.308.172-.583.035-.856.547-.24.686.377,1.336.856.102-.103,0-.274,0-.719.172.068.547-.035.719-.137,0,0-.068.103-.068.137.344.137.754.068,1.164-.035,0,0-.068-.068-.17-.068,0-.171.102-.308.205-.445v-.206c.172.103.24.377.377.377.273,0,0-.103.24-.103.273,0-.068.274.205.274.24,0,.514-.069.787-.377,0,.206-.137.308,0,.377.207-.206.412-.548.686-.822,0,0,.205.103.035.308l.205.137c.033,0,.205-.274.445-.274.033,0,.033-.103.479.103l.207-.206c0,.103,0,.206.137.309.033-.309.24-.514.205-.103l.172.171c.102-.068.17-.171.17-.274.035,0,.207.103.309.206.068-.171.344-.206.514-.206.104.206.275.479.377.753l.172-.171c.104,0,.104.171.205.274,0,0,.068-.103.068-.137.207.034.48.274.48.479s-.205.719-.445.994c.068.103.102.206.102.308-.273.24-.65.891-.684,1.096-.275-.206-.789,0-.891-.548-.104.137-.275.137-.445.24.102.103.273.034.377.034v.411c-.48-.24-.584-.137-.686-.137-.273,0-.068-.137-.172-.274-.068,0,0,.274-.273.274-.24,0,0-.034-.24-.034-.273,0-.205.103-.104.206-.102.103-.205-.034-.479-.034-.24,0-.344.376-.549.479-.068-.103-.377-.274-.514-.479-.137.206-.137.376-.309.582-.068-.103-.102-.274,0-.308-.102-.137-.238-.171-.342-.274-.205.308-.719.582-.926.582-.205,0-.547.171-.752.171-.24,0-.172.103-.412.103-.273,0,.137-.171-.137-.171h-.24c-.205.171-.582.274-.855.514h-.549c-.137-.24-.172-.514-.273-.719-.24.103-.344.377-.24.651-.309-.034-.205,0-.377-.274l-.377.376c-.104-.103-.24-.274-.549-.274,0,.171.207.343.445.411-.137.034-.273,0-.41-.137l-.104.24c0,.035.068.206.275.206-.275.274-.48.617-.582.891,0,0-.139.103.137.103.238,0,.033-.103.238-.308-.102-.103.104-.309.207-.309.102.514-.275.719-.275.994,0,.24.275.342.377.445-.102,0-.309.034-.342-.069l-.137.069c.615.342.754.925.377,1.37.102.103.17.068.273.171.172-.103,0-.24.205-.479.172.411.172.582.172.856.137-.103.342-.274.445-.274,0,.068-.205.206-.309.377.104.103.273,0,.48-.103,0,.103-.172.343-.172.48.172.137.445.274.65.274.273,0,.24-.034.273-.034,0,.034.172.206.07.308.17.068.445.068.752.274.139.069,0,.274.068.343.172,0,.445.103.48.342.24-.445.719-.137,1.096-.342,0,.103-.033.274-.137.377.104.068.104.24.309.24.273,0,.104-.171.377-.171.24,0,.342.171.445.377.104,0,.172-.206.104-.274.137,0,.41-.206.615-.342l-.17.24c.068.103-.035.171.17.171s.549-.274.822-.274.48.103.891.103c0-.103-.24-.274-.342-.377h.377l.273.274c.24-.137.273-.274.514-.514.035,0,.273.171.377.274.309-.171.309-.651.582-.651.24,0,.137.171.172.274.104-.103.172-.069.273-.171,0-.103-.17-.206-.273-.308.24,0,.342.034.549.274.17-.069.273-.343.342-.548.104.034.104.274.205.377.104-.103.344-.24.445-.274-.102.376-.754.651-.377,1.302-.102,0-.24.068-.342-.035l-.172.137v.343l.344.103c.102-.103,0-.206,0-.308.102,0,.205.034.342-.069-.137.103-.068.343-.068.548l-.549-.103c-.102.103-.273.035-.342.171l.068.651h.273c.104-.103-.068-.24-.068-.274.137,0,.273-.068.412-.103,0,.034-.139.308-.139.548l-.479-.137c-.104.137-.273.069-.377.171.104.103.205.068.273.068v.856h-.342s0-.103.068-.206c-.273-.103-.514-.171-.891-.171,0,.103.24.103.273.103-.033.24-.102.514-.205.617-.104-.206-.104-.445-.24-.617-.033.137-.102.171,0,.274-.102,0-.309,0-.582-.103,0,0,0,.068.035.171-.104.103-.137.445-.207.617-.17.034-.445.205-.615.308,0-.103.068-.206.068-.308-.068-.137.068-.069-.172-.069-.273,0-.377.206-.549.274-.102-.171-.033-.479-.17-.651-.137-.068-.205.171-.412.377-.17-.103-.41-.377-.684-.377-.207,0-.549.274-.754.274,0-.103,0-.24.102-.514-.102-.103-.17-.137-.273-.274-.104.068-.273.171-.377.411-.068-.137.068-.411-.172-.411-.273,0-.033.137-.307.137-.24,0-.412-.514-.686-.822-.104.103-.207.308-.377.377-.377,0-.822-.925-1.027-1.371-.068.103-.104.103-.377.103-.24,0-.24.171-.344.171,0-.069-.102-.274,0-.514-.068,0-.273-.103-.445.137,0-.068-.17-.274-.17-.411-.035-.103-.275-.103-.377-.103-.207-.309-.652-.651-.857-1.028-.137,0-.273-.068-.41-.068,0-.309-.48-1.302-.754-1.302-.205,0-.205.034-.344.034l.24-.206c-.992-1.165-1.164-2.192-1.369-3.494-.104-.514-.24-1.096-.377-1.713.033,0,.137-.171.102-.274-.068-.103-.17-.343-.273-.445.205-.034.309-.377.48-.583.068-.068,0-.274-.104-.411.104-.685.617-1.644.377-2.227.549-.342.273-.925.514-1.438.035.068.104.274.137.514.137-.274.068-.891.344-.891.205,0,.205.103.205.206l.137-.137c-.137-.137-.172-.171-.273-.171.102-.274.102-.719.137-1.062.24-.309.41-1.028.615-1.028.275,0-.068.103.207.103.238,0,.137-.274.238-.308-.068-.137.035-.343,0-.548.035.103.104.137.275.034-.104-.103-.344-.206-.377-.377.102.103.273.068.377-.068,0-.035-.24-.103-.344-.103.344-.479.652-1.199.891-1.644.104.171.207.514.309.788q.137.103.24.103c.104-.103.035.034.035-.24,0-.206-.377-.377-.377-.651,0-.206.445-1.405.719-1.405.205,0-.068.103.172.103.205,0,.102-.274.65-.651.104.034-.068.274.172.274.273,0,.992-.411,1.197-.411.207,0,.377.171.652.171.24,0-.035-.171.17-.171.275,0,0,.137.275.137.205,0,.377-.137.547-.171.104-.068.068-.274.275-.445.068.103.068.274.17.377.207-.034.275-.274.48-.274,0,.103-.035.24-.035.343q.104.034.207.171c.102-.137.17-.274.068-.411.102-.034.273-.103.309-.206.102.103.102.171.238.274.377-.103.857-.377,1.131-.377.172,0,.273.377.514.377.104-.103-.137-.171-.137-.274.137-.068.24-.103.342-.206l.207.206c.068-.103.238-.343.514-.343.205,0,.205.137.273.137.104.103,0,.308.104.479.273-.925,1.027-.377,1.85-.651.068-.103.342.103.445.171.068,0,.17.034.309-.068,0,0,.068.171.238.376.104,0,.172-.103.172-.206.273.206.617.377.994.72.102-.137.102-.24.102-.343.172.206.207,1.096-.068,1.37v.343h.137c.139,0,.207-.171.104-.411,0,0,.273-.034.48,0-.172.171-.275.514-.377.719,0,0-.068.069.068.171l.273-.342c0,.24-.24.616.035.616.238,0,.273-.068.377-.068,0,.068.137.343.137.445-.344.103-.721.514-.959.514ZM102.408,43.777l-.068-.103-.377.206.104.103.342-.206ZM102.716,40.694v-.274h-.137v.274h.137ZM103.263,39.769l-.205-.274-.102.103.205.274.102-.103ZM103.402,40.488v-.445h-.172v.445h.172ZM103.709,39.015l-.17-.068-.104.24.104.103.17-.274ZM104.052,37.816c-.104.137-.172.548-.377.685.205-.035.479-.206.479-.411,0-.274-.102-.24-.102-.274ZM104.531,41.139v-.171h-.547v.171h.547ZM104.326,36.583c-.102.274-.102.685-.172.788.207-.274.207-.342.617-.274,0-.24-.41-.377-.445-.514ZM104.361,47.339l-.137-.171-.07.103.104.171.104-.103ZM105.353,45.592l-.17-.171-.035.103.104.171.102-.103ZM106.074,33.432v-.274h-.172v.274h.172ZM106.347,41.927l-.104-.514h-.17l.102.514h.172ZM106.724,41.105v-.342h-.172v.342h.172ZM106.828,31.993c0,.103,0,.206-.207.206.207.171.275.342.377.342-.102-.103-.17-.445-.17-.548ZM106.965,39.598l-.137-.411h-.139l.104.411h.172ZM107.787,42.304c-.139,0-.139.479,0,.719,0-.137.102-.342.205-.342-.104-.103-.104-.274-.205-.377ZM109.259,42.475v-.24h-.275v.24h.275ZM109.705,44.256v-.274h-.172v.274h.172ZM110.183,42.03h-.102l-.172.206.172.068.102-.274ZM110.287,52.615l-.104-.137-.205.274.035.137.273-.274ZM110.287,32.815v-.206h-.172v.206h.172ZM111.074,41.755l-.137-.068-.102.274.102.069.137-.274ZM112,32.918l-.172-.034-.102.206.102.068.172-.24ZM112.855,41.481l-.137-.068-.137.24.137.034.137-.206ZM113.746,32.095l-.17-.034-.104.274.172.035.102-.274ZM113.746,41.139l-.17-.035-.104.274.172.034.102-.274ZM113.849,32.472h-.172l-.102.343.102.068.172-.411ZM113.746,53.197v-.377h-.17v.377h.17ZM114.123,55.492s-.102,0-.102-.274c0-.206.17-.309.273-.309v.446l-.172.137ZM114.398,43.674v-.274h-.172v.274h.172ZM114.843,32.815l-.172-.069-.205.445.102.069.275-.445ZM115.322,42.304c0-.103,0-.274-.102-.377-.035,0-.207.274-.207.377h.309ZM115.117,55.081c0-.068.104-.411.104-.514.102.103.238.342.102.377,0,0-.102.068-.205.137ZM115.289,53.471c.102.103.273.103.273.103,0-.034.104-.308.104-.411-.104,0-.377.205-.377.308ZM115.562,52.615c.104.103.273.103.273.103,0-.103.104-.376.104-.445-.104,0-.377.206-.377.343ZM116.007,51.553l-.068-.171-.273.171v.103l.342-.103ZM116.281,42.886c0-.103-.068-.274-.137-.377-.102,0-.273.274-.273.377h.41ZM118.302,31.273c-.102,0-.172.171-.273.274.102.068.309.103.377,0,0-.103-.104-.274-.104-.274ZM118.884,31.616c-.102,0-.377.103-.479.206l.273.24c0-.068.205-.137.205-.137v-.309Z"/>
    <path class="cls-1" d="M137.523,41.345c.035.103,0,.24,0,.342,0-.103-.17-.171-.309-.171-.102.103-.033.24,0,.343,0,.171.139.24.172.343.172.274.273.548.273.856,0,.206-.307.548-.307.72,0,0,0,.103.033.24.068.034,0,.206-.102.342-.445-.651.068-1.712-.412-2.329,0,0-.172-.069-.205.068-.068.103-.068.343-.068.479h-.104c-.068.137.172.411.205.651-.033,0-.273,0-.377.034.445.445.516.856.207,1.439l.17.137s.139-.035.24-.035c-.102.274-.342.788-.445,1.165,0-.103,0-.309-.24-.48-.033.103-.205.274-.273.343.068.274-.172.719-.068,1.165-.205-.034-.514-.034-.65.069.137.034.273.274.273.514,0,.206-.24.514-.24.719-.102,0-.205-.103-.342-.171-.104.103-.445.274-.205.342-.068.171-.309.343-.412.583l-.273-.343c-.104.206-.104.445-.104.617,0-.103-.137-.103-.24-.171-.273.206-.17.685-.102,1.062-.172,0-.309-.171-.582-.377,0,.206.068.377.102.617,0,0-.102,0-.205-.103-.41.548-.855.719-.787,1.233l-.24-.24c-.172.069-.205.343-.377.788-.137-.034-.24-.274-.309-.377-.102.103,0,.274,0,.514-.102-.137-.273-.342-.445-.24.104.103.172.343.24.617-.068-.171-.445-.377-.445-.719,0,0,.033-.068-.068-.171-.445.548-.273.856-.068,1.062,0,0-.172.068-.205.171-.139-.103-.412-.274-.48-.377.24-.24.172-.514,0-.994-.035.137.068.514-.137.514q-.24,0-.24-.034s-.068-.137-.068.103.309.445.41.685c-.102-.137-.238-.137-.273-.137-.137.137.104.171.104.411,0,.788-.686.445-.857,1.404-.068-.034-.342-.171-.514-.377-.172.274-.617.514-.514.994,0,0-.172-.034-.273-.103l.137-.24.104-.274-.172-.171h-.172l-.068.137c0,.103-.205.206-.205.445v.103c-.514-.103-.686-.376-.959-.788-.172.411-.48.616-.686,1.027-.137,0-.137-.24-.24-.308l-.205.171c-.137-.171.033-.377.033-.617-.033-.103-.033-.171-.102-.274-.172.103-.104.274-.412.274-.17,0-.65-.377-.959-.514,0-.274-.102-.651-.273-.959,0,0-.068.069-.068.171-.549-.206-.377-.719-.445-.959-.035-.103-.205-.274-.377-.274-.24-.411.104-.856-.48-.788v-1.473c.139,0,.172-.103.24-.24-.24-1.062.068-2.466.068-3.597v-1.542c.275-.035.721-.343.994-.617,0,0,.068-.069-.035-.103-.17.171-.582.171-.855.377v-.788c.104,0,.104.171.24.309.102-.137.033-.171.17-.309-.137-.034-.307-.274-.41-.445,0-.103.104-.342.104-.548,0-.068-.104-.171-.104-.479,0-.206.104-1.405.104-2.021,0,0,.068.103.17.24.137-.069.514-.24.412-.514-.068-.137-.068-.24-.104-.308-.137.068-.309.308-.41.308.102-.137.102-.308.17-.342.068-.617-.068-1.371.068-1.918.104-.411.275-.788.377-1.268,0-.103-.102-.274-.17-.377,0-.068.102-.24.102-.342.068,0,.137.068.24.171.104-.103.068-.103.172-.24-.104-.103-.344-.171-.412-.171.068-.274.48-.788.48-.994,0-.24-.172-.24-.24-.24-.068-.103-.068-.24-.068-.342s-.104-.103-.309-.103c-.309,0-.24,0-.479.206-.516-.891-.275-.617-.275-.206,0,0-.17.103-.273.103-.104-.206.068-.274-.068-.514-.035,0-.172.24-.377.24,0-.137.172-.411.205-.514v-.137c-.102.137,0,.137-.205.137-.24,0-.068-.411-.273-.411-.309,0-.172.068-.412.068.104-.171.24-.411-.068-.616v-.788s.172.103.309.103c.102-.24.273-.411.479-.514.07.068,0,.343.139.514.102,0,.102-.171.205-.411h.172c.068.24.17.342.342.616,0,0,.033,0,.172-.103,0-.034-.172-.274-.172-.514.205.24.342.616.617.788.102-.103.068-.171-.068-.206.17-.068.102-.24.41-.171-.068.103.068.137-.172.343l.172.103c.514-.274.891-.376,1.131-1.165.068-.24-.068-.583-.172-.925.104-.103.24-.103.273-.206,0-.068-.17-.171-.17-.274.068-.171.309-.309.479-.411.035-.343.035-.617-.068-.891.104,0,.344-.137.344-.343.17.206.719.171,1.061.171.24,0,.24-.308.24-.343h.445c.104.274.582.788.787.788.275,0,.24-.103.344-.103,0,.137.24.479.445.651.068.479.068,1.13.273,1.815-.102-.069-.172-.103-.273-.206-.48.034-.172.479-.104.788,0,.035-.102.171-.24.274,0,.068.172.171.412.206-.104.24-.172.822-.24,1.027,0-.103,0-.342-.102-.376h-.104c-.068.103-.24.171-.24.445,0,.206.104.445.445.616.172-.103.582-.445.582-.891.172.103.377.48.686.48.273,0,.172,0,.273-.103.104.24.104.514.172.856.205-.343.273-1.233.344-.959.102.411.102.788,0,1.062,0,.342.033.753.205.925-.104.103-.205.171-.344.274-.479-.274-1.336-.788-1.609-.788-.24,0,0,.171-.24.171s-.445-.137-.582-.308c-.104.137-.033.24.068.342-.342.24-.514.617-.855.959v.479c.238.308.684.891,1.027.993-.412.24-.719-.034-1.199.411.137.343.309.514.309.788,0,.24-.068.548-.24.685.068.034,0,.274,0,.377-.068,0-.24-.171-.342-.206h-.104c.035.103.172.274.273.376-.068.171-.273.171-.514.343.24.068.275.343.412.617.17-.171.033-.377,0-.548.205,0,.547-.342.686-.514.102.068.205.068.205.343,0,.206-.549.719-.959,1.13,0-.069-.104-.274-.377-.274-.309,0-.582.171-.754.445v.274l.102.171c.24-.171.24-.583.412-.686.24.069.445.583.686.583l.273-.068c0,.171.104.582,0,.788-.104-.103-.41-.103-.445-.342-.582.171-.104.514-.104.925-.238.103-.238.171-.238.274,0,.069.273,1.302-.584,1.302-.17,0-.273-.274-.547-.274.102.103.24.274.445.377,0,.103-.104.342-.344.445,0,.137.172.24.275.342.137,0,.17-.171.41-.342.172.137-.068.411.172.411.273,0,.104-.206.104-.343.102,0,.582.411.582.617,0,.274-.137.514-.24.788v.171c-.172-.103,0-.548-.445-.274,0,.377.24.514.514.514-.104.103-.24.377-.273.514,0-.137-.137-.343-.24-.514-.172.343-.172.548-.445.685l.445.309c0,.137-.24.171-.342.24l.068.342c.102-.171.445-.274.615-.445,0,.035-.068.206-.17.343.102.103-.068.103.238.103.207,0,.104-.068.207-.171.102.103.41.171.41.445,0,.24-.377.719-.377.959,0-.24-.102-.617-.205-.959-.104.103-.104-.034-.273-.034l-.172.171c0,.103.172.137.273.137.068.171-.17.411-.033.583l.205-.171v.617l.24.171c.102,0,.273-.171.342-.376,0,0,.035.103.172.206-.137.103-.412.342-.754.445l-.172.171c.137.24.172.48.172.788.273-.103.445-.308.617-.479.238-.24.342-.651.582-.925.172-.171.205,0,.377-.343l.137-.103s0,.103.104.24c.238-.069.17-.309.342-.411,0-.103,0-.171.068-.274.104-.24.549-.343.65-.445.617-.651,1.199-1.302,1.611-1.816.547-.685,1.129-1.712,1.609-2.604.172-.445.479-1.027.582-1.542.068-.103.172-.103.205-.206.137-.308.344-.685.412-1.027.068-.343.068-1.37.068-1.816,0-.205.172-.548.172-.788,0-.206-.344-1.028-.516-1.507-.068-.171-1.197-1.713-1.541-1.713-.273,0,.068.103-.205.103-.24,0-.514-.206-.787-.343-.139-.137-.172-.479-.309-.719,0-.514.137-.514.137-.617.104,0,.273.171.549.171.238,0,.41-.171.514-.411,0,.24.102.24.17.308l.207-.171c0,.103.068.274-.207.274-.238,0-.17-.103-.238-.103,0,0-.104.035-.104.206.068,0,.24.103.41.103.275,0,.275-.206.377-.206.104.103,0,.274.24.514.104,0,.205-.137.205-.308.24.171.617.342.857.582.102.377.342,1.062.787,1.233,0,0-.068.068-.102.137.514.034.205-.171.615-.411.068.274-.068.617-.068.891.137.24.172.411.309.685.205-.034.035-.103.035-.343v-.719c.238.103.238.377.41.377.104-.103.035-.343.035-.377.41.788.479.548.582,1.405,0,0-.104.103.102.103.275,0,.275-.103.412-.103,0,0,.033.274-.172.274l-.172-.103c0,.103-.102.24-.068.343.24.274.445.788.514,1.13,0,.24-.068.377-.068.685.139,0,.24-.068.309-.171.035-.137.104-.342.205-.582.172.308.24.788.344.788-.205.411.172.788.172,1.268,0,.206-.172.377-.207.548ZM121.869,32.13v-.411h-.172v.411h.172ZM122.486,47.613h-.172l-.137.24.172.069.137-.309ZM122.486,48.573l-.172-.035-.137.206.172.069.137-.24ZM122.519,45.695l-.033-.171-.24.137v.171l.273-.137ZM122.759,31.89v-.376h-.172v.376h.172ZM123.205,53.677h-.172v-.274h.172v.274ZM123.377,40.831h-.172l-.104.479h.172l.104-.479ZM123.273,40.009c0,.205.104.479.104.616.102-.137.273-.137.41-.137-.137-.206-.41-.479-.514-.479ZM123.445,37.782c0,.274.17.274.17.411.104-.24.104-.617.207-.925-.104.171-.377.343-.377.514ZM124.164,38.741l-.104-.377-.102.034.102.343h.104ZM124.404,50.114l-.137-.069-.172.24.172.069.137-.24ZM124.267,48.813c-.104,0,.137.411.238.514.24-.171.344-.445.344-.583-.24.069-.445-.034-.582.069ZM124.677,38.912l-.102-.034-.139.274.139.034.102-.274ZM125.021,36.72c-.172-.068-.344-.342-.516-.445v.343c-.068.206.344.377.721.651-.137-.206-.137-.479-.205-.548ZM125.705,42.132c-.137,0-.17.309-.309.514-.205-.103-.307-.274-.445-.274.139.171.412.548.516.788,0-.103.238-.24.238-.445v-.583ZM125.466,48.298c0-.103-.172-.376-.275-.514,0,.137-.102.411-.102.514h.377ZM125.396,39.495v-.308h-.17v.308h.17ZM125.705,45.969c0-.206-.342-.617-.342-.72-.137.343-.068.617-.068.72h.41ZM125.568,41.173c-.033.068-.273.342-.205.445.273-.206.617-.479.855-.788-.238.137-.514.309-.65.343ZM125.636,54.396h-.17l-.104.343.104.068.17-.411ZM125.74,33.432c-.104,0-.205.068-.344.068v.891c.172-.103.412-.343.584-.343-.172-.171-.172-.616-.24-.616ZM125.705,48.983v-.342h-.17v.342h.17ZM126.254,43.948c-.068-.068-.445-.103-.65-.171.445-.103.686-.48.787-.48,0,0-.033.514-.137.651ZM126.322,50.971l-.41-.137v.137l.342.103.068-.103ZM126.082,29.766c.137.24.068.548.068.788.068-.103.207-.24.344-.24,0-.171-.275-.445-.412-.548ZM126.254,27.745c-.104.479,0,1.13-.104,1.61.104-.445.445-.959.445-1.233,0-.24-.273-.274-.342-.376ZM126.527,34.391v-.274h-.17v.274h.17ZM126.357,35.315c0,.206.17.822.307,1.233.104-.617-.068-1.302,0-1.713-.068.068-.307.171-.307.479ZM126.595,44.188l-.102.103-.137-.171.137-.103.102.171ZM126.595,44.53l-.102.034-.137-.103.137-.103.102.171ZM126.836,42.578l-.24.479-.102-.068.205-.445.137.034ZM126.699,50.114h-.172v-.274h.172v.274ZM127.041,42.132c.139,0,0,.171-.033.309-.137,0-.412-.171-.412-.411l.445.103ZM127.041,30.211v-.548h-.17v.548h.17ZM127.213,28.636v-.788h-.172v.788h.172ZM127.213,38.57h-.172v-.514h.172v.514ZM127.521,35.658l-.377-.445.445-.171c.104.103.205.411.342.617h-.41ZM127.554,37.166c-.068.068.07.274.07.411-.139,0-.275-.137-.412-.24v-.445c.137,0,.342-.068.582-.103.104.034.205.377.205.445-.102,0-.342-.068-.445-.068ZM128.07,54.19c0-.137.102-.411,0-.514-.172.103-.584.342-.721.377.035.171.205.24.309.24.137-.103.137-.171.172-.274l.24.171ZM127.658,30.006l-.172-.068-.102.274.102.068.172-.274ZM127.83,28.293l-.104-.068-.172.24.172.068.104-.24ZM128.343,32.472l-.273.24-.07-.137.24-.206.104.103ZM128.48,53.094l-.137.856c.068.103.24.103.24.103,0-.274.033-.617-.104-.959ZM129.097,48.641l-.172-.171-.137.103.172.171.137-.103ZM130.502,51.313l-.172-.068-.102.274.102.068.172-.274ZM130.775,32.883c-.205,0-.205.171-.342.034.137-.103.309-.342.41-.445-.068.171.344.583.514.685-.514-.171-.342-.274-.582-.274ZM131.187,51.587l-.139-.171-.102.103.102.171.139-.103ZM131.289,34.665l-.102-.548h-.172l.104.548h.17ZM131.392,50.799c0,.103-.205.103-.205.103.102.171.342.274.342.411,0-.171-.137-.411-.137-.514ZM131.802,34.185l-.238-.411-.172.103.309.342.102-.034ZM132.933,34.048l-.172-.034-.102.274.17.069.104-.309ZM133.652,46.791c0,.103-.273.274-.273.377.24.103.514.411.582.514.104-.274-.17-.514-.309-.891ZM133.824,48.983v-.342h-.172v.342h.172ZM134.338,49.258l-.102.445h-.172l.102-.445h.172ZM135.195,37.782c0,.069-.172.171-.172.445,0,.24.172.48.273.514,0-.274-.033-.685-.102-.959ZM135.468,39.495v-.308h-.172v.308h.172ZM135.742,36.274l-.102-.068-.172.274.172.069.102-.274ZM135.64,45.489h.41c0-.342.172-.582.273-.788-.273-.068-.615.548-.684.788ZM135.742,37.919v.308c.172,0,.48-.171.48-.206l-.48-.103ZM136.324,38.364c-.102.343-.17.719-.273.994-.137,0-.172-.171-.309-.171,0,.137.137.171.137.411h.344c.102-.24.309-.343.309-.548,0-.308-.207-.479-.207-.685ZM136.531,40.831c.137-.034.17-.206.17-.274-.17-.343-.102-.719-.102-1.062-.068,0-.275.171-.275.377,0,.308.104,1.028.207,1.438.137,0,.41-.137.514-.137-.275-.034-.344-.103-.514-.343ZM137.285,40.625v-.616h-.172v.616h.172Z"/>
    <path class="cls-1" d="M152.84,43.468c0,.171.17.514.102.685-.205.309-.309.822-.65,1.233.205.343.137.856.342,1.062-.273.103-.615.411-.787.822-.137-.137-.205-.377-.41-.48-.068.171-.309.514.205.788v.514c-.273.171-.377.514-.377.72,0-.548.033-.377.033-.548,0-.24-.375-.206-.479-.377l-.137.171c0,.103.24.309.24.274h-.24c0,.137-.104.274-.104.446,0,.274.068.274.24.376.104-.034.104.309-.172.514.068-.137.068-.206.068-.445l-.377.205c.172.069.035.309.24.48-.205.206,0,.206-.342.274-.137.068.137.103.137.342,0,.274-.309.686-.445.959-.104,0-.172-.103-.273-.24h-.48c0,.24-.104.514,0,.856-.172-.24-.445-.24-.549-.377-.238.445.377.617-.102,1.062-.137-.069-.137-.274-.445-.514l-.035.103c0,.137-.068.411.137.583-.137.068-.377.274-.377.445-.102-.103-.205-.171-.307-.309-.139.206-.139.309.033.479-.172,0-.205-.171-.342-.274-.104,0-.035.206-.035.343-.137-.137-.273,0-.547-.137l-.172.171c.104.137.24.137.172.24-.104-.103-.344,0-.445-.171-.207.068-.275.479-.549.479-.24,0-.48.103-.719.103-.275,0-.104-.206-.377-.206-.275,0-.172.103-.172.206l-.445-.411c-.445,0-.926-.24-1.301-.24,0,0,.102,0,.205-.103,0,0,.068-.068-.035-.171-.137.103-.309.24-.309.342-.307-.411-.65-.788-1.061-.856-.48-.514-1.268-1.233-1.611-1.747-.102-.206-.377-.617-.582-.959.104,0,.273.068.273,0-.102-.171-.273-.24-.41-.24.24-.479-.205-.994-.377-1.61-.033-.308.068-.753.205-1.13-.137-.342-.342-.479-.342-.753,0-.206.104-.034.033-.171.07-.342.309-.685.172-.959.137,0,.377.068.617.274l.102-.171c-.17-.034-.17-.308-.445-.308-.273,0-.137.034-.273.034.205-.137.205-.514.549-.719-.104-.137-.275-.069-.412.034.172-.274.412-.548.582-.685-.102-.137-.17-.103-.273-.103.172-.514.205-1.096.273-1.507,0,0-.068-.137-.17-.068.102-.171.17-.514.273-.788,0-.342,0-1.473.549-1.473,0-.103-.172-.171-.275-.377.104,0,.207.034.412.171,0-.343.172-.925.479-1.302.035-.137-.17-.171-.17-.274s.205-.103.273-.206c-.068-1.028.65-2.638,1.781-3.597.24-.24.172-.685.172-.925,0-.788.24-1.507.342-2.158l.205-.24c.104,0,.412.171.445.377h.344c0-.137.205-.479-.068-.479-.275,0-.172.068-.445.068.137-.206.514-.479.514-.754-.035.103.959.035.547.206.207.171.275.069.275.069,0,.103-.137.274.102.274.309,0,.172-.068.309-.068-.033,0-.205.206-.137.479.104-.034.205-.274.309-.411.068.137.24.206.342.206-.273.171.068.377.275.377h.445c-.068.034-.104.137,0,.274.137,0,.307-.24.307-.445.07.137.24.206.275.274.514.685,1.369,1.062,1.369,1.13,0,.206-.17.103-.377.377.035.103.207.377.377.377.24,0,.172-.069.344-.069-.172.137-.275.069-.344.377.068,0,.24.068.377.068.068-.274.137-.685,0-1.096.172.24.617.445.822.788.172.206.48.479.686.753.035.103.035.24,0,.377,0,0-.273.103,0,.103s.137-.069.273-.069l-.238.24c.238.309.41.583.65,1.028,0,0-.205.171-.035.411l.205-.171c.172.445.48,1.028.617,1.473.035.034-.068.171-.137.274.172.274.41.411.582.514-.068,0-.273.137-.377.068-.445.206.068.308.377.445h-.273c0,.206,0,.514.102.719-.102.068,0,.24-.273.24s-.068,0-.273-.103v.479c.068,0,.137-.171.273-.274h.445c.068.068.137.376.273.582-.137.171-.342.651-.445,1.165,0,0,0,.068.104.068.205-.206.137-.617.273-.788.068,0,.24,0,.344-.103,0,.103-.172.206-.275.308.172.377.377.583.48.856-.172-.034-.273-.171-.309-.342-.137.171.035.308.035.582,0,.137.137.445.445.959-.24.206-.377.206-.445.342ZM140.131,40.283l-.068-.206-.207.206v.103l.275-.103ZM141.431,42.886h-.172l-.102.342.172.068.102-.411ZM141.98,45.935l-.035-.171-.377.137v.206l.412-.171ZM149.105,41.31c.172-.445.137-.856.137-1.233-.24-.309-.172-.754-.172-.891,0-.411-.137-.856-.273-1.233-.104-.479-.273-.719-.342-1.062-.24-.342-.48-.445-.549-.651l.273-.24c-.307-.068-.855-1.13-.924-1.507-.24.171-.719.274-.891.548-.104-.068-.104-.171-.205-.171v.274c0,.274-.139.24-.275.24.137.206.275.48.137.617,0,.103.139.274.07.377l-.275-.206v.206c-.205.171-.309.548-.445.753.137.103.344.274.137.274-.068,0-.273.103-.273.445,0,.206.137.308.273.411-.377.24-.445.548-.547.891h-.549l-.24.24c.549.274.344.891.24,1.027-.068-.034-.104-.137-.24-.137,0-.343-.033-.548-.17-.651-.104.479.137.959.137,1.336-.137,0-.24-.103-.24-.103.104.274.104.651,0,.788-.137,0-.309-.068-.445-.068,0,.582.24,1.199.137,1.712-.137,0-.342-.137-.41-.137,0,.137-.137.411-.137.479.205.206.41.274.41.377-.205.068-.48.068-.514.137v.651c0,.309-.342.583-.342.856,0,.24.342.445.342.514-.137.274-.068.719-.172,1.027.035.103.172.171.205.274-.033.103-.547,0-.719,0,.172.274.273.719.172.959-.172,0-.205-.068-.309-.171,0,.103-.137.24-.137.719.172.343.24.651.617.754-.275-.274-.139-.411.033-.685.068.479-.104.479.309.685v.548c-.24.24-.24.445-.342.651.547.309,1.027.309,1.473.48-.068.137-.309.171-.309.24.24.103.41.342.479.548.104-.206.275-.377.275-.617,0-.274-.207-.274-.344-.342.344-.445.721-.788.891-.788.309,0,.275.137.275.137.205-1.062.205-.925.924-1.268.104.137.104.206.104.206v-.377c-.035,0-.172-.034-.205-.171.033-.103.17-.103.17-.103.344-.171.412-.445.652-.719.033,0,.17.034.17.034-.068-.103-.273-.206-.41-.274.24-.103.41,0,.41,0,0-.24.104-.445.377-.617-.172-.103-.342-.171-.205-.274.137.103-.068.103.24.103.238,0,.615-.583.719-.891-.377.206-.377.377-.719.479l-.035-.308c.104-.137.205-.171.344-.274.102.103.205.103.205.103-.035-.343,0-.754.137-1.028.137.103.137.069.137.069.035-.171.342-.24.549-.48-.822-.445.102-1.336.17-1.953.035-.342-.137-1.096.309-1.438-.102,0-.137,0-.273-.103ZM142.425,51.758l-.172-.377-.137.035.137.342h.172ZM143.043,51.313c-.104.274.102.445,0,.548,0-.103.479-.103.479-.309,0-.24-.479-.24-.479-.24ZM143.761,39.187l-.068-.034-.377.308.102.103.344-.376ZM144.789,38.536l-.172-.034-.137.274.137.034.172-.274ZM144.892,51.142l-.172-.068-.104.24.104.068.172-.24ZM145.166,51.142v-.479h-.172v.479h.172ZM145.338,35.11c.102,0,.033.309.033.479.137,0,.309,0,.412-.171-.104-.206-.344-.309-.445-.309ZM146.16,49.669c-.068.137-.275.137-.275.137.137.103.309.137.445.274,0-.137-.068-.274-.17-.411ZM146.365,51.724c-.172.103-.344.274-.48.342.137,0,.137-.068.377-.068.275,0,.24.103.24.103,0-.103,0-.274-.137-.377ZM146.433,52.443c.104.103.24.343.24.445.137-.103.205-.376.068-.548-.137,0-.309.103-.309.103ZM146.605,53.094l-.104.24.172.069.137-.206-.205-.103ZM147.152,48.778c-.137.103-.547.445-.547.685,0,.274.205.342.205.376.102-.034.205,0,.342,0v-1.062ZM147.084,50.114l-.172-.171-.033.137.104.103.102-.068ZM147.357,48.264l-.102.24.102.034.172-.274h-.172ZM147.802,52.683h-.273v.171h.273v-.171ZM148.523,50.08v-.411c-.068-.035-.344-.137-.445-.206-.104.206-.377.342-.377.548,0,.274.342.24.377.24-.035-.171,0-.411.102-.445l.344.274ZM148.523,51.21v-.171l-.48.103v.171l.48-.103ZM148.523,46.415c-.172.103-.344.376-.344.479.104-.103.275-.103.344-.103v-.376ZM148.556,50.594h-.17v.274h.17v-.274ZM148.9,45.489c-.172.103-.207.514-.445.686.238-.035.547-.035.547-.343,0-.24-.102-.24-.102-.343ZM148.625,48.675c-.102,0-.17.308-.17.308.102.343.273.686.547.856-.102-.376-.273-.891-.377-1.165ZM148.9,34.665l-.104-.103-.24.103v.137l.344-.137ZM149.55,50.285c-.273.309-.445.686-.445.856.137,0,.41-.103.549-.206-.309-.342-.104-.342-.104-.651ZM149.654,42.03v-.274h-.207v.274h.207ZM150.168,33.911l-.275-.274c-.137.206-.137.48-.137.617l.412-.342ZM150.099,42.201v-.171h-.207v.171h.207ZM150.922,47.202l-.172-.068-.104.24.172.034.104-.206ZM150.715,44.428v.788c.207,0,.412-.171.412-.411,0-.206-.309-.445-.412-.376ZM151.091,39.255l-.205-.377-.137.069.137.308h.205ZM151.435,42.338c-.139-.137-.139-.308-.139-.308-.102.137-.307.171-.307.308h.445ZM151.127,43.777h.342c.137-.103.172-.274.24-.377-.172.103-.514.171-.582.377ZM151.468,40.454c-.033.068-.102.342-.102.582.102,0,.273.034.41-.068-.137-.068-.309-.343-.309-.514ZM152.086,45.318c-.137,0-.172.068-.24.171-.137-.103-.309,0-.309,0,.24.171.412.343.549.274v-.445ZM152.632,43.126v-.171h-.992v.171h.992ZM152.119,42.27c-.102,0-.273.103-.273.103.104.137.172.343.273.411.068,0,.24-.137.24-.137-.068-.137-.102-.274-.24-.377ZM152.359,43.4c-.102,0-.273.103-.273.103.102.137.102.274.102.343.104,0,.309-.068.445-.068,0-.103-.137-.309-.273-.377Z"/>
  </g>
</svg>